ISO-10303-21;
HEADER;
FILE_DESCRIPTION(('Open CASCADE Model'),'2;1');
FILE_NAME('Open CASCADE Shape Model','2026-03-25T11:24:43',('Author'),(
    'Open CASCADE'),'Open CASCADE STEP processor 7.8','Open CASCADE 7.8'
  ,'Unknown');
FILE_SCHEMA(('AUTOMOTIVE_DESIGN { 1 0 10303 214 1 1 1 1 }'));
ENDSEC;
DATA;
#1 = APPLICATION_PROTOCOL_DEFINITION('international standard',
  'automotive_design',2000,#2);
#2 = APPLICATION_CONTEXT(
  'core data for automotive mechanical design processes');
#3 = SHAPE_DEFINITION_REPRESENTATION(#4,#10);
#4 = PRODUCT_DEFINITION_SHAPE('','',#5);
#5 = PRODUCT_DEFINITION('design','',#6,#9);
#6 = PRODUCT_DEFINITION_FORMATION('','',#7);
#7 = PRODUCT('Open CASCADE STEP translator 7.8 1',
  'Open CASCADE STEP translator 7.8 1','',(#8));
#8 = PRODUCT_CONTEXT('',#2,'mechanical');
#9 = PRODUCT_DEFINITION_CONTEXT('part definition',#2,'design');
#10 = ADVANCED_BREP_SHAPE_REPRESENTATION('',(#11,#15),#846);
#11 = AXIS2_PLACEMENT_3D('',#12,#13,#14);
#12 = CARTESIAN_POINT('',(0.,0.,0.));
#13 = DIRECTION('',(0.,0.,1.));
#14 = DIRECTION('',(1.,0.,-0.));
#15 = MANIFOLD_SOLID_BREP('',#16);
#16 = CLOSED_SHELL('',(#17,#175,#179,#229,#256,#354,#518,#524,#551,#707,
    #809,#836,#842));
#17 = ADVANCED_FACE('',(#18),#32,.T.);
#18 = FACE_BOUND('',#19,.T.);
#19 = EDGE_LOOP('',(#20,#50,#91,#120,#147,#148));
#20 = ORIENTED_EDGE('',*,*,#21,.T.);
#21 = EDGE_CURVE('',#22,#24,#26,.T.);
#22 = VERTEX_POINT('',#23);
#23 = CARTESIAN_POINT('',(-12.32813367506,-5.987134455261,
    -0.690988298943));
#24 = VERTEX_POINT('',#25);
#25 = CARTESIAN_POINT('',(-12.32651173278,-0.635209409339,
    -0.690988298943));
#26 = SEAM_CURVE('',#27,(#31,#43),.PCURVE_S1.);
#27 = LINE('',#28,#29);
#28 = CARTESIAN_POINT('',(-12.32813367506,-5.987134455261,
    -0.690988298943));
#29 = VECTOR('',#30,1.);
#30 = DIRECTION('',(3.030577205494E-04,0.999999954078,
    -1.203706215242E-35));
#31 = PCURVE('',#32,#37);
#32 = CYLINDRICAL_SURFACE('',#33,0.690988298943);
#33 = AXIS2_PLACEMENT_3D('',#34,#35,#36);
#34 = CARTESIAN_POINT('',(-13.01912194227,-5.986925045922,
    -0.690988298943));
#35 = DIRECTION('',(3.030577205494E-04,0.999999954078,0.));
#36 = DIRECTION('',(0.999999954078,-3.030577205494E-04,0.));
#37 = DEFINITIONAL_REPRESENTATION('',(#38),#42);
#38 = LINE('',#39,#40);
#39 = CARTESIAN_POINT('',(6.28318530718,-0.));
#40 = VECTOR('',#41,1.);
#41 = DIRECTION('',(0.,1.));
#42 = ( GEOMETRIC_REPRESENTATION_CONTEXT(2) 
PARAMETRIC_REPRESENTATION_CONTEXT() REPRESENTATION_CONTEXT('2D SPACE',''
  ) );
#43 = PCURVE('',#32,#44);
#44 = DEFINITIONAL_REPRESENTATION('',(#45),#49);
#45 = LINE('',#46,#47);
#46 = CARTESIAN_POINT('',(0.,-0.));
#47 = VECTOR('',#48,1.);
#48 = DIRECTION('',(0.,1.));
#49 = ( GEOMETRIC_REPRESENTATION_CONTEXT(2) 
PARAMETRIC_REPRESENTATION_CONTEXT() REPRESENTATION_CONTEXT('2D SPACE',''
  ) );
#50 = ORIENTED_EDGE('',*,*,#51,.F.);
#51 = EDGE_CURVE('',#52,#24,#54,.T.);
#52 = VERTEX_POINT('',#53);
#53 = CARTESIAN_POINT('',(-13.70848826721,-0.634790590661,
    -0.690988298943));
#54 = SURFACE_CURVE('',#55,(#60,#73),.PCURVE_S1.);
#55 = ELLIPSE('',#56,0.977205023806,0.690988298943);
#56 = AXIS2_PLACEMENT_3D('',#57,#58,#59);
#57 = CARTESIAN_POINT('',(-13.0175,-0.635,-0.690988298943));
#58 = DIRECTION('',(2.142941692914E-04,0.707106748715,0.707106781187));
#59 = DIRECTION('',(2.142941692914E-04,0.707106748715,-0.707106781187));
#60 = PCURVE('',#32,#61);
#61 = DEFINITIONAL_REPRESENTATION('',(#62),#72);
#62 = B_SPLINE_CURVE_WITH_KNOTS('',8,(#63,#64,#65,#66,#67,#68,#69,#70,
    #71),.UNSPECIFIED.,.F.,.F.,(9,9),(1.570795461417,4.712388952908),
  .PIECEWISE_BEZIER_KNOTS.);
#63 = CARTESIAN_POINT('',(3.141591788212,5.351925889659));
#64 = CARTESIAN_POINT('',(3.534290974648,5.080575346827));
#65 = CARTESIAN_POINT('',(3.926990161081,4.809222534975));
#66 = CARTESIAN_POINT('',(4.319689347523,4.601657687512));
#67 = CARTESIAN_POINT('',(4.712388533939,4.521496473004));
#68 = CARTESIAN_POINT('',(5.105087720396,4.601657396639));
#69 = CARTESIAN_POINT('',(5.497786906829,4.809222026774));
#70 = CARTESIAN_POINT('',(5.890486093267,5.080574729875));
#71 = CARTESIAN_POINT('',(6.283185279703,5.351925272707));
#72 = ( GEOMETRIC_REPRESENTATION_CONTEXT(2) 
PARAMETRIC_REPRESENTATION_CONTEXT() REPRESENTATION_CONTEXT('2D SPACE',''
  ) );
#73 = PCURVE('',#74,#79);
#74 = CYLINDRICAL_SURFACE('',#75,0.690988298943);
#75 = AXIS2_PLACEMENT_3D('',#76,#77,#78);
#76 = CARTESIAN_POINT('',(-13.0175,-0.635,-0.690988298943));
#77 = DIRECTION('',(0.,0.,1.));
#78 = DIRECTION('',(1.,0.,-0.));
#79 = DEFINITIONAL_REPRESENTATION('',(#80),#90);
#80 = B_SPLINE_CURVE_WITH_KNOTS('',8,(#81,#82,#83,#84,#85,#86,#87,#88,
    #89),.UNSPECIFIED.,.F.,.F.,(9,9),(1.570795461417,4.712388952908),
  .PIECEWISE_BEZIER_KNOTS.);
#81 = CARTESIAN_POINT('',(3.141288730486,-5.979662017763E-07));
#82 = CARTESIAN_POINT('',(3.533987916923,0.271349944866));
#83 = CARTESIAN_POINT('',(3.926687103363,0.542702756717));
#84 = CARTESIAN_POINT('',(4.319386289781,0.750267604189));
#85 = CARTESIAN_POINT('',(4.712085476243,0.83042881866));
#86 = CARTESIAN_POINT('',(5.104784662657,0.750267895051));
#87 = CARTESIAN_POINT('',(5.497483849108,0.542703264917));
#88 = CARTESIAN_POINT('',(5.890183035542,0.271350561818));
#89 = CARTESIAN_POINT('',(6.282882221978,1.898579904402E-08));
#90 = ( GEOMETRIC_REPRESENTATION_CONTEXT(2) 
PARAMETRIC_REPRESENTATION_CONTEXT() REPRESENTATION_CONTEXT('2D SPACE',''
  ) );
#91 = ORIENTED_EDGE('',*,*,#92,.F.);
#92 = EDGE_CURVE('',#93,#52,#95,.T.);
#93 = VERTEX_POINT('',#94);
#94 = CARTESIAN_POINT('',(-13.0175,-0.635,-1.381976597885));
#95 = SURFACE_CURVE('',#96,(#101,#108),.PCURVE_S1.);
#96 = CIRCLE('',#97,0.690988298943);
#97 = AXIS2_PLACEMENT_3D('',#98,#99,#100);
#98 = CARTESIAN_POINT('',(-13.0175,-0.635,-0.690988298943));
#99 = DIRECTION('',(3.030577205494E-04,0.999999954078,0.));
#100 = DIRECTION('',(0.999999954078,-3.030577205494E-04,0.));
#101 = PCURVE('',#32,#102);
#102 = DEFINITIONAL_REPRESENTATION('',(#103),#107);
#103 = LINE('',#104,#105);
#104 = CARTESIAN_POINT('',(0.,5.351925291693));
#105 = VECTOR('',#106,1.);
#106 = DIRECTION('',(1.,0.));
#107 = ( GEOMETRIC_REPRESENTATION_CONTEXT(2) 
PARAMETRIC_REPRESENTATION_CONTEXT() REPRESENTATION_CONTEXT('2D SPACE',''
  ) );
#108 = PCURVE('',#109,#114);
#109 = SPHERICAL_SURFACE('',#110,0.690988298943);
#110 = AXIS2_PLACEMENT_3D('',#111,#112,#113);
#111 = CARTESIAN_POINT('',(-13.0175,-0.635,-0.690988298943));
#112 = DIRECTION('',(0.,0.,1.));
#113 = DIRECTION('',(1.,0.,-0.));
#114 = DEFINITIONAL_REPRESENTATION('',(#115),#119);
#115 = LINE('',#116,#117);
#116 = CARTESIAN_POINT('',(3.141289595865,-3.14159265359));
#117 = VECTOR('',#118,1.);
#118 = DIRECTION('',(-0.,1.));
#119 = ( GEOMETRIC_REPRESENTATION_CONTEXT(2) 
PARAMETRIC_REPRESENTATION_CONTEXT() REPRESENTATION_CONTEXT('2D SPACE',''
  ) );
#120 = ORIENTED_EDGE('',*,*,#121,.F.);
#121 = EDGE_CURVE('',#24,#93,#122,.T.);
#122 = SURFACE_CURVE('',#123,(#128,#135),.PCURVE_S1.);
#123 = CIRCLE('',#124,0.690988298943);
#124 = AXIS2_PLACEMENT_3D('',#125,#126,#127);
#125 = CARTESIAN_POINT('',(-13.0175,-0.635,-0.690988298943));
#126 = DIRECTION('',(3.030577205494E-04,0.999999954078,0.));
#127 = DIRECTION('',(0.999999954078,-3.030577205494E-04,0.));
#128 = PCURVE('',#32,#129);
#129 = DEFINITIONAL_REPRESENTATION('',(#130),#134);
#130 = LINE('',#131,#132);
#131 = CARTESIAN_POINT('',(0.,5.351925291693));
#132 = VECTOR('',#133,1.);
#133 = DIRECTION('',(1.,0.));
#134 = ( GEOMETRIC_REPRESENTATION_CONTEXT(2) 
PARAMETRIC_REPRESENTATION_CONTEXT() REPRESENTATION_CONTEXT('2D SPACE',''
  ) );
#135 = PCURVE('',#136,#141);
#136 = SPHERICAL_SURFACE('',#137,0.690988298943);
#137 = AXIS2_PLACEMENT_3D('',#138,#139,#140);
#138 = CARTESIAN_POINT('',(-13.0175,-0.635,-0.690988298943));
#139 = DIRECTION('',(0.,0.,1.));
#140 = DIRECTION('',(1.,0.,-0.));
#141 = DEFINITIONAL_REPRESENTATION('',(#142),#146);
#142 = LINE('',#143,#144);
#143 = CARTESIAN_POINT('',(6.282882249454,0.));
#144 = VECTOR('',#145,1.);
#145 = DIRECTION('',(0.,-1.));
#146 = ( GEOMETRIC_REPRESENTATION_CONTEXT(2) 
PARAMETRIC_REPRESENTATION_CONTEXT() REPRESENTATION_CONTEXT('2D SPACE',''
  ) );
#147 = ORIENTED_EDGE('',*,*,#21,.F.);
#148 = ORIENTED_EDGE('',*,*,#149,.T.);
#149 = EDGE_CURVE('',#22,#22,#150,.T.);
#150 = SURFACE_CURVE('',#151,(#156,#163),.PCURVE_S1.);
#151 = CIRCLE('',#152,0.690988298943);
#152 = AXIS2_PLACEMENT_3D('',#153,#154,#155);
#153 = CARTESIAN_POINT('',(-13.01912194227,-5.986925045922,
    -0.690988298943));
#154 = DIRECTION('',(3.030577205494E-04,0.999999954078,0.));
#155 = DIRECTION('',(0.999999954078,-3.030577205494E-04,0.));
#156 = PCURVE('',#32,#157);
#157 = DEFINITIONAL_REPRESENTATION('',(#158),#162);
#158 = LINE('',#159,#160);
#159 = CARTESIAN_POINT('',(0.,0.));
#160 = VECTOR('',#161,1.);
#161 = DIRECTION('',(1.,0.));
#162 = ( GEOMETRIC_REPRESENTATION_CONTEXT(2) 
PARAMETRIC_REPRESENTATION_CONTEXT() REPRESENTATION_CONTEXT('2D SPACE',''
  ) );
#163 = PCURVE('',#164,#169);
#164 = PLANE('',#165);
#165 = AXIS2_PLACEMENT_3D('',#166,#167,#168);
#166 = CARTESIAN_POINT('',(-13.01912194227,-5.986925045922,
    -0.690988298943));
#167 = DIRECTION('',(3.030577205494E-04,0.999999954078,0.));
#168 = DIRECTION('',(0.999999954078,-3.030577205494E-04,0.));
#169 = DEFINITIONAL_REPRESENTATION('',(#170),#174);
#170 = CIRCLE('',#171,0.690988298943);
#171 = AXIS2_PLACEMENT_2D('',#172,#173);
#172 = CARTESIAN_POINT('',(0.,0.));
#173 = DIRECTION('',(1.,0.));
#174 = ( GEOMETRIC_REPRESENTATION_CONTEXT(2) 
PARAMETRIC_REPRESENTATION_CONTEXT() REPRESENTATION_CONTEXT('2D SPACE',''
  ) );
#175 = ADVANCED_FACE('',(#176),#164,.F.);
#176 = FACE_BOUND('',#177,.T.);
#177 = EDGE_LOOP('',(#178));
#178 = ORIENTED_EDGE('',*,*,#149,.F.);
#179 = ADVANCED_FACE('',(#180),#136,.T.);
#180 = FACE_BOUND('',#181,.T.);
#181 = EDGE_LOOP('',(#182,#206,#228));
#182 = ORIENTED_EDGE('',*,*,#183,.T.);
#183 = EDGE_CURVE('',#93,#184,#186,.T.);
#184 = VERTEX_POINT('',#185);
#185 = CARTESIAN_POINT('',(-12.32651170105,-0.635,-0.690988298943));
#186 = SURFACE_CURVE('',#187,(#192,#199),.PCURVE_S1.);
#187 = CIRCLE('',#188,0.690988298943);
#188 = AXIS2_PLACEMENT_3D('',#189,#190,#191);
#189 = CARTESIAN_POINT('',(-13.0175,-0.635,-0.690988298943));
#190 = DIRECTION('',(-2.449293598295E-16,-1.,0.));
#191 = DIRECTION('',(1.,-2.449293598295E-16,0.));
#192 = PCURVE('',#136,#193);
#193 = DEFINITIONAL_REPRESENTATION('',(#194),#198);
#194 = LINE('',#195,#196);
#195 = CARTESIAN_POINT('',(6.28318530718,-6.28318530718));
#196 = VECTOR('',#197,1.);
#197 = DIRECTION('',(0.,1.));
#198 = ( GEOMETRIC_REPRESENTATION_CONTEXT(2) 
PARAMETRIC_REPRESENTATION_CONTEXT() REPRESENTATION_CONTEXT('2D SPACE',''
  ) );
#199 = PCURVE('',#109,#200);
#200 = DEFINITIONAL_REPRESENTATION('',(#201),#205);
#201 = LINE('',#202,#203);
#202 = CARTESIAN_POINT('',(0.,-6.28318530718));
#203 = VECTOR('',#204,1.);
#204 = DIRECTION('',(0.,1.));
#205 = ( GEOMETRIC_REPRESENTATION_CONTEXT(2) 
PARAMETRIC_REPRESENTATION_CONTEXT() REPRESENTATION_CONTEXT('2D SPACE',''
  ) );
#206 = ORIENTED_EDGE('',*,*,#207,.F.);
#207 = EDGE_CURVE('',#24,#184,#208,.T.);
#208 = SURFACE_CURVE('',#209,(#214,#221),.PCURVE_S1.);
#209 = CIRCLE('',#210,0.690988298943);
#210 = AXIS2_PLACEMENT_3D('',#211,#212,#213);
#211 = CARTESIAN_POINT('',(-13.0175,-0.635,-0.690988298943));
#212 = DIRECTION('',(0.,0.,1.));
#213 = DIRECTION('',(1.,0.,-0.));
#214 = PCURVE('',#136,#215);
#215 = DEFINITIONAL_REPRESENTATION('',(#216),#220);
#216 = LINE('',#217,#218);
#217 = CARTESIAN_POINT('',(0.,0.));
#218 = VECTOR('',#219,1.);
#219 = DIRECTION('',(1.,0.));
#220 = ( GEOMETRIC_REPRESENTATION_CONTEXT(2) 
PARAMETRIC_REPRESENTATION_CONTEXT() REPRESENTATION_CONTEXT('2D SPACE',''
  ) );
#221 = PCURVE('',#74,#222);
#222 = DEFINITIONAL_REPRESENTATION('',(#223),#227);
#223 = LINE('',#224,#225);
#224 = CARTESIAN_POINT('',(0.,0.));
#225 = VECTOR('',#226,1.);
#226 = DIRECTION('',(1.,0.));
#227 = ( GEOMETRIC_REPRESENTATION_CONTEXT(2) 
PARAMETRIC_REPRESENTATION_CONTEXT() REPRESENTATION_CONTEXT('2D SPACE',''
  ) );
#228 = ORIENTED_EDGE('',*,*,#121,.T.);
#229 = ADVANCED_FACE('',(#230),#109,.T.);
#230 = FACE_BOUND('',#231,.T.);
#231 = EDGE_LOOP('',(#232,#254,#255));
#232 = ORIENTED_EDGE('',*,*,#233,.F.);
#233 = EDGE_CURVE('',#184,#52,#234,.T.);
#234 = SURFACE_CURVE('',#235,(#240,#247),.PCURVE_S1.);
#235 = CIRCLE('',#236,0.690988298943);
#236 = AXIS2_PLACEMENT_3D('',#237,#238,#239);
#237 = CARTESIAN_POINT('',(-13.0175,-0.635,-0.690988298943));
#238 = DIRECTION('',(0.,0.,1.));
#239 = DIRECTION('',(1.,0.,-0.));
#240 = PCURVE('',#109,#241);
#241 = DEFINITIONAL_REPRESENTATION('',(#242),#246);
#242 = LINE('',#243,#244);
#243 = CARTESIAN_POINT('',(0.,0.));
#244 = VECTOR('',#245,1.);
#245 = DIRECTION('',(1.,0.));
#246 = ( GEOMETRIC_REPRESENTATION_CONTEXT(2) 
PARAMETRIC_REPRESENTATION_CONTEXT() REPRESENTATION_CONTEXT('2D SPACE',''
  ) );
#247 = PCURVE('',#74,#248);
#248 = DEFINITIONAL_REPRESENTATION('',(#249),#253);
#249 = LINE('',#250,#251);
#250 = CARTESIAN_POINT('',(0.,0.));
#251 = VECTOR('',#252,1.);
#252 = DIRECTION('',(1.,0.));
#253 = ( GEOMETRIC_REPRESENTATION_CONTEXT(2) 
PARAMETRIC_REPRESENTATION_CONTEXT() REPRESENTATION_CONTEXT('2D SPACE',''
  ) );
#254 = ORIENTED_EDGE('',*,*,#183,.F.);
#255 = ORIENTED_EDGE('',*,*,#92,.T.);
#256 = ADVANCED_FACE('',(#257),#74,.T.);
#257 = FACE_BOUND('',#258,.T.);
#258 = EDGE_LOOP('',(#259,#302,#323,#324,#325,#326,#327));
#259 = ORIENTED_EDGE('',*,*,#260,.F.);
#260 = EDGE_CURVE('',#261,#263,#265,.T.);
#261 = VERTEX_POINT('',#262);
#262 = CARTESIAN_POINT('',(-12.32651170105,-0.635,2.290988298943));
#263 = VERTEX_POINT('',#264);
#264 = CARTESIAN_POINT('',(-13.70848829894,-0.635,2.290988298943));
#265 = SURFACE_CURVE('',#266,(#271,#284),.PCURVE_S1.);
#266 = ELLIPSE('',#267,0.977205023806,0.690988298943);
#267 = AXIS2_PLACEMENT_3D('',#268,#269,#270);
#268 = CARTESIAN_POINT('',(-13.0175,-0.635,2.290988298943));
#269 = DIRECTION('',(0.,0.707106781187,0.707106781187));
#270 = DIRECTION('',(0.,-0.707106781187,0.707106781187));
#271 = PCURVE('',#74,#272);
#272 = DEFINITIONAL_REPRESENTATION('',(#273),#283);
#273 = B_SPLINE_CURVE_WITH_KNOTS('',8,(#274,#275,#276,#277,#278,#279,
    #280,#281,#282),.UNSPECIFIED.,.F.,.F.,(9,9),(1.570795463327,
    4.712389843853),.PIECEWISE_BEZIER_KNOTS.);
#274 = CARTESIAN_POINT('',(-8.634680837005E-07,2.981977194532));
#275 = CARTESIAN_POINT('',(0.392698434098,2.710626574911));
#276 = CARTESIAN_POINT('',(0.785397731663,2.439273686509));
#277 = CARTESIAN_POINT('',(1.178097029226,2.231708816823));
#278 = CARTESIAN_POINT('',(1.5707963268,2.151547688532));
#279 = CARTESIAN_POINT('',(1.963495624356,2.231708816824));
#280 = CARTESIAN_POINT('',(2.356194921926,2.439273686509));
#281 = CARTESIAN_POINT('',(2.748894219492,2.710626574911));
#282 = CARTESIAN_POINT('',(3.141593517058,2.981977194532));
#283 = ( GEOMETRIC_REPRESENTATION_CONTEXT(2) 
PARAMETRIC_REPRESENTATION_CONTEXT() REPRESENTATION_CONTEXT('2D SPACE',''
  ) );
#284 = PCURVE('',#285,#290);
#285 = CYLINDRICAL_SURFACE('',#286,0.690988298943);
#286 = AXIS2_PLACEMENT_3D('',#287,#288,#289);
#287 = CARTESIAN_POINT('',(-13.0175,-0.635,2.290988298943));
#288 = DIRECTION('',(0.,1.,0.));
#289 = DIRECTION('',(0.,-0.,1.));
#290 = DEFINITIONAL_REPRESENTATION('',(#291),#301);
#291 = B_SPLINE_CURVE_WITH_KNOTS('',8,(#292,#293,#294,#295,#296,#297,
    #298,#299,#300),.UNSPECIFIED.,.F.,.F.,(9,9),(1.570795463327,
    4.712389843853),.PIECEWISE_BEZIER_KNOTS.);
#292 = CARTESIAN_POINT('',(1.570795463327,-5.966463424434E-07));
#293 = CARTESIAN_POINT('',(1.963494760893,0.271350022974));
#294 = CARTESIAN_POINT('',(2.356194058459,0.542702911377));
#295 = CARTESIAN_POINT('',(2.748893356007,0.750267781048));
#296 = CARTESIAN_POINT('',(3.141592653601,0.830428909351));
#297 = CARTESIAN_POINT('',(3.534291951149,0.750267781049));
#298 = CARTESIAN_POINT('',(3.926991248722,0.542702911377));
#299 = CARTESIAN_POINT('',(4.319690546287,0.271350022974));
#300 = CARTESIAN_POINT('',(4.712389843853,-5.966463422213E-07));
#301 = ( GEOMETRIC_REPRESENTATION_CONTEXT(2) 
PARAMETRIC_REPRESENTATION_CONTEXT() REPRESENTATION_CONTEXT('2D SPACE',''
  ) );
#302 = ORIENTED_EDGE('',*,*,#303,.F.);
#303 = EDGE_CURVE('',#184,#261,#304,.T.);
#304 = SEAM_CURVE('',#305,(#309,#316),.PCURVE_S1.);
#305 = LINE('',#306,#307);
#306 = CARTESIAN_POINT('',(-12.32651170105,-0.635,-0.690988298943));
#307 = VECTOR('',#308,1.);
#308 = DIRECTION('',(0.,0.,1.));
#309 = PCURVE('',#74,#310);
#310 = DEFINITIONAL_REPRESENTATION('',(#311),#315);
#311 = LINE('',#312,#313);
#312 = CARTESIAN_POINT('',(6.28318530718,-0.));
#313 = VECTOR('',#314,1.);
#314 = DIRECTION('',(0.,1.));
#315 = ( GEOMETRIC_REPRESENTATION_CONTEXT(2) 
PARAMETRIC_REPRESENTATION_CONTEXT() REPRESENTATION_CONTEXT('2D SPACE',''
  ) );
#316 = PCURVE('',#74,#317);
#317 = DEFINITIONAL_REPRESENTATION('',(#318),#322);
#318 = LINE('',#319,#320);
#319 = CARTESIAN_POINT('',(0.,-0.));
#320 = VECTOR('',#321,1.);
#321 = DIRECTION('',(0.,1.));
#322 = ( GEOMETRIC_REPRESENTATION_CONTEXT(2) 
PARAMETRIC_REPRESENTATION_CONTEXT() REPRESENTATION_CONTEXT('2D SPACE',''
  ) );
#323 = ORIENTED_EDGE('',*,*,#233,.T.);
#324 = ORIENTED_EDGE('',*,*,#51,.T.);
#325 = ORIENTED_EDGE('',*,*,#207,.T.);
#326 = ORIENTED_EDGE('',*,*,#303,.T.);
#327 = ORIENTED_EDGE('',*,*,#328,.F.);
#328 = EDGE_CURVE('',#263,#261,#329,.T.);
#329 = SURFACE_CURVE('',#330,(#335,#342),.PCURVE_S1.);
#330 = CIRCLE('',#331,0.690988298943);
#331 = AXIS2_PLACEMENT_3D('',#332,#333,#334);
#332 = CARTESIAN_POINT('',(-13.0175,-0.635,2.290988298943));
#333 = DIRECTION('',(0.,0.,1.));
#334 = DIRECTION('',(1.,0.,-0.));
#335 = PCURVE('',#74,#336);
#336 = DEFINITIONAL_REPRESENTATION('',(#337),#341);
#337 = LINE('',#338,#339);
#338 = CARTESIAN_POINT('',(0.,2.981976597885));
#339 = VECTOR('',#340,1.);
#340 = DIRECTION('',(1.,0.));
#341 = ( GEOMETRIC_REPRESENTATION_CONTEXT(2) 
PARAMETRIC_REPRESENTATION_CONTEXT() REPRESENTATION_CONTEXT('2D SPACE',''
  ) );
#342 = PCURVE('',#343,#348);
#343 = SPHERICAL_SURFACE('',#344,0.690988298943);
#344 = AXIS2_PLACEMENT_3D('',#345,#346,#347);
#345 = CARTESIAN_POINT('',(-13.0175,-0.635,2.290988298943));
#346 = DIRECTION('',(0.,0.,1.));
#347 = DIRECTION('',(1.,0.,-0.));
#348 = DEFINITIONAL_REPRESENTATION('',(#349),#353);
#349 = LINE('',#350,#351);
#350 = CARTESIAN_POINT('',(0.,0.));
#351 = VECTOR('',#352,1.);
#352 = DIRECTION('',(1.,0.));
#353 = ( GEOMETRIC_REPRESENTATION_CONTEXT(2) 
PARAMETRIC_REPRESENTATION_CONTEXT() REPRESENTATION_CONTEXT('2D SPACE',''
  ) );
#354 = ADVANCED_FACE('',(#355),#285,.T.);
#355 = FACE_BOUND('',#356,.T.);
#356 = EDGE_LOOP('',(#357,#381,#404,#433,#474,#495,#496,#517));
#357 = ORIENTED_EDGE('',*,*,#358,.T.);
#358 = EDGE_CURVE('',#263,#359,#361,.T.);
#359 = VERTEX_POINT('',#360);
#360 = CARTESIAN_POINT('',(-13.0175,-0.635,2.981976597885));
#361 = SURFACE_CURVE('',#362,(#367,#374),.PCURVE_S1.);
#362 = CIRCLE('',#363,0.690988298943);
#363 = AXIS2_PLACEMENT_3D('',#364,#365,#366);
#364 = CARTESIAN_POINT('',(-13.0175,-0.635,2.290988298943));
#365 = DIRECTION('',(0.,1.,0.));
#366 = DIRECTION('',(0.,-0.,1.));
#367 = PCURVE('',#285,#368);
#368 = DEFINITIONAL_REPRESENTATION('',(#369),#373);
#369 = LINE('',#370,#371);
#370 = CARTESIAN_POINT('',(0.,0.));
#371 = VECTOR('',#372,1.);
#372 = DIRECTION('',(1.,0.));
#373 = ( GEOMETRIC_REPRESENTATION_CONTEXT(2) 
PARAMETRIC_REPRESENTATION_CONTEXT() REPRESENTATION_CONTEXT('2D SPACE',''
  ) );
#374 = PCURVE('',#343,#375);
#375 = DEFINITIONAL_REPRESENTATION('',(#376),#380);
#376 = LINE('',#377,#378);
#377 = CARTESIAN_POINT('',(3.14159265359,-4.712388980385));
#378 = VECTOR('',#379,1.);
#379 = DIRECTION('',(-0.,1.));
#380 = ( GEOMETRIC_REPRESENTATION_CONTEXT(2) 
PARAMETRIC_REPRESENTATION_CONTEXT() REPRESENTATION_CONTEXT('2D SPACE',''
  ) );
#381 = ORIENTED_EDGE('',*,*,#382,.T.);
#382 = EDGE_CURVE('',#359,#383,#385,.T.);
#383 = VERTEX_POINT('',#384);
#384 = CARTESIAN_POINT('',(-13.0175,6.096,2.981976597885));
#385 = SEAM_CURVE('',#386,(#390,#397),.PCURVE_S1.);
#386 = LINE('',#387,#388);
#387 = CARTESIAN_POINT('',(-13.0175,-0.635,2.981976597885));
#388 = VECTOR('',#389,1.);
#389 = DIRECTION('',(0.,1.,0.));
#390 = PCURVE('',#285,#391);
#391 = DEFINITIONAL_REPRESENTATION('',(#392),#396);
#392 = LINE('',#393,#394);
#393 = CARTESIAN_POINT('',(0.,-0.));
#394 = VECTOR('',#395,1.);
#395 = DIRECTION('',(0.,1.));
#396 = ( GEOMETRIC_REPRESENTATION_CONTEXT(2) 
PARAMETRIC_REPRESENTATION_CONTEXT() REPRESENTATION_CONTEXT('2D SPACE',''
  ) );
#397 = PCURVE('',#285,#398);
#398 = DEFINITIONAL_REPRESENTATION('',(#399),#403);
#399 = LINE('',#400,#401);
#400 = CARTESIAN_POINT('',(6.28318530718,-0.));
#401 = VECTOR('',#402,1.);
#402 = DIRECTION('',(0.,1.));
#403 = ( GEOMETRIC_REPRESENTATION_CONTEXT(2) 
PARAMETRIC_REPRESENTATION_CONTEXT() REPRESENTATION_CONTEXT('2D SPACE',''
  ) );
#404 = ORIENTED_EDGE('',*,*,#405,.F.);
#405 = EDGE_CURVE('',#406,#383,#408,.T.);
#406 = VERTEX_POINT('',#407);
#407 = CARTESIAN_POINT('',(-13.70848829894,6.096,2.290988298943));
#408 = SURFACE_CURVE('',#409,(#414,#421),.PCURVE_S1.);
#409 = CIRCLE('',#410,0.690988298943);
#410 = AXIS2_PLACEMENT_3D('',#411,#412,#413);
#411 = CARTESIAN_POINT('',(-13.0175,6.096,2.290988298943));
#412 = DIRECTION('',(0.,1.,0.));
#413 = DIRECTION('',(0.,-0.,1.));
#414 = PCURVE('',#285,#415);
#415 = DEFINITIONAL_REPRESENTATION('',(#416),#420);
#416 = LINE('',#417,#418);
#417 = CARTESIAN_POINT('',(0.,6.731));
#418 = VECTOR('',#419,1.);
#419 = DIRECTION('',(1.,0.));
#420 = ( GEOMETRIC_REPRESENTATION_CONTEXT(2) 
PARAMETRIC_REPRESENTATION_CONTEXT() REPRESENTATION_CONTEXT('2D SPACE',''
  ) );
#421 = PCURVE('',#422,#427);
#422 = SPHERICAL_SURFACE('',#423,0.690988298943);
#423 = AXIS2_PLACEMENT_3D('',#424,#425,#426);
#424 = CARTESIAN_POINT('',(-13.0175,6.096,2.290988298943));
#425 = DIRECTION('',(0.,0.,1.));
#426 = DIRECTION('',(1.,0.,-0.));
#427 = DEFINITIONAL_REPRESENTATION('',(#428),#432);
#428 = LINE('',#429,#430);
#429 = CARTESIAN_POINT('',(3.14159265359,-4.712388980385));
#430 = VECTOR('',#431,1.);
#431 = DIRECTION('',(-0.,1.));
#432 = ( GEOMETRIC_REPRESENTATION_CONTEXT(2) 
PARAMETRIC_REPRESENTATION_CONTEXT() REPRESENTATION_CONTEXT('2D SPACE',''
  ) );
#433 = ORIENTED_EDGE('',*,*,#434,.F.);
#434 = EDGE_CURVE('',#435,#406,#437,.T.);
#435 = VERTEX_POINT('',#436);
#436 = CARTESIAN_POINT('',(-12.32651170105,6.096,2.290988298943));
#437 = SURFACE_CURVE('',#438,(#443,#456),.PCURVE_S1.);
#438 = ELLIPSE('',#439,0.977205023806,0.690988298943);
#439 = AXIS2_PLACEMENT_3D('',#440,#441,#442);
#440 = CARTESIAN_POINT('',(-13.0175,6.096,2.290988298943));
#441 = DIRECTION('',(0.,0.707106781187,-0.707106781187));
#442 = DIRECTION('',(0.,0.707106781187,0.707106781187));
#443 = PCURVE('',#285,#444);
#444 = DEFINITIONAL_REPRESENTATION('',(#445),#455);
#445 = B_SPLINE_CURVE_WITH_KNOTS('',8,(#446,#447,#448,#449,#450,#451,
    #452,#453,#454),.UNSPECIFIED.,.F.,.F.,(9,9),(1.570795463327,
    4.712388980385),.PIECEWISE_BEZIER_KNOTS.);
#446 = CARTESIAN_POINT('',(1.570795463327,6.731000596646));
#447 = CARTESIAN_POINT('',(1.963494652959,6.459650051606));
#448 = CARTESIAN_POINT('',(2.356193842588,6.188297237773));
#449 = CARTESIAN_POINT('',(2.748893032225,5.980732390119));
#450 = CARTESIAN_POINT('',(3.141592221851,5.900571178692));
#451 = CARTESIAN_POINT('',(3.53429141149,5.980732108834));
#452 = CARTESIAN_POINT('',(3.926990601118,6.188296746299));
#453 = CARTESIAN_POINT('',(4.319689790752,6.45964945496));
#454 = CARTESIAN_POINT('',(4.712388980385,6.731));
#455 = ( GEOMETRIC_REPRESENTATION_CONTEXT(2) 
PARAMETRIC_REPRESENTATION_CONTEXT() REPRESENTATION_CONTEXT('2D SPACE',''
  ) );
#456 = PCURVE('',#457,#462);
#457 = CYLINDRICAL_SURFACE('',#458,0.690988298943);
#458 = AXIS2_PLACEMENT_3D('',#459,#460,#461);
#459 = CARTESIAN_POINT('',(-13.0175,6.096,2.290988298943));
#460 = DIRECTION('',(0.,0.,-1.));
#461 = DIRECTION('',(-1.,0.,-0.));
#462 = DEFINITIONAL_REPRESENTATION('',(#463),#473);
#463 = B_SPLINE_CURVE_WITH_KNOTS('',8,(#464,#465,#466,#467,#468,#469,
    #470,#471,#472),.UNSPECIFIED.,.F.,.F.,(9,9),(1.570795463327,
    4.712388980385),.PIECEWISE_BEZIER_KNOTS.);
#464 = CARTESIAN_POINT('',(3.141591790122,-5.966463425544E-07));
#465 = CARTESIAN_POINT('',(3.534290979754,0.271349948394));
#466 = CARTESIAN_POINT('',(3.926990169386,0.542702762219));
#467 = CARTESIAN_POINT('',(4.31968935902,0.750267609882));
#468 = CARTESIAN_POINT('',(4.712388548656,0.830428821263));
#469 = CARTESIAN_POINT('',(5.105087738282,0.750267891171));
#470 = CARTESIAN_POINT('',(5.497786927916,0.542703253693));
#471 = CARTESIAN_POINT('',(5.890486117547,0.27135054504));
#472 = CARTESIAN_POINT('',(6.28318530718,0.));
#473 = ( GEOMETRIC_REPRESENTATION_CONTEXT(2) 
PARAMETRIC_REPRESENTATION_CONTEXT() REPRESENTATION_CONTEXT('2D SPACE',''
  ) );
#474 = ORIENTED_EDGE('',*,*,#475,.F.);
#475 = EDGE_CURVE('',#383,#435,#476,.T.);
#476 = SURFACE_CURVE('',#477,(#482,#489),.PCURVE_S1.);
#477 = CIRCLE('',#478,0.690988298943);
#478 = AXIS2_PLACEMENT_3D('',#479,#480,#481);
#479 = CARTESIAN_POINT('',(-13.0175,6.096,2.290988298943));
#480 = DIRECTION('',(0.,1.,0.));
#481 = DIRECTION('',(0.,-0.,1.));
#482 = PCURVE('',#285,#483);
#483 = DEFINITIONAL_REPRESENTATION('',(#484),#488);
#484 = LINE('',#485,#486);
#485 = CARTESIAN_POINT('',(0.,6.731));
#486 = VECTOR('',#487,1.);
#487 = DIRECTION('',(1.,0.));
#488 = ( GEOMETRIC_REPRESENTATION_CONTEXT(2) 
PARAMETRIC_REPRESENTATION_CONTEXT() REPRESENTATION_CONTEXT('2D SPACE',''
  ) );
#489 = PCURVE('',#422,#490);
#490 = DEFINITIONAL_REPRESENTATION('',(#491),#494);
#491 = B_SPLINE_CURVE_WITH_KNOTS('',1,(#492,#493),.UNSPECIFIED.,.F.,.F.,
  (2,2),(0.,1.570796326795),.PIECEWISE_BEZIER_KNOTS.);
#492 = CARTESIAN_POINT('',(0.,1.570796326795));
#493 = CARTESIAN_POINT('',(0.,0.));
#494 = ( GEOMETRIC_REPRESENTATION_CONTEXT(2) 
PARAMETRIC_REPRESENTATION_CONTEXT() REPRESENTATION_CONTEXT('2D SPACE',''
  ) );
#495 = ORIENTED_EDGE('',*,*,#382,.F.);
#496 = ORIENTED_EDGE('',*,*,#497,.T.);
#497 = EDGE_CURVE('',#359,#261,#498,.T.);
#498 = SURFACE_CURVE('',#499,(#504,#511),.PCURVE_S1.);
#499 = CIRCLE('',#500,0.690988298943);
#500 = AXIS2_PLACEMENT_3D('',#501,#502,#503);
#501 = CARTESIAN_POINT('',(-13.0175,-0.635,2.290988298943));
#502 = DIRECTION('',(0.,1.,0.));
#503 = DIRECTION('',(0.,-0.,1.));
#504 = PCURVE('',#285,#505);
#505 = DEFINITIONAL_REPRESENTATION('',(#506),#510);
#506 = LINE('',#507,#508);
#507 = CARTESIAN_POINT('',(0.,0.));
#508 = VECTOR('',#509,1.);
#509 = DIRECTION('',(1.,0.));
#510 = ( GEOMETRIC_REPRESENTATION_CONTEXT(2) 
PARAMETRIC_REPRESENTATION_CONTEXT() REPRESENTATION_CONTEXT('2D SPACE',''
  ) );
#511 = PCURVE('',#343,#512);
#512 = DEFINITIONAL_REPRESENTATION('',(#513),#516);
#513 = B_SPLINE_CURVE_WITH_KNOTS('',1,(#514,#515),.UNSPECIFIED.,.F.,.F.,
  (2,2),(0.,1.570796326795),.PIECEWISE_BEZIER_KNOTS.);
#514 = CARTESIAN_POINT('',(6.28318530718,1.570796326795));
#515 = CARTESIAN_POINT('',(6.28318530718,0.));
#516 = ( GEOMETRIC_REPRESENTATION_CONTEXT(2) 
PARAMETRIC_REPRESENTATION_CONTEXT() REPRESENTATION_CONTEXT('2D SPACE',''
  ) );
#517 = ORIENTED_EDGE('',*,*,#260,.T.);
#518 = ADVANCED_FACE('',(#519),#343,.T.);
#519 = FACE_BOUND('',#520,.T.);
#520 = EDGE_LOOP('',(#521,#522,#523));
#521 = ORIENTED_EDGE('',*,*,#497,.F.);
#522 = ORIENTED_EDGE('',*,*,#358,.F.);
#523 = ORIENTED_EDGE('',*,*,#328,.T.);
#524 = ADVANCED_FACE('',(#525),#422,.T.);
#525 = FACE_BOUND('',#526,.T.);
#526 = EDGE_LOOP('',(#527,#528,#529));
#527 = ORIENTED_EDGE('',*,*,#405,.T.);
#528 = ORIENTED_EDGE('',*,*,#475,.T.);
#529 = ORIENTED_EDGE('',*,*,#530,.F.);
#530 = EDGE_CURVE('',#406,#435,#531,.T.);
#531 = SURFACE_CURVE('',#532,(#537,#544),.PCURVE_S1.);
#532 = CIRCLE('',#533,0.690988298943);
#533 = AXIS2_PLACEMENT_3D('',#534,#535,#536);
#534 = CARTESIAN_POINT('',(-13.0175,6.096,2.290988298943));
#535 = DIRECTION('',(0.,0.,-1.));
#536 = DIRECTION('',(-1.,0.,-0.));
#537 = PCURVE('',#422,#538);
#538 = DEFINITIONAL_REPRESENTATION('',(#539),#543);
#539 = LINE('',#540,#541);
#540 = CARTESIAN_POINT('',(3.14159265359,0.));
#541 = VECTOR('',#542,1.);
#542 = DIRECTION('',(-1.,0.));
#543 = ( GEOMETRIC_REPRESENTATION_CONTEXT(2) 
PARAMETRIC_REPRESENTATION_CONTEXT() REPRESENTATION_CONTEXT('2D SPACE',''
  ) );
#544 = PCURVE('',#457,#545);
#545 = DEFINITIONAL_REPRESENTATION('',(#546),#550);
#546 = LINE('',#547,#548);
#547 = CARTESIAN_POINT('',(0.,0.));
#548 = VECTOR('',#549,1.);
#549 = DIRECTION('',(1.,0.));
#550 = ( GEOMETRIC_REPRESENTATION_CONTEXT(2) 
PARAMETRIC_REPRESENTATION_CONTEXT() REPRESENTATION_CONTEXT('2D SPACE',''
  ) );
#551 = ADVANCED_FACE('',(#552),#457,.T.);
#552 = FACE_BOUND('',#553,.T.);
#553 = EDGE_LOOP('',(#554,#555,#556,#579,#614,#643,#672,#706));
#554 = ORIENTED_EDGE('',*,*,#530,.T.);
#555 = ORIENTED_EDGE('',*,*,#434,.T.);
#556 = ORIENTED_EDGE('',*,*,#557,.T.);
#557 = EDGE_CURVE('',#406,#558,#560,.T.);
#558 = VERTEX_POINT('',#559);
#559 = CARTESIAN_POINT('',(-13.70848829894,6.096,-0.584315681046));
#560 = SEAM_CURVE('',#561,(#565,#572),.PCURVE_S1.);
#561 = LINE('',#562,#563);
#562 = CARTESIAN_POINT('',(-13.70848829894,6.096,2.290988298943));
#563 = VECTOR('',#564,1.);
#564 = DIRECTION('',(0.,0.,-1.));
#565 = PCURVE('',#457,#566);
#566 = DEFINITIONAL_REPRESENTATION('',(#567),#571);
#567 = LINE('',#568,#569);
#568 = CARTESIAN_POINT('',(0.,-0.));
#569 = VECTOR('',#570,1.);
#570 = DIRECTION('',(0.,1.));
#571 = ( GEOMETRIC_REPRESENTATION_CONTEXT(2) 
PARAMETRIC_REPRESENTATION_CONTEXT() REPRESENTATION_CONTEXT('2D SPACE',''
  ) );
#572 = PCURVE('',#457,#573);
#573 = DEFINITIONAL_REPRESENTATION('',(#574),#578);
#574 = LINE('',#575,#576);
#575 = CARTESIAN_POINT('',(6.28318530718,-0.));
#576 = VECTOR('',#577,1.);
#577 = DIRECTION('',(0.,1.));
#578 = ( GEOMETRIC_REPRESENTATION_CONTEXT(2) 
PARAMETRIC_REPRESENTATION_CONTEXT() REPRESENTATION_CONTEXT('2D SPACE',''
  ) );
#579 = ORIENTED_EDGE('',*,*,#580,.F.);
#580 = EDGE_CURVE('',#581,#558,#583,.T.);
#581 = VERTEX_POINT('',#582);
#582 = CARTESIAN_POINT('',(-13.70020475453,5.989327382104,
    -0.690988298943));
#583 = SURFACE_CURVE('',#584,(#589,#599),.PCURVE_S1.);
#584 = ELLIPSE('',#585,0.977205023806,0.690988298943);
#585 = AXIS2_PLACEMENT_3D('',#586,#587,#588);
#586 = CARTESIAN_POINT('',(-13.0175,6.096,-0.690988298943));
#587 = DIRECTION('',(-0.1091609389,0.698630008959,-0.707106781187));
#588 = DIRECTION('',(0.1091609389,-0.698630008959,-0.707106781187));
#589 = PCURVE('',#457,#590);
#590 = DEFINITIONAL_REPRESENTATION('',(#591),#598);
#591 = B_SPLINE_CURVE_WITH_KNOTS('',5,(#592,#593,#594,#595,#596,#597),
  .UNSPECIFIED.,.F.,.F.,(6,6),(1.570795462718,1.725793068719),
  .PIECEWISE_BEZIER_KNOTS.);
#592 = CARTESIAN_POINT('',(6.128187701179,2.981977194952));
#593 = CARTESIAN_POINT('',(6.159187222379,2.96055688853));
#594 = CARTESIAN_POINT('',(6.190186743579,2.939136581371));
#595 = CARTESIAN_POINT('',(6.221186264779,2.917759157511));
#596 = CARTESIAN_POINT('',(6.252185785979,2.896467500501));
#597 = CARTESIAN_POINT('',(6.283185307179,2.875303979989));
#598 = ( GEOMETRIC_REPRESENTATION_CONTEXT(2) 
PARAMETRIC_REPRESENTATION_CONTEXT() REPRESENTATION_CONTEXT('2D SPACE',''
  ) );
#599 = PCURVE('',#600,#605);
#600 = CYLINDRICAL_SURFACE('',#601,0.690988298943);
#601 = AXIS2_PLACEMENT_3D('',#602,#603,#604);
#602 = CARTESIAN_POINT('',(-13.0175,6.096,-0.690988298943));
#603 = DIRECTION('',(-0.154376880274,0.988012033751,0.));
#604 = DIRECTION('',(0.988012033751,0.154376880274,0.));
#605 = DEFINITIONAL_REPRESENTATION('',(#606),#613);
#606 = B_SPLINE_CURVE_WITH_KNOTS('',5,(#607,#608,#609,#610,#611,#612),
  .UNSPECIFIED.,.F.,.F.,(6,6),(1.570795462718,1.725793068719),
  .PIECEWISE_BEZIER_KNOTS.);
#607 = CARTESIAN_POINT('',(3.141591789513,-5.970670855504E-07));
#608 = CARTESIAN_POINT('',(3.172591310713,2.141970935505E-02));
#609 = CARTESIAN_POINT('',(3.203590831913,4.28400165144E-02));
#610 = CARTESIAN_POINT('',(3.234590353113,6.421744037395E-02));
#611 = CARTESIAN_POINT('',(3.265589874313,8.550909738456E-02));
#612 = CARTESIAN_POINT('',(3.296589395514,0.106672617896));
#613 = ( GEOMETRIC_REPRESENTATION_CONTEXT(2) 
PARAMETRIC_REPRESENTATION_CONTEXT() REPRESENTATION_CONTEXT('2D SPACE',''
  ) );
#614 = ORIENTED_EDGE('',*,*,#615,.F.);
#615 = EDGE_CURVE('',#616,#581,#618,.T.);
#616 = VERTEX_POINT('',#617);
#617 = CARTESIAN_POINT('',(-12.32651170105,6.096,-0.690988298943));
#618 = SURFACE_CURVE('',#619,(#624,#631),.PCURVE_S1.);
#619 = CIRCLE('',#620,0.690988298943);
#620 = AXIS2_PLACEMENT_3D('',#621,#622,#623);
#621 = CARTESIAN_POINT('',(-13.0175,6.096,-0.690988298943));
#622 = DIRECTION('',(0.,0.,-1.));
#623 = DIRECTION('',(-1.,0.,-0.));
#624 = PCURVE('',#457,#625);
#625 = DEFINITIONAL_REPRESENTATION('',(#626),#630);
#626 = LINE('',#627,#628);
#627 = CARTESIAN_POINT('',(0.,2.981976597885));
#628 = VECTOR('',#629,1.);
#629 = DIRECTION('',(1.,0.));
#630 = ( GEOMETRIC_REPRESENTATION_CONTEXT(2) 
PARAMETRIC_REPRESENTATION_CONTEXT() REPRESENTATION_CONTEXT('2D SPACE',''
  ) );
#631 = PCURVE('',#632,#637);
#632 = SPHERICAL_SURFACE('',#633,0.690988298943);
#633 = AXIS2_PLACEMENT_3D('',#634,#635,#636);
#634 = CARTESIAN_POINT('',(-13.0175,6.096,-0.690988298943));
#635 = DIRECTION('',(0.,0.,1.));
#636 = DIRECTION('',(1.,0.,-0.));
#637 = DEFINITIONAL_REPRESENTATION('',(#638),#642);
#638 = LINE('',#639,#640);
#639 = CARTESIAN_POINT('',(9.424777960769,0.));
#640 = VECTOR('',#641,1.);
#641 = DIRECTION('',(-1.,0.));
#642 = ( GEOMETRIC_REPRESENTATION_CONTEXT(2) 
PARAMETRIC_REPRESENTATION_CONTEXT() REPRESENTATION_CONTEXT('2D SPACE',''
  ) );
#643 = ORIENTED_EDGE('',*,*,#644,.F.);
#644 = EDGE_CURVE('',#645,#616,#647,.T.);
#645 = VERTEX_POINT('',#646);
#646 = CARTESIAN_POINT('',(-12.33479524546,6.202672617896,
    -0.690988298943));
#647 = SURFACE_CURVE('',#648,(#653,#660),.PCURVE_S1.);
#648 = CIRCLE('',#649,0.690988298943);
#649 = AXIS2_PLACEMENT_3D('',#650,#651,#652);
#650 = CARTESIAN_POINT('',(-13.0175,6.096,-0.690988298943));
#651 = DIRECTION('',(0.,0.,-1.));
#652 = DIRECTION('',(-1.,0.,-0.));
#653 = PCURVE('',#457,#654);
#654 = DEFINITIONAL_REPRESENTATION('',(#655),#659);
#655 = LINE('',#656,#657);
#656 = CARTESIAN_POINT('',(0.,2.981976597885));
#657 = VECTOR('',#658,1.);
#658 = DIRECTION('',(1.,0.));
#659 = ( GEOMETRIC_REPRESENTATION_CONTEXT(2) 
PARAMETRIC_REPRESENTATION_CONTEXT() REPRESENTATION_CONTEXT('2D SPACE',''
  ) );
#660 = PCURVE('',#661,#666);
#661 = SPHERICAL_SURFACE('',#662,0.690988298943);
#662 = AXIS2_PLACEMENT_3D('',#663,#664,#665);
#663 = CARTESIAN_POINT('',(-13.0175,6.096,-0.690988298943));
#664 = DIRECTION('',(0.,0.,1.));
#665 = DIRECTION('',(1.,0.,-0.));
#666 = DEFINITIONAL_REPRESENTATION('',(#667),#671);
#667 = LINE('',#668,#669);
#668 = CARTESIAN_POINT('',(3.14159265359,0.));
#669 = VECTOR('',#670,1.);
#670 = DIRECTION('',(-1.,0.));
#671 = ( GEOMETRIC_REPRESENTATION_CONTEXT(2) 
PARAMETRIC_REPRESENTATION_CONTEXT() REPRESENTATION_CONTEXT('2D SPACE',''
  ) );
#672 = ORIENTED_EDGE('',*,*,#673,.F.);
#673 = EDGE_CURVE('',#558,#645,#674,.T.);
#674 = SURFACE_CURVE('',#675,(#680,#693),.PCURVE_S1.);
#675 = ELLIPSE('',#676,0.977205023806,0.690988298943);
#676 = AXIS2_PLACEMENT_3D('',#677,#678,#679);
#677 = CARTESIAN_POINT('',(-13.0175,6.096,-0.690988298943));
#678 = DIRECTION('',(-0.1091609389,0.698630008959,-0.707106781187));
#679 = DIRECTION('',(0.1091609389,-0.698630008959,-0.707106781187));
#680 = PCURVE('',#457,#681);
#681 = DEFINITIONAL_REPRESENTATION('',(#682),#692);
#682 = B_SPLINE_CURVE_WITH_KNOTS('',8,(#683,#684,#685,#686,#687,#688,
    #689,#690,#691),.UNSPECIFIED.,.F.,.F.,(9,9),(1.725793068719,
    4.712388980385),.PIECEWISE_BEZIER_KNOTS.);
#683 = CARTESIAN_POINT('',(-9.237055564881E-14,2.875303979989));
#684 = CARTESIAN_POINT('',(0.373324488958,2.620433576392));
#685 = CARTESIAN_POINT('',(0.746648977917,2.382553853053));
#686 = CARTESIAN_POINT('',(1.119973466867,2.215799007931));
#687 = CARTESIAN_POINT('',(1.493297955843,2.16919459372));
#688 = CARTESIAN_POINT('',(1.866622444783,2.262890575411));
#689 = CARTESIAN_POINT('',(2.23994693375,2.466048548712));
#690 = CARTESIAN_POINT('',(2.613271422708,2.724013744306));
#691 = CARTESIAN_POINT('',(2.986595911666,2.981976597885));
#692 = ( GEOMETRIC_REPRESENTATION_CONTEXT(2) 
PARAMETRIC_REPRESENTATION_CONTEXT() REPRESENTATION_CONTEXT('2D SPACE',''
  ) );
#693 = PCURVE('',#600,#694);
#694 = DEFINITIONAL_REPRESENTATION('',(#695),#705);
#695 = B_SPLINE_CURVE_WITH_KNOTS('',8,(#696,#697,#698,#699,#700,#701,
    #702,#703,#704),.UNSPECIFIED.,.F.,.F.,(9,9),(1.725793068719,
    4.712388980385),.PIECEWISE_BEZIER_KNOTS.);
#696 = CARTESIAN_POINT('',(3.296589395514,0.106672617896));
#697 = CARTESIAN_POINT('',(3.669913884472,0.361543021493));
#698 = CARTESIAN_POINT('',(4.043238373431,0.599422744829));
#699 = CARTESIAN_POINT('',(4.416562862367,0.766177589955));
#700 = CARTESIAN_POINT('',(4.789887351359,0.812782004158));
#701 = CARTESIAN_POINT('',(5.163211840289,0.719086022476));
#702 = CARTESIAN_POINT('',(5.536536329265,0.515928049171));
#703 = CARTESIAN_POINT('',(5.909860818221,0.257962853579));
#704 = CARTESIAN_POINT('',(6.28318530718,0.));
#705 = ( GEOMETRIC_REPRESENTATION_CONTEXT(2) 
PARAMETRIC_REPRESENTATION_CONTEXT() REPRESENTATION_CONTEXT('2D SPACE',''
  ) );
#706 = ORIENTED_EDGE('',*,*,#557,.F.);
#707 = ADVANCED_FACE('',(#708),#600,.T.);
#708 = FACE_BOUND('',#709,.T.);
#709 = EDGE_LOOP('',(#710,#739,#760,#784,#806,#807,#808));
#710 = ORIENTED_EDGE('',*,*,#711,.F.);
#711 = EDGE_CURVE('',#712,#712,#714,.T.);
#712 = VERTEX_POINT('',#713);
#713 = CARTESIAN_POINT('',(-12.81541836519,9.278660584145,
    -0.690988298943));
#714 = SURFACE_CURVE('',#715,(#720,#727),.PCURVE_S1.);
#715 = CIRCLE('',#716,0.690988298943);
#716 = AXIS2_PLACEMENT_3D('',#717,#718,#719);
#717 = CARTESIAN_POINT('',(-13.49812311972,9.171987966249,
    -0.690988298943));
#718 = DIRECTION('',(-0.154376880274,0.988012033751,0.));
#719 = DIRECTION('',(0.988012033751,0.154376880274,0.));
#720 = PCURVE('',#600,#721);
#721 = DEFINITIONAL_REPRESENTATION('',(#722),#726);
#722 = LINE('',#723,#724);
#723 = CARTESIAN_POINT('',(0.,3.113310224138));
#724 = VECTOR('',#725,1.);
#725 = DIRECTION('',(1.,0.));
#726 = ( GEOMETRIC_REPRESENTATION_CONTEXT(2) 
PARAMETRIC_REPRESENTATION_CONTEXT() REPRESENTATION_CONTEXT('2D SPACE',''
  ) );
#727 = PCURVE('',#728,#733);
#728 = PLANE('',#729);
#729 = AXIS2_PLACEMENT_3D('',#730,#731,#732);
#730 = CARTESIAN_POINT('',(-13.49812311972,9.171987966249,
    -0.690988298943));
#731 = DIRECTION('',(-0.154376880274,0.988012033751,0.));
#732 = DIRECTION('',(0.988012033751,0.154376880274,0.));
#733 = DEFINITIONAL_REPRESENTATION('',(#734),#738);
#734 = CIRCLE('',#735,0.690988298943);
#735 = AXIS2_PLACEMENT_2D('',#736,#737);
#736 = CARTESIAN_POINT('',(0.,0.));
#737 = DIRECTION('',(1.,0.));
#738 = ( GEOMETRIC_REPRESENTATION_CONTEXT(2) 
PARAMETRIC_REPRESENTATION_CONTEXT() REPRESENTATION_CONTEXT('2D SPACE',''
  ) );
#739 = ORIENTED_EDGE('',*,*,#740,.F.);
#740 = EDGE_CURVE('',#645,#712,#741,.T.);
#741 = SEAM_CURVE('',#742,(#746,#753),.PCURVE_S1.);
#742 = LINE('',#743,#744);
#743 = CARTESIAN_POINT('',(-12.33479524546,6.202672617896,
    -0.690988298943));
#744 = VECTOR('',#745,1.);
#745 = DIRECTION('',(-0.154376880274,0.988012033751,6.162975822039E-33)
  );
#746 = PCURVE('',#600,#747);
#747 = DEFINITIONAL_REPRESENTATION('',(#748),#752);
#748 = LINE('',#749,#750);
#749 = CARTESIAN_POINT('',(6.28318530718,-0.));
#750 = VECTOR('',#751,1.);
#751 = DIRECTION('',(0.,1.));
#752 = ( GEOMETRIC_REPRESENTATION_CONTEXT(2) 
PARAMETRIC_REPRESENTATION_CONTEXT() REPRESENTATION_CONTEXT('2D SPACE',''
  ) );
#753 = PCURVE('',#600,#754);
#754 = DEFINITIONAL_REPRESENTATION('',(#755),#759);
#755 = LINE('',#756,#757);
#756 = CARTESIAN_POINT('',(0.,-0.));
#757 = VECTOR('',#758,1.);
#758 = DIRECTION('',(0.,1.));
#759 = ( GEOMETRIC_REPRESENTATION_CONTEXT(2) 
PARAMETRIC_REPRESENTATION_CONTEXT() REPRESENTATION_CONTEXT('2D SPACE',''
  ) );
#760 = ORIENTED_EDGE('',*,*,#761,.T.);
#761 = EDGE_CURVE('',#645,#762,#764,.T.);
#762 = VERTEX_POINT('',#763);
#763 = CARTESIAN_POINT('',(-13.0175,6.096,-1.381976597885));
#764 = SURFACE_CURVE('',#765,(#770,#777),.PCURVE_S1.);
#765 = CIRCLE('',#766,0.690988298943);
#766 = AXIS2_PLACEMENT_3D('',#767,#768,#769);
#767 = CARTESIAN_POINT('',(-13.0175,6.096,-0.690988298943));
#768 = DIRECTION('',(-0.154376880274,0.988012033751,0.));
#769 = DIRECTION('',(0.988012033751,0.154376880274,0.));
#770 = PCURVE('',#600,#771);
#771 = DEFINITIONAL_REPRESENTATION('',(#772),#776);
#772 = LINE('',#773,#774);
#773 = CARTESIAN_POINT('',(0.,0.));
#774 = VECTOR('',#775,1.);
#775 = DIRECTION('',(1.,0.));
#776 = ( GEOMETRIC_REPRESENTATION_CONTEXT(2) 
PARAMETRIC_REPRESENTATION_CONTEXT() REPRESENTATION_CONTEXT('2D SPACE',''
  ) );
#777 = PCURVE('',#661,#778);
#778 = DEFINITIONAL_REPRESENTATION('',(#779),#783);
#779 = LINE('',#780,#781);
#780 = CARTESIAN_POINT('',(0.154996741924,0.));
#781 = VECTOR('',#782,1.);
#782 = DIRECTION('',(0.,-1.));
#783 = ( GEOMETRIC_REPRESENTATION_CONTEXT(2) 
PARAMETRIC_REPRESENTATION_CONTEXT() REPRESENTATION_CONTEXT('2D SPACE',''
  ) );
#784 = ORIENTED_EDGE('',*,*,#785,.T.);
#785 = EDGE_CURVE('',#762,#581,#786,.T.);
#786 = SURFACE_CURVE('',#787,(#792,#799),.PCURVE_S1.);
#787 = CIRCLE('',#788,0.690988298943);
#788 = AXIS2_PLACEMENT_3D('',#789,#790,#791);
#789 = CARTESIAN_POINT('',(-13.0175,6.096,-0.690988298943));
#790 = DIRECTION('',(-0.154376880274,0.988012033751,0.));
#791 = DIRECTION('',(0.988012033751,0.154376880274,0.));
#792 = PCURVE('',#600,#793);
#793 = DEFINITIONAL_REPRESENTATION('',(#794),#798);
#794 = LINE('',#795,#796);
#795 = CARTESIAN_POINT('',(0.,0.));
#796 = VECTOR('',#797,1.);
#797 = DIRECTION('',(1.,0.));
#798 = ( GEOMETRIC_REPRESENTATION_CONTEXT(2) 
PARAMETRIC_REPRESENTATION_CONTEXT() REPRESENTATION_CONTEXT('2D SPACE',''
  ) );
#799 = PCURVE('',#632,#800);
#800 = DEFINITIONAL_REPRESENTATION('',(#801),#805);
#801 = LINE('',#802,#803);
#802 = CARTESIAN_POINT('',(3.296589395514,-3.14159265359));
#803 = VECTOR('',#804,1.);
#804 = DIRECTION('',(-0.,1.));
#805 = ( GEOMETRIC_REPRESENTATION_CONTEXT(2) 
PARAMETRIC_REPRESENTATION_CONTEXT() REPRESENTATION_CONTEXT('2D SPACE',''
  ) );
#806 = ORIENTED_EDGE('',*,*,#580,.T.);
#807 = ORIENTED_EDGE('',*,*,#673,.T.);
#808 = ORIENTED_EDGE('',*,*,#740,.T.);
#809 = ADVANCED_FACE('',(#810),#661,.T.);
#810 = FACE_BOUND('',#811,.T.);
#811 = EDGE_LOOP('',(#812,#813,#835));
#812 = ORIENTED_EDGE('',*,*,#644,.T.);
#813 = ORIENTED_EDGE('',*,*,#814,.F.);
#814 = EDGE_CURVE('',#762,#616,#815,.T.);
#815 = SURFACE_CURVE('',#816,(#821,#828),.PCURVE_S1.);
#816 = CIRCLE('',#817,0.690988298943);
#817 = AXIS2_PLACEMENT_3D('',#818,#819,#820);
#818 = CARTESIAN_POINT('',(-13.0175,6.096,-0.690988298943));
#819 = DIRECTION('',(-2.449293598295E-16,-1.,0.));
#820 = DIRECTION('',(1.,-2.449293598295E-16,0.));
#821 = PCURVE('',#661,#822);
#822 = DEFINITIONAL_REPRESENTATION('',(#823),#827);
#823 = LINE('',#824,#825);
#824 = CARTESIAN_POINT('',(0.,-6.28318530718));
#825 = VECTOR('',#826,1.);
#826 = DIRECTION('',(0.,1.));
#827 = ( GEOMETRIC_REPRESENTATION_CONTEXT(2) 
PARAMETRIC_REPRESENTATION_CONTEXT() REPRESENTATION_CONTEXT('2D SPACE',''
  ) );
#828 = PCURVE('',#632,#829);
#829 = DEFINITIONAL_REPRESENTATION('',(#830),#834);
#830 = LINE('',#831,#832);
#831 = CARTESIAN_POINT('',(6.28318530718,-6.28318530718));
#832 = VECTOR('',#833,1.);
#833 = DIRECTION('',(0.,1.));
#834 = ( GEOMETRIC_REPRESENTATION_CONTEXT(2) 
PARAMETRIC_REPRESENTATION_CONTEXT() REPRESENTATION_CONTEXT('2D SPACE',''
  ) );
#835 = ORIENTED_EDGE('',*,*,#761,.F.);
#836 = ADVANCED_FACE('',(#837),#632,.T.);
#837 = FACE_BOUND('',#838,.T.);
#838 = EDGE_LOOP('',(#839,#840,#841));
#839 = ORIENTED_EDGE('',*,*,#814,.T.);
#840 = ORIENTED_EDGE('',*,*,#615,.T.);
#841 = ORIENTED_EDGE('',*,*,#785,.F.);
#842 = ADVANCED_FACE('',(#843),#728,.T.);
#843 = FACE_BOUND('',#844,.T.);
#844 = EDGE_LOOP('',(#845));
#845 = ORIENTED_EDGE('',*,*,#711,.T.);
#846 = ( GEOMETRIC_REPRESENTATION_CONTEXT(3) 
GLOBAL_UNCERTAINTY_ASSIGNED_CONTEXT((#850)) GLOBAL_UNIT_ASSIGNED_CONTEXT
((#847,#848,#849)) REPRESENTATION_CONTEXT('Context #1',
  '3D Context with UNIT and UNCERTAINTY') );
#847 = ( LENGTH_UNIT() NAMED_UNIT(*) SI_UNIT(.MILLI.,.METRE.) );
#848 = ( NAMED_UNIT(*) PLANE_ANGLE_UNIT() SI_UNIT($,.RADIAN.) );
#849 = ( NAMED_UNIT(*) SI_UNIT($,.STERADIAN.) SOLID_ANGLE_UNIT() );
#850 = UNCERTAINTY_MEASURE_WITH_UNIT(LENGTH_MEASURE(1.E-07),#847,
  'distance_accuracy_value','confusion accuracy');
#851 = PRODUCT_RELATED_PRODUCT_CATEGORY('part',$,(#7));
ENDSEC;
END-ISO-10303-21;
