ISO-10303-21;
HEADER;
FILE_DESCRIPTION(('Open CASCADE Model'),'2;1');
FILE_NAME('Open CASCADE Shape Model','2026-03-25T11:24:43',('Author'),(
    'Open CASCADE'),'Open CASCADE STEP processor 7.8','Open CASCADE 7.8'
  ,'Unknown');
FILE_SCHEMA(('AUTOMOTIVE_DESIGN { 1 0 10303 214 1 1 1 1 }'));
ENDSEC;
DATA;
#1 = APPLICATION_PROTOCOL_DEFINITION('international standard',
  'automotive_design',2000,#2);
#2 = APPLICATION_CONTEXT(
  'core data for automotive mechanical design processes');
#3 = SHAPE_DEFINITION_REPRESENTATION(#4,#10);
#4 = PRODUCT_DEFINITION_SHAPE('','',#5);
#5 = PRODUCT_DEFINITION('design','',#6,#9);
#6 = PRODUCT_DEFINITION_FORMATION('','',#7);
#7 = PRODUCT('Open CASCADE STEP translator 7.8 2',
  'Open CASCADE STEP translator 7.8 2','',(#8));
#8 = PRODUCT_CONTEXT('',#2,'mechanical');
#9 = PRODUCT_DEFINITION_CONTEXT('part definition',#2,'design');
#10 = ADVANCED_BREP_SHAPE_REPRESENTATION('',(#11,#15),#904);
#11 = AXIS2_PLACEMENT_3D('',#12,#13,#14);
#12 = CARTESIAN_POINT('',(0.,0.,0.));
#13 = DIRECTION('',(0.,0.,1.));
#14 = DIRECTION('',(1.,0.,-0.));
#15 = MANIFOLD_SOLID_BREP('',#16);
#16 = CLOSED_SHELL('',(#17,#175,#179,#229,#256,#384,#586,#592,#759,#786,
    #792,#843,#900));
#17 = ADVANCED_FACE('',(#18),#32,.T.);
#18 = FACE_BOUND('',#19,.T.);
#19 = EDGE_LOOP('',(#20,#50,#91,#120,#147,#148));
#20 = ORIENTED_EDGE('',*,*,#21,.T.);
#21 = EDGE_CURVE('',#22,#24,#26,.T.);
#22 = VERTEX_POINT('',#23);
#23 = CARTESIAN_POINT('',(-22.39211211739,-6.060856290802,
    -0.690988298943));
#24 = VERTEX_POINT('',#25);
#25 = CARTESIAN_POINT('',(-21.85495953675,-0.703941574334,
    -0.690988298943));
#26 = SEAM_CURVE('',#27,(#31,#43),.PCURVE_S1.);
#27 = LINE('',#28,#29);
#28 = CARTESIAN_POINT('',(-22.39211211739,-6.060856290802,
    -0.690988298943));
#29 = VECTOR('',#30,1.);
#30 = DIRECTION('',(9.977241935931E-02,0.995010283532,-3.08148791102E-33
    ));
#31 = PCURVE('',#32,#37);
#32 = CYLINDRICAL_SURFACE('',#33,0.690988298943);
#33 = AXIS2_PLACEMENT_3D('',#34,#35,#36);
#34 = CARTESIAN_POINT('',(-23.07965258064,-5.991914716468,
    -0.690988298943));
#35 = DIRECTION('',(9.977241935931E-02,0.995010283532,0.));
#36 = DIRECTION('',(0.995010283532,-9.977241935931E-02,0.));
#37 = DEFINITIONAL_REPRESENTATION('',(#38),#42);
#38 = LINE('',#39,#40);
#39 = CARTESIAN_POINT('',(6.28318530718,-0.));
#40 = VECTOR('',#41,1.);
#41 = DIRECTION('',(0.,1.));
#42 = ( GEOMETRIC_REPRESENTATION_CONTEXT(2) 
PARAMETRIC_REPRESENTATION_CONTEXT() REPRESENTATION_CONTEXT('2D SPACE',''
  ) );
#43 = PCURVE('',#32,#44);
#44 = DEFINITIONAL_REPRESENTATION('',(#45),#49);
#45 = LINE('',#46,#47);
#46 = CARTESIAN_POINT('',(0.,-0.));
#47 = VECTOR('',#48,1.);
#48 = DIRECTION('',(0.,1.));
#49 = ( GEOMETRIC_REPRESENTATION_CONTEXT(2) 
PARAMETRIC_REPRESENTATION_CONTEXT() REPRESENTATION_CONTEXT('2D SPACE',''
  ) );
#50 = ORIENTED_EDGE('',*,*,#51,.F.);
#51 = EDGE_CURVE('',#52,#24,#54,.T.);
#52 = VERTEX_POINT('',#53);
#53 = CARTESIAN_POINT('',(-23.23004046324,-0.566058425666,
    -0.690988298943));
#54 = SURFACE_CURVE('',#55,(#60,#73),.PCURVE_S1.);
#55 = ELLIPSE('',#56,0.977205023806,0.690988298943);
#56 = AXIS2_PLACEMENT_3D('',#57,#58,#59);
#57 = CARTESIAN_POINT('',(-22.5425,-0.635,-0.690988298943));
#58 = DIRECTION('',(7.054975430435E-02,0.703578518836,0.707106781187));
#59 = DIRECTION('',(7.054975430435E-02,0.703578518836,-0.707106781187));
#60 = PCURVE('',#32,#61);
#61 = DEFINITIONAL_REPRESENTATION('',(#62),#72);
#62 = B_SPLINE_CURVE_WITH_KNOTS('',8,(#63,#64,#65,#66,#67,#68,#69,#70,
    #71),.UNSPECIFIED.,.F.,.F.,(9,9),(1.570795429479,4.712388950867),
  .PIECEWISE_BEZIER_KNOTS.);
#63 = CARTESIAN_POINT('',(3.141591756274,5.383778863462));
#64 = CARTESIAN_POINT('',(3.534290946447,5.112428318048));
#65 = CARTESIAN_POINT('',(3.926990136614,4.841075499724));
#66 = CARTESIAN_POINT('',(4.31968932681,4.633510643716));
#67 = CARTESIAN_POINT('',(4.712388516928,4.553349421702));
#68 = CARTESIAN_POINT('',(5.105087707154,4.633510341784));
#69 = CARTESIAN_POINT('',(5.497786897308,4.841074972182));
#70 = CARTESIAN_POINT('',(5.890486087488,5.112427677616));
#71 = CARTESIAN_POINT('',(6.283185277662,5.38377822303));
#72 = ( GEOMETRIC_REPRESENTATION_CONTEXT(2) 
PARAMETRIC_REPRESENTATION_CONTEXT() REPRESENTATION_CONTEXT('2D SPACE',''
  ) );
#73 = PCURVE('',#74,#79);
#74 = CYLINDRICAL_SURFACE('',#75,0.690988298943);
#75 = AXIS2_PLACEMENT_3D('',#76,#77,#78);
#76 = CARTESIAN_POINT('',(-22.5425,-0.635,-0.690988298943));
#77 = DIRECTION('',(0.,0.,1.));
#78 = DIRECTION('',(1.,0.,-0.));
#79 = DEFINITIONAL_REPRESENTATION('',(#80),#90);
#80 = B_SPLINE_CURVE_WITH_KNOTS('',8,(#81,#82,#83,#84,#85,#86,#87,#88,
    #89),.UNSPECIFIED.,.F.,.F.,(9,9),(1.570795429479,4.712388950867),
  .PIECEWISE_BEZIER_KNOTS.);
#81 = CARTESIAN_POINT('',(3.041653059635,-6.200347187901E-07));
#82 = CARTESIAN_POINT('',(3.434352249809,0.271349925379));
#83 = CARTESIAN_POINT('',(3.827051439981,0.542702743702));
#84 = CARTESIAN_POINT('',(4.219750630149,0.750267599708));
#85 = CARTESIAN_POINT('',(4.612449820328,0.83042882171));
#86 = CARTESIAN_POINT('',(5.005149010492,0.750267901642));
#87 = CARTESIAN_POINT('',(5.397848200678,0.542703271243));
#88 = CARTESIAN_POINT('',(5.79054739085,0.271350565811));
#89 = CARTESIAN_POINT('',(6.183246581023,2.039662372333E-08));
#90 = ( GEOMETRIC_REPRESENTATION_CONTEXT(2) 
PARAMETRIC_REPRESENTATION_CONTEXT() REPRESENTATION_CONTEXT('2D SPACE',''
  ) );
#91 = ORIENTED_EDGE('',*,*,#92,.F.);
#92 = EDGE_CURVE('',#93,#52,#95,.T.);
#93 = VERTEX_POINT('',#94);
#94 = CARTESIAN_POINT('',(-22.5425,-0.635,-1.381976597885));
#95 = SURFACE_CURVE('',#96,(#101,#108),.PCURVE_S1.);
#96 = CIRCLE('',#97,0.690988298943);
#97 = AXIS2_PLACEMENT_3D('',#98,#99,#100);
#98 = CARTESIAN_POINT('',(-22.5425,-0.635,-0.690988298943));
#99 = DIRECTION('',(9.977241935931E-02,0.995010283532,0.));
#100 = DIRECTION('',(0.995010283532,-9.977241935931E-02,0.));
#101 = PCURVE('',#32,#102);
#102 = DEFINITIONAL_REPRESENTATION('',(#103),#107);
#103 = LINE('',#104,#105);
#104 = CARTESIAN_POINT('',(0.,5.383778243427));
#105 = VECTOR('',#106,1.);
#106 = DIRECTION('',(1.,0.));
#107 = ( GEOMETRIC_REPRESENTATION_CONTEXT(2) 
PARAMETRIC_REPRESENTATION_CONTEXT() REPRESENTATION_CONTEXT('2D SPACE',''
  ) );
#108 = PCURVE('',#109,#114);
#109 = SPHERICAL_SURFACE('',#110,0.690988298943);
#110 = AXIS2_PLACEMENT_3D('',#111,#112,#113);
#111 = CARTESIAN_POINT('',(-22.5425,-0.635,-0.690988298943));
#112 = DIRECTION('',(0.,0.,1.));
#113 = DIRECTION('',(1.,0.,-0.));
#114 = DEFINITIONAL_REPRESENTATION('',(#115),#119);
#115 = LINE('',#116,#117);
#116 = CARTESIAN_POINT('',(3.041653956951,-3.14159265359));
#117 = VECTOR('',#118,1.);
#118 = DIRECTION('',(-0.,1.));
#119 = ( GEOMETRIC_REPRESENTATION_CONTEXT(2) 
PARAMETRIC_REPRESENTATION_CONTEXT() REPRESENTATION_CONTEXT('2D SPACE',''
  ) );
#120 = ORIENTED_EDGE('',*,*,#121,.F.);
#121 = EDGE_CURVE('',#24,#93,#122,.T.);
#122 = SURFACE_CURVE('',#123,(#128,#135),.PCURVE_S1.);
#123 = CIRCLE('',#124,0.690988298943);
#124 = AXIS2_PLACEMENT_3D('',#125,#126,#127);
#125 = CARTESIAN_POINT('',(-22.5425,-0.635,-0.690988298943));
#126 = DIRECTION('',(9.977241935931E-02,0.995010283532,0.));
#127 = DIRECTION('',(0.995010283532,-9.977241935931E-02,0.));
#128 = PCURVE('',#32,#129);
#129 = DEFINITIONAL_REPRESENTATION('',(#130),#134);
#130 = LINE('',#131,#132);
#131 = CARTESIAN_POINT('',(0.,5.383778243427));
#132 = VECTOR('',#133,1.);
#133 = DIRECTION('',(1.,0.));
#134 = ( GEOMETRIC_REPRESENTATION_CONTEXT(2) 
PARAMETRIC_REPRESENTATION_CONTEXT() REPRESENTATION_CONTEXT('2D SPACE',''
  ) );
#135 = PCURVE('',#136,#141);
#136 = SPHERICAL_SURFACE('',#137,0.690988298943);
#137 = AXIS2_PLACEMENT_3D('',#138,#139,#140);
#138 = CARTESIAN_POINT('',(-22.5425,-0.635,-0.690988298943));
#139 = DIRECTION('',(0.,0.,1.));
#140 = DIRECTION('',(1.,0.,-0.));
#141 = DEFINITIONAL_REPRESENTATION('',(#142),#146);
#142 = LINE('',#143,#144);
#143 = CARTESIAN_POINT('',(6.183246610541,0.));
#144 = VECTOR('',#145,1.);
#145 = DIRECTION('',(0.,-1.));
#146 = ( GEOMETRIC_REPRESENTATION_CONTEXT(2) 
PARAMETRIC_REPRESENTATION_CONTEXT() REPRESENTATION_CONTEXT('2D SPACE',''
  ) );
#147 = ORIENTED_EDGE('',*,*,#21,.F.);
#148 = ORIENTED_EDGE('',*,*,#149,.T.);
#149 = EDGE_CURVE('',#22,#22,#150,.T.);
#150 = SURFACE_CURVE('',#151,(#156,#163),.PCURVE_S1.);
#151 = CIRCLE('',#152,0.690988298943);
#152 = AXIS2_PLACEMENT_3D('',#153,#154,#155);
#153 = CARTESIAN_POINT('',(-23.07965258064,-5.991914716468,
    -0.690988298943));
#154 = DIRECTION('',(9.977241935931E-02,0.995010283532,0.));
#155 = DIRECTION('',(0.995010283532,-9.977241935931E-02,0.));
#156 = PCURVE('',#32,#157);
#157 = DEFINITIONAL_REPRESENTATION('',(#158),#162);
#158 = LINE('',#159,#160);
#159 = CARTESIAN_POINT('',(0.,0.));
#160 = VECTOR('',#161,1.);
#161 = DIRECTION('',(1.,0.));
#162 = ( GEOMETRIC_REPRESENTATION_CONTEXT(2) 
PARAMETRIC_REPRESENTATION_CONTEXT() REPRESENTATION_CONTEXT('2D SPACE',''
  ) );
#163 = PCURVE('',#164,#169);
#164 = PLANE('',#165);
#165 = AXIS2_PLACEMENT_3D('',#166,#167,#168);
#166 = CARTESIAN_POINT('',(-23.07965258064,-5.991914716468,
    -0.690988298943));
#167 = DIRECTION('',(9.977241935931E-02,0.995010283532,0.));
#168 = DIRECTION('',(0.995010283532,-9.977241935931E-02,0.));
#169 = DEFINITIONAL_REPRESENTATION('',(#170),#174);
#170 = CIRCLE('',#171,0.690988298943);
#171 = AXIS2_PLACEMENT_2D('',#172,#173);
#172 = CARTESIAN_POINT('',(0.,0.));
#173 = DIRECTION('',(1.,0.));
#174 = ( GEOMETRIC_REPRESENTATION_CONTEXT(2) 
PARAMETRIC_REPRESENTATION_CONTEXT() REPRESENTATION_CONTEXT('2D SPACE',''
  ) );
#175 = ADVANCED_FACE('',(#176),#164,.F.);
#176 = FACE_BOUND('',#177,.T.);
#177 = EDGE_LOOP('',(#178));
#178 = ORIENTED_EDGE('',*,*,#149,.F.);
#179 = ADVANCED_FACE('',(#180),#136,.T.);
#180 = FACE_BOUND('',#181,.T.);
#181 = EDGE_LOOP('',(#182,#206,#228));
#182 = ORIENTED_EDGE('',*,*,#183,.T.);
#183 = EDGE_CURVE('',#93,#184,#186,.T.);
#184 = VERTEX_POINT('',#185);
#185 = CARTESIAN_POINT('',(-21.85151170105,-0.635,-0.690988298943));
#186 = SURFACE_CURVE('',#187,(#192,#199),.PCURVE_S1.);
#187 = CIRCLE('',#188,0.690988298943);
#188 = AXIS2_PLACEMENT_3D('',#189,#190,#191);
#189 = CARTESIAN_POINT('',(-22.5425,-0.635,-0.690988298943));
#190 = DIRECTION('',(-2.449293598295E-16,-1.,0.));
#191 = DIRECTION('',(1.,-2.449293598295E-16,0.));
#192 = PCURVE('',#136,#193);
#193 = DEFINITIONAL_REPRESENTATION('',(#194),#198);
#194 = LINE('',#195,#196);
#195 = CARTESIAN_POINT('',(6.28318530718,-6.28318530718));
#196 = VECTOR('',#197,1.);
#197 = DIRECTION('',(0.,1.));
#198 = ( GEOMETRIC_REPRESENTATION_CONTEXT(2) 
PARAMETRIC_REPRESENTATION_CONTEXT() REPRESENTATION_CONTEXT('2D SPACE',''
  ) );
#199 = PCURVE('',#109,#200);
#200 = DEFINITIONAL_REPRESENTATION('',(#201),#205);
#201 = LINE('',#202,#203);
#202 = CARTESIAN_POINT('',(0.,-6.28318530718));
#203 = VECTOR('',#204,1.);
#204 = DIRECTION('',(0.,1.));
#205 = ( GEOMETRIC_REPRESENTATION_CONTEXT(2) 
PARAMETRIC_REPRESENTATION_CONTEXT() REPRESENTATION_CONTEXT('2D SPACE',''
  ) );
#206 = ORIENTED_EDGE('',*,*,#207,.F.);
#207 = EDGE_CURVE('',#24,#184,#208,.T.);
#208 = SURFACE_CURVE('',#209,(#214,#221),.PCURVE_S1.);
#209 = CIRCLE('',#210,0.690988298943);
#210 = AXIS2_PLACEMENT_3D('',#211,#212,#213);
#211 = CARTESIAN_POINT('',(-22.5425,-0.635,-0.690988298943));
#212 = DIRECTION('',(0.,0.,1.));
#213 = DIRECTION('',(1.,0.,-0.));
#214 = PCURVE('',#136,#215);
#215 = DEFINITIONAL_REPRESENTATION('',(#216),#220);
#216 = LINE('',#217,#218);
#217 = CARTESIAN_POINT('',(0.,0.));
#218 = VECTOR('',#219,1.);
#219 = DIRECTION('',(1.,0.));
#220 = ( GEOMETRIC_REPRESENTATION_CONTEXT(2) 
PARAMETRIC_REPRESENTATION_CONTEXT() REPRESENTATION_CONTEXT('2D SPACE',''
  ) );
#221 = PCURVE('',#74,#222);
#222 = DEFINITIONAL_REPRESENTATION('',(#223),#227);
#223 = LINE('',#224,#225);
#224 = CARTESIAN_POINT('',(0.,0.));
#225 = VECTOR('',#226,1.);
#226 = DIRECTION('',(1.,0.));
#227 = ( GEOMETRIC_REPRESENTATION_CONTEXT(2) 
PARAMETRIC_REPRESENTATION_CONTEXT() REPRESENTATION_CONTEXT('2D SPACE',''
  ) );
#228 = ORIENTED_EDGE('',*,*,#121,.T.);
#229 = ADVANCED_FACE('',(#230),#109,.T.);
#230 = FACE_BOUND('',#231,.T.);
#231 = EDGE_LOOP('',(#232,#254,#255));
#232 = ORIENTED_EDGE('',*,*,#233,.F.);
#233 = EDGE_CURVE('',#184,#52,#234,.T.);
#234 = SURFACE_CURVE('',#235,(#240,#247),.PCURVE_S1.);
#235 = CIRCLE('',#236,0.690988298943);
#236 = AXIS2_PLACEMENT_3D('',#237,#238,#239);
#237 = CARTESIAN_POINT('',(-22.5425,-0.635,-0.690988298943));
#238 = DIRECTION('',(0.,0.,1.));
#239 = DIRECTION('',(1.,0.,-0.));
#240 = PCURVE('',#109,#241);
#241 = DEFINITIONAL_REPRESENTATION('',(#242),#246);
#242 = LINE('',#243,#244);
#243 = CARTESIAN_POINT('',(0.,0.));
#244 = VECTOR('',#245,1.);
#245 = DIRECTION('',(1.,0.));
#246 = ( GEOMETRIC_REPRESENTATION_CONTEXT(2) 
PARAMETRIC_REPRESENTATION_CONTEXT() REPRESENTATION_CONTEXT('2D SPACE',''
  ) );
#247 = PCURVE('',#74,#248);
#248 = DEFINITIONAL_REPRESENTATION('',(#249),#253);
#249 = LINE('',#250,#251);
#250 = CARTESIAN_POINT('',(0.,0.));
#251 = VECTOR('',#252,1.);
#252 = DIRECTION('',(1.,0.));
#253 = ( GEOMETRIC_REPRESENTATION_CONTEXT(2) 
PARAMETRIC_REPRESENTATION_CONTEXT() REPRESENTATION_CONTEXT('2D SPACE',''
  ) );
#254 = ORIENTED_EDGE('',*,*,#183,.F.);
#255 = ORIENTED_EDGE('',*,*,#92,.T.);
#256 = ADVANCED_FACE('',(#257),#74,.T.);
#257 = FACE_BOUND('',#258,.T.);
#258 = EDGE_LOOP('',(#259,#260,#283,#318,#347,#381,#382,#383));
#259 = ORIENTED_EDGE('',*,*,#207,.T.);
#260 = ORIENTED_EDGE('',*,*,#261,.T.);
#261 = EDGE_CURVE('',#184,#262,#264,.T.);
#262 = VERTEX_POINT('',#263);
#263 = CARTESIAN_POINT('',(-21.85151170105,-0.635,2.079941432706));
#264 = SEAM_CURVE('',#265,(#269,#276),.PCURVE_S1.);
#265 = LINE('',#266,#267);
#266 = CARTESIAN_POINT('',(-21.85151170105,-0.635,-0.690988298943));
#267 = VECTOR('',#268,1.);
#268 = DIRECTION('',(0.,0.,1.));
#269 = PCURVE('',#74,#270);
#270 = DEFINITIONAL_REPRESENTATION('',(#271),#275);
#271 = LINE('',#272,#273);
#272 = CARTESIAN_POINT('',(0.,-0.));
#273 = VECTOR('',#274,1.);
#274 = DIRECTION('',(0.,1.));
#275 = ( GEOMETRIC_REPRESENTATION_CONTEXT(2) 
PARAMETRIC_REPRESENTATION_CONTEXT() REPRESENTATION_CONTEXT('2D SPACE',''
  ) );
#276 = PCURVE('',#74,#277);
#277 = DEFINITIONAL_REPRESENTATION('',(#278),#282);
#278 = LINE('',#279,#280);
#279 = CARTESIAN_POINT('',(6.28318530718,-0.));
#280 = VECTOR('',#281,1.);
#281 = DIRECTION('',(0.,1.));
#282 = ( GEOMETRIC_REPRESENTATION_CONTEXT(2) 
PARAMETRIC_REPRESENTATION_CONTEXT() REPRESENTATION_CONTEXT('2D SPACE',''
  ) );
#283 = ORIENTED_EDGE('',*,*,#284,.F.);
#284 = EDGE_CURVE('',#285,#262,#287,.T.);
#285 = VERTEX_POINT('',#286);
#286 = CARTESIAN_POINT('',(-21.8845303582,-0.846046866237,2.290988298943
    ));
#287 = SURFACE_CURVE('',#288,(#293,#303),.PCURVE_S1.);
#288 = ELLIPSE('',#289,0.977205023806,0.690988298943);
#289 = AXIS2_PLACEMENT_3D('',#290,#291,#292);
#290 = CARTESIAN_POINT('',(-22.5425,-0.635,2.290988298943));
#291 = DIRECTION('',(0.215969894849,0.673317907469,0.707106781187));
#292 = DIRECTION('',(-0.215969894849,-0.673317907469,0.707106781187));
#293 = PCURVE('',#74,#294);
#294 = DEFINITIONAL_REPRESENTATION('',(#295),#302);
#295 = B_SPLINE_CURVE_WITH_KNOTS('',5,(#296,#297,#298,#299,#300,#301),
  .UNSPECIFIED.,.F.,.F.,(6,6),(1.570795429238,1.881183733927),
  .PIECEWISE_BEZIER_KNOTS.);
#296 = CARTESIAN_POINT('',(5.97279700249,2.981977218087));
#297 = CARTESIAN_POINT('',(6.034874663428,2.939082280753));
#298 = CARTESIAN_POINT('',(6.096952324366,2.896187337855));
#299 = CARTESIAN_POINT('',(6.159029985304,2.853636783335));
#300 = CARTESIAN_POINT('',(6.221107646241,2.811774947979));
#301 = CARTESIAN_POINT('',(6.283185307179,2.770929731649));
#302 = ( GEOMETRIC_REPRESENTATION_CONTEXT(2) 
PARAMETRIC_REPRESENTATION_CONTEXT() REPRESENTATION_CONTEXT('2D SPACE',''
  ) );
#303 = PCURVE('',#304,#309);
#304 = CYLINDRICAL_SURFACE('',#305,0.690988298943);
#305 = AXIS2_PLACEMENT_3D('',#306,#307,#308);
#306 = CARTESIAN_POINT('',(-22.5425,-0.635,2.290988298943));
#307 = DIRECTION('',(0.305427554359,0.952215316532,0.));
#308 = DIRECTION('',(0.952215316532,-0.305427554359,0.));
#309 = DEFINITIONAL_REPRESENTATION('',(#310),#317);
#310 = B_SPLINE_CURVE_WITH_KNOTS('',5,(#311,#312,#313,#314,#315,#316),
  .UNSPECIFIED.,.F.,.F.,(6,6),(1.570795429238,1.881183733927),
  .PIECEWISE_BEZIER_KNOTS.);
#311 = CARTESIAN_POINT('',(-8.975573830838E-07,-6.202016509249E-07));
#312 = CARTESIAN_POINT('',(6.207676338052E-02,4.289431713215E-02));
#313 = CARTESIAN_POINT('',(0.124154424318,8.578926002991E-02));
#314 = CARTESIAN_POINT('',(0.186232085256,0.12833981455));
#315 = CARTESIAN_POINT('',(0.248309746194,0.170201649906));
#316 = CARTESIAN_POINT('',(0.310387407132,0.211046866237));
#317 = ( GEOMETRIC_REPRESENTATION_CONTEXT(2) 
PARAMETRIC_REPRESENTATION_CONTEXT() REPRESENTATION_CONTEXT('2D SPACE',''
  ) );
#318 = ORIENTED_EDGE('',*,*,#319,.F.);
#319 = EDGE_CURVE('',#320,#285,#322,.T.);
#320 = VERTEX_POINT('',#321);
#321 = CARTESIAN_POINT('',(-23.20046964179,-0.423953133763,
    2.290988298943));
#322 = SURFACE_CURVE('',#323,(#328,#335),.PCURVE_S1.);
#323 = CIRCLE('',#324,0.690988298943);
#324 = AXIS2_PLACEMENT_3D('',#325,#326,#327);
#325 = CARTESIAN_POINT('',(-22.5425,-0.635,2.290988298943));
#326 = DIRECTION('',(0.,0.,1.));
#327 = DIRECTION('',(1.,0.,-0.));
#328 = PCURVE('',#74,#329);
#329 = DEFINITIONAL_REPRESENTATION('',(#330),#334);
#330 = LINE('',#331,#332);
#331 = CARTESIAN_POINT('',(0.,2.981976597885));
#332 = VECTOR('',#333,1.);
#333 = DIRECTION('',(1.,0.));
#334 = ( GEOMETRIC_REPRESENTATION_CONTEXT(2) 
PARAMETRIC_REPRESENTATION_CONTEXT() REPRESENTATION_CONTEXT('2D SPACE',''
  ) );
#335 = PCURVE('',#336,#341);
#336 = SPHERICAL_SURFACE('',#337,0.690988298943);
#337 = AXIS2_PLACEMENT_3D('',#338,#339,#340);
#338 = CARTESIAN_POINT('',(-22.5425,-0.635,2.290988298943));
#339 = DIRECTION('',(0.,0.,1.));
#340 = DIRECTION('',(1.,0.,-0.));
#341 = DEFINITIONAL_REPRESENTATION('',(#342),#346);
#342 = LINE('',#343,#344);
#343 = CARTESIAN_POINT('',(0.,0.));
#344 = VECTOR('',#345,1.);
#345 = DIRECTION('',(1.,0.));
#346 = ( GEOMETRIC_REPRESENTATION_CONTEXT(2) 
PARAMETRIC_REPRESENTATION_CONTEXT() REPRESENTATION_CONTEXT('2D SPACE',''
  ) );
#347 = ORIENTED_EDGE('',*,*,#348,.F.);
#348 = EDGE_CURVE('',#262,#320,#349,.T.);
#349 = SURFACE_CURVE('',#350,(#355,#368),.PCURVE_S1.);
#350 = ELLIPSE('',#351,0.977205023806,0.690988298943);
#351 = AXIS2_PLACEMENT_3D('',#352,#353,#354);
#352 = CARTESIAN_POINT('',(-22.5425,-0.635,2.290988298943));
#353 = DIRECTION('',(0.215969894849,0.673317907469,0.707106781187));
#354 = DIRECTION('',(-0.215969894849,-0.673317907469,0.707106781187));
#355 = PCURVE('',#74,#356);
#356 = DEFINITIONAL_REPRESENTATION('',(#357),#367);
#357 = B_SPLINE_CURVE_WITH_KNOTS('',8,(#358,#359,#360,#361,#362,#363,
    #364,#365,#366),.UNSPECIFIED.,.F.,.F.,(9,9),(1.881183733927,
    4.712388952594),.PIECEWISE_BEZIER_KNOTS.);
#358 = CARTESIAN_POINT('',(-2.389199948993E-13,2.770929731649));
#359 = CARTESIAN_POINT('',(0.353900652333,2.538073846201));
#360 = CARTESIAN_POINT('',(0.707801304665,2.335427286284));
#361 = CARTESIAN_POINT('',(1.061701957004,2.207428136782));
#362 = CARTESIAN_POINT('',(1.415602609325,2.190442074707));
#363 = CARTESIAN_POINT('',(1.769503261668,2.295038198004));
#364 = CARTESIAN_POINT('',(2.123403913998,2.492892112391));
#365 = CARTESIAN_POINT('',(2.477304566333,2.737435368932));
#366 = CARTESIAN_POINT('',(2.831205218666,2.981976578682));
#367 = ( GEOMETRIC_REPRESENTATION_CONTEXT(2) 
PARAMETRIC_REPRESENTATION_CONTEXT() REPRESENTATION_CONTEXT('2D SPACE',''
  ) );
#368 = PCURVE('',#304,#369);
#369 = DEFINITIONAL_REPRESENTATION('',(#370),#380);
#370 = B_SPLINE_CURVE_WITH_KNOTS('',8,(#371,#372,#373,#374,#375,#376,
    #377,#378,#379),.UNSPECIFIED.,.F.,.F.,(9,9),(1.881183733927,
    4.712388952594),.PIECEWISE_BEZIER_KNOTS.);
#371 = CARTESIAN_POINT('',(0.310387407132,0.211046866237));
#372 = CARTESIAN_POINT('',(0.664288059465,0.443902751685));
#373 = CARTESIAN_POINT('',(1.0181887118,0.646549311603));
#374 = CARTESIAN_POINT('',(1.372089364121,0.774548461094));
#375 = CARTESIAN_POINT('',(1.725990016475,0.791534523183));
#376 = CARTESIAN_POINT('',(2.079890668787,0.686938399874));
#377 = CARTESIAN_POINT('',(2.433791321133,0.489084485495));
#378 = CARTESIAN_POINT('',(2.787691973465,0.244541228954));
#379 = CARTESIAN_POINT('',(3.141592625799,1.920325498617E-08));
#380 = ( GEOMETRIC_REPRESENTATION_CONTEXT(2) 
PARAMETRIC_REPRESENTATION_CONTEXT() REPRESENTATION_CONTEXT('2D SPACE',''
  ) );
#381 = ORIENTED_EDGE('',*,*,#261,.F.);
#382 = ORIENTED_EDGE('',*,*,#233,.T.);
#383 = ORIENTED_EDGE('',*,*,#51,.T.);
#384 = ADVANCED_FACE('',(#385),#304,.T.);
#385 = FACE_BOUND('',#386,.T.);
#386 = EDGE_LOOP('',(#387,#430,#451,#452,#453,#477,#499,#500,#529,#558)
  );
#387 = ORIENTED_EDGE('',*,*,#388,.F.);
#388 = EDGE_CURVE('',#389,#391,#393,.T.);
#389 = VERTEX_POINT('',#390);
#390 = CARTESIAN_POINT('',(-19.7255303582,5.884953133763,2.290988298943)
  );
#391 = VERTEX_POINT('',#392);
#392 = CARTESIAN_POINT('',(-21.07448829894,6.096,2.079941432705));
#393 = SURFACE_CURVE('',#394,(#399,#412),.PCURVE_S1.);
#394 = ELLIPSE('',#395,0.977205023806,0.690988298943);
#395 = AXIS2_PLACEMENT_3D('',#396,#397,#398);
#396 = CARTESIAN_POINT('',(-20.3835,6.096,2.290988298943));
#397 = DIRECTION('',(0.215969894849,0.673317907469,-0.707106781187));
#398 = DIRECTION('',(0.215969894849,0.673317907469,0.707106781187));
#399 = PCURVE('',#304,#400);
#400 = DEFINITIONAL_REPRESENTATION('',(#401),#411);
#401 = B_SPLINE_CURVE_WITH_KNOTS('',8,(#402,#403,#404,#405,#406,#407,
    #408,#409,#410),.UNSPECIFIED.,.F.,.F.,(9,9),(1.570795433776,
    4.402001573252),.PIECEWISE_BEZIER_KNOTS.);
#402 = CARTESIAN_POINT('',(-8.930191137679E-07,7.068780002504));
#403 = CARTESIAN_POINT('',(0.353899874415,6.82423871322));
#404 = CARTESIAN_POINT('',(0.707800641847,6.579695286046));
#405 = CARTESIAN_POINT('',(1.061701409289,6.381841155639));
#406 = CARTESIAN_POINT('',(1.415602176717,6.277244840141));
#407 = CARTESIAN_POINT('',(1.769502944158,6.29423079946));
#408 = CARTESIAN_POINT('',(2.123403711586,6.422229942011));
#409 = CARTESIAN_POINT('',(2.477304479023,6.624876558021));
#410 = CARTESIAN_POINT('',(2.831205246457,6.857732519201));
#411 = ( GEOMETRIC_REPRESENTATION_CONTEXT(2) 
PARAMETRIC_REPRESENTATION_CONTEXT() REPRESENTATION_CONTEXT('2D SPACE',''
  ) );
#412 = PCURVE('',#413,#418);
#413 = CYLINDRICAL_SURFACE('',#414,0.690988298943);
#414 = AXIS2_PLACEMENT_3D('',#415,#416,#417);
#415 = CARTESIAN_POINT('',(-20.3835,6.096,2.290988298943));
#416 = DIRECTION('',(0.,0.,-1.));
#417 = DIRECTION('',(-1.,0.,-0.));
#418 = DEFINITIONAL_REPRESENTATION('',(#419),#429);
#419 = B_SPLINE_CURVE_WITH_KNOTS('',8,(#420,#421,#422,#423,#424,#425,
    #426,#427,#428),.UNSPECIFIED.,.F.,.F.,(9,9),(1.570795433776,
    4.402001573252),.PIECEWISE_BEZIER_KNOTS.);
#420 = CARTESIAN_POINT('',(3.451979167703,-6.170657580462E-07));
#421 = CARTESIAN_POINT('',(3.805879935138,0.244540672218));
#422 = CARTESIAN_POINT('',(4.15978070257,0.489084099377));
#423 = CARTESIAN_POINT('',(4.513681469998,0.686938229824));
#424 = CARTESIAN_POINT('',(4.867582237424,0.791534545237));
#425 = CARTESIAN_POINT('',(5.221483004862,0.774548586007));
#426 = CARTESIAN_POINT('',(5.575383772309,0.646549443414));
#427 = CARTESIAN_POINT('',(5.929284539745,0.443902827418));
#428 = CARTESIAN_POINT('',(6.283185307179,0.211046866237));
#429 = ( GEOMETRIC_REPRESENTATION_CONTEXT(2) 
PARAMETRIC_REPRESENTATION_CONTEXT() REPRESENTATION_CONTEXT('2D SPACE',''
  ) );
#430 = ORIENTED_EDGE('',*,*,#431,.F.);
#431 = EDGE_CURVE('',#285,#389,#432,.T.);
#432 = SEAM_CURVE('',#433,(#437,#444),.PCURVE_S1.);
#433 = LINE('',#434,#435);
#434 = CARTESIAN_POINT('',(-21.8845303582,-0.846046866237,2.290988298943
    ));
#435 = VECTOR('',#436,1.);
#436 = DIRECTION('',(0.305427554359,0.952215316532,1.232595164408E-32));
#437 = PCURVE('',#304,#438);
#438 = DEFINITIONAL_REPRESENTATION('',(#439),#443);
#439 = LINE('',#440,#441);
#440 = CARTESIAN_POINT('',(6.28318530718,-0.));
#441 = VECTOR('',#442,1.);
#442 = DIRECTION('',(0.,1.));
#443 = ( GEOMETRIC_REPRESENTATION_CONTEXT(2) 
PARAMETRIC_REPRESENTATION_CONTEXT() REPRESENTATION_CONTEXT('2D SPACE',''
  ) );
#444 = PCURVE('',#304,#445);
#445 = DEFINITIONAL_REPRESENTATION('',(#446),#450);
#446 = LINE('',#447,#448);
#447 = CARTESIAN_POINT('',(0.,-0.));
#448 = VECTOR('',#449,1.);
#449 = DIRECTION('',(0.,1.));
#450 = ( GEOMETRIC_REPRESENTATION_CONTEXT(2) 
PARAMETRIC_REPRESENTATION_CONTEXT() REPRESENTATION_CONTEXT('2D SPACE',''
  ) );
#451 = ORIENTED_EDGE('',*,*,#284,.T.);
#452 = ORIENTED_EDGE('',*,*,#348,.T.);
#453 = ORIENTED_EDGE('',*,*,#454,.T.);
#454 = EDGE_CURVE('',#320,#455,#457,.T.);
#455 = VERTEX_POINT('',#456);
#456 = CARTESIAN_POINT('',(-22.5425,-0.635,2.981976597885));
#457 = SURFACE_CURVE('',#458,(#463,#470),.PCURVE_S1.);
#458 = CIRCLE('',#459,0.690988298943);
#459 = AXIS2_PLACEMENT_3D('',#460,#461,#462);
#460 = CARTESIAN_POINT('',(-22.5425,-0.635,2.290988298943));
#461 = DIRECTION('',(0.305427554359,0.952215316532,0.));
#462 = DIRECTION('',(0.952215316532,-0.305427554359,0.));
#463 = PCURVE('',#304,#464);
#464 = DEFINITIONAL_REPRESENTATION('',(#465),#469);
#465 = LINE('',#466,#467);
#466 = CARTESIAN_POINT('',(0.,0.));
#467 = VECTOR('',#468,1.);
#468 = DIRECTION('',(1.,0.));
#469 = ( GEOMETRIC_REPRESENTATION_CONTEXT(2) 
PARAMETRIC_REPRESENTATION_CONTEXT() REPRESENTATION_CONTEXT('2D SPACE',''
  ) );
#470 = PCURVE('',#336,#471);
#471 = DEFINITIONAL_REPRESENTATION('',(#472),#476);
#472 = LINE('',#473,#474);
#473 = CARTESIAN_POINT('',(2.831205246457,-3.14159265359));
#474 = VECTOR('',#475,1.);
#475 = DIRECTION('',(-0.,1.));
#476 = ( GEOMETRIC_REPRESENTATION_CONTEXT(2) 
PARAMETRIC_REPRESENTATION_CONTEXT() REPRESENTATION_CONTEXT('2D SPACE',''
  ) );
#477 = ORIENTED_EDGE('',*,*,#478,.T.);
#478 = EDGE_CURVE('',#455,#285,#479,.T.);
#479 = SURFACE_CURVE('',#480,(#485,#492),.PCURVE_S1.);
#480 = CIRCLE('',#481,0.690988298943);
#481 = AXIS2_PLACEMENT_3D('',#482,#483,#484);
#482 = CARTESIAN_POINT('',(-22.5425,-0.635,2.290988298943));
#483 = DIRECTION('',(0.305427554359,0.952215316532,0.));
#484 = DIRECTION('',(0.952215316532,-0.305427554359,0.));
#485 = PCURVE('',#304,#486);
#486 = DEFINITIONAL_REPRESENTATION('',(#487),#491);
#487 = LINE('',#488,#489);
#488 = CARTESIAN_POINT('',(0.,0.));
#489 = VECTOR('',#490,1.);
#490 = DIRECTION('',(1.,0.));
#491 = ( GEOMETRIC_REPRESENTATION_CONTEXT(2) 
PARAMETRIC_REPRESENTATION_CONTEXT() REPRESENTATION_CONTEXT('2D SPACE',''
  ) );
#492 = PCURVE('',#336,#493);
#493 = DEFINITIONAL_REPRESENTATION('',(#494),#498);
#494 = LINE('',#495,#496);
#495 = CARTESIAN_POINT('',(5.972797900047,6.28318530718));
#496 = VECTOR('',#497,1.);
#497 = DIRECTION('',(0.,-1.));
#498 = ( GEOMETRIC_REPRESENTATION_CONTEXT(2) 
PARAMETRIC_REPRESENTATION_CONTEXT() REPRESENTATION_CONTEXT('2D SPACE',''
  ) );
#499 = ORIENTED_EDGE('',*,*,#431,.T.);
#500 = ORIENTED_EDGE('',*,*,#501,.F.);
#501 = EDGE_CURVE('',#502,#389,#504,.T.);
#502 = VERTEX_POINT('',#503);
#503 = CARTESIAN_POINT('',(-20.3835,6.096,2.981976597885));
#504 = SURFACE_CURVE('',#505,(#510,#517),.PCURVE_S1.);
#505 = CIRCLE('',#506,0.690988298943);
#506 = AXIS2_PLACEMENT_3D('',#507,#508,#509);
#507 = CARTESIAN_POINT('',(-20.3835,6.096,2.290988298943));
#508 = DIRECTION('',(0.305427554359,0.952215316532,0.));
#509 = DIRECTION('',(0.952215316532,-0.305427554359,0.));
#510 = PCURVE('',#304,#511);
#511 = DEFINITIONAL_REPRESENTATION('',(#512),#516);
#512 = LINE('',#513,#514);
#513 = CARTESIAN_POINT('',(0.,7.068779385438));
#514 = VECTOR('',#515,1.);
#515 = DIRECTION('',(1.,0.));
#516 = ( GEOMETRIC_REPRESENTATION_CONTEXT(2) 
PARAMETRIC_REPRESENTATION_CONTEXT() REPRESENTATION_CONTEXT('2D SPACE',''
  ) );
#517 = PCURVE('',#518,#523);
#518 = SPHERICAL_SURFACE('',#519,0.690988298943);
#519 = AXIS2_PLACEMENT_3D('',#520,#521,#522);
#520 = CARTESIAN_POINT('',(-20.3835,6.096,2.290988298943));
#521 = DIRECTION('',(0.,0.,1.));
#522 = DIRECTION('',(1.,0.,-0.));
#523 = DEFINITIONAL_REPRESENTATION('',(#524),#528);
#524 = LINE('',#525,#526);
#525 = CARTESIAN_POINT('',(5.972797900047,6.28318530718));
#526 = VECTOR('',#527,1.);
#527 = DIRECTION('',(0.,-1.));
#528 = ( GEOMETRIC_REPRESENTATION_CONTEXT(2) 
PARAMETRIC_REPRESENTATION_CONTEXT() REPRESENTATION_CONTEXT('2D SPACE',''
  ) );
#529 = ORIENTED_EDGE('',*,*,#530,.F.);
#530 = EDGE_CURVE('',#531,#502,#533,.T.);
#531 = VERTEX_POINT('',#532);
#532 = CARTESIAN_POINT('',(-21.04146964179,6.307046866237,2.290988298943
    ));
#533 = SURFACE_CURVE('',#534,(#539,#546),.PCURVE_S1.);
#534 = CIRCLE('',#535,0.690988298943);
#535 = AXIS2_PLACEMENT_3D('',#536,#537,#538);
#536 = CARTESIAN_POINT('',(-20.3835,6.096,2.290988298943));
#537 = DIRECTION('',(0.305427554359,0.952215316532,0.));
#538 = DIRECTION('',(0.952215316532,-0.305427554359,0.));
#539 = PCURVE('',#304,#540);
#540 = DEFINITIONAL_REPRESENTATION('',(#541),#545);
#541 = LINE('',#542,#543);
#542 = CARTESIAN_POINT('',(0.,7.068779385438));
#543 = VECTOR('',#544,1.);
#544 = DIRECTION('',(1.,0.));
#545 = ( GEOMETRIC_REPRESENTATION_CONTEXT(2) 
PARAMETRIC_REPRESENTATION_CONTEXT() REPRESENTATION_CONTEXT('2D SPACE',''
  ) );
#546 = PCURVE('',#547,#552);
#547 = SPHERICAL_SURFACE('',#548,0.690988298943);
#548 = AXIS2_PLACEMENT_3D('',#549,#550,#551);
#549 = CARTESIAN_POINT('',(-20.3835,6.096,2.290988298943));
#550 = DIRECTION('',(0.,0.,1.));
#551 = DIRECTION('',(1.,0.,-0.));
#552 = DEFINITIONAL_REPRESENTATION('',(#553),#557);
#553 = LINE('',#554,#555);
#554 = CARTESIAN_POINT('',(2.831205246457,-3.14159265359));
#555 = VECTOR('',#556,1.);
#556 = DIRECTION('',(-0.,1.));
#557 = ( GEOMETRIC_REPRESENTATION_CONTEXT(2) 
PARAMETRIC_REPRESENTATION_CONTEXT() REPRESENTATION_CONTEXT('2D SPACE',''
  ) );
#558 = ORIENTED_EDGE('',*,*,#559,.F.);
#559 = EDGE_CURVE('',#391,#531,#560,.T.);
#560 = SURFACE_CURVE('',#561,(#566,#576),.PCURVE_S1.);
#561 = ELLIPSE('',#562,0.977205023806,0.690988298943);
#562 = AXIS2_PLACEMENT_3D('',#563,#564,#565);
#563 = CARTESIAN_POINT('',(-20.3835,6.096,2.290988298943));
#564 = DIRECTION('',(0.215969894849,0.673317907469,-0.707106781187));
#565 = DIRECTION('',(0.215969894849,0.673317907469,0.707106781187));
#566 = PCURVE('',#304,#567);
#567 = DEFINITIONAL_REPRESENTATION('',(#568),#575);
#568 = B_SPLINE_CURVE_WITH_KNOTS('',5,(#569,#570,#571,#572,#573,#574),
  .UNSPECIFIED.,.F.,.F.,(6,6),(4.402001573252,4.712388954217),
  .PIECEWISE_BEZIER_KNOTS.);
#569 = CARTESIAN_POINT('',(2.831205246457,6.857732519201));
#570 = CARTESIAN_POINT('',(2.89328272265,6.898577613976));
#571 = CARTESIAN_POINT('',(2.955360198843,6.940439321724));
#572 = CARTESIAN_POINT('',(3.017437675036,6.982989745513));
#573 = CARTESIAN_POINT('',(3.079515151229,7.02588455768));
#574 = CARTESIAN_POINT('',(3.141592627422,7.068779367357));
#575 = ( GEOMETRIC_REPRESENTATION_CONTEXT(2) 
PARAMETRIC_REPRESENTATION_CONTEXT() REPRESENTATION_CONTEXT('2D SPACE',''
  ) );
#576 = PCURVE('',#413,#577);
#577 = DEFINITIONAL_REPRESENTATION('',(#578),#585);
#578 = B_SPLINE_CURVE_WITH_KNOTS('',5,(#579,#580,#581,#582,#583,#584),
  .UNSPECIFIED.,.F.,.F.,(6,6),(4.402001573252,4.712388954217),
  .PIECEWISE_BEZIER_KNOTS.);
#579 = CARTESIAN_POINT('',(-1.900701818158E-13,0.211046866237));
#580 = CARTESIAN_POINT('',(6.207747619275E-02,0.170201771463));
#581 = CARTESIAN_POINT('',(0.124154952386,0.128340063714));
#582 = CARTESIAN_POINT('',(0.186232428579,8.578963992538E-02));
#583 = CARTESIAN_POINT('',(0.248309904772,4.289482775889E-02));
#584 = CARTESIAN_POINT('',(0.310387380965,1.80816783768E-08));
#585 = ( GEOMETRIC_REPRESENTATION_CONTEXT(2) 
PARAMETRIC_REPRESENTATION_CONTEXT() REPRESENTATION_CONTEXT('2D SPACE',''
  ) );
#586 = ADVANCED_FACE('',(#587),#336,.T.);
#587 = FACE_BOUND('',#588,.T.);
#588 = EDGE_LOOP('',(#589,#590,#591));
#589 = ORIENTED_EDGE('',*,*,#478,.F.);
#590 = ORIENTED_EDGE('',*,*,#454,.F.);
#591 = ORIENTED_EDGE('',*,*,#319,.T.);
#592 = ADVANCED_FACE('',(#593),#413,.T.);
#593 = FACE_BOUND('',#594,.T.);
#594 = EDGE_LOOP('',(#595,#619,#620,#643,#672,#713,#735,#736,#737));
#595 = ORIENTED_EDGE('',*,*,#596,.T.);
#596 = EDGE_CURVE('',#597,#389,#599,.T.);
#597 = VERTEX_POINT('',#598);
#598 = CARTESIAN_POINT('',(-19.69251170105,6.096,2.290988298943));
#599 = SURFACE_CURVE('',#600,(#605,#612),.PCURVE_S1.);
#600 = CIRCLE('',#601,0.690988298943);
#601 = AXIS2_PLACEMENT_3D('',#602,#603,#604);
#602 = CARTESIAN_POINT('',(-20.3835,6.096,2.290988298943));
#603 = DIRECTION('',(0.,0.,-1.));
#604 = DIRECTION('',(-1.,0.,-0.));
#605 = PCURVE('',#413,#606);
#606 = DEFINITIONAL_REPRESENTATION('',(#607),#611);
#607 = LINE('',#608,#609);
#608 = CARTESIAN_POINT('',(0.,0.));
#609 = VECTOR('',#610,1.);
#610 = DIRECTION('',(1.,0.));
#611 = ( GEOMETRIC_REPRESENTATION_CONTEXT(2) 
PARAMETRIC_REPRESENTATION_CONTEXT() REPRESENTATION_CONTEXT('2D SPACE',''
  ) );
#612 = PCURVE('',#518,#613);
#613 = DEFINITIONAL_REPRESENTATION('',(#614),#618);
#614 = LINE('',#615,#616);
#615 = CARTESIAN_POINT('',(9.424777960769,0.));
#616 = VECTOR('',#617,1.);
#617 = DIRECTION('',(-1.,0.));
#618 = ( GEOMETRIC_REPRESENTATION_CONTEXT(2) 
PARAMETRIC_REPRESENTATION_CONTEXT() REPRESENTATION_CONTEXT('2D SPACE',''
  ) );
#619 = ORIENTED_EDGE('',*,*,#388,.T.);
#620 = ORIENTED_EDGE('',*,*,#621,.T.);
#621 = EDGE_CURVE('',#391,#622,#624,.T.);
#622 = VERTEX_POINT('',#623);
#623 = CARTESIAN_POINT('',(-21.07448829894,6.096,-0.690988298943));
#624 = SEAM_CURVE('',#625,(#629,#636),.PCURVE_S1.);
#625 = LINE('',#626,#627);
#626 = CARTESIAN_POINT('',(-21.07448829894,6.096,2.290988298943));
#627 = VECTOR('',#628,1.);
#628 = DIRECTION('',(0.,0.,-1.));
#629 = PCURVE('',#413,#630);
#630 = DEFINITIONAL_REPRESENTATION('',(#631),#635);
#631 = LINE('',#632,#633);
#632 = CARTESIAN_POINT('',(0.,-0.));
#633 = VECTOR('',#634,1.);
#634 = DIRECTION('',(0.,1.));
#635 = ( GEOMETRIC_REPRESENTATION_CONTEXT(2) 
PARAMETRIC_REPRESENTATION_CONTEXT() REPRESENTATION_CONTEXT('2D SPACE',''
  ) );
#636 = PCURVE('',#413,#637);
#637 = DEFINITIONAL_REPRESENTATION('',(#638),#642);
#638 = LINE('',#639,#640);
#639 = CARTESIAN_POINT('',(6.28318530718,-0.));
#640 = VECTOR('',#641,1.);
#641 = DIRECTION('',(0.,1.));
#642 = ( GEOMETRIC_REPRESENTATION_CONTEXT(2) 
PARAMETRIC_REPRESENTATION_CONTEXT() REPRESENTATION_CONTEXT('2D SPACE',''
  ) );
#643 = ORIENTED_EDGE('',*,*,#644,.F.);
#644 = EDGE_CURVE('',#645,#622,#647,.T.);
#645 = VERTEX_POINT('',#646);
#646 = CARTESIAN_POINT('',(-19.72332128821,5.891968390254,
    -0.690988298943));
#647 = SURFACE_CURVE('',#648,(#653,#660),.PCURVE_S1.);
#648 = CIRCLE('',#649,0.690988298943);
#649 = AXIS2_PLACEMENT_3D('',#650,#651,#652);
#650 = CARTESIAN_POINT('',(-20.3835,6.096,-0.690988298943));
#651 = DIRECTION('',(0.,0.,-1.));
#652 = DIRECTION('',(-1.,0.,-0.));
#653 = PCURVE('',#413,#654);
#654 = DEFINITIONAL_REPRESENTATION('',(#655),#659);
#655 = LINE('',#656,#657);
#656 = CARTESIAN_POINT('',(0.,2.981976597885));
#657 = VECTOR('',#658,1.);
#658 = DIRECTION('',(1.,0.));
#659 = ( GEOMETRIC_REPRESENTATION_CONTEXT(2) 
PARAMETRIC_REPRESENTATION_CONTEXT() REPRESENTATION_CONTEXT('2D SPACE',''
  ) );
#660 = PCURVE('',#661,#666);
#661 = SPHERICAL_SURFACE('',#662,0.690988298943);
#662 = AXIS2_PLACEMENT_3D('',#663,#664,#665);
#663 = CARTESIAN_POINT('',(-20.3835,6.096,-0.690988298943));
#664 = DIRECTION('',(0.,0.,1.));
#665 = DIRECTION('',(1.,0.,-0.));
#666 = DEFINITIONAL_REPRESENTATION('',(#667),#671);
#667 = LINE('',#668,#669);
#668 = CARTESIAN_POINT('',(9.424777960769,0.));
#669 = VECTOR('',#670,1.);
#670 = DIRECTION('',(-1.,0.));
#671 = ( GEOMETRIC_REPRESENTATION_CONTEXT(2) 
PARAMETRIC_REPRESENTATION_CONTEXT() REPRESENTATION_CONTEXT('2D SPACE',''
  ) );
#672 = ORIENTED_EDGE('',*,*,#673,.F.);
#673 = EDGE_CURVE('',#674,#645,#676,.T.);
#674 = VERTEX_POINT('',#675);
#675 = CARTESIAN_POINT('',(-21.04367871179,6.300031609746,
    -0.690988298943));
#676 = SURFACE_CURVE('',#677,(#682,#695),.PCURVE_S1.);
#677 = ELLIPSE('',#678,0.977205023806,0.690988298943);
#678 = AXIS2_PLACEMENT_3D('',#679,#680,#681);
#679 = CARTESIAN_POINT('',(-20.3835,6.096,-0.690988298943));
#680 = DIRECTION('',(0.208790995518,0.675578507792,-0.707106781187));
#681 = DIRECTION('',(-0.208790995518,-0.675578507792,-0.707106781187));
#682 = PCURVE('',#413,#683);
#683 = DEFINITIONAL_REPRESENTATION('',(#684),#694);
#684 = B_SPLINE_CURVE_WITH_KNOTS('',8,(#685,#686,#687,#688,#689,#690,
    #691,#692,#693),.UNSPECIFIED.,.F.,.F.,(9,9),(1.570795430948,
    4.712388950847),.PIECEWISE_BEZIER_KNOTS.);
#685 = CARTESIAN_POINT('',(0.299742504123,2.981977216905));
#686 = CARTESIAN_POINT('',(0.692441694111,2.71062667162));
#687 = CARTESIAN_POINT('',(1.085140884097,2.439273853606));
#688 = CARTESIAN_POINT('',(1.47784007409,2.231708997984));
#689 = CARTESIAN_POINT('',(1.870539264059,2.151547776333));
#690 = CARTESIAN_POINT('',(2.263238454064,2.231708696524));
#691 = CARTESIAN_POINT('',(2.655937644047,2.439273326888));
#692 = CARTESIAN_POINT('',(3.048636834035,2.71062603219));
#693 = CARTESIAN_POINT('',(3.441336024023,2.981976577475));
#694 = ( GEOMETRIC_REPRESENTATION_CONTEXT(2) 
PARAMETRIC_REPRESENTATION_CONTEXT() REPRESENTATION_CONTEXT('2D SPACE',''
  ) );
#695 = PCURVE('',#696,#701);
#696 = CYLINDRICAL_SURFACE('',#697,0.690988298943);
#697 = AXIS2_PLACEMENT_3D('',#698,#699,#700);
#698 = CARTESIAN_POINT('',(-20.3835,6.096,-0.690988298943));
#699 = DIRECTION('',(0.295275057563,0.955412288167,0.));
#700 = DIRECTION('',(0.955412288167,-0.295275057563,0.));
#701 = DEFINITIONAL_REPRESENTATION('',(#702),#712);
#702 = B_SPLINE_CURVE_WITH_KNOTS('',8,(#703,#704,#705,#706,#707,#708,
    #709,#710,#711),.UNSPECIFIED.,.F.,.F.,(9,9),(1.570795430948,
    4.712388950847),.PIECEWISE_BEZIER_KNOTS.);
#703 = CARTESIAN_POINT('',(3.141591757743,-6.190199259848E-07));
#704 = CARTESIAN_POINT('',(3.53429094773,0.271349926266));
#705 = CARTESIAN_POINT('',(3.926990137713,0.542702744281));
#706 = CARTESIAN_POINT('',(4.319689327698,0.750267599895));
#707 = CARTESIAN_POINT('',(4.712388517692,0.830428821557));
#708 = CARTESIAN_POINT('',(5.105087707674,0.750267901356));
#709 = CARTESIAN_POINT('',(5.497786897664,0.542703270997));
#710 = CARTESIAN_POINT('',(5.890486087655,0.271350565696));
#711 = CARTESIAN_POINT('',(6.283185277642,2.040993241081E-08));
#712 = ( GEOMETRIC_REPRESENTATION_CONTEXT(2) 
PARAMETRIC_REPRESENTATION_CONTEXT() REPRESENTATION_CONTEXT('2D SPACE',''
  ) );
#713 = ORIENTED_EDGE('',*,*,#714,.F.);
#714 = EDGE_CURVE('',#622,#674,#715,.T.);
#715 = SURFACE_CURVE('',#716,(#721,#728),.PCURVE_S1.);
#716 = CIRCLE('',#717,0.690988298943);
#717 = AXIS2_PLACEMENT_3D('',#718,#719,#720);
#718 = CARTESIAN_POINT('',(-20.3835,6.096,-0.690988298943));
#719 = DIRECTION('',(0.,0.,-1.));
#720 = DIRECTION('',(-1.,0.,-0.));
#721 = PCURVE('',#413,#722);
#722 = DEFINITIONAL_REPRESENTATION('',(#723),#727);
#723 = LINE('',#724,#725);
#724 = CARTESIAN_POINT('',(0.,2.981976597885));
#725 = VECTOR('',#726,1.);
#726 = DIRECTION('',(1.,0.));
#727 = ( GEOMETRIC_REPRESENTATION_CONTEXT(2) 
PARAMETRIC_REPRESENTATION_CONTEXT() REPRESENTATION_CONTEXT('2D SPACE',''
  ) );
#728 = PCURVE('',#661,#729);
#729 = DEFINITIONAL_REPRESENTATION('',(#730),#734);
#730 = LINE('',#731,#732);
#731 = CARTESIAN_POINT('',(3.14159265359,0.));
#732 = VECTOR('',#733,1.);
#733 = DIRECTION('',(-1.,0.));
#734 = ( GEOMETRIC_REPRESENTATION_CONTEXT(2) 
PARAMETRIC_REPRESENTATION_CONTEXT() REPRESENTATION_CONTEXT('2D SPACE',''
  ) );
#735 = ORIENTED_EDGE('',*,*,#621,.F.);
#736 = ORIENTED_EDGE('',*,*,#559,.T.);
#737 = ORIENTED_EDGE('',*,*,#738,.T.);
#738 = EDGE_CURVE('',#531,#597,#739,.T.);
#739 = SURFACE_CURVE('',#740,(#745,#752),.PCURVE_S1.);
#740 = CIRCLE('',#741,0.690988298943);
#741 = AXIS2_PLACEMENT_3D('',#742,#743,#744);
#742 = CARTESIAN_POINT('',(-20.3835,6.096,2.290988298943));
#743 = DIRECTION('',(0.,0.,-1.));
#744 = DIRECTION('',(-1.,0.,-0.));
#745 = PCURVE('',#413,#746);
#746 = DEFINITIONAL_REPRESENTATION('',(#747),#751);
#747 = LINE('',#748,#749);
#748 = CARTESIAN_POINT('',(0.,0.));
#749 = VECTOR('',#750,1.);
#750 = DIRECTION('',(1.,0.));
#751 = ( GEOMETRIC_REPRESENTATION_CONTEXT(2) 
PARAMETRIC_REPRESENTATION_CONTEXT() REPRESENTATION_CONTEXT('2D SPACE',''
  ) );
#752 = PCURVE('',#547,#753);
#753 = DEFINITIONAL_REPRESENTATION('',(#754),#758);
#754 = LINE('',#755,#756);
#755 = CARTESIAN_POINT('',(3.14159265359,0.));
#756 = VECTOR('',#757,1.);
#757 = DIRECTION('',(-1.,0.));
#758 = ( GEOMETRIC_REPRESENTATION_CONTEXT(2) 
PARAMETRIC_REPRESENTATION_CONTEXT() REPRESENTATION_CONTEXT('2D SPACE',''
  ) );
#759 = ADVANCED_FACE('',(#760),#547,.T.);
#760 = FACE_BOUND('',#761,.T.);
#761 = EDGE_LOOP('',(#762,#763,#785));
#762 = ORIENTED_EDGE('',*,*,#530,.T.);
#763 = ORIENTED_EDGE('',*,*,#764,.F.);
#764 = EDGE_CURVE('',#597,#502,#765,.T.);
#765 = SURFACE_CURVE('',#766,(#771,#778),.PCURVE_S1.);
#766 = CIRCLE('',#767,0.690988298943);
#767 = AXIS2_PLACEMENT_3D('',#768,#769,#770);
#768 = CARTESIAN_POINT('',(-20.3835,6.096,2.290988298943));
#769 = DIRECTION('',(-2.449293598295E-16,-1.,0.));
#770 = DIRECTION('',(1.,-2.449293598295E-16,0.));
#771 = PCURVE('',#547,#772);
#772 = DEFINITIONAL_REPRESENTATION('',(#773),#777);
#773 = LINE('',#774,#775);
#774 = CARTESIAN_POINT('',(0.,-6.28318530718));
#775 = VECTOR('',#776,1.);
#776 = DIRECTION('',(0.,1.));
#777 = ( GEOMETRIC_REPRESENTATION_CONTEXT(2) 
PARAMETRIC_REPRESENTATION_CONTEXT() REPRESENTATION_CONTEXT('2D SPACE',''
  ) );
#778 = PCURVE('',#518,#779);
#779 = DEFINITIONAL_REPRESENTATION('',(#780),#784);
#780 = LINE('',#781,#782);
#781 = CARTESIAN_POINT('',(6.28318530718,-6.28318530718));
#782 = VECTOR('',#783,1.);
#783 = DIRECTION('',(0.,1.));
#784 = ( GEOMETRIC_REPRESENTATION_CONTEXT(2) 
PARAMETRIC_REPRESENTATION_CONTEXT() REPRESENTATION_CONTEXT('2D SPACE',''
  ) );
#785 = ORIENTED_EDGE('',*,*,#738,.F.);
#786 = ADVANCED_FACE('',(#787),#518,.T.);
#787 = FACE_BOUND('',#788,.T.);
#788 = EDGE_LOOP('',(#789,#790,#791));
#789 = ORIENTED_EDGE('',*,*,#764,.T.);
#790 = ORIENTED_EDGE('',*,*,#501,.T.);
#791 = ORIENTED_EDGE('',*,*,#596,.F.);
#792 = ADVANCED_FACE('',(#793),#661,.T.);
#793 = FACE_BOUND('',#794,.T.);
#794 = EDGE_LOOP('',(#795,#819,#841,#842));
#795 = ORIENTED_EDGE('',*,*,#796,.F.);
#796 = EDGE_CURVE('',#797,#674,#799,.T.);
#797 = VERTEX_POINT('',#798);
#798 = CARTESIAN_POINT('',(-20.3835,6.096,-1.381976597885));
#799 = SURFACE_CURVE('',#800,(#805,#812),.PCURVE_S1.);
#800 = CIRCLE('',#801,0.690988298943);
#801 = AXIS2_PLACEMENT_3D('',#802,#803,#804);
#802 = CARTESIAN_POINT('',(-20.3835,6.096,-0.690988298943));
#803 = DIRECTION('',(0.295275057563,0.955412288167,0.));
#804 = DIRECTION('',(0.955412288167,-0.295275057563,0.));
#805 = PCURVE('',#661,#806);
#806 = DEFINITIONAL_REPRESENTATION('',(#807),#811);
#807 = LINE('',#808,#809);
#808 = CARTESIAN_POINT('',(2.84184925362,-3.14159265359));
#809 = VECTOR('',#810,1.);
#810 = DIRECTION('',(-0.,1.));
#811 = ( GEOMETRIC_REPRESENTATION_CONTEXT(2) 
PARAMETRIC_REPRESENTATION_CONTEXT() REPRESENTATION_CONTEXT('2D SPACE',''
  ) );
#812 = PCURVE('',#696,#813);
#813 = DEFINITIONAL_REPRESENTATION('',(#814),#818);
#814 = LINE('',#815,#816);
#815 = CARTESIAN_POINT('',(0.,0.));
#816 = VECTOR('',#817,1.);
#817 = DIRECTION('',(1.,0.));
#818 = ( GEOMETRIC_REPRESENTATION_CONTEXT(2) 
PARAMETRIC_REPRESENTATION_CONTEXT() REPRESENTATION_CONTEXT('2D SPACE',''
  ) );
#819 = ORIENTED_EDGE('',*,*,#820,.F.);
#820 = EDGE_CURVE('',#645,#797,#821,.T.);
#821 = SURFACE_CURVE('',#822,(#827,#834),.PCURVE_S1.);
#822 = CIRCLE('',#823,0.690988298943);
#823 = AXIS2_PLACEMENT_3D('',#824,#825,#826);
#824 = CARTESIAN_POINT('',(-20.3835,6.096,-0.690988298943));
#825 = DIRECTION('',(0.295275057563,0.955412288167,0.));
#826 = DIRECTION('',(0.955412288167,-0.295275057563,0.));
#827 = PCURVE('',#661,#828);
#828 = DEFINITIONAL_REPRESENTATION('',(#829),#833);
#829 = LINE('',#830,#831);
#830 = CARTESIAN_POINT('',(5.983441907209,0.));
#831 = VECTOR('',#832,1.);
#832 = DIRECTION('',(0.,-1.));
#833 = ( GEOMETRIC_REPRESENTATION_CONTEXT(2) 
PARAMETRIC_REPRESENTATION_CONTEXT() REPRESENTATION_CONTEXT('2D SPACE',''
  ) );
#834 = PCURVE('',#696,#835);
#835 = DEFINITIONAL_REPRESENTATION('',(#836),#840);
#836 = LINE('',#837,#838);
#837 = CARTESIAN_POINT('',(0.,0.));
#838 = VECTOR('',#839,1.);
#839 = DIRECTION('',(1.,0.));
#840 = ( GEOMETRIC_REPRESENTATION_CONTEXT(2) 
PARAMETRIC_REPRESENTATION_CONTEXT() REPRESENTATION_CONTEXT('2D SPACE',''
  ) );
#841 = ORIENTED_EDGE('',*,*,#644,.T.);
#842 = ORIENTED_EDGE('',*,*,#714,.T.);
#843 = ADVANCED_FACE('',(#844),#696,.T.);
#844 = FACE_BOUND('',#845,.T.);
#845 = EDGE_LOOP('',(#846,#875,#896,#897,#898,#899));
#846 = ORIENTED_EDGE('',*,*,#847,.F.);
#847 = EDGE_CURVE('',#848,#848,#850,.T.);
#848 = VERTEX_POINT('',#849);
#849 = CARTESIAN_POINT('',(-18.76259634577,9.000556102087,
    -0.690988298943));
#850 = SURFACE_CURVE('',#851,(#856,#863),.PCURVE_S1.);
#851 = CIRCLE('',#852,0.690988298943);
#852 = AXIS2_PLACEMENT_3D('',#853,#854,#855);
#853 = CARTESIAN_POINT('',(-19.42277505756,9.204587711833,
    -0.690988298943));
#854 = DIRECTION('',(0.295275057563,0.955412288167,0.));
#855 = DIRECTION('',(0.955412288167,-0.295275057563,0.));
#856 = PCURVE('',#696,#857);
#857 = DEFINITIONAL_REPRESENTATION('',(#858),#862);
#858 = LINE('',#859,#860);
#859 = CARTESIAN_POINT('',(0.,3.253661011411));
#860 = VECTOR('',#861,1.);
#861 = DIRECTION('',(1.,0.));
#862 = ( GEOMETRIC_REPRESENTATION_CONTEXT(2) 
PARAMETRIC_REPRESENTATION_CONTEXT() REPRESENTATION_CONTEXT('2D SPACE',''
  ) );
#863 = PCURVE('',#864,#869);
#864 = PLANE('',#865);
#865 = AXIS2_PLACEMENT_3D('',#866,#867,#868);
#866 = CARTESIAN_POINT('',(-19.42277505756,9.204587711833,
    -0.690988298943));
#867 = DIRECTION('',(0.295275057563,0.955412288167,0.));
#868 = DIRECTION('',(0.955412288167,-0.295275057563,0.));
#869 = DEFINITIONAL_REPRESENTATION('',(#870),#874);
#870 = CIRCLE('',#871,0.690988298943);
#871 = AXIS2_PLACEMENT_2D('',#872,#873);
#872 = CARTESIAN_POINT('',(0.,0.));
#873 = DIRECTION('',(1.,0.));
#874 = ( GEOMETRIC_REPRESENTATION_CONTEXT(2) 
PARAMETRIC_REPRESENTATION_CONTEXT() REPRESENTATION_CONTEXT('2D SPACE',''
  ) );
#875 = ORIENTED_EDGE('',*,*,#876,.F.);
#876 = EDGE_CURVE('',#645,#848,#877,.T.);
#877 = SEAM_CURVE('',#878,(#882,#889),.PCURVE_S1.);
#878 = LINE('',#879,#880);
#879 = CARTESIAN_POINT('',(-19.72332128821,5.891968390254,
    -0.690988298943));
#880 = VECTOR('',#881,1.);
#881 = DIRECTION('',(0.295275057563,0.955412288167,0.));
#882 = PCURVE('',#696,#883);
#883 = DEFINITIONAL_REPRESENTATION('',(#884),#888);
#884 = LINE('',#885,#886);
#885 = CARTESIAN_POINT('',(6.28318530718,-0.));
#886 = VECTOR('',#887,1.);
#887 = DIRECTION('',(0.,1.));
#888 = ( GEOMETRIC_REPRESENTATION_CONTEXT(2) 
PARAMETRIC_REPRESENTATION_CONTEXT() REPRESENTATION_CONTEXT('2D SPACE',''
  ) );
#889 = PCURVE('',#696,#890);
#890 = DEFINITIONAL_REPRESENTATION('',(#891),#895);
#891 = LINE('',#892,#893);
#892 = CARTESIAN_POINT('',(0.,-0.));
#893 = VECTOR('',#894,1.);
#894 = DIRECTION('',(0.,1.));
#895 = ( GEOMETRIC_REPRESENTATION_CONTEXT(2) 
PARAMETRIC_REPRESENTATION_CONTEXT() REPRESENTATION_CONTEXT('2D SPACE',''
  ) );
#896 = ORIENTED_EDGE('',*,*,#820,.T.);
#897 = ORIENTED_EDGE('',*,*,#796,.T.);
#898 = ORIENTED_EDGE('',*,*,#673,.T.);
#899 = ORIENTED_EDGE('',*,*,#876,.T.);
#900 = ADVANCED_FACE('',(#901),#864,.T.);
#901 = FACE_BOUND('',#902,.T.);
#902 = EDGE_LOOP('',(#903));
#903 = ORIENTED_EDGE('',*,*,#847,.T.);
#904 = ( GEOMETRIC_REPRESENTATION_CONTEXT(3) 
GLOBAL_UNCERTAINTY_ASSIGNED_CONTEXT((#908)) GLOBAL_UNIT_ASSIGNED_CONTEXT
((#905,#906,#907)) REPRESENTATION_CONTEXT('Context #1',
  '3D Context with UNIT and UNCERTAINTY') );
#905 = ( LENGTH_UNIT() NAMED_UNIT(*) SI_UNIT(.MILLI.,.METRE.) );
#906 = ( NAMED_UNIT(*) PLANE_ANGLE_UNIT() SI_UNIT($,.RADIAN.) );
#907 = ( NAMED_UNIT(*) SI_UNIT($,.STERADIAN.) SOLID_ANGLE_UNIT() );
#908 = UNCERTAINTY_MEASURE_WITH_UNIT(LENGTH_MEASURE(1.E-07),#905,
  'distance_accuracy_value','confusion accuracy');
#909 = PRODUCT_RELATED_PRODUCT_CATEGORY('part',$,(#7));
ENDSEC;
END-ISO-10303-21;
