M48
; DRILL file {KiCad 7.0.8} date Sun Oct 29 17:21:22 2023
; FORMAT={-:-/ absolute / inch / decimal}
; #@! TF.CreationDate,2023-10-29T17:21:22+01:00
; #@! TF.GenerationSoftware,Kicad,Pcbnew,7.0.8
; #@! TF.FileFunction,Plated,1,2,PTH
FMAT,2
INCH
; #@! TA.AperFunction,Plated,PTH,ComponentDrill
T1C0.0315
; #@! TA.AperFunction,Plated,PTH,ComponentDrill
T2C0.0429
; #@! TA.AperFunction,Plated,PTH,ComponentDrill
T3C0.0551
; #@! TA.AperFunction,Plated,PTH,ComponentDrill
T4C0.0591
%
G90
G05
T1
X3.123Y-1.143
X3.123Y-1.543
X3.288Y-1.143
X3.288Y-1.543
X3.5021Y-1.2603
X3.5021Y-1.3603
X3.5021Y-1.4603
X3.8021Y-1.2603
X3.8021Y-1.3603
X3.8021Y-1.4603
X3.8711Y-1.0999
X4.2711Y-1.0999
T2
X4.1197Y-1.4787
X4.1197Y-1.8332
X4.2197Y-1.4787
X4.2197Y-1.8332
T3
X2.327Y-1.825
X2.527Y-1.825
X2.727Y-1.825
T4
X2.3521Y-1.5749
X2.4371Y-1.3099
X2.4865Y-1.1499
X2.7021Y-1.1499
X2.7271Y-1.3099
X2.7271Y-1.5749
X2.9176Y-1.1499
T0
M30
