%TF.GenerationSoftware,KiCad,Pcbnew,7.0.8*%
%TF.CreationDate,2023-10-29T17:21:22+01:00*%
%TF.ProjectId,Output_stage,4f757470-7574-45f7-9374-6167652e6b69,2.0*%
%TF.SameCoordinates,Original*%
%TF.FileFunction,Copper,L2,Bot*%
%TF.FilePolarity,Positive*%
%FSLAX46Y46*%
G04 Gerber Fmt 4.6, Leading zero omitted, Abs format (unit mm)*
G04 Created by KiCad (PCBNEW 7.0.8) date 2023-10-29 17:21:22*
%MOMM*%
%LPD*%
G01*
G04 APERTURE LIST*
G04 Aperture macros list*
%AMRoundRect*
0 Rectangle with rounded corners*
0 $1 Rounding radius*
0 $2 $3 $4 $5 $6 $7 $8 $9 X,Y pos of 4 corners*
0 Add a 4 corners polygon primitive as box body*
4,1,4,$2,$3,$4,$5,$6,$7,$8,$9,$2,$3,0*
0 Add four circle primitives for the rounded corners*
1,1,$1+$1,$2,$3*
1,1,$1+$1,$4,$5*
1,1,$1+$1,$6,$7*
1,1,$1+$1,$8,$9*
0 Add four rect primitives between the rounded corners*
20,1,$1+$1,$2,$3,$4,$5,0*
20,1,$1+$1,$4,$5,$6,$7,0*
20,1,$1+$1,$6,$7,$8,$9,0*
20,1,$1+$1,$8,$9,$2,$3,0*%
G04 Aperture macros list end*
%TA.AperFunction,ComponentPad*%
%ADD10C,1.600000*%
%TD*%
%TA.AperFunction,ComponentPad*%
%ADD11O,1.600000X1.600000*%
%TD*%
%TA.AperFunction,ComponentPad*%
%ADD12C,3.000000*%
%TD*%
%TA.AperFunction,ComponentPad*%
%ADD13R,2.500000X3.500000*%
%TD*%
%TA.AperFunction,ComponentPad*%
%ADD14O,2.500000X3.500000*%
%TD*%
%TA.AperFunction,ComponentPad*%
%ADD15R,2.400000X1.600000*%
%TD*%
%TA.AperFunction,ComponentPad*%
%ADD16O,2.400000X1.600000*%
%TD*%
%TA.AperFunction,ComponentPad*%
%ADD17RoundRect,0.250000X0.620000X0.620000X-0.620000X0.620000X-0.620000X-0.620000X0.620000X-0.620000X0*%
%TD*%
%TA.AperFunction,ComponentPad*%
%ADD18C,1.740000*%
%TD*%
%TA.AperFunction,ComponentPad*%
%ADD19RoundRect,0.249999X0.790001X1.550001X-0.790001X1.550001X-0.790001X-1.550001X0.790001X-1.550001X0*%
%TD*%
%TA.AperFunction,ComponentPad*%
%ADD20O,2.080000X3.600000*%
%TD*%
%TA.AperFunction,Conductor*%
%ADD21C,0.500000*%
%TD*%
%TA.AperFunction,Conductor*%
%ADD22C,0.250000*%
%TD*%
%TA.AperFunction,Conductor*%
%ADD23C,1.000000*%
%TD*%
G04 APERTURE END LIST*
D10*
%TO.P,R2,1*%
%TO.N,S{slash}LINE*%
X79324200Y-39192200D03*
D11*
%TO.P,R2,2*%
%TO.N,Net-(Q1-G)*%
X79324200Y-29032200D03*
%TD*%
D10*
%TO.P,R1,1*%
%TO.N,Net-(J2-Pin_1)*%
X108485325Y-27938075D03*
D11*
%TO.P,R1,2*%
%TO.N,Net-(R1-Pad2)*%
X98325325Y-27938075D03*
%TD*%
D12*
%TO.P,REF4,1*%
%TO.N,LINE*%
X69267725Y-40003075D03*
%TD*%
%TO.P,REF2,1*%
%TO.N,LINE*%
X69267725Y-33272075D03*
%TD*%
D13*
%TO.P,Q1,1,A1*%
%TO.N,S{slash}LINE*%
X63157725Y-29208075D03*
D14*
%TO.P,Q1,2,A2*%
%TO.N,LINE*%
X68632725Y-29208075D03*
%TO.P,Q1,3,G*%
%TO.N,Net-(Q1-G)*%
X74107725Y-29208075D03*
%TD*%
D10*
%TO.P,R3,1*%
%TO.N,Net-(R3-Pad1)*%
X83515200Y-29032200D03*
D11*
%TO.P,R3,2*%
%TO.N,LINE*%
X83515200Y-39192200D03*
%TD*%
D15*
%TO.P,U1,1*%
%TO.N,Net-(J2-Pin_2)*%
X96572725Y-37092075D03*
D16*
%TO.P,U1,2*%
%TO.N,Net-(R1-Pad2)*%
X96572725Y-34552075D03*
%TO.P,U1,3,NC*%
%TO.N,unconnected-(U1-NC-Pad3)*%
X96572725Y-32012075D03*
%TO.P,U1,4*%
%TO.N,Net-(Q1-G)*%
X88952725Y-32012075D03*
%TO.P,U1,5,NC*%
%TO.N,unconnected-(U1-NC-Pad5)*%
X88952725Y-34552075D03*
%TO.P,U1,6*%
%TO.N,Net-(R3-Pad1)*%
X88952725Y-37092075D03*
%TD*%
D17*
%TO.P,J3,1,Pin_1*%
%TO.N,Net-(J2-Pin_1)*%
X107179925Y-46563075D03*
D18*
%TO.P,J3,2,Pin_2*%
%TO.N,Net-(J2-Pin_2)*%
X104639925Y-46563075D03*
%TD*%
D12*
%TO.P,REF3,1*%
%TO.N,S{slash}LINE*%
X59742725Y-40003075D03*
%TD*%
D17*
%TO.P,J2,1,Pin_1*%
%TO.N,Net-(J2-Pin_1)*%
X107179925Y-37558075D03*
D18*
%TO.P,J2,2,Pin_2*%
%TO.N,Net-(J2-Pin_2)*%
X104639925Y-37558075D03*
%TD*%
D12*
%TO.P,REF1,1*%
%TO.N,S{slash}LINE*%
X61901725Y-33272075D03*
%TD*%
D19*
%TO.P,J1,1,Pin_1*%
%TO.N,LINE*%
X69265800Y-46355000D03*
D20*
%TO.P,J1,2,Pin_2*%
%TO.N,unconnected-(J1-Pin_2-Pad2)*%
X64185800Y-46355000D03*
%TO.P,J1,3,Pin_3*%
%TO.N,S{slash}LINE*%
X59105800Y-46355000D03*
%TD*%
D21*
%TO.N,LINE*%
X83093127Y-37576327D02*
X82575400Y-37058600D01*
X80306522Y-36118800D02*
X76587338Y-36118800D01*
X70497700Y-33272075D02*
X69267725Y-33272075D01*
X83515200Y-38595300D02*
X83515200Y-39192200D01*
X72597398Y-34141798D02*
X73151037Y-34695437D01*
X72597399Y-34141797D02*
G75*
G03*
X70497700Y-33272075I-2099699J-2099703D01*
G01*
X82575394Y-37058606D02*
G75*
G03*
X80306522Y-36118800I-2268894J-2268894D01*
G01*
X83515183Y-38595300D02*
G75*
G03*
X83093127Y-37576327I-1441083J0D01*
G01*
X73151010Y-34695464D02*
G75*
G03*
X76587338Y-36118800I3436290J3436364D01*
G01*
D22*
%TO.N,S{slash}LINE*%
X59425225Y-46035575D02*
X59742725Y-45718075D01*
D21*
X60840220Y-51612800D02*
X72111037Y-51612800D01*
X77260392Y-42754607D02*
X78794364Y-41220634D01*
D22*
X59107725Y-46802087D02*
X59107725Y-47686575D01*
D21*
X79324200Y-39941500D02*
X79324200Y-39192200D01*
X75666600Y-46602363D02*
X75666600Y-48057237D01*
X59105800Y-49878379D02*
X59105800Y-46355000D01*
X59105809Y-49878379D02*
G75*
G03*
X59613800Y-51104800I1734391J-21D01*
G01*
X59613794Y-51104806D02*
G75*
G03*
X60840220Y-51612800I1226406J1226406D01*
G01*
X78794371Y-41220641D02*
G75*
G03*
X79324200Y-39941500I-1279171J1279141D01*
G01*
X74625189Y-50571389D02*
G75*
G03*
X75666600Y-48057237I-2514189J2514189D01*
G01*
X77260421Y-42754636D02*
G75*
G03*
X75666600Y-46602363I3847679J-3847764D01*
G01*
D22*
X59425239Y-46035589D02*
G75*
G03*
X59107725Y-46802087I766461J-766511D01*
G01*
D21*
X72111037Y-51612815D02*
G75*
G03*
X74625199Y-50571399I-37J3555615D01*
G01*
D23*
%TO.N,Net-(J2-Pin_1)*%
X107179925Y-37558075D02*
X107179925Y-46563075D01*
X107179925Y-37558075D02*
X107179925Y-34535332D01*
X108485325Y-31383817D02*
X108485325Y-27938075D01*
X107832609Y-32959559D02*
G75*
G03*
X108485325Y-31383817I-1575709J1575759D01*
G01*
X107832605Y-32959555D02*
G75*
G03*
X107179925Y-34535332I1575795J-1575745D01*
G01*
D22*
%TO.N,Net-(J2-Pin_2)*%
X96665475Y-37184825D02*
X96805725Y-37325075D01*
D23*
X104130865Y-37259875D02*
X96859177Y-37259875D01*
D22*
X96665475Y-37184825D02*
X96758225Y-37277575D01*
D23*
X96656625Y-37175975D02*
X96572725Y-37092075D01*
X104639925Y-37768934D02*
X104639925Y-46563075D01*
D22*
X96758236Y-37277564D02*
G75*
G03*
X97206061Y-37463075I447864J447864D01*
G01*
D23*
X104490835Y-37408965D02*
G75*
G03*
X104130865Y-37259875I-359935J-359935D01*
G01*
D22*
X96805714Y-37325086D02*
G75*
G03*
X97368236Y-37558075I562486J562486D01*
G01*
D23*
X104639910Y-37768934D02*
G75*
G03*
X104490824Y-37408976I-509010J34D01*
G01*
X96656632Y-37175968D02*
G75*
G03*
X96859177Y-37259875I202568J202568D01*
G01*
D22*
X96665475Y-37184825D02*
X96665475Y-37184825D01*
D21*
%TO.N,Net-(Q1-G)*%
X79728311Y-27485088D02*
X79857600Y-27355800D01*
X88952725Y-29687479D02*
X88952725Y-32012075D01*
X81145341Y-26822400D02*
X86087645Y-26822400D01*
X74195662Y-29120137D02*
X74107725Y-29208075D01*
X79324200Y-28460700D02*
X79324200Y-28746450D01*
X74407962Y-29032200D02*
X79038450Y-29032200D01*
X79038450Y-29032200D02*
G75*
G03*
X79324200Y-28746450I-50J285800D01*
G01*
X81145341Y-26822418D02*
G75*
G03*
X79857601Y-27355801I-41J-1821082D01*
G01*
X79728316Y-27485093D02*
G75*
G03*
X79324200Y-28460700I975584J-975607D01*
G01*
X74407962Y-29032162D02*
G75*
G03*
X74195662Y-29120137I38J-300238D01*
G01*
X88952725Y-29687479D02*
G75*
G03*
X88113561Y-27661563I-2865125J-21D01*
G01*
X88113544Y-27661580D02*
G75*
G03*
X86087645Y-26822400I-2025944J-2025920D01*
G01*
D23*
%TO.N,Net-(R1-Pad2)*%
X98325325Y-28522275D02*
X98325325Y-27938075D01*
X99874725Y-31751466D02*
X99874725Y-33234188D01*
X98556838Y-34552075D02*
X96572725Y-34552075D01*
X99100025Y-29881175D02*
X98738416Y-29519566D01*
X99488739Y-34166089D02*
G75*
G03*
X99874725Y-33234188I-931939J931889D01*
G01*
X99874738Y-31751466D02*
G75*
G03*
X99100024Y-29881176I-2645038J-34D01*
G01*
X98556838Y-34552105D02*
G75*
G03*
X99488725Y-34166075I-38J1317905D01*
G01*
X98325341Y-28522275D02*
G75*
G03*
X98738417Y-29519565I1410359J-25D01*
G01*
D21*
%TO.N,Net-(R3-Pad1)*%
X87774700Y-37092075D02*
X88952725Y-37092075D01*
X85763685Y-36259085D02*
X85055937Y-35551337D01*
X83515200Y-31831668D02*
X83515200Y-29032200D01*
X85763691Y-36259079D02*
G75*
G03*
X87774700Y-37092075I2011009J2010979D01*
G01*
X83515221Y-31831668D02*
G75*
G03*
X85055937Y-35551337I5260379J-32D01*
G01*
%TD*%
%TA.AperFunction,Conductor*%
%TO.N,Net-(Q1-G)*%
G36*
X89204348Y-30415502D02*
G01*
X89206128Y-30417789D01*
X89747655Y-31327169D01*
X89748943Y-31336030D01*
X89745163Y-31342084D01*
X88960286Y-32006672D01*
X88951757Y-32009403D01*
X88945164Y-32006672D01*
X88160286Y-31342084D01*
X88156187Y-31334123D01*
X88157794Y-31327169D01*
X88699322Y-30417789D01*
X88706500Y-30412434D01*
X88709375Y-30412075D01*
X89196075Y-30412075D01*
X89204348Y-30415502D01*
G37*
%TD.AperFunction*%
%TD*%
%TA.AperFunction,Conductor*%
%TO.N,Net-(Q1-G)*%
G36*
X79016408Y-28297380D02*
G01*
X79022399Y-28303554D01*
X79323334Y-29027710D01*
X79323344Y-29036663D01*
X79323335Y-29036685D01*
X79323334Y-29036690D01*
X79022399Y-29760845D01*
X79016060Y-29767170D01*
X79007458Y-29767299D01*
X77731763Y-29285058D01*
X77725236Y-29278927D01*
X77724200Y-29274114D01*
X77724200Y-28790285D01*
X77727627Y-28782012D01*
X77731763Y-28779341D01*
X79007460Y-28297100D01*
X79016408Y-28297380D01*
G37*
%TD.AperFunction*%
%TD*%
%TA.AperFunction,Conductor*%
%TO.N,Net-(R1-Pad2)*%
G36*
X99112814Y-27938063D02*
G01*
X99121083Y-27941497D01*
X99124502Y-27949773D01*
X99124475Y-27950558D01*
X99045317Y-29113506D01*
X99041824Y-29121076D01*
X98341814Y-29805663D01*
X98333504Y-29808997D01*
X98325269Y-29805478D01*
X98323058Y-29802302D01*
X97591468Y-28255317D01*
X97591029Y-28246373D01*
X97597043Y-28239738D01*
X97597522Y-28239525D01*
X98322466Y-27938258D01*
X98326963Y-27937363D01*
X99112814Y-27938063D01*
G37*
%TD.AperFunction*%
%TD*%
%TA.AperFunction,Conductor*%
%TO.N,LINE*%
G36*
X71840924Y-33317445D02*
G01*
X71623983Y-33767929D01*
X70249330Y-34385672D01*
X69266825Y-33271642D01*
X70485957Y-32399636D01*
X71840924Y-33317445D01*
G37*
%TD.AperFunction*%
%TD*%
%TA.AperFunction,Conductor*%
%TO.N,LINE*%
G36*
X69868447Y-26687760D02*
G01*
X69885655Y-26701089D01*
X69972853Y-26781828D01*
X70496047Y-27266267D01*
X70531864Y-27326256D01*
X70535800Y-27357252D01*
X70535800Y-30734000D01*
X70535799Y-30734000D01*
X72036846Y-32730976D01*
X72061391Y-32796392D01*
X72061725Y-32805481D01*
X72061725Y-43813075D01*
X71986458Y-48178519D01*
X71965620Y-48245209D01*
X71945159Y-48268791D01*
X70573031Y-49496485D01*
X70509944Y-49526517D01*
X70490348Y-49528075D01*
X68064585Y-49528075D01*
X67997546Y-49508390D01*
X67960985Y-49472215D01*
X67210400Y-48331016D01*
X67190007Y-48264188D01*
X67190000Y-48262876D01*
X67190000Y-45000002D01*
X66727933Y-39370612D01*
X66727725Y-39365538D01*
X66727725Y-27354437D01*
X66747410Y-27287398D01*
X66764044Y-27266756D01*
X67326406Y-26704394D01*
X67387729Y-26670909D01*
X67414087Y-26668075D01*
X69801408Y-26668075D01*
X69868447Y-26687760D01*
G37*
%TD.AperFunction*%
%TD*%
%TA.AperFunction,Conductor*%
%TO.N,Net-(Q1-G)*%
G36*
X79532100Y-27345400D02*
G01*
X79533687Y-27346691D01*
X79879758Y-27682593D01*
X79883125Y-27688922D01*
X80121731Y-29018445D01*
X80119819Y-29027194D01*
X80112282Y-29032028D01*
X80110225Y-29032212D01*
X79328364Y-29032912D01*
X79320088Y-29029493D01*
X79317795Y-29027194D01*
X78765332Y-28473349D01*
X78761915Y-28465071D01*
X78763928Y-28458524D01*
X79287774Y-27685216D01*
X79515851Y-27348524D01*
X79523328Y-27343598D01*
X79532100Y-27345400D01*
G37*
%TD.AperFunction*%
%TD*%
%TA.AperFunction,Conductor*%
%TO.N,Net-(J2-Pin_2)*%
G36*
X97778259Y-36392538D02*
G01*
X98565935Y-36756735D01*
X98572006Y-36763318D01*
X98572725Y-36767355D01*
X98572725Y-37749950D01*
X98569298Y-37758223D01*
X98562933Y-37761493D01*
X97777278Y-37891322D01*
X97768884Y-37889516D01*
X96587314Y-37102459D01*
X96582328Y-37095021D01*
X96584063Y-37086236D01*
X96587891Y-37082624D01*
X97767455Y-36393060D01*
X97776325Y-36391844D01*
X97778259Y-36392538D01*
G37*
%TD.AperFunction*%
%TD*%
%TA.AperFunction,Conductor*%
%TO.N,LINE*%
G36*
X83354748Y-37490809D02*
G01*
X83356177Y-37492609D01*
X84246718Y-38874283D01*
X84248320Y-38883094D01*
X84243223Y-38890456D01*
X84241374Y-38891426D01*
X83520380Y-39191053D01*
X83511425Y-39191064D01*
X83511407Y-39191056D01*
X82784983Y-38889739D01*
X82778654Y-38883404D01*
X82777997Y-38876620D01*
X82778468Y-38874283D01*
X82988538Y-37832001D01*
X82991866Y-37825911D01*
X83338206Y-37490542D01*
X83346531Y-37487250D01*
X83354748Y-37490809D01*
G37*
%TD.AperFunction*%
%TD*%
%TA.AperFunction,Conductor*%
%TO.N,Net-(J2-Pin_2)*%
G36*
X104636151Y-36691665D02*
G01*
X104639928Y-36699785D01*
X104639939Y-36700271D01*
X104640922Y-37555733D01*
X104640027Y-37560235D01*
X104311598Y-38350756D01*
X104305259Y-38357081D01*
X104296304Y-38357072D01*
X104296021Y-38356950D01*
X102966169Y-37762969D01*
X102960013Y-37756466D01*
X102959241Y-37752286D01*
X102959241Y-36771085D01*
X102962668Y-36762812D01*
X102970440Y-36759396D01*
X104627741Y-36688595D01*
X104636151Y-36691665D01*
G37*
%TD.AperFunction*%
%TD*%
%TA.AperFunction,Conductor*%
%TO.N,Net-(J2-Pin_1)*%
G36*
X107187460Y-37563421D02*
G01*
X108024766Y-38268584D01*
X108028886Y-38276534D01*
X108028297Y-38281325D01*
X107682635Y-39290167D01*
X107676712Y-39296883D01*
X107671567Y-39298075D01*
X106688283Y-39298075D01*
X106680010Y-39294648D01*
X106677215Y-39290167D01*
X106331552Y-38281325D01*
X106332112Y-38272388D01*
X106335080Y-38268587D01*
X107172388Y-37563421D01*
X107180924Y-37560714D01*
X107187460Y-37563421D01*
G37*
%TD.AperFunction*%
%TD*%
%TA.AperFunction,Conductor*%
%TO.N,Net-(J2-Pin_1)*%
G36*
X109271245Y-27938057D02*
G01*
X109279513Y-27941494D01*
X109282930Y-27949772D01*
X109282730Y-27951913D01*
X108987115Y-29528531D01*
X108982222Y-29536031D01*
X108975615Y-29538075D01*
X107995035Y-29538075D01*
X107986762Y-29534648D01*
X107983535Y-29528531D01*
X107687919Y-27951911D01*
X107689763Y-27943150D01*
X107697263Y-27938257D01*
X107699399Y-27938057D01*
X108485325Y-27937075D01*
X109271245Y-27938057D01*
G37*
%TD.AperFunction*%
%TD*%
%TA.AperFunction,Conductor*%
%TO.N,Net-(R1-Pad2)*%
G36*
X98541342Y-34050326D02*
G01*
X98548830Y-34055238D01*
X98550856Y-34061677D01*
X98562816Y-35042217D01*
X98559490Y-35050532D01*
X98553286Y-35053857D01*
X96981398Y-35350438D01*
X96972633Y-35348605D01*
X96968770Y-35344185D01*
X96574352Y-34557327D01*
X96573710Y-34548397D01*
X96574349Y-34546852D01*
X96968813Y-33759983D01*
X96975582Y-33754125D01*
X96981452Y-33753734D01*
X98541342Y-34050326D01*
G37*
%TD.AperFunction*%
%TD*%
%TA.AperFunction,Conductor*%
%TO.N,Net-(J2-Pin_2)*%
G36*
X105434694Y-37887268D02*
G01*
X105441019Y-37893607D01*
X105441642Y-37900542D01*
X105141918Y-39288844D01*
X105136822Y-39296208D01*
X105130481Y-39298075D01*
X104149369Y-39298075D01*
X104141096Y-39294648D01*
X104137932Y-39288844D01*
X103838207Y-37900539D01*
X103839811Y-37891732D01*
X103845153Y-37887269D01*
X104635438Y-37558938D01*
X104644389Y-37558930D01*
X105434694Y-37887268D01*
G37*
%TD.AperFunction*%
%TD*%
%TA.AperFunction,Conductor*%
%TO.N,Net-(Q1-G)*%
G36*
X75197636Y-28124795D02*
G01*
X76351793Y-28778838D01*
X76357302Y-28785898D01*
X76357725Y-28789017D01*
X76357725Y-29276488D01*
X76354298Y-29284761D01*
X76353223Y-29285712D01*
X75292423Y-30113451D01*
X75283792Y-30115839D01*
X75278071Y-30113484D01*
X74202622Y-29282200D01*
X74117220Y-29216187D01*
X74112770Y-29208416D01*
X74115118Y-29199775D01*
X74116070Y-29198690D01*
X75183583Y-28126718D01*
X75191847Y-28123275D01*
X75197636Y-28124795D01*
G37*
%TD.AperFunction*%
%TD*%
%TA.AperFunction,Conductor*%
%TO.N,Net-(J2-Pin_2)*%
G36*
X105138754Y-44826502D02*
G01*
X105141918Y-44832306D01*
X105441642Y-46220607D01*
X105440038Y-46229417D01*
X105434694Y-46233881D01*
X104644414Y-46562210D01*
X104635459Y-46562219D01*
X104635436Y-46562210D01*
X103845155Y-46233881D01*
X103838830Y-46227542D01*
X103838207Y-46220610D01*
X104137932Y-44832305D01*
X104143028Y-44824942D01*
X104149369Y-44823075D01*
X105130481Y-44823075D01*
X105138754Y-44826502D01*
G37*
%TD.AperFunction*%
%TD*%
%TA.AperFunction,Conductor*%
%TO.N,Net-(J2-Pin_1)*%
G36*
X107679840Y-44826502D02*
G01*
X107682635Y-44830983D01*
X108028297Y-45839824D01*
X108027737Y-45848761D01*
X108024766Y-45852565D01*
X107187462Y-46557727D01*
X107178926Y-46560435D01*
X107172388Y-46557727D01*
X106335083Y-45852565D01*
X106330963Y-45844615D01*
X106331552Y-45839824D01*
X106677215Y-44830983D01*
X106683138Y-44824267D01*
X106688283Y-44823075D01*
X107671567Y-44823075D01*
X107679840Y-44826502D01*
G37*
%TD.AperFunction*%
%TD*%
%TA.AperFunction,Conductor*%
%TO.N,S{slash}LINE*%
G36*
X60066635Y-47512991D02*
G01*
X59355800Y-49155000D01*
X58855800Y-49155000D01*
X58144965Y-47512991D01*
X59105800Y-46354000D01*
X60066635Y-47512991D01*
G37*
%TD.AperFunction*%
%TD*%
%TA.AperFunction,Conductor*%
%TO.N,S{slash}LINE*%
G36*
X64213910Y-26687760D02*
G01*
X64220578Y-26692359D01*
X64999108Y-27267826D01*
X65041317Y-27323503D01*
X65049400Y-27367540D01*
X65049400Y-31096109D01*
X65044843Y-31129414D01*
X61538723Y-43703505D01*
X61180000Y-44990001D01*
X61180000Y-48254008D01*
X61160315Y-48321047D01*
X61150010Y-48334867D01*
X60160831Y-49484934D01*
X60102192Y-49522923D01*
X60066821Y-49528075D01*
X57385409Y-49528075D01*
X57318370Y-49508390D01*
X57292730Y-49486456D01*
X56345046Y-48420311D01*
X56315220Y-48357127D01*
X56313725Y-48337930D01*
X56313725Y-43703505D01*
X56318531Y-43669318D01*
X61003885Y-27333893D01*
X61035395Y-27280404D01*
X61611406Y-26704394D01*
X61672729Y-26670909D01*
X61699087Y-26668075D01*
X64146871Y-26668075D01*
X64213910Y-26687760D01*
G37*
%TD.AperFunction*%
%TD*%
%TA.AperFunction,Conductor*%
%TO.N,Net-(R3-Pad1)*%
G36*
X84243846Y-29334001D02*
G01*
X84250170Y-29340339D01*
X84250299Y-29348941D01*
X83768059Y-30624637D01*
X83761928Y-30631164D01*
X83757115Y-30632200D01*
X83273285Y-30632200D01*
X83265012Y-30628773D01*
X83262341Y-30624637D01*
X82780100Y-29348939D01*
X82780380Y-29339991D01*
X82786552Y-29334001D01*
X83510712Y-29033064D01*
X83519661Y-29033054D01*
X84243846Y-29334001D01*
G37*
%TD.AperFunction*%
%TD*%
%TA.AperFunction,Conductor*%
%TO.N,S{slash}LINE*%
G36*
X80051557Y-39493464D02*
G01*
X80057880Y-39499803D01*
X80057869Y-39508758D01*
X80057456Y-39509645D01*
X79347816Y-40880846D01*
X79340970Y-40886618D01*
X79332047Y-40885859D01*
X79331575Y-40885601D01*
X78913283Y-40644107D01*
X78907876Y-40637165D01*
X78588298Y-39509645D01*
X78587932Y-39508353D01*
X78588973Y-39499460D01*
X78594700Y-39494360D01*
X79320210Y-39193196D01*
X79329164Y-39193190D01*
X80051557Y-39493464D01*
G37*
%TD.AperFunction*%
%TD*%
%TA.AperFunction,Conductor*%
%TO.N,Net-(J2-Pin_1)*%
G36*
X107679840Y-35821502D02*
G01*
X107682635Y-35825983D01*
X108028297Y-36834824D01*
X108027737Y-36843761D01*
X108024766Y-36847565D01*
X107187462Y-37552727D01*
X107178926Y-37555435D01*
X107172388Y-37552727D01*
X106335083Y-36847565D01*
X106330963Y-36839615D01*
X106331552Y-36834824D01*
X106677215Y-35825983D01*
X106683138Y-35819267D01*
X106688283Y-35818075D01*
X107671567Y-35818075D01*
X107679840Y-35821502D01*
G37*
%TD.AperFunction*%
%TD*%
M02*
