%TF.GenerationSoftware,KiCad,Pcbnew,7.0.8*%
%TF.CreationDate,2023-10-29T17:21:22+01:00*%
%TF.ProjectId,Output_stage,4f757470-7574-45f7-9374-6167652e6b69,2.0*%
%TF.SameCoordinates,Original*%
%TF.FileFunction,Soldermask,Bot*%
%TF.FilePolarity,Negative*%
%FSLAX46Y46*%
G04 Gerber Fmt 4.6, Leading zero omitted, Abs format (unit mm)*
G04 Created by KiCad (PCBNEW 7.0.8) date 2023-10-29 17:21:22*
%MOMM*%
%LPD*%
G01*
G04 APERTURE LIST*
G04 Aperture macros list*
%AMRoundRect*
0 Rectangle with rounded corners*
0 $1 Rounding radius*
0 $2 $3 $4 $5 $6 $7 $8 $9 X,Y pos of 4 corners*
0 Add a 4 corners polygon primitive as box body*
4,1,4,$2,$3,$4,$5,$6,$7,$8,$9,$2,$3,0*
0 Add four circle primitives for the rounded corners*
1,1,$1+$1,$2,$3*
1,1,$1+$1,$4,$5*
1,1,$1+$1,$6,$7*
1,1,$1+$1,$8,$9*
0 Add four rect primitives between the rounded corners*
20,1,$1+$1,$2,$3,$4,$5,0*
20,1,$1+$1,$4,$5,$6,$7,0*
20,1,$1+$1,$6,$7,$8,$9,0*
20,1,$1+$1,$8,$9,$2,$3,0*%
G04 Aperture macros list end*
%ADD10C,1.600000*%
%ADD11O,1.600000X1.600000*%
%ADD12C,3.000000*%
%ADD13R,2.500000X3.500000*%
%ADD14O,2.500000X3.500000*%
%ADD15R,2.400000X1.600000*%
%ADD16O,2.400000X1.600000*%
%ADD17RoundRect,0.250000X0.620000X0.620000X-0.620000X0.620000X-0.620000X-0.620000X0.620000X-0.620000X0*%
%ADD18C,1.740000*%
%ADD19RoundRect,0.249999X0.790001X1.550001X-0.790001X1.550001X-0.790001X-1.550001X0.790001X-1.550001X0*%
%ADD20O,2.080000X3.600000*%
G04 APERTURE END LIST*
D10*
%TO.C,R2*%
X79324200Y-39192200D03*
D11*
X79324200Y-29032200D03*
%TD*%
D10*
%TO.C,R1*%
X108485325Y-27938075D03*
D11*
X98325325Y-27938075D03*
%TD*%
D12*
%TO.C,REF4*%
X69267725Y-40003075D03*
%TD*%
%TO.C,REF2*%
X69267725Y-33272075D03*
%TD*%
D13*
%TO.C,Q1*%
X63157725Y-29208075D03*
D14*
X68632725Y-29208075D03*
X74107725Y-29208075D03*
%TD*%
D10*
%TO.C,R3*%
X83515200Y-29032200D03*
D11*
X83515200Y-39192200D03*
%TD*%
D15*
%TO.C,U1*%
X96572725Y-37092075D03*
D16*
X96572725Y-34552075D03*
X96572725Y-32012075D03*
X88952725Y-32012075D03*
X88952725Y-34552075D03*
X88952725Y-37092075D03*
%TD*%
D17*
%TO.C,J3*%
X107179925Y-46563075D03*
D18*
X104639925Y-46563075D03*
%TD*%
D12*
%TO.C,REF3*%
X59742725Y-40003075D03*
%TD*%
D17*
%TO.C,J2*%
X107179925Y-37558075D03*
D18*
X104639925Y-37558075D03*
%TD*%
D12*
%TO.C,REF1*%
X61901725Y-33272075D03*
%TD*%
D19*
%TO.C,J1*%
X69265800Y-46355000D03*
D20*
X64185800Y-46355000D03*
X59105800Y-46355000D03*
%TD*%
G36*
X59151053Y-43987895D02*
G01*
X59952493Y-44288435D01*
X60008353Y-44330406D01*
X60027695Y-44368812D01*
X60344741Y-45422521D01*
X60350000Y-45458249D01*
X60350000Y-47246925D01*
X60349696Y-47253057D01*
X60134824Y-49416331D01*
X60108609Y-49481097D01*
X60051542Y-49521408D01*
X60011431Y-49528075D01*
X57385409Y-49528075D01*
X57318370Y-49508390D01*
X57292730Y-49486456D01*
X56345220Y-48420507D01*
X56315394Y-48357323D01*
X56313900Y-48337668D01*
X56329544Y-44103542D01*
X56349476Y-44036576D01*
X56402449Y-43991016D01*
X56453543Y-43980000D01*
X59107514Y-43980000D01*
X59151053Y-43987895D01*
G37*
G36*
X64213910Y-26687760D02*
G01*
X64220578Y-26692359D01*
X64999107Y-27267824D01*
X65041317Y-27323503D01*
X65049400Y-27367540D01*
X65049400Y-31097986D01*
X65044817Y-31131386D01*
X64703675Y-32351104D01*
X64666661Y-32410363D01*
X64645959Y-32425263D01*
X63428661Y-33123559D01*
X63366960Y-33140000D01*
X60460047Y-33140000D01*
X60393008Y-33120315D01*
X60373974Y-33105261D01*
X59623691Y-32381773D01*
X59589097Y-32321068D01*
X59590576Y-32258305D01*
X61003882Y-27333884D01*
X61035389Y-27280410D01*
X61611406Y-26704394D01*
X61672729Y-26670909D01*
X61699087Y-26668075D01*
X64146871Y-26668075D01*
X64213910Y-26687760D01*
G37*
G36*
X72003090Y-44009685D02*
G01*
X72048845Y-44062489D01*
X72060051Y-44113949D01*
X72061702Y-48101219D01*
X72042045Y-48168266D01*
X72020654Y-48193438D01*
X70573094Y-49496243D01*
X70510095Y-49526459D01*
X70490142Y-49528075D01*
X68517233Y-49528075D01*
X68450194Y-49508390D01*
X68404439Y-49455586D01*
X68396811Y-49433648D01*
X68033578Y-47954569D01*
X68030000Y-47924996D01*
X68030000Y-44865285D01*
X68049685Y-44798246D01*
X68083824Y-44763053D01*
X69178289Y-44011768D01*
X69244700Y-43990057D01*
X69248465Y-43990000D01*
X71936051Y-43990000D01*
X72003090Y-44009685D01*
G37*
G36*
X69868339Y-26687760D02*
G01*
X69885684Y-26701216D01*
X70496184Y-27268207D01*
X70531910Y-27328252D01*
X70535800Y-27359066D01*
X70535800Y-30732075D01*
X70756949Y-33034142D01*
X70743765Y-33102757D01*
X70695578Y-33153352D01*
X70633517Y-33170000D01*
X67814553Y-33170000D01*
X67747514Y-33150315D01*
X67735635Y-33141645D01*
X66772807Y-32347197D01*
X66733625Y-32289347D01*
X66727725Y-32251552D01*
X66727725Y-27354437D01*
X66747410Y-27287398D01*
X66764044Y-27266756D01*
X67326406Y-26704394D01*
X67387729Y-26670909D01*
X67414087Y-26668075D01*
X69801300Y-26668075D01*
X69868339Y-26687760D01*
G37*
M02*
