M48
; DRILL file {KiCad 7.0.8} date Sun Oct 29 23:44:12 2023
; FORMAT={-:-/ absolute / inch / decimal}
; #@! TF.CreationDate,2023-10-29T23:44:12+01:00
; #@! TF.GenerationSoftware,Kicad,Pcbnew,7.0.8
; #@! TF.FileFunction,Plated,1,2,PTH
FMAT,2
INCH
; #@! TA.AperFunction,Plated,PTH,ViaDrill
T1C0.0157
; #@! TA.AperFunction,Plated,PTH,ComponentDrill
T2C0.0236
; #@! TA.AperFunction,Plated,PTH,ComponentDrill
T3C0.0295
; #@! TA.AperFunction,Plated,PTH,ViaDrill
T4C0.0315
; #@! TA.AperFunction,Plated,PTH,ComponentDrill
T5C0.0315
; #@! TA.AperFunction,Plated,PTH,ComponentDrill
T6C0.0394
; #@! TA.AperFunction,Plated,PTH,ComponentDrill
T7C0.0429
; #@! TA.AperFunction,Plated,PTH,ComponentDrill
T8C0.0433
; #@! TA.AperFunction,Plated,PTH,ComponentDrill
T9C0.0450
; #@! TA.AperFunction,Plated,PTH,ComponentDrill
T10C0.0512
; #@! TA.AperFunction,Plated,PTH,ComponentDrill
T11C0.0551
; #@! TA.AperFunction,Plated,PTH,ComponentDrill
T12C0.0591
; #@! TA.AperFunction,Plated,PTH,ComponentDrill
T13C0.0610
; #@! TA.AperFunction,Plated,PTH,ComponentDrill
T14C0.0669
; #@! TA.AperFunction,Plated,PTH,ComponentDrill
T15C0.0787
; #@! TA.AperFunction,Plated,PTH,ComponentDrill
T16C0.1693
%
G90
G05
T1
X0.639Y-0.7
X0.639Y-0.899
X0.639Y-1.1
X0.639Y-1.301
X0.639Y-1.5
X0.639Y-1.702
X0.639Y-1.901
X0.639Y-2.102
X0.639Y-2.301
X0.639Y-2.5
X0.639Y-2.702
X0.639Y-2.901
X0.639Y-3.102
X0.639Y-3.302
X0.639Y-3.501
X0.639Y-3.701
X0.639Y-3.9
X0.639Y-4.0
X0.647Y-4.362
X0.647Y-5.301
X0.7Y-0.635
X0.7Y-4.04
X0.9Y-0.635
X0.9Y-4.04
X1.1Y-0.635
X1.1Y-4.04
X1.3Y-0.635
X1.3Y-4.04
X1.3524Y-3.0606
X1.5Y-0.635
X1.5Y-4.04
X1.5079Y-1.911
X1.602Y-3.767
X1.602Y-4.353
X1.6075Y-1.8248
X1.639Y-3.0606
X1.6669Y-2.4492
X1.682Y-2.08
X1.7Y-0.635
X1.7Y-4.04
X1.7409Y-3.0594
X1.7555Y-3.1705
X1.76Y-2.042
X1.761Y-2.37
X1.8256Y-2.2894
X1.9Y-0.635
X1.9Y-4.04
X1.9008Y-1.9476
X1.91Y-2.188
X1.981Y-2.425
X2.06Y-2.289
X2.0772Y-2.0823
X2.1Y-0.635
X2.1Y-4.04
X2.1669Y-1.9882
X2.186Y-2.363
X2.2445Y-2.0783
X2.2807Y-1.9807
X2.3Y-0.635
X2.3Y-4.04
X2.5Y-0.635
X2.5Y-4.04
X2.539Y-1.6354
X2.6311Y-1.639
X2.6753Y-5.301
X2.6799Y-2.6763
X2.7Y-0.635
X2.7Y-4.04
X2.7269Y-2.5433
X2.7269Y-2.8113
X2.749Y-3.115
X2.751Y-1.459
X2.751Y-1.559
X2.751Y-1.659
X2.77Y-1.729
X2.8022Y-1.4417
X2.8344Y-2.467
X2.84Y-1.799
X2.9Y-0.635
X2.9Y-4.04
X2.9006Y-1.4417
X2.92Y-1.799
X2.9989Y-1.4417
X3.03Y-1.799
X3.039Y-2.827
X3.0972Y-1.4417
X3.1Y-0.635
X3.1Y-4.04
X3.103Y-2.6763
X3.125Y-1.799
X3.1417Y-2.8315
X3.18Y-1.732
X3.199Y-1.462
X3.199Y-1.562
X3.199Y-1.662
X3.2138Y-3.1717
X3.2677Y-2.7126
X3.269Y-1.683
X3.2862Y-2.9689
X3.3Y-0.635
X3.3Y-4.04
X3.3091Y-3.0709
X3.3887Y-3.767
X3.3887Y-4.353
X3.4252Y-2.6622
X3.5Y-0.635
X3.5Y-4.04
X3.6169Y-3.1705
X3.625Y-2.663
X3.635Y-3.0685
X3.6677Y-2.965
X3.7Y-0.635
X3.7Y-4.04
X3.8264Y-2.661
X3.9Y-0.635
X3.9Y-4.04
X4.1Y-0.635
X4.1Y-4.04
X4.192Y-1.523
X4.199Y-3.068
X4.3Y-0.635
X4.3Y-4.04
X4.303Y-3.163
X4.3929Y-3.0701
X4.397Y-2.765
X4.397Y-2.842
X4.462Y-5.301
X4.5Y-4.04
X4.504Y-2.686
X4.504Y-2.765
X4.5051Y-2.9681
X4.5051Y-3.0748
X4.58Y-0.633
X4.6Y-3.115
X4.7Y-4.04
X4.7926Y-0.633
X4.824Y-3.068
X4.8409Y-2.9665
X4.9Y-4.04
X4.935Y-3.068
X4.9926Y-0.633
X5.1Y-4.04
X5.122Y-1.7717
X5.1706Y-0.786
X5.1716Y-1.046
X5.1747Y-3.767
X5.1747Y-4.353
X5.1926Y-0.633
X5.3Y-4.04
X5.301Y-3.07
X5.316Y-2.972
X5.412Y-3.07
X5.5Y-0.635
X5.5Y-4.04
X5.7Y-0.635
X5.7Y-4.04
X5.9Y-0.635
X5.9Y-4.04
X6.073Y-3.856
X6.1Y-0.635
X6.1Y-4.04
X6.2Y-0.635
X6.248Y-5.301
X6.249Y-4.362
X6.263Y-4.033
X6.266Y-3.599
X6.267Y-0.7
X6.267Y-0.899
X6.267Y-1.1
X6.267Y-1.301
X6.267Y-1.5
X6.267Y-1.702
X6.267Y-1.901
X6.267Y-2.102
X6.267Y-2.301
X6.267Y-2.5
X6.267Y-2.701
X6.267Y-2.9
X6.267Y-3.1
X6.267Y-3.3
X6.267Y-3.5
X6.267Y-3.9
T2
X0.818Y-2.232
X0.8967Y-2.232
X1.0736Y-1.683
X1.0736Y-2.563
X1.1524Y-1.683
X1.1524Y-2.563
X1.2311Y-1.683
X1.2311Y-2.563
X1.3098Y-1.683
X1.3098Y-2.563
X1.3885Y-1.683
X1.3885Y-2.563
X1.4672Y-1.683
X1.4672Y-2.563
X1.546Y-1.683
X1.546Y-2.563
X5.5293Y-1.2917
X5.608Y-1.2917
X5.7835Y-2.5457
X5.8622Y-2.5457
T3
X0.818Y-2.022
X0.868Y-2.022
X0.918Y-2.022
T4
X2.388Y-3.021
X4.254Y-3.021
X4.45Y-2.903
X4.45Y-3.1152
T5
X0.784Y-3.474
X0.818Y-2.433
X0.818Y-2.6299
X0.884Y-3.274
X1.284Y-3.274
X1.284Y-3.474
X1.47Y-3.474
X1.723Y-1.56
X1.723Y-1.96
X1.723Y-2.29
X1.873Y-1.675
X1.873Y-2.075
X1.873Y-2.41
X1.97Y-3.474
X2.023Y-1.789
X2.023Y-2.189
X2.023Y-2.529
X2.123Y-2.29
X2.273Y-2.41
X2.423Y-2.529
X2.525Y-1.884
X2.525Y-2.184
X2.609Y-3.474
X2.625Y-1.884
X2.625Y-2.184
X2.725Y-1.884
X2.725Y-2.184
X2.749Y-3.274
X2.8034Y-1.508
X2.825Y-1.884
X2.825Y-2.184
X2.8793Y-1.68
X2.9019Y-1.508
X2.925Y-1.884
X2.925Y-2.184
X3.025Y-1.884
X3.025Y-2.184
X3.048Y-1.508
X3.0714Y-1.68
X3.109Y-2.3186
X3.109Y-2.5154
X3.109Y-3.474
X3.125Y-1.884
X3.125Y-2.184
X3.1464Y-1.508
X3.149Y-3.274
X3.225Y-1.884
X3.225Y-2.184
X3.229Y-2.3186
X3.229Y-2.5154
X3.269Y-1.5846
X3.269Y-1.7814
X3.294Y-3.474
X3.325Y-1.884
X3.325Y-2.184
X3.425Y-1.884
X3.425Y-2.184
X3.425Y-2.33
X3.425Y-2.73
X3.525Y-1.884
X3.525Y-2.184
X3.625Y-1.884
X3.625Y-2.184
X3.625Y-2.33
X3.625Y-2.73
X3.725Y-1.884
X3.725Y-2.184
X3.794Y-3.474
X3.825Y-1.884
X3.825Y-2.184
X3.825Y-2.33
X3.825Y-2.73
X4.1047Y-2.076
X4.1047Y-2.476
X4.223Y-2.076
X4.223Y-2.476
X4.443Y-3.474
X4.45Y-1.9746
X4.45Y-2.2746
X4.55Y-1.9746
X4.55Y-2.2746
X4.6Y-3.275
X4.65Y-1.9746
X4.65Y-2.2746
X4.75Y-1.9746
X4.75Y-2.2746
X4.943Y-3.474
X5.0Y-3.275
X5.0931Y-1.432
X5.1116Y-0.846
X5.1116Y-1.246
X5.13Y-3.475
X5.2316Y-0.846
X5.2316Y-1.246
X5.29Y-1.432
X5.5293Y-1.4972
X5.63Y-3.475
X5.7261Y-1.4972
X5.7835Y-2.6856
X5.7835Y-2.8824
X5.9084Y-1.541
X5.9871Y-1.541
T6
X2.3951Y-3.709
X2.3951Y-3.9059
X2.592Y-3.709
X2.592Y-3.9059
X4.183Y-3.709
X4.183Y-3.9059
X4.3799Y-3.709
X4.3799Y-3.9059
X5.9661Y-3.709
X5.9661Y-3.9059
X6.163Y-3.709
X6.163Y-3.9059
T7
X1.1122Y-1.153
X1.1122Y-1.253
X1.1128Y-0.719
X1.1128Y-0.819
X1.1128Y-0.919
X1.4121Y-1.153
X1.4121Y-1.253
X1.4127Y-0.719
X1.4127Y-0.819
X1.4127Y-0.919
X1.587Y-3.2083
X1.687Y-3.2083
X1.7121Y-1.153
X1.7121Y-1.253
X1.7126Y-0.719
X1.7126Y-0.819
X1.7126Y-0.919
X2.012Y-1.153
X2.012Y-1.253
X2.0125Y-0.719
X2.0125Y-0.819
X2.0125Y-0.919
X2.3119Y-1.153
X2.3119Y-1.253
X2.3124Y-0.719
X2.3124Y-0.819
X2.3124Y-0.919
X2.6118Y-1.153
X2.6118Y-1.253
X2.6123Y-0.719
X2.6123Y-0.819
X2.6123Y-0.919
X2.9117Y-1.153
X2.9117Y-1.253
X2.9123Y-0.719
X2.9123Y-0.819
X2.9123Y-0.919
X3.2118Y-1.153
X3.2118Y-1.253
X3.2122Y-0.719
X3.2122Y-0.819
X3.2122Y-0.919
X3.449Y-3.2083
X3.5116Y-1.153
X3.5116Y-1.253
X3.5121Y-0.719
X3.5121Y-0.819
X3.5121Y-0.919
X3.549Y-3.2083
X3.8115Y-1.153
X3.8115Y-1.253
X3.812Y-0.719
X3.812Y-0.819
X3.812Y-0.919
X4.1114Y-1.153
X4.1114Y-1.253
X4.1119Y-0.719
X4.1119Y-0.819
X4.1119Y-0.919
X4.4118Y-0.719
X4.4118Y-0.819
X4.4118Y-0.919
X4.4118Y-1.153
X4.4118Y-1.253
X4.8709Y-1.1508
X4.8709Y-1.2508
X4.8709Y-1.3508
X4.8709Y-1.4508
X4.8709Y-1.5508
X4.8709Y-1.6508
X4.8709Y-0.8173
X4.8709Y-0.9173
X5.152Y-2.6871
X5.252Y-2.6871
X5.3Y-3.2093
X5.4Y-3.2093
X5.482Y-2.6875
X5.5293Y-1.8077
X5.582Y-2.6875
X5.6293Y-1.8077
X6.027Y-1.916
X6.127Y-1.916
T8
X1.984Y-3.274
X2.09Y-3.474
X2.284Y-3.274
X2.39Y-3.474
X3.849Y-3.274
X3.914Y-3.474
X4.149Y-3.274
X4.214Y-3.474
X5.401Y-2.18
X5.501Y-2.18
X5.601Y-2.18
X5.6597Y-0.875
X5.667Y-3.275
X5.75Y-3.475
X5.7597Y-0.875
X5.8597Y-0.875
X5.967Y-3.275
X6.05Y-3.475
T9
X1.2083Y-3.7623
X1.2083Y-4.5497
X1.4052Y-3.7623
X1.7989Y-3.7623
X1.9957Y-3.7623
X1.9957Y-4.5497
X2.995Y-3.7623
X2.995Y-4.5497
X3.1919Y-3.7623
X3.5856Y-3.7623
X3.7824Y-3.7623
X3.7824Y-4.5497
X4.781Y-3.767
X4.781Y-4.5544
X4.9779Y-3.767
X5.3716Y-3.767
X5.5684Y-3.767
X5.5684Y-4.5544
T10
X2.891Y-2.5776
X2.891Y-2.7744
T11
X1.9Y-5.1216
X2.1Y-5.1216
X2.3Y-5.1216
X3.8Y-5.1216
X4.0Y-5.1216
X4.2Y-5.1216
X5.7Y-5.1216
X5.9Y-5.1216
X6.1Y-5.1216
T12
X0.7551Y-5.1216
X0.923Y-2.879
X1.6449Y-5.1216
X2.6551Y-5.1216
X3.5449Y-5.1216
X4.5551Y-5.1216
X5.4449Y-5.1216
T13
X2.3919Y-4.5497
X2.5929Y-4.5497
X4.1809Y-4.548
X4.3819Y-4.548
T14
X0.823Y-2.779
X0.823Y-2.979
X1.023Y-2.779
X1.023Y-2.979
T15
X1.3165Y-2.8709
X4.1886Y-1.7252
X4.45Y-2.545
X5.12Y-1.987
X6.109Y-2.831
T16
X0.76Y-4.734
X6.14Y-4.734
T0
M30
