M48
; DRILL file {KiCad 7.0.6} date Wed Jul 26 00:16:48 2023
; FORMAT={-:-/ absolute / inch / decimal}
; #@! TF.CreationDate,2023-07-26T00:16:48+02:00
; #@! TF.GenerationSoftware,Kicad,Pcbnew,7.0.6
; #@! TF.FileFunction,Plated,1,2,PTH
FMAT,2
INCH
; #@! TA.AperFunction,Plated,PTH,ViaDrill
T1C0.0157
; #@! TA.AperFunction,Plated,PTH,ComponentDrill
T2C0.0236
; #@! TA.AperFunction,Plated,PTH,ComponentDrill
T3C0.0295
; #@! TA.AperFunction,Plated,PTH,ViaDrill
T4C0.0315
; #@! TA.AperFunction,Plated,PTH,ComponentDrill
T5C0.0315
; #@! TA.AperFunction,Plated,PTH,ComponentDrill
T6C0.0394
; #@! TA.AperFunction,Plated,PTH,ComponentDrill
T7C0.0429
; #@! TA.AperFunction,Plated,PTH,ComponentDrill
T8C0.0433
; #@! TA.AperFunction,Plated,PTH,ComponentDrill
T9C0.0450
; #@! TA.AperFunction,Plated,PTH,ComponentDrill
T10C0.0512
; #@! TA.AperFunction,Plated,PTH,ComponentDrill
T11C0.0551
; #@! TA.AperFunction,Plated,PTH,ComponentDrill
T12C0.0591
; #@! TA.AperFunction,Plated,PTH,ComponentDrill
T13C0.0610
; #@! TA.AperFunction,Plated,PTH,ComponentDrill
T14C0.0669
; #@! TA.AperFunction,Plated,PTH,ComponentDrill
T15C0.0787
; #@! TA.AperFunction,Plated,PTH,ComponentDrill
T16C0.1693
%
G90
G05
T1
X1.291Y-3.125
X1.418Y-3.125
X1.529Y-3.016
X1.544Y-2.278
X1.5786Y-1.2345
X1.583Y-2.364
X1.67Y-2.279
X1.69Y-3.015
X1.728Y-3.126
X1.768Y-1.847
X1.773Y-1.979
X1.817Y-3.016
X1.82Y-1.235
X1.831Y-2.095
X1.93Y-2.185
X1.974Y-2.307
X1.994Y-1.334
X2.061Y-2.147
X2.226Y-2.373
X2.231Y-1.699
X2.234Y-1.573
X2.321Y-1.66
X2.333Y-3.125
X2.443Y-3.125
X2.444Y-3.015
X2.505Y-1.395
X2.592Y-1.395
X2.728Y-1.35
X2.728Y-1.45
X2.728Y-1.55
X2.735Y-1.243
X2.77Y-1.62
X2.8033Y-1.23
X2.84Y-1.69
X2.9017Y-1.23
X2.92Y-1.69
X3.0Y-1.23
X3.03Y-1.69
X3.047Y-2.831
X3.047Y-2.91
X3.048Y-2.752
X3.055Y-2.61
X3.0983Y-1.23
X3.115Y-2.7
X3.125Y-1.69
X3.129Y-3.125
X3.17Y-2.61
X3.17Y-2.831
X3.18Y-1.677
X3.1967Y-1.23
X3.236Y-1.621
X3.239Y-3.016
X3.262Y-1.244
X3.268Y-1.3513
X3.268Y-1.4527
X3.268Y-1.554
X3.276Y-1.132
X3.28Y-2.61
X3.351Y-2.906
X3.37Y-3.014
X3.425Y-2.61
X3.523Y-1.236
X3.554Y-3.015
X3.592Y-3.123
X3.625Y-2.61
X3.67Y-2.903
X3.67Y-3.016
X3.826Y-2.474
X3.897Y-2.499
X4.199Y-1.43
X4.199Y-3.015
X4.35Y-2.904
X4.35Y-3.0145
X4.35Y-3.125
X4.397Y-2.765
X4.504Y-2.686
X4.504Y-2.765
X4.758Y-3.015
X4.79Y-2.904
X4.83Y-1.05
X4.87Y-3.125
X4.878Y-0.788
X4.902Y-3.015
X4.931Y-2.906
X5.14Y-1.19
X6.073Y-3.856
T2
X1.0038Y-1.685
X1.0038Y-2.565
X1.0826Y-1.685
X1.0826Y-2.565
X1.1613Y-1.685
X1.1613Y-2.565
X1.24Y-1.685
X1.24Y-2.565
X1.3187Y-1.685
X1.3187Y-2.565
X1.3974Y-1.685
X1.3974Y-2.565
X1.4762Y-1.685
X1.4762Y-2.565
X5.2Y-1.073
X5.2787Y-1.073
X5.5293Y-1.2917
X5.608Y-1.2917
X5.7767Y-2.546
X5.8554Y-2.546
T3
X5.2512Y-0.752
X5.2512Y-0.802
X5.2512Y-0.852
T4
X2.386Y-2.965
X4.254Y-2.958
X4.45Y-2.875
X4.45Y-3.07
T5
X0.784Y-3.474
X0.884Y-3.274
X1.284Y-3.274
X1.284Y-3.474
X1.47Y-3.474
X1.724Y-2.122
X1.725Y-1.375
X1.725Y-1.775
X1.875Y-1.49
X1.875Y-1.89
X1.875Y-2.273
X1.97Y-3.474
X2.024Y-1.604
X2.024Y-2.004
X2.024Y-2.424
X2.124Y-2.122
X2.275Y-2.273
X2.424Y-2.424
X2.525Y-1.775
X2.525Y-2.075
X2.609Y-3.474
X2.625Y-1.775
X2.625Y-2.075
X2.725Y-1.775
X2.725Y-2.075
X2.749Y-3.274
X2.8039Y-1.32
X2.825Y-1.775
X2.825Y-2.075
X2.9023Y-1.32
X2.9023Y-1.519
X2.925Y-1.775
X2.925Y-2.075
X3.025Y-1.775
X3.025Y-2.075
X3.025Y-2.2016
X3.025Y-2.3984
X3.0945Y-1.323
X3.0945Y-1.519
X3.109Y-3.474
X3.125Y-1.775
X3.125Y-2.075
X3.149Y-3.274
X3.1929Y-1.323
X3.205Y-2.2016
X3.205Y-2.3984
X3.225Y-1.775
X3.225Y-2.075
X3.294Y-3.474
X3.325Y-1.775
X3.325Y-2.075
X3.3626Y-1.519
X3.425Y-1.775
X3.425Y-2.075
X3.425Y-2.33
X3.425Y-2.73
X3.525Y-1.775
X3.525Y-2.075
X3.5594Y-1.519
X3.625Y-1.775
X3.625Y-2.075
X3.625Y-2.33
X3.625Y-2.73
X3.725Y-1.775
X3.725Y-2.075
X3.794Y-3.474
X3.825Y-1.775
X3.825Y-2.075
X3.825Y-2.33
X3.825Y-2.73
X4.083Y-1.965
X4.083Y-2.365
X4.223Y-2.076
X4.223Y-2.476
X4.443Y-3.474
X4.45Y-1.9746
X4.45Y-2.2746
X4.55Y-1.9746
X4.55Y-2.2746
X4.6Y-3.275
X4.65Y-1.9746
X4.65Y-2.2746
X4.75Y-1.9746
X4.75Y-2.2746
X4.8006Y-1.434
X4.819Y-0.848
X4.819Y-1.248
X4.939Y-0.848
X4.939Y-1.248
X4.943Y-3.474
X4.9974Y-1.434
X5.0Y-3.275
X5.13Y-3.475
X5.2Y-1.294
X5.3969Y-1.294
X5.5063Y-1.5187
X5.63Y-3.475
X5.7031Y-1.5187
X5.821Y-2.6856
X5.821Y-2.8824
X5.9084Y-1.541
X5.9871Y-1.541
T6
X2.3951Y-3.709
X2.3951Y-3.9059
X2.592Y-3.709
X2.592Y-3.9059
X4.183Y-3.709
X4.183Y-3.9059
X4.3799Y-3.709
X4.3799Y-3.9059
X5.9661Y-3.709
X5.9661Y-3.9059
X6.163Y-3.709
X6.163Y-3.9059
T7
X0.9805Y-0.845
X0.9805Y-0.945
X0.9805Y-1.045
X1.2804Y-0.845
X1.2804Y-0.945
X1.2804Y-1.045
X1.5803Y-0.845
X1.5803Y-0.945
X1.5803Y-1.045
X1.587Y-3.2083
X1.687Y-3.2083
X1.8802Y-0.845
X1.8802Y-0.945
X1.8802Y-1.045
X2.1801Y-0.845
X2.1801Y-0.945
X2.1801Y-1.045
X2.4801Y-0.845
X2.4801Y-0.945
X2.4801Y-1.045
X2.78Y-0.845
X2.78Y-0.945
X2.78Y-1.045
X3.0799Y-0.845
X3.0799Y-0.945
X3.0799Y-1.045
X3.3798Y-0.845
X3.3798Y-0.945
X3.3798Y-1.045
X3.449Y-3.2083
X3.549Y-3.2083
X3.6797Y-0.845
X3.6797Y-0.945
X3.6797Y-1.045
X3.9796Y-0.845
X3.9796Y-0.945
X3.9796Y-1.045
X4.2796Y-0.845
X4.2796Y-0.945
X4.2796Y-1.045
X4.5795Y-0.845
X4.5795Y-0.945
X4.5795Y-1.045
X4.5795Y-1.145
X4.5795Y-1.245
X4.5795Y-1.345
X4.58Y-1.58
X4.58Y-1.68
X5.152Y-2.6871
X5.252Y-2.6871
X5.3Y-3.2093
X5.4Y-3.2093
X5.482Y-2.6875
X5.5053Y-1.8077
X5.582Y-2.6875
X5.6053Y-1.8077
X6.027Y-1.916
X6.127Y-1.916
T8
X1.984Y-3.274
X2.09Y-3.474
X2.284Y-3.274
X2.39Y-3.474
X3.849Y-3.274
X3.914Y-3.474
X4.149Y-3.274
X4.214Y-3.474
X5.401Y-2.18
X5.501Y-2.18
X5.601Y-2.18
X5.6597Y-0.875
X5.667Y-3.275
X5.75Y-3.475
X5.7597Y-0.875
X5.8597Y-0.875
X5.967Y-3.275
X6.05Y-3.475
T9
X1.2083Y-3.7623
X1.2083Y-4.5497
X1.4052Y-3.7623
X1.7989Y-3.7623
X1.9957Y-3.7623
X1.9957Y-4.5497
X2.995Y-3.7623
X2.995Y-4.5497
X3.1919Y-3.7623
X3.5856Y-3.7623
X3.7824Y-3.7623
X3.7824Y-4.5497
X4.781Y-3.767
X4.781Y-4.5544
X4.9779Y-3.767
X5.3716Y-3.767
X5.5684Y-3.767
X5.5684Y-4.5544
T10
X2.6691Y-2.555
X2.8659Y-2.555
T11
X1.9Y-5.1216
X2.1Y-5.1216
X2.3Y-5.1216
X3.8Y-5.1216
X4.0Y-5.1216
X4.2Y-5.1216
X5.7Y-5.1216
X5.9Y-5.1216
X6.1Y-5.1216
T12
X0.7551Y-5.1216
X0.9238Y-2.855
X1.6449Y-5.1216
X2.6551Y-5.1216
X3.5449Y-5.1216
X4.5551Y-5.1216
X5.4449Y-5.1216
T13
X2.3919Y-4.5497
X2.5929Y-4.5497
X4.1809Y-4.548
X4.3819Y-4.548
T14
X0.8238Y-2.755
X0.8238Y-2.955
X1.0238Y-2.755
X1.0238Y-2.955
T15
X1.285Y-2.831
X4.45Y-2.545
X5.02Y-1.768
X5.02Y-2.032
X6.109Y-2.831
T16
X0.76Y-4.734
X6.14Y-4.734
T0
M30
