%TF.GenerationSoftware,KiCad,Pcbnew,7.0.7*%
%TF.CreationDate,2023-08-27T17:12:28+02:00*%
%TF.ProjectId,3phaseDiverter-rounded,33706861-7365-4446-9976-65727465722d,3*%
%TF.SameCoordinates,Original*%
%TF.FileFunction,Legend,Bot*%
%TF.FilePolarity,Positive*%
%FSLAX46Y46*%
G04 Gerber Fmt 4.6, Leading zero omitted, Abs format (unit mm)*
G04 Created by KiCad (PCBNEW 7.0.7) date 2023-08-27 17:12:28*
%MOMM*%
%LPD*%
G01*
G04 APERTURE LIST*
G04 Aperture macros list*
%AMRoundRect*
0 Rectangle with rounded corners*
0 $1 Rounding radius*
0 $2 $3 $4 $5 $6 $7 $8 $9 X,Y pos of 4 corners*
0 Add a 4 corners polygon primitive as box body*
4,1,4,$2,$3,$4,$5,$6,$7,$8,$9,$2,$3,0*
0 Add four circle primitives for the rounded corners*
1,1,$1+$1,$2,$3*
1,1,$1+$1,$4,$5*
1,1,$1+$1,$6,$7*
1,1,$1+$1,$8,$9*
0 Add four rect primitives between the rounded corners*
20,1,$1+$1,$2,$3,$4,$5,0*
20,1,$1+$1,$4,$5,$6,$7,0*
20,1,$1+$1,$6,$7,$8,$9,0*
20,1,$1+$1,$8,$9,$2,$3,0*%
%AMFreePoly0*
4,1,6,1.000000,0.000000,0.500000,-0.750000,-0.500000,-0.750000,-0.500000,0.750000,0.500000,0.750000,1.000000,0.000000,1.000000,0.000000,$1*%
%AMFreePoly1*
4,1,6,0.500000,-0.750000,-0.650000,-0.750000,-0.150000,0.000000,-0.650000,0.750000,0.500000,0.750000,0.500000,-0.750000,0.500000,-0.750000,$1*%
G04 Aperture macros list end*
%ADD10C,0.150000*%
%ADD11C,0.381000*%
%ADD12C,0.120000*%
%ADD13C,3.000000*%
%ADD14RoundRect,0.250000X0.620000X-0.620000X0.620000X0.620000X-0.620000X0.620000X-0.620000X-0.620000X0*%
%ADD15C,1.740000*%
%ADD16C,1.600000*%
%ADD17R,4.000000X4.000000*%
%ADD18R,1.200000X1.200000*%
%ADD19C,1.200000*%
%ADD20O,1.600000X1.600000*%
%ADD21RoundRect,0.337500X-0.337500X1.012500X-0.337500X-1.012500X0.337500X-1.012500X0.337500X1.012500X0*%
%ADD22R,1.600000X2.400000*%
%ADD23O,1.600000X2.400000*%
%ADD24R,2.200000X2.200000*%
%ADD25O,2.200000X2.200000*%
%ADD26C,4.300000*%
%ADD27C,4.700000*%
%ADD28C,7.000000*%
%ADD29R,2.000000X2.000000*%
%ADD30O,2.000000X2.000000*%
%ADD31RoundRect,0.250000X0.620000X0.620000X-0.620000X0.620000X-0.620000X-0.620000X0.620000X-0.620000X0*%
%ADD32R,1.500000X1.050000*%
%ADD33O,1.500000X1.050000*%
%ADD34C,1.500000*%
%ADD35R,2.011600X2.011600*%
%ADD36C,2.011598*%
%ADD37R,1.905000X2.000000*%
%ADD38O,1.905000X2.000000*%
%ADD39RoundRect,0.249999X0.790001X1.550001X-0.790001X1.550001X-0.790001X-1.550001X0.790001X-1.550001X0*%
%ADD40O,2.080000X3.600000*%
%ADD41RoundRect,0.249999X-1.025001X-1.025001X1.025001X-1.025001X1.025001X1.025001X-1.025001X1.025001X0*%
%ADD42C,2.550000*%
%ADD43R,1.600000X1.600000*%
%ADD44C,2.600000*%
%ADD45C,2.050000*%
%ADD46C,2.250000*%
%ADD47FreePoly0,180.000000*%
%ADD48FreePoly1,180.000000*%
G04 APERTURE END LIST*
D10*
X87828328Y-46549819D02*
X87828328Y-47264104D01*
X87828328Y-47264104D02*
X87875947Y-47406961D01*
X87875947Y-47406961D02*
X87971185Y-47502200D01*
X87971185Y-47502200D02*
X88114042Y-47549819D01*
X88114042Y-47549819D02*
X88209280Y-47549819D01*
X87352137Y-47549819D02*
X87352137Y-46549819D01*
X87352137Y-46549819D02*
X86971185Y-46549819D01*
X86971185Y-46549819D02*
X86875947Y-46597438D01*
X86875947Y-46597438D02*
X86828328Y-46645057D01*
X86828328Y-46645057D02*
X86780709Y-46740295D01*
X86780709Y-46740295D02*
X86780709Y-46883152D01*
X86780709Y-46883152D02*
X86828328Y-46978390D01*
X86828328Y-46978390D02*
X86875947Y-47026009D01*
X86875947Y-47026009D02*
X86971185Y-47073628D01*
X86971185Y-47073628D02*
X87352137Y-47073628D01*
X86447375Y-46549819D02*
X85828328Y-46549819D01*
X85828328Y-46549819D02*
X86161661Y-46930771D01*
X86161661Y-46930771D02*
X86018804Y-46930771D01*
X86018804Y-46930771D02*
X85923566Y-46978390D01*
X85923566Y-46978390D02*
X85875947Y-47026009D01*
X85875947Y-47026009D02*
X85828328Y-47121247D01*
X85828328Y-47121247D02*
X85828328Y-47359342D01*
X85828328Y-47359342D02*
X85875947Y-47454580D01*
X85875947Y-47454580D02*
X85923566Y-47502200D01*
X85923566Y-47502200D02*
X86018804Y-47549819D01*
X86018804Y-47549819D02*
X86304518Y-47549819D01*
X86304518Y-47549819D02*
X86399756Y-47502200D01*
X86399756Y-47502200D02*
X86447375Y-47454580D01*
D11*
%TO.C,REF\u002A\u002A*%
X139852400Y-127330200D02*
X135153400Y-120345200D01*
X136052560Y-124736860D02*
X134853680Y-123936760D01*
X136052560Y-124736860D02*
X134752080Y-121935240D01*
X135651240Y-126735840D02*
X135752840Y-125836680D01*
X135651240Y-126735840D02*
X135051800Y-126037340D01*
X135651240Y-126735840D02*
X134452360Y-123637040D01*
X135252460Y-121737120D02*
X136052560Y-124736860D01*
X135153400Y-120345200D02*
X130454400Y-127330200D01*
X134853680Y-123936760D02*
X135651240Y-126735840D01*
X134452360Y-123637040D02*
X135051800Y-124035820D01*
X130454400Y-127330200D02*
X139852400Y-127330200D01*
X91668600Y-127304800D02*
X86969600Y-120319800D01*
X87868760Y-124711460D02*
X86669880Y-123911360D01*
X87868760Y-124711460D02*
X86568280Y-121909840D01*
X87467440Y-126710440D02*
X87569040Y-125811280D01*
X87467440Y-126710440D02*
X86868000Y-126011940D01*
X87467440Y-126710440D02*
X86268560Y-123611640D01*
X87068660Y-121711720D02*
X87868760Y-124711460D01*
X86969600Y-120319800D02*
X82270600Y-127304800D01*
X86669880Y-123911360D02*
X87467440Y-126710440D01*
X86268560Y-123611640D02*
X86868000Y-124010420D01*
X82270600Y-127304800D02*
X91668600Y-127304800D01*
X43332400Y-127330200D02*
X38633400Y-120345200D01*
X39532560Y-124736860D02*
X38333680Y-123936760D01*
X39532560Y-124736860D02*
X38232080Y-121935240D01*
X39131240Y-126735840D02*
X39232840Y-125836680D01*
X39131240Y-126735840D02*
X38531800Y-126037340D01*
X39131240Y-126735840D02*
X37932360Y-123637040D01*
X38732460Y-121737120D02*
X39532560Y-124736860D01*
X38633400Y-120345200D02*
X33934400Y-127330200D01*
X38333680Y-123936760D02*
X39131240Y-126735840D01*
X37932360Y-123637040D02*
X38531800Y-124035820D01*
X33934400Y-127330200D02*
X43332400Y-127330200D01*
D12*
%TO.C,JP3*%
X88394995Y-49895000D02*
X88394995Y-47895000D01*
X88394995Y-47895000D02*
X85594995Y-47895000D01*
X85594995Y-49895000D02*
X88394995Y-49895000D01*
X85594995Y-47895000D02*
X85594995Y-49895000D01*
%TD*%
%LPC*%
D13*
%TO.C,FS3*%
X115700000Y-130087500D03*
X138300000Y-130087500D03*
%TD*%
D14*
%TO.C,J0*%
X116318596Y-34163000D03*
D15*
X116318596Y-31623000D03*
X116318596Y-29083000D03*
X116318596Y-26543000D03*
X116318596Y-24003000D03*
X116318596Y-21463000D03*
%TD*%
D16*
%TO.C,C13*%
X76835000Y-55920000D03*
X76835000Y-60920000D03*
%TD*%
D17*
%TO.C,TP3*%
X127508000Y-51612800D03*
%TD*%
D18*
%TO.C,C2*%
X140443900Y-32809400D03*
D19*
X142443900Y-32809400D03*
%TD*%
D16*
%TO.C,R20*%
X92075000Y-69342000D03*
D20*
X92075000Y-59182000D03*
%TD*%
D14*
%TO.C,J4*%
X93464947Y-26543000D03*
D15*
X93464947Y-24003000D03*
X93464947Y-21463000D03*
%TD*%
D21*
%TO.C,RF1*%
X25496520Y-65151000D03*
X29497020Y-42799000D03*
X31496000Y-42799000D03*
X33494980Y-42799000D03*
X29497020Y-65151000D03*
X25496520Y-42799000D03*
X35493960Y-42799000D03*
X31496000Y-65151000D03*
X27498040Y-42799000D03*
X35493960Y-65151000D03*
X33494980Y-65151000D03*
X37495480Y-42799000D03*
X37495480Y-65151000D03*
X27498040Y-65151000D03*
%TD*%
D22*
%TO.C,IC1*%
X97154995Y-45085000D03*
D23*
X94614995Y-45085000D03*
X92074995Y-45085000D03*
X89534995Y-45085000D03*
X86994995Y-45085000D03*
X84454995Y-45085000D03*
X81914995Y-45085000D03*
X79374995Y-45085000D03*
X76834995Y-45085000D03*
X74294995Y-45085000D03*
X71754995Y-45085000D03*
X69214995Y-45085000D03*
X66674995Y-45085000D03*
X64134995Y-45085000D03*
X64134995Y-52705000D03*
X66674995Y-52705000D03*
X69214995Y-52705000D03*
X71754995Y-52705000D03*
X74294995Y-52705000D03*
X76834995Y-52705000D03*
X79374995Y-52705000D03*
X81914995Y-52705000D03*
X84454995Y-52705000D03*
X86994995Y-52705000D03*
X89534995Y-52705000D03*
X92074995Y-52705000D03*
X94614995Y-52705000D03*
X97154995Y-52705000D03*
%TD*%
D13*
%TO.C,FS1*%
X19180000Y-130087500D03*
X41780000Y-130087500D03*
%TD*%
D24*
%TO.C,D6*%
X151561800Y-83185000D03*
D25*
X143941800Y-83185000D03*
%TD*%
D26*
%TO.C,REF\u002A\u002A*%
X155956000Y-32613600D03*
%TD*%
D16*
%TO.C,R1*%
X125450600Y-21539200D03*
D20*
X125450600Y-31699200D03*
%TD*%
D27*
%TO.C,REF\u002A\u002A*%
X19304000Y-120243600D03*
D28*
X19304000Y-120243600D03*
%TD*%
D13*
%TO.C,FS2*%
X67440000Y-130087500D03*
X90040000Y-130087500D03*
%TD*%
D16*
%TO.C,R6*%
X78968600Y-88239600D03*
D20*
X66268600Y-88239600D03*
%TD*%
D14*
%TO.C,J6*%
X78229181Y-26543000D03*
D15*
X78229181Y-24003000D03*
X78229181Y-21463000D03*
%TD*%
D17*
%TO.C,TP0*%
X155168600Y-71907400D03*
%TD*%
D16*
%TO.C,C12*%
X147853400Y-68213600D03*
X147853400Y-73213600D03*
%TD*%
D29*
%TO.C,BR1*%
X65836800Y-99208600D03*
D30*
X65836800Y-94208600D03*
X60836800Y-94208600D03*
X60836800Y-99208600D03*
%TD*%
D31*
%TO.C,J15*%
X141782800Y-68263200D03*
D15*
X139242800Y-68263200D03*
%TD*%
D16*
%TO.C,R19*%
X86995000Y-69342000D03*
D20*
X86995000Y-59182000D03*
%TD*%
D32*
%TO.C,VR2*%
X133379800Y-21640800D03*
D33*
X133379800Y-20370800D03*
X133379800Y-19100800D03*
%TD*%
D16*
%TO.C,R7*%
X125552200Y-88239600D03*
D20*
X112852200Y-88239600D03*
%TD*%
D34*
%TO.C,X1*%
X78599200Y-38582600D03*
X73719200Y-38582600D03*
%TD*%
D16*
%TO.C,R10*%
X130302000Y-88265000D03*
D20*
X143002000Y-88265000D03*
%TD*%
D27*
%TO.C,REF\u002A\u002A*%
X155956000Y-120243600D03*
D28*
X155956000Y-120243600D03*
%TD*%
D26*
%TO.C,REF\u002A\u002A*%
X19253200Y-32613600D03*
%TD*%
D31*
%TO.C,CT2*%
X90144600Y-81491600D03*
D15*
X87604600Y-81491600D03*
%TD*%
D16*
%TO.C,R4*%
X127000000Y-83185000D03*
D20*
X116840000Y-83185000D03*
%TD*%
D35*
%TO.C,TXFR3*%
X121437400Y-115681801D03*
D36*
X141437401Y-115681801D03*
X141437401Y-95681800D03*
X136437401Y-95681800D03*
X126437400Y-95681800D03*
X121437400Y-95681800D03*
%TD*%
D14*
%TO.C,J11*%
X40139766Y-26543000D03*
D15*
X40139766Y-24003000D03*
X40139766Y-21463000D03*
%TD*%
D16*
%TO.C,R5*%
X32613600Y-88239600D03*
D20*
X19913600Y-88239600D03*
%TD*%
D37*
%TO.C,VR1*%
X148835700Y-22225000D03*
D38*
X146295700Y-22225000D03*
X143755700Y-22225000D03*
%TD*%
D16*
%TO.C,C6*%
X90282400Y-38811200D03*
X85282400Y-38811200D03*
%TD*%
D35*
%TO.C,TXFR2*%
X76073000Y-115562400D03*
D36*
X96073001Y-115562400D03*
X96073001Y-95562399D03*
X91073001Y-95562399D03*
X81073000Y-95562399D03*
X76073000Y-95562399D03*
%TD*%
D14*
%TO.C,J7*%
X70611298Y-26543000D03*
D15*
X70611298Y-24003000D03*
X70611298Y-21463000D03*
%TD*%
D24*
%TO.C,D2*%
X58013600Y-83159600D03*
D25*
X50393600Y-83159600D03*
%TD*%
D14*
%TO.C,J10*%
X47757649Y-26543000D03*
D15*
X47757649Y-24003000D03*
X47757649Y-21463000D03*
%TD*%
D17*
%TO.C,TP4*%
X32639000Y-71907400D03*
%TD*%
D39*
%TO.C,PWR1*%
X58420000Y-130087500D03*
D40*
X53340000Y-130087500D03*
X48260000Y-130087500D03*
%TD*%
D14*
%TO.C,J13*%
X24904000Y-26543000D03*
D15*
X24904000Y-24003000D03*
X24904000Y-21463000D03*
%TD*%
D16*
%TO.C,R17*%
X47625000Y-37846000D03*
D20*
X47625000Y-48006000D03*
%TD*%
D24*
%TO.C,D4*%
X105384600Y-83159600D03*
D25*
X97764600Y-83159600D03*
%TD*%
D16*
%TO.C,C7*%
X81407000Y-60920000D03*
X81407000Y-55920000D03*
%TD*%
%TO.C,R8*%
X37338000Y-88239600D03*
D20*
X50038000Y-88239600D03*
%TD*%
D14*
%TO.C,J9*%
X55375532Y-26543000D03*
D15*
X55375532Y-24003000D03*
X55375532Y-21463000D03*
%TD*%
D31*
%TO.C,J14*%
X133400800Y-68251200D03*
D15*
X130860800Y-68251200D03*
%TD*%
D18*
%TO.C,C11*%
X146728401Y-64668400D03*
D19*
X148728401Y-64668400D03*
%TD*%
D14*
%TO.C,J1*%
X116332000Y-42672000D03*
D15*
X116332000Y-40132000D03*
%TD*%
D16*
%TO.C,R18*%
X43815000Y-34925000D03*
D20*
X43815000Y-45085000D03*
%TD*%
D16*
%TO.C,R16*%
X51409600Y-40741600D03*
D20*
X51409600Y-50901600D03*
%TD*%
D37*
%TO.C,VR3*%
X142265400Y-55372000D03*
D38*
X139725400Y-55372000D03*
X137185400Y-55372000D03*
%TD*%
D39*
%TO.C,PWR2*%
X106680000Y-130087500D03*
D40*
X101600000Y-130087500D03*
X96520000Y-130087500D03*
%TD*%
D16*
%TO.C,C10*%
X71219200Y-33528000D03*
X73719200Y-33528000D03*
%TD*%
D17*
%TO.C,TP1*%
X113030000Y-64643000D03*
%TD*%
D39*
%TO.C,PWR3*%
X154940000Y-130087500D03*
D40*
X149860000Y-130087500D03*
X144780000Y-130087500D03*
%TD*%
D17*
%TO.C,TP2*%
X127508000Y-44907200D03*
%TD*%
D16*
%TO.C,R9*%
X83667600Y-88239600D03*
D20*
X96367600Y-88239600D03*
%TD*%
D14*
%TO.C,J2*%
X108700713Y-26543000D03*
D15*
X108700713Y-24003000D03*
X108700713Y-21463000D03*
%TD*%
D16*
%TO.C,R22*%
X122402600Y-21539200D03*
D20*
X122402600Y-31699200D03*
%TD*%
D24*
%TO.C,D5*%
X153670000Y-88265000D03*
D25*
X146050000Y-88265000D03*
%TD*%
D41*
%TO.C,JP2*%
X106195500Y-115519200D03*
D42*
X111300900Y-115519200D03*
%TD*%
D31*
%TO.C,J30*%
X142374200Y-45915800D03*
D15*
X139834200Y-45915800D03*
%TD*%
D24*
%TO.C,D1*%
X60706000Y-88239600D03*
D25*
X53086000Y-88239600D03*
%TD*%
D22*
%TO.C,IC2*%
X113030000Y-57775000D03*
D23*
X115570000Y-57775000D03*
X118110000Y-57775000D03*
X120650000Y-57775000D03*
X120650000Y-50155000D03*
X118110000Y-50155000D03*
X115570000Y-50155000D03*
X113030000Y-50155000D03*
%TD*%
D16*
%TO.C,C4*%
X139859600Y-38575200D03*
X144859600Y-38575200D03*
%TD*%
D31*
%TO.C,J20*%
X155625800Y-48666400D03*
D15*
X153085800Y-48666400D03*
%TD*%
D14*
%TO.C,J3*%
X101082830Y-26543000D03*
D15*
X101082830Y-24003000D03*
X101082830Y-21463000D03*
%TD*%
D31*
%TO.C,CT3*%
X137160000Y-81517000D03*
D15*
X134620000Y-81517000D03*
%TD*%
D16*
%TO.C,R14*%
X57785000Y-57734200D03*
D20*
X47625000Y-57734200D03*
%TD*%
D16*
%TO.C,R2*%
X32613600Y-83159600D03*
D20*
X22453600Y-83159600D03*
%TD*%
D43*
%TO.C,C1*%
X150073288Y-39141400D03*
D16*
X152073288Y-39141400D03*
%TD*%
D35*
%TO.C,TXFR1*%
X30690925Y-115562400D03*
D36*
X50690926Y-115562400D03*
X50690926Y-95562399D03*
X45690926Y-95562399D03*
X35690925Y-95562399D03*
X30690925Y-95562399D03*
%TD*%
D16*
%TO.C,R11*%
X103708200Y-60071000D03*
D20*
X103708200Y-49911000D03*
%TD*%
D14*
%TO.C,J5*%
X85847064Y-26543000D03*
D15*
X85847064Y-24003000D03*
X85847064Y-21463000D03*
%TD*%
D14*
%TO.C,J12*%
X32521883Y-26543000D03*
D15*
X32521883Y-24003000D03*
X32521883Y-21463000D03*
%TD*%
D16*
%TO.C,C5*%
X132080000Y-32867600D03*
X137080000Y-32867600D03*
%TD*%
D18*
%TO.C,C3*%
X132080000Y-27254200D03*
D19*
X134080000Y-27254200D03*
%TD*%
D29*
%TO.C,BR3*%
X156540200Y-99208600D03*
D30*
X156540200Y-94208600D03*
X151540200Y-94208600D03*
X151540200Y-99208600D03*
%TD*%
D44*
%TO.C,L1*%
X72794253Y-64897000D03*
X67794253Y-64897000D03*
%TD*%
D41*
%TO.C,JP1*%
X60754900Y-115562400D03*
D42*
X65860300Y-115562400D03*
%TD*%
D16*
%TO.C,R12*%
X107264200Y-52730400D03*
D20*
X107264200Y-62890400D03*
%TD*%
D14*
%TO.C,J8*%
X62993415Y-26543000D03*
D15*
X62993415Y-24003000D03*
X62993415Y-21463000D03*
%TD*%
D16*
%TO.C,R13*%
X61569600Y-61569600D03*
D20*
X51409600Y-61569600D03*
%TD*%
D16*
%TO.C,C9*%
X81099200Y-33604200D03*
X78599200Y-33604200D03*
%TD*%
D31*
%TO.C,CT1*%
X42849800Y-81491600D03*
D15*
X40309800Y-81491600D03*
%TD*%
D16*
%TO.C,C8*%
X126934600Y-36423600D03*
X121934600Y-36423600D03*
%TD*%
D29*
%TO.C,BR2*%
X111248200Y-99208600D03*
D30*
X111248200Y-94208600D03*
X106248200Y-94208600D03*
X106248200Y-99208600D03*
%TD*%
D45*
%TO.C,CN9*%
X23464520Y-72517000D03*
D46*
X20924520Y-69977000D03*
X20924520Y-75057000D03*
X26004520Y-69977000D03*
X26004520Y-75057000D03*
%TD*%
D16*
%TO.C,R3*%
X79984600Y-83159600D03*
D20*
X69824600Y-83159600D03*
%TD*%
D16*
%TO.C,R15*%
X53949600Y-53898800D03*
D20*
X43789600Y-53898800D03*
%TD*%
D24*
%TO.C,D3*%
X107035600Y-88239600D03*
D25*
X99415600Y-88239600D03*
%TD*%
D16*
%TO.C,R21*%
X97155000Y-69342000D03*
D20*
X97155000Y-59182000D03*
%TD*%
D47*
%TO.C,JP3*%
X87719995Y-48895000D03*
D48*
X86269995Y-48895000D03*
%TD*%
%LPD*%
M02*
