%TF.GenerationSoftware,KiCad,Pcbnew,7.0.8*%
%TF.CreationDate,2023-10-29T21:48:54+01:00*%
%TF.ProjectId,3phaseDiverter-rounded,33706861-7365-4446-9976-65727465722d,3*%
%TF.SameCoordinates,Original*%
%TF.FileFunction,Profile,NP*%
%FSLAX46Y46*%
G04 Gerber Fmt 4.6, Leading zero omitted, Abs format (unit mm)*
G04 Created by KiCad (PCBNEW 7.0.8) date 2023-10-29 21:48:54*
%MOMM*%
%LPD*%
G01*
G04 APERTURE LIST*
%TA.AperFunction,Profile*%
%ADD10C,0.100000*%
%TD*%
G04 APERTURE END LIST*
D10*
X151638000Y-132842000D02*
G75*
G03*
X153162000Y-132842000I762000J0D01*
G01*
X55118000Y-132842000D02*
G75*
G03*
X56642000Y-132842000I762000J0D01*
G01*
X50038000Y-132842000D02*
G75*
G03*
X51562000Y-132842000I762000J0D01*
G01*
X56642000Y-127254000D02*
X56642000Y-132842000D01*
X55118000Y-127254000D02*
X55118000Y-132842000D01*
X103378000Y-127254000D02*
X103378000Y-132842000D01*
X153162000Y-127254000D02*
G75*
G03*
X151638000Y-127254000I-762000J0D01*
G01*
X148082000Y-127254000D02*
G75*
G03*
X146558000Y-127254000I-762000J0D01*
G01*
X103378000Y-132842000D02*
G75*
G03*
X104902000Y-132842000I762000J0D01*
G01*
X104902000Y-127254000D02*
G75*
G03*
X103378000Y-127254000I-762000J0D01*
G01*
X98298000Y-127254000D02*
X98298000Y-132842000D01*
X99822000Y-127254000D02*
X99822000Y-132842000D01*
X153162000Y-127254000D02*
X153162000Y-132842000D01*
X98298000Y-132842000D02*
G75*
G03*
X99822000Y-132842000I762000J0D01*
G01*
X99822000Y-127254000D02*
G75*
G03*
X98298000Y-127254000I-762000J0D01*
G01*
X50038000Y-127254000D02*
X50038000Y-132842000D01*
X104902000Y-127254000D02*
X104902000Y-132842000D01*
X151638000Y-127254000D02*
X151638000Y-132842000D01*
X146558000Y-132842000D02*
G75*
G03*
X148082000Y-132842000I762000J0D01*
G01*
X56642000Y-127254000D02*
G75*
G03*
X55118000Y-127254000I-762000J0D01*
G01*
X148082000Y-127254000D02*
X148082000Y-132842000D01*
X146558000Y-127254000D02*
X146558000Y-132842000D01*
X51562000Y-127254000D02*
X51562000Y-132842000D01*
X51562000Y-127254000D02*
G75*
G03*
X50038000Y-127254000I-762000J0D01*
G01*
X15240000Y-15240000D02*
X160020000Y-15240000D01*
X160020000Y-135890000D01*
X15240000Y-135890000D01*
X15240000Y-15240000D01*
M02*
