%TF.GenerationSoftware,KiCad,Pcbnew,7.0.7*%
%TF.CreationDate,2023-08-26T16:48:08+02:00*%
%TF.ProjectId,3phaseDiverter-rounded,33706861-7365-4446-9976-65727465722d,3*%
%TF.SameCoordinates,Original*%
%TF.FileFunction,Soldermask,Top*%
%TF.FilePolarity,Negative*%
%FSLAX46Y46*%
G04 Gerber Fmt 4.6, Leading zero omitted, Abs format (unit mm)*
G04 Created by KiCad (PCBNEW 7.0.7) date 2023-08-26 16:48:08*
%MOMM*%
%LPD*%
G01*
G04 APERTURE LIST*
G04 Aperture macros list*
%AMRoundRect*
0 Rectangle with rounded corners*
0 $1 Rounding radius*
0 $2 $3 $4 $5 $6 $7 $8 $9 X,Y pos of 4 corners*
0 Add a 4 corners polygon primitive as box body*
4,1,4,$2,$3,$4,$5,$6,$7,$8,$9,$2,$3,0*
0 Add four circle primitives for the rounded corners*
1,1,$1+$1,$2,$3*
1,1,$1+$1,$4,$5*
1,1,$1+$1,$6,$7*
1,1,$1+$1,$8,$9*
0 Add four rect primitives between the rounded corners*
20,1,$1+$1,$2,$3,$4,$5,0*
20,1,$1+$1,$4,$5,$6,$7,0*
20,1,$1+$1,$6,$7,$8,$9,0*
20,1,$1+$1,$8,$9,$2,$3,0*%
G04 Aperture macros list end*
%ADD10C,3.000000*%
%ADD11RoundRect,0.250000X0.620000X-0.620000X0.620000X0.620000X-0.620000X0.620000X-0.620000X-0.620000X0*%
%ADD12C,1.740000*%
%ADD13C,1.600000*%
%ADD14R,4.000000X4.000000*%
%ADD15R,1.200000X1.200000*%
%ADD16C,1.200000*%
%ADD17O,1.600000X1.600000*%
%ADD18RoundRect,0.337500X-0.337500X1.012500X-0.337500X-1.012500X0.337500X-1.012500X0.337500X1.012500X0*%
%ADD19R,1.600000X2.400000*%
%ADD20O,1.600000X2.400000*%
%ADD21R,2.200000X2.200000*%
%ADD22O,2.200000X2.200000*%
%ADD23C,4.300000*%
%ADD24C,4.700000*%
%ADD25C,7.000000*%
%ADD26R,2.000000X2.000000*%
%ADD27O,2.000000X2.000000*%
%ADD28RoundRect,0.250000X0.620000X0.620000X-0.620000X0.620000X-0.620000X-0.620000X0.620000X-0.620000X0*%
%ADD29R,1.500000X1.050000*%
%ADD30O,1.500000X1.050000*%
%ADD31C,1.500000*%
%ADD32R,2.011600X2.011600*%
%ADD33C,2.011598*%
%ADD34R,1.905000X2.000000*%
%ADD35O,1.905000X2.000000*%
%ADD36RoundRect,0.249999X0.790001X1.550001X-0.790001X1.550001X-0.790001X-1.550001X0.790001X-1.550001X0*%
%ADD37O,2.080000X3.600000*%
%ADD38RoundRect,0.249999X-1.025001X-1.025001X1.025001X-1.025001X1.025001X1.025001X-1.025001X1.025001X0*%
%ADD39C,2.550000*%
%ADD40R,1.600000X1.600000*%
%ADD41C,2.600000*%
%ADD42C,2.050000*%
%ADD43C,2.250000*%
G04 APERTURE END LIST*
D10*
%TO.C,FS3*%
X115700000Y-130087500D03*
X138300000Y-130087500D03*
%TD*%
D11*
%TO.C,J0*%
X116318596Y-34163000D03*
D12*
X116318596Y-31623000D03*
X116318596Y-29083000D03*
X116318596Y-26543000D03*
X116318596Y-24003000D03*
X116318596Y-21463000D03*
%TD*%
D13*
%TO.C,C13*%
X76835000Y-55920000D03*
X76835000Y-60920000D03*
%TD*%
D14*
%TO.C,TP3*%
X127508000Y-51612800D03*
%TD*%
D15*
%TO.C,C2*%
X140443900Y-32809400D03*
D16*
X142443900Y-32809400D03*
%TD*%
D13*
%TO.C,R20*%
X92075000Y-69342000D03*
D17*
X92075000Y-59182000D03*
%TD*%
D11*
%TO.C,J4*%
X93464947Y-26543000D03*
D12*
X93464947Y-24003000D03*
X93464947Y-21463000D03*
%TD*%
D18*
%TO.C,RF1*%
X25496520Y-65151000D03*
X29497020Y-42799000D03*
X31496000Y-42799000D03*
X33494980Y-42799000D03*
X29497020Y-65151000D03*
X25496520Y-42799000D03*
X35493960Y-42799000D03*
X31496000Y-65151000D03*
X27498040Y-42799000D03*
X35493960Y-65151000D03*
X33494980Y-65151000D03*
X37495480Y-42799000D03*
X37495480Y-65151000D03*
X27498040Y-65151000D03*
%TD*%
D19*
%TO.C,IC1*%
X97154995Y-45085000D03*
D20*
X94614995Y-45085000D03*
X92074995Y-45085000D03*
X89534995Y-45085000D03*
X86994995Y-45085000D03*
X84454995Y-45085000D03*
X81914995Y-45085000D03*
X79374995Y-45085000D03*
X76834995Y-45085000D03*
X74294995Y-45085000D03*
X71754995Y-45085000D03*
X69214995Y-45085000D03*
X66674995Y-45085000D03*
X64134995Y-45085000D03*
X64134995Y-52705000D03*
X66674995Y-52705000D03*
X69214995Y-52705000D03*
X71754995Y-52705000D03*
X74294995Y-52705000D03*
X76834995Y-52705000D03*
X79374995Y-52705000D03*
X81914995Y-52705000D03*
X84454995Y-52705000D03*
X86994995Y-52705000D03*
X89534995Y-52705000D03*
X92074995Y-52705000D03*
X94614995Y-52705000D03*
X97154995Y-52705000D03*
%TD*%
D10*
%TO.C,FS1*%
X19180000Y-130087500D03*
X41780000Y-130087500D03*
%TD*%
D21*
%TO.C,D6*%
X151561800Y-83185000D03*
D22*
X143941800Y-83185000D03*
%TD*%
D23*
%TO.C,REF\u002A\u002A*%
X155956000Y-32613600D03*
%TD*%
D13*
%TO.C,R1*%
X125450600Y-21539200D03*
D17*
X125450600Y-31699200D03*
%TD*%
D24*
%TO.C,REF\u002A\u002A*%
X19304000Y-120243600D03*
D25*
X19304000Y-120243600D03*
%TD*%
D10*
%TO.C,FS2*%
X67440000Y-130087500D03*
X90040000Y-130087500D03*
%TD*%
D13*
%TO.C,R6*%
X78968600Y-88239600D03*
D17*
X66268600Y-88239600D03*
%TD*%
D11*
%TO.C,J6*%
X78229181Y-26543000D03*
D12*
X78229181Y-24003000D03*
X78229181Y-21463000D03*
%TD*%
D14*
%TO.C,TP0*%
X155168600Y-71907400D03*
%TD*%
D13*
%TO.C,C12*%
X147853400Y-68213600D03*
X147853400Y-73213600D03*
%TD*%
D26*
%TO.C,BR1*%
X65836800Y-99208600D03*
D27*
X65836800Y-94208600D03*
X60836800Y-94208600D03*
X60836800Y-99208600D03*
%TD*%
D28*
%TO.C,J15*%
X141782800Y-68263200D03*
D12*
X139242800Y-68263200D03*
%TD*%
D13*
%TO.C,R19*%
X86995000Y-69342000D03*
D17*
X86995000Y-59182000D03*
%TD*%
D29*
%TO.C,VR2*%
X133379800Y-21640800D03*
D30*
X133379800Y-20370800D03*
X133379800Y-19100800D03*
%TD*%
D13*
%TO.C,R7*%
X125552200Y-88239600D03*
D17*
X112852200Y-88239600D03*
%TD*%
D31*
%TO.C,X1*%
X78599200Y-38582600D03*
X73719200Y-38582600D03*
%TD*%
D13*
%TO.C,R10*%
X130302000Y-88265000D03*
D17*
X143002000Y-88265000D03*
%TD*%
D24*
%TO.C,REF\u002A\u002A*%
X155956000Y-120243600D03*
D25*
X155956000Y-120243600D03*
%TD*%
D23*
%TO.C,REF\u002A\u002A*%
X19253200Y-32613600D03*
%TD*%
D28*
%TO.C,CT2*%
X90144600Y-81491600D03*
D12*
X87604600Y-81491600D03*
%TD*%
D13*
%TO.C,R4*%
X127000000Y-83185000D03*
D17*
X116840000Y-83185000D03*
%TD*%
D32*
%TO.C,TXFR3*%
X121437400Y-115681801D03*
D33*
X141437401Y-115681801D03*
X141437401Y-95681800D03*
X136437401Y-95681800D03*
X126437400Y-95681800D03*
X121437400Y-95681800D03*
%TD*%
D11*
%TO.C,J11*%
X40139766Y-26543000D03*
D12*
X40139766Y-24003000D03*
X40139766Y-21463000D03*
%TD*%
D13*
%TO.C,R5*%
X32613600Y-88239600D03*
D17*
X19913600Y-88239600D03*
%TD*%
D34*
%TO.C,VR1*%
X148835700Y-22225000D03*
D35*
X146295700Y-22225000D03*
X143755700Y-22225000D03*
%TD*%
D13*
%TO.C,C6*%
X90282400Y-38811200D03*
X85282400Y-38811200D03*
%TD*%
D32*
%TO.C,TXFR2*%
X76073000Y-115562400D03*
D33*
X96073001Y-115562400D03*
X96073001Y-95562399D03*
X91073001Y-95562399D03*
X81073000Y-95562399D03*
X76073000Y-95562399D03*
%TD*%
D11*
%TO.C,J7*%
X70611298Y-26543000D03*
D12*
X70611298Y-24003000D03*
X70611298Y-21463000D03*
%TD*%
D21*
%TO.C,D2*%
X58013600Y-83159600D03*
D22*
X50393600Y-83159600D03*
%TD*%
D11*
%TO.C,J10*%
X47757649Y-26543000D03*
D12*
X47757649Y-24003000D03*
X47757649Y-21463000D03*
%TD*%
D14*
%TO.C,TP4*%
X32639000Y-71907400D03*
%TD*%
D36*
%TO.C,PWR1*%
X58420000Y-130087500D03*
D37*
X53340000Y-130087500D03*
X48260000Y-130087500D03*
%TD*%
D11*
%TO.C,J13*%
X24904000Y-26543000D03*
D12*
X24904000Y-24003000D03*
X24904000Y-21463000D03*
%TD*%
D13*
%TO.C,R17*%
X47625000Y-37846000D03*
D17*
X47625000Y-48006000D03*
%TD*%
D21*
%TO.C,D4*%
X105384600Y-83159600D03*
D22*
X97764600Y-83159600D03*
%TD*%
D13*
%TO.C,C7*%
X81407000Y-60920000D03*
X81407000Y-55920000D03*
%TD*%
%TO.C,R8*%
X37338000Y-88239600D03*
D17*
X50038000Y-88239600D03*
%TD*%
D11*
%TO.C,J9*%
X55375532Y-26543000D03*
D12*
X55375532Y-24003000D03*
X55375532Y-21463000D03*
%TD*%
D28*
%TO.C,J14*%
X133400800Y-68251200D03*
D12*
X130860800Y-68251200D03*
%TD*%
D15*
%TO.C,C11*%
X146728401Y-64668400D03*
D16*
X148728401Y-64668400D03*
%TD*%
D11*
%TO.C,J1*%
X116332000Y-42672000D03*
D12*
X116332000Y-40132000D03*
%TD*%
D13*
%TO.C,R18*%
X43815000Y-34925000D03*
D17*
X43815000Y-45085000D03*
%TD*%
D13*
%TO.C,R16*%
X51409600Y-40741600D03*
D17*
X51409600Y-50901600D03*
%TD*%
D34*
%TO.C,VR3*%
X142265400Y-55372000D03*
D35*
X139725400Y-55372000D03*
X137185400Y-55372000D03*
%TD*%
D36*
%TO.C,PWR2*%
X106680000Y-130087500D03*
D37*
X101600000Y-130087500D03*
X96520000Y-130087500D03*
%TD*%
D13*
%TO.C,C10*%
X71219200Y-33528000D03*
X73719200Y-33528000D03*
%TD*%
D14*
%TO.C,TP1*%
X113030000Y-64643000D03*
%TD*%
D36*
%TO.C,PWR3*%
X154940000Y-130087500D03*
D37*
X149860000Y-130087500D03*
X144780000Y-130087500D03*
%TD*%
D14*
%TO.C,TP2*%
X127508000Y-44907200D03*
%TD*%
D13*
%TO.C,R9*%
X83667600Y-88239600D03*
D17*
X96367600Y-88239600D03*
%TD*%
D11*
%TO.C,J2*%
X108700713Y-26543000D03*
D12*
X108700713Y-24003000D03*
X108700713Y-21463000D03*
%TD*%
D13*
%TO.C,R22*%
X122402600Y-21539200D03*
D17*
X122402600Y-31699200D03*
%TD*%
D21*
%TO.C,D5*%
X153670000Y-88265000D03*
D22*
X146050000Y-88265000D03*
%TD*%
D38*
%TO.C,JP2*%
X106195500Y-115519200D03*
D39*
X111300900Y-115519200D03*
%TD*%
D28*
%TO.C,J30*%
X142374200Y-45915800D03*
D12*
X139834200Y-45915800D03*
%TD*%
D21*
%TO.C,D1*%
X60706000Y-88239600D03*
D22*
X53086000Y-88239600D03*
%TD*%
D19*
%TO.C,IC2*%
X113030000Y-57775000D03*
D20*
X115570000Y-57775000D03*
X118110000Y-57775000D03*
X120650000Y-57775000D03*
X120650000Y-50155000D03*
X118110000Y-50155000D03*
X115570000Y-50155000D03*
X113030000Y-50155000D03*
%TD*%
D13*
%TO.C,C4*%
X139859600Y-38575200D03*
X144859600Y-38575200D03*
%TD*%
D28*
%TO.C,J20*%
X155625800Y-48666400D03*
D12*
X153085800Y-48666400D03*
%TD*%
D11*
%TO.C,J3*%
X101082830Y-26543000D03*
D12*
X101082830Y-24003000D03*
X101082830Y-21463000D03*
%TD*%
D28*
%TO.C,CT3*%
X137160000Y-81517000D03*
D12*
X134620000Y-81517000D03*
%TD*%
D13*
%TO.C,R14*%
X57785000Y-57734200D03*
D17*
X47625000Y-57734200D03*
%TD*%
D13*
%TO.C,R2*%
X32613600Y-83159600D03*
D17*
X22453600Y-83159600D03*
%TD*%
D40*
%TO.C,C1*%
X150073288Y-39141400D03*
D13*
X152073288Y-39141400D03*
%TD*%
D32*
%TO.C,TXFR1*%
X30690925Y-115562400D03*
D33*
X50690926Y-115562400D03*
X50690926Y-95562399D03*
X45690926Y-95562399D03*
X35690925Y-95562399D03*
X30690925Y-95562399D03*
%TD*%
D13*
%TO.C,R11*%
X103708200Y-60071000D03*
D17*
X103708200Y-49911000D03*
%TD*%
D11*
%TO.C,J5*%
X85847064Y-26543000D03*
D12*
X85847064Y-24003000D03*
X85847064Y-21463000D03*
%TD*%
D11*
%TO.C,J12*%
X32521883Y-26543000D03*
D12*
X32521883Y-24003000D03*
X32521883Y-21463000D03*
%TD*%
D13*
%TO.C,C5*%
X132080000Y-32867600D03*
X137080000Y-32867600D03*
%TD*%
D15*
%TO.C,C3*%
X132080000Y-27254200D03*
D16*
X134080000Y-27254200D03*
%TD*%
D26*
%TO.C,BR3*%
X156540200Y-99208600D03*
D27*
X156540200Y-94208600D03*
X151540200Y-94208600D03*
X151540200Y-99208600D03*
%TD*%
D41*
%TO.C,L1*%
X72794253Y-64897000D03*
X67794253Y-64897000D03*
%TD*%
D38*
%TO.C,JP1*%
X60754900Y-115562400D03*
D39*
X65860300Y-115562400D03*
%TD*%
D13*
%TO.C,R12*%
X107264200Y-52730400D03*
D17*
X107264200Y-62890400D03*
%TD*%
D11*
%TO.C,J8*%
X62993415Y-26543000D03*
D12*
X62993415Y-24003000D03*
X62993415Y-21463000D03*
%TD*%
D13*
%TO.C,R13*%
X61569600Y-61569600D03*
D17*
X51409600Y-61569600D03*
%TD*%
D13*
%TO.C,C9*%
X81099200Y-33604200D03*
X78599200Y-33604200D03*
%TD*%
D28*
%TO.C,CT1*%
X42849800Y-81491600D03*
D12*
X40309800Y-81491600D03*
%TD*%
D13*
%TO.C,C8*%
X126934600Y-36423600D03*
X121934600Y-36423600D03*
%TD*%
D26*
%TO.C,BR2*%
X111248200Y-99208600D03*
D27*
X111248200Y-94208600D03*
X106248200Y-94208600D03*
X106248200Y-99208600D03*
%TD*%
D42*
%TO.C,CN9*%
X23464520Y-72517000D03*
D43*
X20924520Y-69977000D03*
X20924520Y-75057000D03*
X26004520Y-69977000D03*
X26004520Y-75057000D03*
%TD*%
D13*
%TO.C,R3*%
X79984600Y-83159600D03*
D17*
X69824600Y-83159600D03*
%TD*%
D13*
%TO.C,R15*%
X53949600Y-53898800D03*
D17*
X43789600Y-53898800D03*
%TD*%
D21*
%TO.C,D3*%
X107035600Y-88239600D03*
D22*
X99415600Y-88239600D03*
%TD*%
D13*
%TO.C,R21*%
X97155000Y-69342000D03*
D17*
X97155000Y-59182000D03*
%TD*%
M02*
