%TF.GenerationSoftware,KiCad,Pcbnew,7.0.8*%
%TF.CreationDate,2023-10-29T23:14:44+01:00*%
%TF.ProjectId,3phaseDiverter-rounded,33706861-7365-4446-9976-65727465722d,3*%
%TF.SameCoordinates,Original*%
%TF.FileFunction,Soldermask,Top*%
%TF.FilePolarity,Negative*%
%FSLAX46Y46*%
G04 Gerber Fmt 4.6, Leading zero omitted, Abs format (unit mm)*
G04 Created by KiCad (PCBNEW 7.0.8) date 2023-10-29 23:14:44*
%MOMM*%
%LPD*%
G01*
G04 APERTURE LIST*
G04 Aperture macros list*
%AMRoundRect*
0 Rectangle with rounded corners*
0 $1 Rounding radius*
0 $2 $3 $4 $5 $6 $7 $8 $9 X,Y pos of 4 corners*
0 Add a 4 corners polygon primitive as box body*
4,1,4,$2,$3,$4,$5,$6,$7,$8,$9,$2,$3,0*
0 Add four circle primitives for the rounded corners*
1,1,$1+$1,$2,$3*
1,1,$1+$1,$4,$5*
1,1,$1+$1,$6,$7*
1,1,$1+$1,$8,$9*
0 Add four rect primitives between the rounded corners*
20,1,$1+$1,$2,$3,$4,$5,0*
20,1,$1+$1,$4,$5,$6,$7,0*
20,1,$1+$1,$6,$7,$8,$9,0*
20,1,$1+$1,$8,$9,$2,$3,0*%
G04 Aperture macros list end*
%ADD10RoundRect,0.250000X0.620000X-0.620000X0.620000X0.620000X-0.620000X0.620000X-0.620000X-0.620000X0*%
%ADD11C,1.740000*%
%ADD12C,3.000000*%
%ADD13C,1.600000*%
%ADD14R,4.000000X4.000000*%
%ADD15R,1.200000X1.200000*%
%ADD16C,1.200000*%
%ADD17O,1.600000X1.600000*%
%ADD18RoundRect,0.337500X-0.337500X1.012500X-0.337500X-1.012500X0.337500X-1.012500X0.337500X1.012500X0*%
%ADD19R,1.600000X2.400000*%
%ADD20O,1.600000X2.400000*%
%ADD21R,2.200000X2.200000*%
%ADD22O,2.200000X2.200000*%
%ADD23C,4.300000*%
%ADD24C,4.700000*%
%ADD25C,7.000000*%
%ADD26R,2.000000X2.000000*%
%ADD27O,2.000000X2.000000*%
%ADD28RoundRect,0.250000X0.620000X0.620000X-0.620000X0.620000X-0.620000X-0.620000X0.620000X-0.620000X0*%
%ADD29R,1.050000X1.500000*%
%ADD30O,1.050000X1.500000*%
%ADD31C,1.500000*%
%ADD32R,2.011600X2.011600*%
%ADD33C,2.011598*%
%ADD34R,1.905000X2.000000*%
%ADD35O,1.905000X2.000000*%
%ADD36RoundRect,0.249999X0.790001X1.550001X-0.790001X1.550001X-0.790001X-1.550001X0.790001X-1.550001X0*%
%ADD37O,2.080000X3.600000*%
%ADD38RoundRect,0.249999X-1.025001X-1.025001X1.025001X-1.025001X1.025001X1.025001X-1.025001X1.025001X0*%
%ADD39C,2.550000*%
%ADD40R,1.600000X1.600000*%
%ADD41C,2.600000*%
%ADD42C,2.050000*%
%ADD43C,2.250000*%
G04 APERTURE END LIST*
D10*
%TO.C,J23*%
X66339868Y-31826200D03*
D11*
X66339868Y-29286200D03*
%TD*%
D12*
%TO.C,FS3*%
X115700000Y-130087500D03*
X138300000Y-130087500D03*
%TD*%
D10*
%TO.C,J0*%
X123719996Y-41930000D03*
D11*
X123719996Y-39390000D03*
X123719996Y-36850000D03*
X123719996Y-34310000D03*
X123719996Y-31770000D03*
X123719996Y-29230000D03*
%TD*%
D13*
%TO.C,C9*%
X78968600Y-58891800D03*
X78968600Y-63891800D03*
%TD*%
D14*
%TO.C,TP3*%
X107467400Y-43840400D03*
%TD*%
D15*
%TO.C,C2*%
X140443900Y-32809400D03*
D16*
X142443900Y-32809400D03*
%TD*%
D13*
%TO.C,R20*%
X92075000Y-69342000D03*
D17*
X92075000Y-59182000D03*
%TD*%
D10*
%TO.C,J4*%
X96824800Y-23342600D03*
D11*
X96824800Y-20802600D03*
X96824800Y-18262600D03*
%TD*%
D10*
%TO.C,J28*%
X28250453Y-31826200D03*
D11*
X28250453Y-29286200D03*
%TD*%
D10*
%TO.C,J17*%
X104429283Y-31826200D03*
D11*
X104429283Y-29286200D03*
%TD*%
D18*
%TO.C,RF1*%
X27269440Y-62890400D03*
X27269440Y-65100200D03*
X31269940Y-42748200D03*
X31269940Y-44958000D03*
X33268920Y-42748200D03*
X33268920Y-44958000D03*
X35267900Y-42748200D03*
X35267900Y-44958000D03*
X31269940Y-62890400D03*
X31269940Y-65100200D03*
X27269440Y-42748200D03*
X27269440Y-44958000D03*
X37266880Y-42748200D03*
X37266880Y-44958000D03*
X33268920Y-62890400D03*
X33268920Y-65100200D03*
X29270960Y-42748200D03*
X29270960Y-44958000D03*
X37266880Y-62890400D03*
X37266880Y-65100200D03*
X35267900Y-62890400D03*
X35267900Y-65100200D03*
X39268400Y-42748200D03*
X39268400Y-44958000D03*
X39268400Y-62890400D03*
X39268400Y-65100200D03*
X29270960Y-62890400D03*
X29270960Y-65100200D03*
%TD*%
D19*
%TO.C,IC1*%
X97155000Y-47853600D03*
D20*
X94615000Y-47853600D03*
X92075000Y-47853600D03*
X89535000Y-47853600D03*
X86995000Y-47853600D03*
X84455000Y-47853600D03*
X81915000Y-47853600D03*
X79375000Y-47853600D03*
X76835000Y-47853600D03*
X74295000Y-47853600D03*
X71755000Y-47853600D03*
X69215000Y-47853600D03*
X66675000Y-47853600D03*
X64135000Y-47853600D03*
X64135000Y-55473600D03*
X66675000Y-55473600D03*
X69215000Y-55473600D03*
X71755000Y-55473600D03*
X74295000Y-55473600D03*
X76835000Y-55473600D03*
X79375000Y-55473600D03*
X81915000Y-55473600D03*
X84455000Y-55473600D03*
X86995000Y-55473600D03*
X89535000Y-55473600D03*
X92075000Y-55473600D03*
X94615000Y-55473600D03*
X97155000Y-55473600D03*
%TD*%
D12*
%TO.C,FS1*%
X19180000Y-130087500D03*
X41780000Y-130087500D03*
%TD*%
D21*
%TO.C,D6*%
X151561800Y-83185000D03*
D22*
X143941800Y-83185000D03*
%TD*%
D23*
%TO.C,REF4*%
X155956000Y-32613600D03*
%TD*%
D13*
%TO.C,R1*%
X132882000Y-21488400D03*
D17*
X132882000Y-31648400D03*
%TD*%
D24*
%TO.C,REF1*%
X19304000Y-120243600D03*
D25*
X19304000Y-120243600D03*
%TD*%
D12*
%TO.C,FS2*%
X67440000Y-130087500D03*
X90040000Y-130087500D03*
%TD*%
D13*
%TO.C,R6*%
X78968600Y-88239600D03*
D17*
X66268600Y-88239600D03*
%TD*%
D10*
%TO.C,J6*%
X81589034Y-23342600D03*
D11*
X81589034Y-20802600D03*
X81589034Y-18262600D03*
%TD*%
D14*
%TO.C,TP0*%
X155168600Y-71907400D03*
%TD*%
D13*
%TO.C,C21*%
X146900000Y-68213600D03*
X146900000Y-73213600D03*
%TD*%
D10*
%TO.C,J27*%
X35868336Y-31826200D03*
D11*
X35868336Y-29286200D03*
%TD*%
D26*
%TO.C,BR1*%
X65836800Y-99208600D03*
D27*
X65836800Y-94208600D03*
X60836800Y-94208600D03*
X60836800Y-99208600D03*
%TD*%
D28*
%TO.C,J15*%
X141782800Y-68263200D03*
D11*
X139242800Y-68263200D03*
%TD*%
D13*
%TO.C,R19*%
X86995000Y-69342000D03*
D17*
X86995000Y-59182000D03*
%TD*%
D29*
%TO.C,VR2*%
X23317200Y-51358800D03*
D30*
X22047200Y-51358800D03*
X20777200Y-51358800D03*
%TD*%
D13*
%TO.C,R7*%
X125552200Y-88239600D03*
D17*
X112852200Y-88239600D03*
%TD*%
D31*
%TO.C,X1*%
X78013400Y-42672000D03*
X73133400Y-42672000D03*
%TD*%
D13*
%TO.C,R10*%
X130302000Y-88265000D03*
D17*
X143002000Y-88265000D03*
%TD*%
D24*
%TO.C,REF2*%
X155956000Y-120243600D03*
D25*
X155956000Y-120243600D03*
%TD*%
D23*
%TO.C,REF3*%
X19253200Y-32613600D03*
%TD*%
D28*
%TO.C,CT2*%
X90144600Y-81491600D03*
D11*
X87604600Y-81491600D03*
%TD*%
D13*
%TO.C,R4*%
X127000000Y-83185000D03*
D17*
X116840000Y-83185000D03*
%TD*%
D32*
%TO.C,TXFR3*%
X121437400Y-115681801D03*
D33*
X141437401Y-115681801D03*
X141437401Y-95681800D03*
X136437401Y-95681800D03*
X126437400Y-95681800D03*
X121437400Y-95681800D03*
%TD*%
D10*
%TO.C,J11*%
X43499619Y-23342600D03*
D11*
X43499619Y-20802600D03*
X43499619Y-18262600D03*
%TD*%
D13*
%TO.C,R5*%
X32613600Y-88239600D03*
D17*
X19913600Y-88239600D03*
%TD*%
D34*
%TO.C,VR1*%
X148835700Y-22225000D03*
D35*
X146295700Y-22225000D03*
X143755700Y-22225000D03*
%TD*%
D13*
%TO.C,C7*%
X83032600Y-40248200D03*
X83032600Y-45248200D03*
%TD*%
D10*
%TO.C,J18*%
X96811400Y-31826200D03*
D11*
X96811400Y-29286200D03*
%TD*%
D32*
%TO.C,TXFR2*%
X76073000Y-115562400D03*
D33*
X96073001Y-115562400D03*
X96073001Y-95562399D03*
X91073001Y-95562399D03*
X81073000Y-95562399D03*
X76073000Y-95562399D03*
%TD*%
D10*
%TO.C,J7*%
X73971151Y-23342600D03*
D11*
X73971151Y-20802600D03*
X73971151Y-18262600D03*
%TD*%
D21*
%TO.C,D2*%
X58013600Y-83159600D03*
D22*
X50393600Y-83159600D03*
%TD*%
D10*
%TO.C,J10*%
X51117502Y-23342600D03*
D11*
X51117502Y-20802600D03*
X51117502Y-18262600D03*
%TD*%
D14*
%TO.C,TP4*%
X32613600Y-72923400D03*
%TD*%
D36*
%TO.C,PWR1*%
X58420000Y-130087500D03*
D37*
X53340000Y-130087500D03*
X48260000Y-130087500D03*
%TD*%
D10*
%TO.C,J22*%
X73957751Y-31826200D03*
D11*
X73957751Y-29286200D03*
%TD*%
D13*
%TO.C,C5*%
X20777200Y-61798200D03*
X20777200Y-66798200D03*
%TD*%
D10*
%TO.C,J13*%
X28263853Y-23342600D03*
D11*
X28263853Y-20802600D03*
X28263853Y-18262600D03*
%TD*%
D13*
%TO.C,R17*%
X47574200Y-42545000D03*
D17*
X47574200Y-52705000D03*
%TD*%
D21*
%TO.C,D4*%
X105384600Y-83159600D03*
D22*
X97764600Y-83159600D03*
%TD*%
D13*
%TO.C,C8*%
X82016600Y-63891800D03*
X82016600Y-58891800D03*
%TD*%
%TO.C,R8*%
X37338000Y-88239600D03*
D17*
X50038000Y-88239600D03*
%TD*%
D10*
%TO.C,J9*%
X58735385Y-23342600D03*
D11*
X58735385Y-20802600D03*
X58735385Y-18262600D03*
%TD*%
D28*
%TO.C,J14*%
X133400800Y-68251200D03*
D11*
X130860800Y-68251200D03*
%TD*%
D15*
%TO.C,C20*%
X146900000Y-64660000D03*
D16*
X148900000Y-64660000D03*
%TD*%
D10*
%TO.C,J1*%
X123720000Y-23300000D03*
D11*
X123720000Y-20760000D03*
%TD*%
D13*
%TO.C,R18*%
X43764200Y-39624000D03*
D17*
X43764200Y-49784000D03*
%TD*%
D13*
%TO.C,R16*%
X51384200Y-45440600D03*
D17*
X51384200Y-55600600D03*
%TD*%
D34*
%TO.C,VR3*%
X142265400Y-55372000D03*
D35*
X139725400Y-55372000D03*
X137185400Y-55372000D03*
%TD*%
D10*
%TO.C,J19*%
X89193517Y-31826200D03*
D11*
X89193517Y-29286200D03*
%TD*%
D36*
%TO.C,PWR2*%
X106680000Y-130087500D03*
D37*
X101600000Y-130087500D03*
X96520000Y-130087500D03*
%TD*%
D13*
%TO.C,C11*%
X71207600Y-38303200D03*
X73707600Y-38303200D03*
%TD*%
D14*
%TO.C,TP1*%
X113030000Y-64643000D03*
%TD*%
D36*
%TO.C,PWR3*%
X154940000Y-130087500D03*
D37*
X149860000Y-130087500D03*
X144780000Y-130087500D03*
%TD*%
D10*
%TO.C,J25*%
X51104102Y-31826200D03*
D11*
X51104102Y-29286200D03*
%TD*%
D14*
%TO.C,TP2*%
X130048000Y-50469800D03*
%TD*%
D13*
%TO.C,R9*%
X83667600Y-88239600D03*
D17*
X96367600Y-88239600D03*
%TD*%
D10*
%TO.C,J2*%
X112060566Y-23342600D03*
D11*
X112060566Y-20802600D03*
X112060566Y-18262600D03*
%TD*%
D10*
%TO.C,J24*%
X58721985Y-31826200D03*
D11*
X58721985Y-29286200D03*
%TD*%
D13*
%TO.C,R22*%
X129834000Y-21488400D03*
D17*
X129834000Y-31648400D03*
%TD*%
D21*
%TO.C,D5*%
X153670000Y-88265000D03*
D22*
X146050000Y-88265000D03*
%TD*%
D38*
%TO.C,JP2*%
X106195500Y-115519200D03*
D39*
X111300900Y-115519200D03*
%TD*%
D10*
%TO.C,J26*%
X43486219Y-31826200D03*
D11*
X43486219Y-29286200D03*
%TD*%
D28*
%TO.C,J30*%
X142983900Y-45915800D03*
D11*
X140443900Y-45915800D03*
%TD*%
D21*
%TO.C,D1*%
X60706000Y-88239600D03*
D22*
X53086000Y-88239600D03*
%TD*%
D19*
%TO.C,IC2*%
X113030000Y-57775000D03*
D20*
X115570000Y-57775000D03*
X118110000Y-57775000D03*
X120650000Y-57775000D03*
X120650000Y-50155000D03*
X118110000Y-50155000D03*
X115570000Y-50155000D03*
X113030000Y-50155000D03*
%TD*%
D13*
%TO.C,C4*%
X140443900Y-38030000D03*
X145443900Y-38030000D03*
%TD*%
D28*
%TO.C,J20*%
X155625800Y-48666400D03*
D11*
X153085800Y-48666400D03*
%TD*%
D10*
%TO.C,J3*%
X104442683Y-23342600D03*
D11*
X104442683Y-20802600D03*
X104442683Y-18262600D03*
%TD*%
D28*
%TO.C,CT3*%
X137160000Y-81517000D03*
D11*
X134620000Y-81517000D03*
%TD*%
D13*
%TO.C,R14*%
X57734200Y-61214000D03*
D17*
X47574200Y-61214000D03*
%TD*%
D13*
%TO.C,R2*%
X32613600Y-83159600D03*
D17*
X22453600Y-83159600D03*
%TD*%
D40*
%TO.C,C1*%
X150073288Y-39141400D03*
D13*
X152073288Y-39141400D03*
%TD*%
D10*
%TO.C,J21*%
X81579166Y-31826200D03*
D11*
X81579166Y-29286200D03*
%TD*%
D32*
%TO.C,TXFR1*%
X30690925Y-115562400D03*
D33*
X50690926Y-115562400D03*
X50690926Y-95562399D03*
X45690926Y-95562399D03*
X35690925Y-95562399D03*
X30690925Y-95562399D03*
%TD*%
D13*
%TO.C,R11*%
X104260000Y-62890400D03*
D17*
X104260000Y-52730400D03*
%TD*%
D10*
%TO.C,J5*%
X89206917Y-23342600D03*
D11*
X89206917Y-20802600D03*
X89206917Y-18262600D03*
%TD*%
D10*
%TO.C,J12*%
X35881736Y-23342600D03*
D11*
X35881736Y-20802600D03*
X35881736Y-18262600D03*
%TD*%
D15*
%TO.C,C3*%
X20777200Y-56692800D03*
D16*
X22777200Y-56692800D03*
%TD*%
D26*
%TO.C,BR3*%
X156540200Y-99208600D03*
D27*
X156540200Y-94208600D03*
X151540200Y-94208600D03*
X151540200Y-99208600D03*
%TD*%
D41*
%TO.C,L1*%
X73431405Y-70470400D03*
X73431405Y-65470400D03*
%TD*%
D38*
%TO.C,JP1*%
X60754900Y-115562400D03*
D39*
X65860300Y-115562400D03*
%TD*%
D13*
%TO.C,R12*%
X107264200Y-52730400D03*
D17*
X107264200Y-62890400D03*
%TD*%
D10*
%TO.C,J8*%
X66353268Y-23342600D03*
D11*
X66353268Y-20802600D03*
X66353268Y-18262600D03*
%TD*%
D13*
%TO.C,R13*%
X61544200Y-64236600D03*
D17*
X51384200Y-64236600D03*
%TD*%
D13*
%TO.C,C10*%
X79919200Y-38303200D03*
X77419200Y-38303200D03*
%TD*%
D28*
%TO.C,CT1*%
X42849800Y-81491600D03*
D11*
X40309800Y-81491600D03*
%TD*%
D13*
%TO.C,C6*%
X134366000Y-36372800D03*
X129366000Y-36372800D03*
%TD*%
D26*
%TO.C,BR2*%
X111248200Y-99208600D03*
D27*
X111248200Y-94208600D03*
X106248200Y-94208600D03*
X106248200Y-99208600D03*
%TD*%
D42*
%TO.C,CN9*%
X23444200Y-73126600D03*
D43*
X20904200Y-70586600D03*
X20904200Y-75666600D03*
X25984200Y-70586600D03*
X25984200Y-75666600D03*
%TD*%
D10*
%TO.C,J16*%
X112060566Y-31826200D03*
D11*
X112060566Y-29286200D03*
%TD*%
D13*
%TO.C,R3*%
X79984600Y-83159600D03*
D17*
X69824600Y-83159600D03*
%TD*%
D13*
%TO.C,R15*%
X53924200Y-58166000D03*
D17*
X43764200Y-58166000D03*
%TD*%
D21*
%TO.C,D3*%
X107035600Y-88239600D03*
D22*
X99415600Y-88239600D03*
%TD*%
D13*
%TO.C,R21*%
X97155000Y-69342000D03*
D17*
X97155000Y-59182000D03*
%TD*%
M02*
