%TF.GenerationSoftware,KiCad,Pcbnew,(6.0.7)*%
%TF.CreationDate,2022-08-20T21:34:53+02:00*%
%TF.ProjectId,3phaseDiverter-rounded,33706861-7365-4446-9976-65727465722d,1*%
%TF.SameCoordinates,Original*%
%TF.FileFunction,Other,Comment*%
%FSLAX46Y46*%
G04 Gerber Fmt 4.6, Leading zero omitted, Abs format (unit mm)*
G04 Created by KiCad (PCBNEW (6.0.7)) date 2022-08-20 21:34:53*
%MOMM*%
%LPD*%
G01*
G04 APERTURE LIST*
%ADD10C,0.150000*%
%ADD11C,0.002000*%
%ADD12C,0.100000*%
G04 APERTURE END LIST*
D10*
%TO.C,TXFR3*%
X152424005Y-121967161D02*
X152424005Y-121871923D01*
X152471625Y-121776685D01*
X152519244Y-121729066D01*
X152614482Y-121681447D01*
X152804958Y-121633828D01*
X153043053Y-121633828D01*
X153233529Y-121681447D01*
X153328767Y-121729066D01*
X153376386Y-121776685D01*
X153424005Y-121871923D01*
X153424005Y-121967161D01*
X153376386Y-122062400D01*
X153328767Y-122110019D01*
X153233529Y-122157638D01*
X153043053Y-122205257D01*
X152804958Y-122205257D01*
X152614482Y-122157638D01*
X152519244Y-122110019D01*
X152471625Y-122062400D01*
X152424005Y-121967161D01*
X153328767Y-121205257D02*
X153376386Y-121157638D01*
X153424005Y-121205257D01*
X153376386Y-121252876D01*
X153328767Y-121205257D01*
X153424005Y-121205257D01*
X152424005Y-120538590D02*
X152424005Y-120443352D01*
X152471625Y-120348114D01*
X152519244Y-120300495D01*
X152614482Y-120252876D01*
X152804958Y-120205257D01*
X153043053Y-120205257D01*
X153233529Y-120252876D01*
X153328767Y-120300495D01*
X153376386Y-120348114D01*
X153424005Y-120443352D01*
X153424005Y-120538590D01*
X153376386Y-120633828D01*
X153328767Y-120681447D01*
X153233529Y-120729066D01*
X153043053Y-120776685D01*
X152804958Y-120776685D01*
X152614482Y-120729066D01*
X152519244Y-120681447D01*
X152471625Y-120633828D01*
X152424005Y-120538590D01*
X152424005Y-119348114D02*
X152424005Y-119538590D01*
X152471625Y-119633828D01*
X152519244Y-119681447D01*
X152662101Y-119776685D01*
X152852577Y-119824304D01*
X153233529Y-119824304D01*
X153328767Y-119776685D01*
X153376386Y-119729066D01*
X153424005Y-119633828D01*
X153424005Y-119443352D01*
X153376386Y-119348114D01*
X153328767Y-119300495D01*
X153233529Y-119252876D01*
X152995434Y-119252876D01*
X152900196Y-119300495D01*
X152852577Y-119348114D01*
X152804958Y-119443352D01*
X152804958Y-119633828D01*
X152852577Y-119729066D01*
X152900196Y-119776685D01*
X152995434Y-119824304D01*
X152424005Y-118348114D02*
X152424005Y-118824304D01*
X152900196Y-118871923D01*
X152852577Y-118824304D01*
X152804958Y-118729066D01*
X152804958Y-118490971D01*
X152852577Y-118395733D01*
X152900196Y-118348114D01*
X152995434Y-118300495D01*
X153233529Y-118300495D01*
X153328767Y-118348114D01*
X153376386Y-118395733D01*
X153424005Y-118490971D01*
X153424005Y-118729066D01*
X153376386Y-118824304D01*
X153328767Y-118871923D01*
X153424005Y-117871923D02*
X152757339Y-117871923D01*
X152424005Y-117871923D02*
X152471625Y-117919542D01*
X152519244Y-117871923D01*
X152471625Y-117824304D01*
X152424005Y-117871923D01*
X152519244Y-117871923D01*
X152757339Y-117395733D02*
X153424005Y-117395733D01*
X152852577Y-117395733D02*
X152804958Y-117348114D01*
X152757339Y-117252876D01*
X152757339Y-117110019D01*
X152804958Y-117014780D01*
X152900196Y-116967161D01*
X153424005Y-116967161D01*
X152376386Y-115776685D02*
X153662101Y-116633828D01*
X153424005Y-114919542D02*
X153424005Y-115490971D01*
X153424005Y-115205257D02*
X152424005Y-115205257D01*
X152566863Y-115300495D01*
X152662101Y-115395733D01*
X152709720Y-115490971D01*
X153328767Y-114490971D02*
X153376386Y-114443352D01*
X153424005Y-114490971D01*
X153376386Y-114538590D01*
X153328767Y-114490971D01*
X153424005Y-114490971D01*
X152424005Y-113586209D02*
X152424005Y-113776685D01*
X152471625Y-113871923D01*
X152519244Y-113919542D01*
X152662101Y-114014780D01*
X152852577Y-114062400D01*
X153233529Y-114062400D01*
X153328767Y-114014780D01*
X153376386Y-113967161D01*
X153424005Y-113871923D01*
X153424005Y-113681447D01*
X153376386Y-113586209D01*
X153328767Y-113538590D01*
X153233529Y-113490971D01*
X152995434Y-113490971D01*
X152900196Y-113538590D01*
X152852577Y-113586209D01*
X152804958Y-113681447D01*
X152804958Y-113871923D01*
X152852577Y-113967161D01*
X152900196Y-114014780D01*
X152995434Y-114062400D01*
X152424005Y-112586209D02*
X152424005Y-113062400D01*
X152900196Y-113110019D01*
X152852577Y-113062400D01*
X152804958Y-112967161D01*
X152804958Y-112729066D01*
X152852577Y-112633828D01*
X152900196Y-112586209D01*
X152995434Y-112538590D01*
X153233529Y-112538590D01*
X153328767Y-112586209D01*
X153376386Y-112633828D01*
X153424005Y-112729066D01*
X153424005Y-112967161D01*
X153376386Y-113062400D01*
X153328767Y-113110019D01*
X153424005Y-111586209D02*
X153424005Y-112157638D01*
X153424005Y-111871923D02*
X152424005Y-111871923D01*
X152566863Y-111967161D01*
X152662101Y-112062400D01*
X152709720Y-112157638D01*
X153424005Y-111157638D02*
X152757339Y-111157638D01*
X152852577Y-111157638D02*
X152804958Y-111110019D01*
X152757339Y-111014780D01*
X152757339Y-110871923D01*
X152804958Y-110776685D01*
X152900196Y-110729066D01*
X153424005Y-110729066D01*
X152900196Y-110729066D02*
X152804958Y-110681447D01*
X152757339Y-110586209D01*
X152757339Y-110443352D01*
X152804958Y-110348114D01*
X152900196Y-110300495D01*
X153424005Y-110300495D01*
X153424005Y-109824304D02*
X152757339Y-109824304D01*
X152852577Y-109824304D02*
X152804958Y-109776685D01*
X152757339Y-109681447D01*
X152757339Y-109538590D01*
X152804958Y-109443352D01*
X152900196Y-109395733D01*
X153424005Y-109395733D01*
X152900196Y-109395733D02*
X152804958Y-109348114D01*
X152757339Y-109252876D01*
X152757339Y-109110019D01*
X152804958Y-109014780D01*
X152900196Y-108967161D01*
X153424005Y-108967161D01*
D11*
X124208282Y-118208233D02*
X124214329Y-118214280D01*
X124220377Y-118232423D01*
X124220377Y-118244519D01*
X124214329Y-118262661D01*
X124202234Y-118274757D01*
X124190139Y-118280804D01*
X124165948Y-118286852D01*
X124147805Y-118286852D01*
X124123615Y-118280804D01*
X124111520Y-118274757D01*
X124099425Y-118262661D01*
X124093377Y-118244519D01*
X124093377Y-118232423D01*
X124099425Y-118214280D01*
X124105472Y-118208233D01*
X124220377Y-118135661D02*
X124214329Y-118147757D01*
X124208282Y-118153804D01*
X124196186Y-118159852D01*
X124159901Y-118159852D01*
X124147805Y-118153804D01*
X124141758Y-118147757D01*
X124135710Y-118135661D01*
X124135710Y-118117519D01*
X124141758Y-118105423D01*
X124147805Y-118099376D01*
X124159901Y-118093328D01*
X124196186Y-118093328D01*
X124208282Y-118099376D01*
X124214329Y-118105423D01*
X124220377Y-118117519D01*
X124220377Y-118135661D01*
X124135710Y-118038900D02*
X124262710Y-118038900D01*
X124141758Y-118038900D02*
X124135710Y-118026804D01*
X124135710Y-118002614D01*
X124141758Y-117990519D01*
X124147805Y-117984471D01*
X124159901Y-117978423D01*
X124196186Y-117978423D01*
X124208282Y-117984471D01*
X124214329Y-117990519D01*
X124220377Y-118002614D01*
X124220377Y-118026804D01*
X124214329Y-118038900D01*
X124135710Y-117936090D02*
X124220377Y-117905852D01*
X124135710Y-117875614D02*
X124220377Y-117905852D01*
X124250615Y-117917947D01*
X124256663Y-117923995D01*
X124262710Y-117936090D01*
X124220377Y-117827233D02*
X124135710Y-117827233D01*
X124159901Y-117827233D02*
X124147805Y-117821185D01*
X124141758Y-117815138D01*
X124135710Y-117803042D01*
X124135710Y-117790947D01*
X124220377Y-117748614D02*
X124135710Y-117748614D01*
X124093377Y-117748614D02*
X124099425Y-117754661D01*
X124105472Y-117748614D01*
X124099425Y-117742566D01*
X124093377Y-117748614D01*
X124105472Y-117748614D01*
X124135710Y-117633709D02*
X124238520Y-117633709D01*
X124250615Y-117639757D01*
X124256663Y-117645804D01*
X124262710Y-117657900D01*
X124262710Y-117676042D01*
X124256663Y-117688138D01*
X124214329Y-117633709D02*
X124220377Y-117645804D01*
X124220377Y-117669995D01*
X124214329Y-117682090D01*
X124208282Y-117688138D01*
X124196186Y-117694185D01*
X124159901Y-117694185D01*
X124147805Y-117688138D01*
X124141758Y-117682090D01*
X124135710Y-117669995D01*
X124135710Y-117645804D01*
X124141758Y-117633709D01*
X124220377Y-117573233D02*
X124093377Y-117573233D01*
X124220377Y-117518804D02*
X124153853Y-117518804D01*
X124141758Y-117524852D01*
X124135710Y-117536947D01*
X124135710Y-117555090D01*
X124141758Y-117567185D01*
X124147805Y-117573233D01*
X124135710Y-117476471D02*
X124135710Y-117428090D01*
X124093377Y-117458328D02*
X124202234Y-117458328D01*
X124214329Y-117452280D01*
X124220377Y-117440185D01*
X124220377Y-117428090D01*
X124105472Y-117295042D02*
X124099425Y-117288995D01*
X124093377Y-117276900D01*
X124093377Y-117246661D01*
X124099425Y-117234566D01*
X124105472Y-117228519D01*
X124117567Y-117222471D01*
X124129663Y-117222471D01*
X124147805Y-117228519D01*
X124220377Y-117301090D01*
X124220377Y-117222471D01*
X124093377Y-117143852D02*
X124093377Y-117131757D01*
X124099425Y-117119661D01*
X124105472Y-117113614D01*
X124117567Y-117107566D01*
X124141758Y-117101519D01*
X124171996Y-117101519D01*
X124196186Y-117107566D01*
X124208282Y-117113614D01*
X124214329Y-117119661D01*
X124220377Y-117131757D01*
X124220377Y-117143852D01*
X124214329Y-117155947D01*
X124208282Y-117161995D01*
X124196186Y-117168042D01*
X124171996Y-117174090D01*
X124141758Y-117174090D01*
X124117567Y-117168042D01*
X124105472Y-117161995D01*
X124099425Y-117155947D01*
X124093377Y-117143852D01*
X124105472Y-117053138D02*
X124099425Y-117047090D01*
X124093377Y-117034995D01*
X124093377Y-117004757D01*
X124099425Y-116992661D01*
X124105472Y-116986614D01*
X124117567Y-116980566D01*
X124129663Y-116980566D01*
X124147805Y-116986614D01*
X124220377Y-117059185D01*
X124220377Y-116980566D01*
X124220377Y-116859614D02*
X124220377Y-116932185D01*
X124220377Y-116895900D02*
X124093377Y-116895900D01*
X124111520Y-116907995D01*
X124123615Y-116920090D01*
X124129663Y-116932185D01*
X124184091Y-116714471D02*
X124184091Y-116653995D01*
X124220377Y-116726566D02*
X124093377Y-116684233D01*
X124220377Y-116641900D01*
X124214329Y-116545138D02*
X124220377Y-116557233D01*
X124220377Y-116581423D01*
X124214329Y-116593519D01*
X124208282Y-116599566D01*
X124196186Y-116605614D01*
X124159901Y-116605614D01*
X124147805Y-116599566D01*
X124141758Y-116593519D01*
X124135710Y-116581423D01*
X124135710Y-116557233D01*
X124141758Y-116545138D01*
X124214329Y-116436280D02*
X124220377Y-116448376D01*
X124220377Y-116472566D01*
X124214329Y-116484661D01*
X124208282Y-116490709D01*
X124196186Y-116496757D01*
X124159901Y-116496757D01*
X124147805Y-116490709D01*
X124141758Y-116484661D01*
X124135710Y-116472566D01*
X124135710Y-116448376D01*
X124141758Y-116436280D01*
X124214329Y-116333471D02*
X124220377Y-116345566D01*
X124220377Y-116369757D01*
X124214329Y-116381852D01*
X124202234Y-116387900D01*
X124153853Y-116387900D01*
X124141758Y-116381852D01*
X124135710Y-116369757D01*
X124135710Y-116345566D01*
X124141758Y-116333471D01*
X124153853Y-116327423D01*
X124165948Y-116327423D01*
X124178044Y-116387900D01*
X124220377Y-116254852D02*
X124214329Y-116266947D01*
X124202234Y-116272995D01*
X124093377Y-116272995D01*
X124214329Y-116158090D02*
X124220377Y-116170185D01*
X124220377Y-116194376D01*
X124214329Y-116206471D01*
X124202234Y-116212519D01*
X124153853Y-116212519D01*
X124141758Y-116206471D01*
X124135710Y-116194376D01*
X124135710Y-116170185D01*
X124141758Y-116158090D01*
X124153853Y-116152042D01*
X124165948Y-116152042D01*
X124178044Y-116212519D01*
X124220377Y-116097614D02*
X124135710Y-116097614D01*
X124159901Y-116097614D02*
X124147805Y-116091566D01*
X124141758Y-116085519D01*
X124135710Y-116073423D01*
X124135710Y-116061328D01*
X124220377Y-115964566D02*
X124153853Y-115964566D01*
X124141758Y-115970614D01*
X124135710Y-115982709D01*
X124135710Y-116006900D01*
X124141758Y-116018995D01*
X124214329Y-115964566D02*
X124220377Y-115976661D01*
X124220377Y-116006900D01*
X124214329Y-116018995D01*
X124202234Y-116025042D01*
X124190139Y-116025042D01*
X124178044Y-116018995D01*
X124171996Y-116006900D01*
X124171996Y-115976661D01*
X124165948Y-115964566D01*
X124135710Y-115922233D02*
X124135710Y-115873852D01*
X124093377Y-115904090D02*
X124202234Y-115904090D01*
X124214329Y-115898042D01*
X124220377Y-115885947D01*
X124220377Y-115873852D01*
X124214329Y-115783138D02*
X124220377Y-115795233D01*
X124220377Y-115819423D01*
X124214329Y-115831519D01*
X124202234Y-115837566D01*
X124153853Y-115837566D01*
X124141758Y-115831519D01*
X124135710Y-115819423D01*
X124135710Y-115795233D01*
X124141758Y-115783138D01*
X124153853Y-115777090D01*
X124165948Y-115777090D01*
X124178044Y-115837566D01*
X124220377Y-115668233D02*
X124093377Y-115668233D01*
X124214329Y-115668233D02*
X124220377Y-115680328D01*
X124220377Y-115704519D01*
X124214329Y-115716614D01*
X124208282Y-115722661D01*
X124196186Y-115728709D01*
X124159901Y-115728709D01*
X124147805Y-115722661D01*
X124141758Y-115716614D01*
X124135710Y-115704519D01*
X124135710Y-115680328D01*
X124141758Y-115668233D01*
X124220377Y-115510995D02*
X124093377Y-115510995D01*
X124093377Y-115480757D01*
X124099425Y-115462614D01*
X124111520Y-115450519D01*
X124123615Y-115444471D01*
X124147805Y-115438423D01*
X124165948Y-115438423D01*
X124190139Y-115444471D01*
X124202234Y-115450519D01*
X124214329Y-115462614D01*
X124220377Y-115480757D01*
X124220377Y-115510995D01*
X124214329Y-115335614D02*
X124220377Y-115347709D01*
X124220377Y-115371900D01*
X124214329Y-115383995D01*
X124202234Y-115390042D01*
X124153853Y-115390042D01*
X124141758Y-115383995D01*
X124135710Y-115371900D01*
X124135710Y-115347709D01*
X124141758Y-115335614D01*
X124153853Y-115329566D01*
X124165948Y-115329566D01*
X124178044Y-115390042D01*
X124214329Y-115281185D02*
X124220377Y-115269090D01*
X124220377Y-115244900D01*
X124214329Y-115232804D01*
X124202234Y-115226757D01*
X124196186Y-115226757D01*
X124184091Y-115232804D01*
X124178044Y-115244900D01*
X124178044Y-115263042D01*
X124171996Y-115275138D01*
X124159901Y-115281185D01*
X124153853Y-115281185D01*
X124141758Y-115275138D01*
X124135710Y-115263042D01*
X124135710Y-115244900D01*
X124141758Y-115232804D01*
X124220377Y-115172328D02*
X124135710Y-115172328D01*
X124093377Y-115172328D02*
X124099425Y-115178376D01*
X124105472Y-115172328D01*
X124099425Y-115166280D01*
X124093377Y-115172328D01*
X124105472Y-115172328D01*
X124135710Y-115057423D02*
X124238520Y-115057423D01*
X124250615Y-115063471D01*
X124256663Y-115069519D01*
X124262710Y-115081614D01*
X124262710Y-115099757D01*
X124256663Y-115111852D01*
X124214329Y-115057423D02*
X124220377Y-115069519D01*
X124220377Y-115093709D01*
X124214329Y-115105804D01*
X124208282Y-115111852D01*
X124196186Y-115117900D01*
X124159901Y-115117900D01*
X124147805Y-115111852D01*
X124141758Y-115105804D01*
X124135710Y-115093709D01*
X124135710Y-115069519D01*
X124141758Y-115057423D01*
X124135710Y-114996947D02*
X124220377Y-114996947D01*
X124147805Y-114996947D02*
X124141758Y-114990900D01*
X124135710Y-114978804D01*
X124135710Y-114960661D01*
X124141758Y-114948566D01*
X124153853Y-114942519D01*
X124220377Y-114942519D01*
X124214329Y-114888090D02*
X124220377Y-114875995D01*
X124220377Y-114851804D01*
X124214329Y-114839709D01*
X124202234Y-114833661D01*
X124196186Y-114833661D01*
X124184091Y-114839709D01*
X124178044Y-114851804D01*
X124178044Y-114869947D01*
X124171996Y-114882042D01*
X124159901Y-114888090D01*
X124153853Y-114888090D01*
X124141758Y-114882042D01*
X124135710Y-114869947D01*
X124135710Y-114851804D01*
X124141758Y-114839709D01*
X124208282Y-114779233D02*
X124214329Y-114773185D01*
X124220377Y-114779233D01*
X124214329Y-114785280D01*
X124208282Y-114779233D01*
X124220377Y-114779233D01*
X124184091Y-114628042D02*
X124184091Y-114567566D01*
X124220377Y-114640138D02*
X124093377Y-114597804D01*
X124220377Y-114555471D01*
X124220377Y-114494995D02*
X124214329Y-114507090D01*
X124202234Y-114513138D01*
X124093377Y-114513138D01*
X124220377Y-114428471D02*
X124214329Y-114440566D01*
X124202234Y-114446614D01*
X124093377Y-114446614D01*
X124220377Y-114283328D02*
X124135710Y-114283328D01*
X124159901Y-114283328D02*
X124147805Y-114277280D01*
X124141758Y-114271233D01*
X124135710Y-114259138D01*
X124135710Y-114247042D01*
X124220377Y-114204709D02*
X124135710Y-114204709D01*
X124093377Y-114204709D02*
X124099425Y-114210757D01*
X124105472Y-114204709D01*
X124099425Y-114198661D01*
X124093377Y-114204709D01*
X124105472Y-114204709D01*
X124135710Y-114089804D02*
X124238520Y-114089804D01*
X124250615Y-114095852D01*
X124256663Y-114101900D01*
X124262710Y-114113995D01*
X124262710Y-114132138D01*
X124256663Y-114144233D01*
X124214329Y-114089804D02*
X124220377Y-114101900D01*
X124220377Y-114126090D01*
X124214329Y-114138185D01*
X124208282Y-114144233D01*
X124196186Y-114150280D01*
X124159901Y-114150280D01*
X124147805Y-114144233D01*
X124141758Y-114138185D01*
X124135710Y-114126090D01*
X124135710Y-114101900D01*
X124141758Y-114089804D01*
X124220377Y-114029328D02*
X124093377Y-114029328D01*
X124220377Y-113974900D02*
X124153853Y-113974900D01*
X124141758Y-113980947D01*
X124135710Y-113993042D01*
X124135710Y-114011185D01*
X124141758Y-114023280D01*
X124147805Y-114029328D01*
X124135710Y-113932566D02*
X124135710Y-113884185D01*
X124093377Y-113914423D02*
X124202234Y-113914423D01*
X124214329Y-113908376D01*
X124220377Y-113896280D01*
X124220377Y-113884185D01*
X124214329Y-113847900D02*
X124220377Y-113835804D01*
X124220377Y-113811614D01*
X124214329Y-113799519D01*
X124202234Y-113793471D01*
X124196186Y-113793471D01*
X124184091Y-113799519D01*
X124178044Y-113811614D01*
X124178044Y-113829757D01*
X124171996Y-113841852D01*
X124159901Y-113847900D01*
X124153853Y-113847900D01*
X124141758Y-113841852D01*
X124135710Y-113829757D01*
X124135710Y-113811614D01*
X124141758Y-113799519D01*
X124220377Y-113642280D02*
X124135710Y-113642280D01*
X124159901Y-113642280D02*
X124147805Y-113636233D01*
X124141758Y-113630185D01*
X124135710Y-113618090D01*
X124135710Y-113605995D01*
X124214329Y-113515280D02*
X124220377Y-113527376D01*
X124220377Y-113551566D01*
X124214329Y-113563661D01*
X124202234Y-113569709D01*
X124153853Y-113569709D01*
X124141758Y-113563661D01*
X124135710Y-113551566D01*
X124135710Y-113527376D01*
X124141758Y-113515280D01*
X124153853Y-113509233D01*
X124165948Y-113509233D01*
X124178044Y-113569709D01*
X124214329Y-113460852D02*
X124220377Y-113448757D01*
X124220377Y-113424566D01*
X124214329Y-113412471D01*
X124202234Y-113406423D01*
X124196186Y-113406423D01*
X124184091Y-113412471D01*
X124178044Y-113424566D01*
X124178044Y-113442709D01*
X124171996Y-113454804D01*
X124159901Y-113460852D01*
X124153853Y-113460852D01*
X124141758Y-113454804D01*
X124135710Y-113442709D01*
X124135710Y-113424566D01*
X124141758Y-113412471D01*
X124214329Y-113303614D02*
X124220377Y-113315709D01*
X124220377Y-113339900D01*
X124214329Y-113351995D01*
X124202234Y-113358042D01*
X124153853Y-113358042D01*
X124141758Y-113351995D01*
X124135710Y-113339900D01*
X124135710Y-113315709D01*
X124141758Y-113303614D01*
X124153853Y-113297566D01*
X124165948Y-113297566D01*
X124178044Y-113358042D01*
X124220377Y-113243138D02*
X124135710Y-113243138D01*
X124159901Y-113243138D02*
X124147805Y-113237090D01*
X124141758Y-113231042D01*
X124135710Y-113218947D01*
X124135710Y-113206852D01*
X124135710Y-113176614D02*
X124220377Y-113146376D01*
X124135710Y-113116138D01*
X124214329Y-113019376D02*
X124220377Y-113031471D01*
X124220377Y-113055661D01*
X124214329Y-113067757D01*
X124202234Y-113073804D01*
X124153853Y-113073804D01*
X124141758Y-113067757D01*
X124135710Y-113055661D01*
X124135710Y-113031471D01*
X124141758Y-113019376D01*
X124153853Y-113013328D01*
X124165948Y-113013328D01*
X124178044Y-113073804D01*
X124220377Y-112904471D02*
X124093377Y-112904471D01*
X124214329Y-112904471D02*
X124220377Y-112916566D01*
X124220377Y-112940757D01*
X124214329Y-112952852D01*
X124208282Y-112958900D01*
X124196186Y-112964947D01*
X124159901Y-112964947D01*
X124147805Y-112958900D01*
X124141758Y-112952852D01*
X124135710Y-112940757D01*
X124135710Y-112916566D01*
X124141758Y-112904471D01*
X124208282Y-112843995D02*
X124214329Y-112837947D01*
X124220377Y-112843995D01*
X124214329Y-112850042D01*
X124208282Y-112843995D01*
X124220377Y-112843995D01*
D10*
X126115305Y-123348495D02*
X126115305Y-123253257D01*
X126162925Y-123158019D01*
X126210544Y-123110400D01*
X126305782Y-123062780D01*
X126496258Y-123015161D01*
X126734353Y-123015161D01*
X126924829Y-123062780D01*
X127020067Y-123110400D01*
X127067686Y-123158019D01*
X127115305Y-123253257D01*
X127115305Y-123348495D01*
X127067686Y-123443733D01*
X127020067Y-123491352D01*
X126924829Y-123538971D01*
X126734353Y-123586590D01*
X126496258Y-123586590D01*
X126305782Y-123538971D01*
X126210544Y-123491352D01*
X126162925Y-123443733D01*
X126115305Y-123348495D01*
X127020067Y-122586590D02*
X127067686Y-122538971D01*
X127115305Y-122586590D01*
X127067686Y-122634209D01*
X127020067Y-122586590D01*
X127115305Y-122586590D01*
X127115305Y-121586590D02*
X127115305Y-122158019D01*
X127115305Y-121872304D02*
X126115305Y-121872304D01*
X126258163Y-121967542D01*
X126353401Y-122062780D01*
X126401020Y-122158019D01*
X127115305Y-121110400D02*
X127115305Y-120919923D01*
X127067686Y-120824685D01*
X127020067Y-120777066D01*
X126877210Y-120681828D01*
X126686734Y-120634209D01*
X126305782Y-120634209D01*
X126210544Y-120681828D01*
X126162925Y-120729447D01*
X126115305Y-120824685D01*
X126115305Y-121015161D01*
X126162925Y-121110400D01*
X126210544Y-121158019D01*
X126305782Y-121205638D01*
X126543877Y-121205638D01*
X126639115Y-121158019D01*
X126686734Y-121110400D01*
X126734353Y-121015161D01*
X126734353Y-120824685D01*
X126686734Y-120729447D01*
X126639115Y-120681828D01*
X126543877Y-120634209D01*
X126115305Y-120300876D02*
X126115305Y-119634209D01*
X127115305Y-120062780D01*
X127115305Y-119253257D02*
X126448639Y-119253257D01*
X126115305Y-119253257D02*
X126162925Y-119300876D01*
X126210544Y-119253257D01*
X126162925Y-119205638D01*
X126115305Y-119253257D01*
X126210544Y-119253257D01*
X126448639Y-118777066D02*
X127115305Y-118777066D01*
X126543877Y-118777066D02*
X126496258Y-118729447D01*
X126448639Y-118634209D01*
X126448639Y-118491352D01*
X126496258Y-118396114D01*
X126591496Y-118348495D01*
X127115305Y-118348495D01*
X126067686Y-117158019D02*
X127353401Y-118015161D01*
X126115305Y-116348495D02*
X126115305Y-116824685D01*
X126591496Y-116872304D01*
X126543877Y-116824685D01*
X126496258Y-116729447D01*
X126496258Y-116491352D01*
X126543877Y-116396114D01*
X126591496Y-116348495D01*
X126686734Y-116300876D01*
X126924829Y-116300876D01*
X127020067Y-116348495D01*
X127067686Y-116396114D01*
X127115305Y-116491352D01*
X127115305Y-116729447D01*
X127067686Y-116824685D01*
X127020067Y-116872304D01*
X127115305Y-115872304D02*
X126448639Y-115872304D01*
X126543877Y-115872304D02*
X126496258Y-115824685D01*
X126448639Y-115729447D01*
X126448639Y-115586590D01*
X126496258Y-115491352D01*
X126591496Y-115443733D01*
X127115305Y-115443733D01*
X126591496Y-115443733D02*
X126496258Y-115396114D01*
X126448639Y-115300876D01*
X126448639Y-115158019D01*
X126496258Y-115062780D01*
X126591496Y-115015161D01*
X127115305Y-115015161D01*
X127115305Y-114538971D02*
X126448639Y-114538971D01*
X126543877Y-114538971D02*
X126496258Y-114491352D01*
X126448639Y-114396114D01*
X126448639Y-114253257D01*
X126496258Y-114158019D01*
X126591496Y-114110400D01*
X127115305Y-114110400D01*
X126591496Y-114110400D02*
X126496258Y-114062780D01*
X126448639Y-113967542D01*
X126448639Y-113824685D01*
X126496258Y-113729447D01*
X126591496Y-113681828D01*
X127115305Y-113681828D01*
X123615305Y-98919160D02*
X123615305Y-98823922D01*
X123662925Y-98728684D01*
X123710544Y-98681065D01*
X123805782Y-98633446D01*
X123996258Y-98585827D01*
X124234353Y-98585827D01*
X124424829Y-98633446D01*
X124520067Y-98681065D01*
X124567686Y-98728684D01*
X124615305Y-98823922D01*
X124615305Y-98919160D01*
X124567686Y-99014399D01*
X124520067Y-99062018D01*
X124424829Y-99109637D01*
X124234353Y-99157256D01*
X123996258Y-99157256D01*
X123805782Y-99109637D01*
X123710544Y-99062018D01*
X123662925Y-99014399D01*
X123615305Y-98919160D01*
X124520067Y-98157256D02*
X124567686Y-98109637D01*
X124615305Y-98157256D01*
X124567686Y-98204875D01*
X124520067Y-98157256D01*
X124615305Y-98157256D01*
X123615305Y-97490589D02*
X123615305Y-97395351D01*
X123662925Y-97300113D01*
X123710544Y-97252494D01*
X123805782Y-97204875D01*
X123996258Y-97157256D01*
X124234353Y-97157256D01*
X124424829Y-97204875D01*
X124520067Y-97252494D01*
X124567686Y-97300113D01*
X124615305Y-97395351D01*
X124615305Y-97490589D01*
X124567686Y-97585827D01*
X124520067Y-97633446D01*
X124424829Y-97681065D01*
X124234353Y-97728684D01*
X123996258Y-97728684D01*
X123805782Y-97681065D01*
X123710544Y-97633446D01*
X123662925Y-97585827D01*
X123615305Y-97490589D01*
X123615305Y-96300113D02*
X123615305Y-96490589D01*
X123662925Y-96585827D01*
X123710544Y-96633446D01*
X123853401Y-96728684D01*
X124043877Y-96776303D01*
X124424829Y-96776303D01*
X124520067Y-96728684D01*
X124567686Y-96681065D01*
X124615305Y-96585827D01*
X124615305Y-96395351D01*
X124567686Y-96300113D01*
X124520067Y-96252494D01*
X124424829Y-96204875D01*
X124186734Y-96204875D01*
X124091496Y-96252494D01*
X124043877Y-96300113D01*
X123996258Y-96395351D01*
X123996258Y-96585827D01*
X124043877Y-96681065D01*
X124091496Y-96728684D01*
X124186734Y-96776303D01*
X123615305Y-95300113D02*
X123615305Y-95776303D01*
X124091496Y-95823922D01*
X124043877Y-95776303D01*
X123996258Y-95681065D01*
X123996258Y-95442970D01*
X124043877Y-95347732D01*
X124091496Y-95300113D01*
X124186734Y-95252494D01*
X124424829Y-95252494D01*
X124520067Y-95300113D01*
X124567686Y-95347732D01*
X124615305Y-95442970D01*
X124615305Y-95681065D01*
X124567686Y-95776303D01*
X124520067Y-95823922D01*
X124615305Y-94823922D02*
X123948639Y-94823922D01*
X123615305Y-94823922D02*
X123662925Y-94871541D01*
X123710544Y-94823922D01*
X123662925Y-94776303D01*
X123615305Y-94823922D01*
X123710544Y-94823922D01*
X123948639Y-94347732D02*
X124615305Y-94347732D01*
X124043877Y-94347732D02*
X123996258Y-94300113D01*
X123948639Y-94204875D01*
X123948639Y-94062018D01*
X123996258Y-93966779D01*
X124091496Y-93919160D01*
X124615305Y-93919160D01*
X123567686Y-92728684D02*
X124853401Y-93585827D01*
X124615305Y-91871541D02*
X124615305Y-92442970D01*
X124615305Y-92157256D02*
X123615305Y-92157256D01*
X123758163Y-92252494D01*
X123853401Y-92347732D01*
X123901020Y-92442970D01*
X124520067Y-91442970D02*
X124567686Y-91395351D01*
X124615305Y-91442970D01*
X124567686Y-91490589D01*
X124520067Y-91442970D01*
X124615305Y-91442970D01*
X123615305Y-90538208D02*
X123615305Y-90728684D01*
X123662925Y-90823922D01*
X123710544Y-90871541D01*
X123853401Y-90966779D01*
X124043877Y-91014399D01*
X124424829Y-91014399D01*
X124520067Y-90966779D01*
X124567686Y-90919160D01*
X124615305Y-90823922D01*
X124615305Y-90633446D01*
X124567686Y-90538208D01*
X124520067Y-90490589D01*
X124424829Y-90442970D01*
X124186734Y-90442970D01*
X124091496Y-90490589D01*
X124043877Y-90538208D01*
X123996258Y-90633446D01*
X123996258Y-90823922D01*
X124043877Y-90919160D01*
X124091496Y-90966779D01*
X124186734Y-91014399D01*
X123615305Y-89538208D02*
X123615305Y-90014399D01*
X124091496Y-90062018D01*
X124043877Y-90014399D01*
X123996258Y-89919160D01*
X123996258Y-89681065D01*
X124043877Y-89585827D01*
X124091496Y-89538208D01*
X124186734Y-89490589D01*
X124424829Y-89490589D01*
X124520067Y-89538208D01*
X124567686Y-89585827D01*
X124615305Y-89681065D01*
X124615305Y-89919160D01*
X124567686Y-90014399D01*
X124520067Y-90062018D01*
X124615305Y-88538208D02*
X124615305Y-89109637D01*
X124615305Y-88823922D02*
X123615305Y-88823922D01*
X123758163Y-88919160D01*
X123853401Y-89014399D01*
X123901020Y-89109637D01*
X124615305Y-88109637D02*
X123948639Y-88109637D01*
X124043877Y-88109637D02*
X123996258Y-88062018D01*
X123948639Y-87966779D01*
X123948639Y-87823922D01*
X123996258Y-87728684D01*
X124091496Y-87681065D01*
X124615305Y-87681065D01*
X124091496Y-87681065D02*
X123996258Y-87633446D01*
X123948639Y-87538208D01*
X123948639Y-87395351D01*
X123996258Y-87300113D01*
X124091496Y-87252494D01*
X124615305Y-87252494D01*
X124615305Y-86776303D02*
X123948639Y-86776303D01*
X124043877Y-86776303D02*
X123996258Y-86728684D01*
X123948639Y-86633446D01*
X123948639Y-86490589D01*
X123996258Y-86395351D01*
X124091496Y-86347732D01*
X124615305Y-86347732D01*
X124091496Y-86347732D02*
X123996258Y-86300113D01*
X123948639Y-86204875D01*
X123948639Y-86062018D01*
X123996258Y-85966779D01*
X124091496Y-85919160D01*
X124615305Y-85919160D01*
X114806605Y-110776685D02*
X114806605Y-110681447D01*
X114854225Y-110586209D01*
X114901844Y-110538590D01*
X114997082Y-110490971D01*
X115187558Y-110443352D01*
X115425653Y-110443352D01*
X115616129Y-110490971D01*
X115711367Y-110538590D01*
X115758986Y-110586209D01*
X115806605Y-110681447D01*
X115806605Y-110776685D01*
X115758986Y-110871923D01*
X115711367Y-110919542D01*
X115616129Y-110967161D01*
X115425653Y-111014780D01*
X115187558Y-111014780D01*
X114997082Y-110967161D01*
X114901844Y-110919542D01*
X114854225Y-110871923D01*
X114806605Y-110776685D01*
X115711367Y-110014780D02*
X115758986Y-109967161D01*
X115806605Y-110014780D01*
X115758986Y-110062400D01*
X115711367Y-110014780D01*
X115806605Y-110014780D01*
X114806605Y-109633828D02*
X114806605Y-108967161D01*
X115806605Y-109395733D01*
X115235177Y-108443352D02*
X115187558Y-108538590D01*
X115139939Y-108586209D01*
X115044701Y-108633828D01*
X114997082Y-108633828D01*
X114901844Y-108586209D01*
X114854225Y-108538590D01*
X114806605Y-108443352D01*
X114806605Y-108252876D01*
X114854225Y-108157638D01*
X114901844Y-108110019D01*
X114997082Y-108062400D01*
X115044701Y-108062400D01*
X115139939Y-108110019D01*
X115187558Y-108157638D01*
X115235177Y-108252876D01*
X115235177Y-108443352D01*
X115282796Y-108538590D01*
X115330415Y-108586209D01*
X115425653Y-108633828D01*
X115616129Y-108633828D01*
X115711367Y-108586209D01*
X115758986Y-108538590D01*
X115806605Y-108443352D01*
X115806605Y-108252876D01*
X115758986Y-108157638D01*
X115711367Y-108110019D01*
X115616129Y-108062400D01*
X115425653Y-108062400D01*
X115330415Y-108110019D01*
X115282796Y-108157638D01*
X115235177Y-108252876D01*
X114806605Y-107729066D02*
X114806605Y-107062400D01*
X115806605Y-107490971D01*
X115806605Y-106681447D02*
X115139939Y-106681447D01*
X114806605Y-106681447D02*
X114854225Y-106729066D01*
X114901844Y-106681447D01*
X114854225Y-106633828D01*
X114806605Y-106681447D01*
X114901844Y-106681447D01*
X115139939Y-106205257D02*
X115806605Y-106205257D01*
X115235177Y-106205257D02*
X115187558Y-106157638D01*
X115139939Y-106062400D01*
X115139939Y-105919542D01*
X115187558Y-105824304D01*
X115282796Y-105776685D01*
X115806605Y-105776685D01*
X114758986Y-104586209D02*
X116044701Y-105443352D01*
X114901844Y-104300495D02*
X114854225Y-104252876D01*
X114806605Y-104157638D01*
X114806605Y-103919542D01*
X114854225Y-103824304D01*
X114901844Y-103776685D01*
X114997082Y-103729066D01*
X115092320Y-103729066D01*
X115235177Y-103776685D01*
X115806605Y-104348114D01*
X115806605Y-103729066D01*
X114806605Y-103110019D02*
X114806605Y-103014780D01*
X114854225Y-102919542D01*
X114901844Y-102871923D01*
X114997082Y-102824304D01*
X115187558Y-102776685D01*
X115425653Y-102776685D01*
X115616129Y-102824304D01*
X115711367Y-102871923D01*
X115758986Y-102919542D01*
X115806605Y-103014780D01*
X115806605Y-103110019D01*
X115758986Y-103205257D01*
X115711367Y-103252876D01*
X115616129Y-103300495D01*
X115425653Y-103348114D01*
X115187558Y-103348114D01*
X114997082Y-103300495D01*
X114901844Y-103252876D01*
X114854225Y-103205257D01*
X114806605Y-103110019D01*
X115806605Y-102348114D02*
X115139939Y-102348114D01*
X115235177Y-102348114D02*
X115187558Y-102300495D01*
X115139939Y-102205257D01*
X115139939Y-102062400D01*
X115187558Y-101967161D01*
X115282796Y-101919542D01*
X115806605Y-101919542D01*
X115282796Y-101919542D02*
X115187558Y-101871923D01*
X115139939Y-101776685D01*
X115139939Y-101633828D01*
X115187558Y-101538590D01*
X115282796Y-101490971D01*
X115806605Y-101490971D01*
X115806605Y-101014780D02*
X115139939Y-101014780D01*
X115235177Y-101014780D02*
X115187558Y-100967161D01*
X115139939Y-100871923D01*
X115139939Y-100729066D01*
X115187558Y-100633828D01*
X115282796Y-100586209D01*
X115806605Y-100586209D01*
X115282796Y-100586209D02*
X115187558Y-100538590D01*
X115139939Y-100443352D01*
X115139939Y-100300495D01*
X115187558Y-100205257D01*
X115282796Y-100157638D01*
X115806605Y-100157638D01*
%TO.C,TXFR2*%
X76193505Y-98926760D02*
X76193505Y-98831522D01*
X76241125Y-98736284D01*
X76288744Y-98688665D01*
X76383982Y-98641046D01*
X76574458Y-98593427D01*
X76812553Y-98593427D01*
X77003029Y-98641046D01*
X77098267Y-98688665D01*
X77145886Y-98736284D01*
X77193505Y-98831522D01*
X77193505Y-98926760D01*
X77145886Y-99021999D01*
X77098267Y-99069618D01*
X77003029Y-99117237D01*
X76812553Y-99164856D01*
X76574458Y-99164856D01*
X76383982Y-99117237D01*
X76288744Y-99069618D01*
X76241125Y-99021999D01*
X76193505Y-98926760D01*
X77098267Y-98164856D02*
X77145886Y-98117237D01*
X77193505Y-98164856D01*
X77145886Y-98212475D01*
X77098267Y-98164856D01*
X77193505Y-98164856D01*
X76193505Y-97498189D02*
X76193505Y-97402951D01*
X76241125Y-97307713D01*
X76288744Y-97260094D01*
X76383982Y-97212475D01*
X76574458Y-97164856D01*
X76812553Y-97164856D01*
X77003029Y-97212475D01*
X77098267Y-97260094D01*
X77145886Y-97307713D01*
X77193505Y-97402951D01*
X77193505Y-97498189D01*
X77145886Y-97593427D01*
X77098267Y-97641046D01*
X77003029Y-97688665D01*
X76812553Y-97736284D01*
X76574458Y-97736284D01*
X76383982Y-97688665D01*
X76288744Y-97641046D01*
X76241125Y-97593427D01*
X76193505Y-97498189D01*
X76193505Y-96307713D02*
X76193505Y-96498189D01*
X76241125Y-96593427D01*
X76288744Y-96641046D01*
X76431601Y-96736284D01*
X76622077Y-96783903D01*
X77003029Y-96783903D01*
X77098267Y-96736284D01*
X77145886Y-96688665D01*
X77193505Y-96593427D01*
X77193505Y-96402951D01*
X77145886Y-96307713D01*
X77098267Y-96260094D01*
X77003029Y-96212475D01*
X76764934Y-96212475D01*
X76669696Y-96260094D01*
X76622077Y-96307713D01*
X76574458Y-96402951D01*
X76574458Y-96593427D01*
X76622077Y-96688665D01*
X76669696Y-96736284D01*
X76764934Y-96783903D01*
X76193505Y-95307713D02*
X76193505Y-95783903D01*
X76669696Y-95831522D01*
X76622077Y-95783903D01*
X76574458Y-95688665D01*
X76574458Y-95450570D01*
X76622077Y-95355332D01*
X76669696Y-95307713D01*
X76764934Y-95260094D01*
X77003029Y-95260094D01*
X77098267Y-95307713D01*
X77145886Y-95355332D01*
X77193505Y-95450570D01*
X77193505Y-95688665D01*
X77145886Y-95783903D01*
X77098267Y-95831522D01*
X77193505Y-94831522D02*
X76526839Y-94831522D01*
X76193505Y-94831522D02*
X76241125Y-94879141D01*
X76288744Y-94831522D01*
X76241125Y-94783903D01*
X76193505Y-94831522D01*
X76288744Y-94831522D01*
X76526839Y-94355332D02*
X77193505Y-94355332D01*
X76622077Y-94355332D02*
X76574458Y-94307713D01*
X76526839Y-94212475D01*
X76526839Y-94069618D01*
X76574458Y-93974379D01*
X76669696Y-93926760D01*
X77193505Y-93926760D01*
X76145886Y-92736284D02*
X77431601Y-93593427D01*
X77193505Y-91879141D02*
X77193505Y-92450570D01*
X77193505Y-92164856D02*
X76193505Y-92164856D01*
X76336363Y-92260094D01*
X76431601Y-92355332D01*
X76479220Y-92450570D01*
X77098267Y-91450570D02*
X77145886Y-91402951D01*
X77193505Y-91450570D01*
X77145886Y-91498189D01*
X77098267Y-91450570D01*
X77193505Y-91450570D01*
X76193505Y-90545808D02*
X76193505Y-90736284D01*
X76241125Y-90831522D01*
X76288744Y-90879141D01*
X76431601Y-90974379D01*
X76622077Y-91021999D01*
X77003029Y-91021999D01*
X77098267Y-90974379D01*
X77145886Y-90926760D01*
X77193505Y-90831522D01*
X77193505Y-90641046D01*
X77145886Y-90545808D01*
X77098267Y-90498189D01*
X77003029Y-90450570D01*
X76764934Y-90450570D01*
X76669696Y-90498189D01*
X76622077Y-90545808D01*
X76574458Y-90641046D01*
X76574458Y-90831522D01*
X76622077Y-90926760D01*
X76669696Y-90974379D01*
X76764934Y-91021999D01*
X76193505Y-89545808D02*
X76193505Y-90021999D01*
X76669696Y-90069618D01*
X76622077Y-90021999D01*
X76574458Y-89926760D01*
X76574458Y-89688665D01*
X76622077Y-89593427D01*
X76669696Y-89545808D01*
X76764934Y-89498189D01*
X77003029Y-89498189D01*
X77098267Y-89545808D01*
X77145886Y-89593427D01*
X77193505Y-89688665D01*
X77193505Y-89926760D01*
X77145886Y-90021999D01*
X77098267Y-90069618D01*
X77193505Y-88545808D02*
X77193505Y-89117237D01*
X77193505Y-88831522D02*
X76193505Y-88831522D01*
X76336363Y-88926760D01*
X76431601Y-89021999D01*
X76479220Y-89117237D01*
X77193505Y-88117237D02*
X76526839Y-88117237D01*
X76622077Y-88117237D02*
X76574458Y-88069618D01*
X76526839Y-87974379D01*
X76526839Y-87831522D01*
X76574458Y-87736284D01*
X76669696Y-87688665D01*
X77193505Y-87688665D01*
X76669696Y-87688665D02*
X76574458Y-87641046D01*
X76526839Y-87545808D01*
X76526839Y-87402951D01*
X76574458Y-87307713D01*
X76669696Y-87260094D01*
X77193505Y-87260094D01*
X77193505Y-86783903D02*
X76526839Y-86783903D01*
X76622077Y-86783903D02*
X76574458Y-86736284D01*
X76526839Y-86641046D01*
X76526839Y-86498189D01*
X76574458Y-86402951D01*
X76669696Y-86355332D01*
X77193505Y-86355332D01*
X76669696Y-86355332D02*
X76574458Y-86307713D01*
X76526839Y-86212475D01*
X76526839Y-86069618D01*
X76574458Y-85974379D01*
X76669696Y-85926760D01*
X77193505Y-85926760D01*
D11*
X77421482Y-118215833D02*
X77427529Y-118221880D01*
X77433577Y-118240023D01*
X77433577Y-118252119D01*
X77427529Y-118270261D01*
X77415434Y-118282357D01*
X77403339Y-118288404D01*
X77379148Y-118294452D01*
X77361005Y-118294452D01*
X77336815Y-118288404D01*
X77324720Y-118282357D01*
X77312625Y-118270261D01*
X77306577Y-118252119D01*
X77306577Y-118240023D01*
X77312625Y-118221880D01*
X77318672Y-118215833D01*
X77433577Y-118143261D02*
X77427529Y-118155357D01*
X77421482Y-118161404D01*
X77409386Y-118167452D01*
X77373101Y-118167452D01*
X77361005Y-118161404D01*
X77354958Y-118155357D01*
X77348910Y-118143261D01*
X77348910Y-118125119D01*
X77354958Y-118113023D01*
X77361005Y-118106976D01*
X77373101Y-118100928D01*
X77409386Y-118100928D01*
X77421482Y-118106976D01*
X77427529Y-118113023D01*
X77433577Y-118125119D01*
X77433577Y-118143261D01*
X77348910Y-118046500D02*
X77475910Y-118046500D01*
X77354958Y-118046500D02*
X77348910Y-118034404D01*
X77348910Y-118010214D01*
X77354958Y-117998119D01*
X77361005Y-117992071D01*
X77373101Y-117986023D01*
X77409386Y-117986023D01*
X77421482Y-117992071D01*
X77427529Y-117998119D01*
X77433577Y-118010214D01*
X77433577Y-118034404D01*
X77427529Y-118046500D01*
X77348910Y-117943690D02*
X77433577Y-117913452D01*
X77348910Y-117883214D02*
X77433577Y-117913452D01*
X77463815Y-117925547D01*
X77469863Y-117931595D01*
X77475910Y-117943690D01*
X77433577Y-117834833D02*
X77348910Y-117834833D01*
X77373101Y-117834833D02*
X77361005Y-117828785D01*
X77354958Y-117822738D01*
X77348910Y-117810642D01*
X77348910Y-117798547D01*
X77433577Y-117756214D02*
X77348910Y-117756214D01*
X77306577Y-117756214D02*
X77312625Y-117762261D01*
X77318672Y-117756214D01*
X77312625Y-117750166D01*
X77306577Y-117756214D01*
X77318672Y-117756214D01*
X77348910Y-117641309D02*
X77451720Y-117641309D01*
X77463815Y-117647357D01*
X77469863Y-117653404D01*
X77475910Y-117665500D01*
X77475910Y-117683642D01*
X77469863Y-117695738D01*
X77427529Y-117641309D02*
X77433577Y-117653404D01*
X77433577Y-117677595D01*
X77427529Y-117689690D01*
X77421482Y-117695738D01*
X77409386Y-117701785D01*
X77373101Y-117701785D01*
X77361005Y-117695738D01*
X77354958Y-117689690D01*
X77348910Y-117677595D01*
X77348910Y-117653404D01*
X77354958Y-117641309D01*
X77433577Y-117580833D02*
X77306577Y-117580833D01*
X77433577Y-117526404D02*
X77367053Y-117526404D01*
X77354958Y-117532452D01*
X77348910Y-117544547D01*
X77348910Y-117562690D01*
X77354958Y-117574785D01*
X77361005Y-117580833D01*
X77348910Y-117484071D02*
X77348910Y-117435690D01*
X77306577Y-117465928D02*
X77415434Y-117465928D01*
X77427529Y-117459880D01*
X77433577Y-117447785D01*
X77433577Y-117435690D01*
X77318672Y-117302642D02*
X77312625Y-117296595D01*
X77306577Y-117284500D01*
X77306577Y-117254261D01*
X77312625Y-117242166D01*
X77318672Y-117236119D01*
X77330767Y-117230071D01*
X77342863Y-117230071D01*
X77361005Y-117236119D01*
X77433577Y-117308690D01*
X77433577Y-117230071D01*
X77306577Y-117151452D02*
X77306577Y-117139357D01*
X77312625Y-117127261D01*
X77318672Y-117121214D01*
X77330767Y-117115166D01*
X77354958Y-117109119D01*
X77385196Y-117109119D01*
X77409386Y-117115166D01*
X77421482Y-117121214D01*
X77427529Y-117127261D01*
X77433577Y-117139357D01*
X77433577Y-117151452D01*
X77427529Y-117163547D01*
X77421482Y-117169595D01*
X77409386Y-117175642D01*
X77385196Y-117181690D01*
X77354958Y-117181690D01*
X77330767Y-117175642D01*
X77318672Y-117169595D01*
X77312625Y-117163547D01*
X77306577Y-117151452D01*
X77318672Y-117060738D02*
X77312625Y-117054690D01*
X77306577Y-117042595D01*
X77306577Y-117012357D01*
X77312625Y-117000261D01*
X77318672Y-116994214D01*
X77330767Y-116988166D01*
X77342863Y-116988166D01*
X77361005Y-116994214D01*
X77433577Y-117066785D01*
X77433577Y-116988166D01*
X77433577Y-116867214D02*
X77433577Y-116939785D01*
X77433577Y-116903500D02*
X77306577Y-116903500D01*
X77324720Y-116915595D01*
X77336815Y-116927690D01*
X77342863Y-116939785D01*
X77397291Y-116722071D02*
X77397291Y-116661595D01*
X77433577Y-116734166D02*
X77306577Y-116691833D01*
X77433577Y-116649500D01*
X77427529Y-116552738D02*
X77433577Y-116564833D01*
X77433577Y-116589023D01*
X77427529Y-116601119D01*
X77421482Y-116607166D01*
X77409386Y-116613214D01*
X77373101Y-116613214D01*
X77361005Y-116607166D01*
X77354958Y-116601119D01*
X77348910Y-116589023D01*
X77348910Y-116564833D01*
X77354958Y-116552738D01*
X77427529Y-116443880D02*
X77433577Y-116455976D01*
X77433577Y-116480166D01*
X77427529Y-116492261D01*
X77421482Y-116498309D01*
X77409386Y-116504357D01*
X77373101Y-116504357D01*
X77361005Y-116498309D01*
X77354958Y-116492261D01*
X77348910Y-116480166D01*
X77348910Y-116455976D01*
X77354958Y-116443880D01*
X77427529Y-116341071D02*
X77433577Y-116353166D01*
X77433577Y-116377357D01*
X77427529Y-116389452D01*
X77415434Y-116395500D01*
X77367053Y-116395500D01*
X77354958Y-116389452D01*
X77348910Y-116377357D01*
X77348910Y-116353166D01*
X77354958Y-116341071D01*
X77367053Y-116335023D01*
X77379148Y-116335023D01*
X77391244Y-116395500D01*
X77433577Y-116262452D02*
X77427529Y-116274547D01*
X77415434Y-116280595D01*
X77306577Y-116280595D01*
X77427529Y-116165690D02*
X77433577Y-116177785D01*
X77433577Y-116201976D01*
X77427529Y-116214071D01*
X77415434Y-116220119D01*
X77367053Y-116220119D01*
X77354958Y-116214071D01*
X77348910Y-116201976D01*
X77348910Y-116177785D01*
X77354958Y-116165690D01*
X77367053Y-116159642D01*
X77379148Y-116159642D01*
X77391244Y-116220119D01*
X77433577Y-116105214D02*
X77348910Y-116105214D01*
X77373101Y-116105214D02*
X77361005Y-116099166D01*
X77354958Y-116093119D01*
X77348910Y-116081023D01*
X77348910Y-116068928D01*
X77433577Y-115972166D02*
X77367053Y-115972166D01*
X77354958Y-115978214D01*
X77348910Y-115990309D01*
X77348910Y-116014500D01*
X77354958Y-116026595D01*
X77427529Y-115972166D02*
X77433577Y-115984261D01*
X77433577Y-116014500D01*
X77427529Y-116026595D01*
X77415434Y-116032642D01*
X77403339Y-116032642D01*
X77391244Y-116026595D01*
X77385196Y-116014500D01*
X77385196Y-115984261D01*
X77379148Y-115972166D01*
X77348910Y-115929833D02*
X77348910Y-115881452D01*
X77306577Y-115911690D02*
X77415434Y-115911690D01*
X77427529Y-115905642D01*
X77433577Y-115893547D01*
X77433577Y-115881452D01*
X77427529Y-115790738D02*
X77433577Y-115802833D01*
X77433577Y-115827023D01*
X77427529Y-115839119D01*
X77415434Y-115845166D01*
X77367053Y-115845166D01*
X77354958Y-115839119D01*
X77348910Y-115827023D01*
X77348910Y-115802833D01*
X77354958Y-115790738D01*
X77367053Y-115784690D01*
X77379148Y-115784690D01*
X77391244Y-115845166D01*
X77433577Y-115675833D02*
X77306577Y-115675833D01*
X77427529Y-115675833D02*
X77433577Y-115687928D01*
X77433577Y-115712119D01*
X77427529Y-115724214D01*
X77421482Y-115730261D01*
X77409386Y-115736309D01*
X77373101Y-115736309D01*
X77361005Y-115730261D01*
X77354958Y-115724214D01*
X77348910Y-115712119D01*
X77348910Y-115687928D01*
X77354958Y-115675833D01*
X77433577Y-115518595D02*
X77306577Y-115518595D01*
X77306577Y-115488357D01*
X77312625Y-115470214D01*
X77324720Y-115458119D01*
X77336815Y-115452071D01*
X77361005Y-115446023D01*
X77379148Y-115446023D01*
X77403339Y-115452071D01*
X77415434Y-115458119D01*
X77427529Y-115470214D01*
X77433577Y-115488357D01*
X77433577Y-115518595D01*
X77427529Y-115343214D02*
X77433577Y-115355309D01*
X77433577Y-115379500D01*
X77427529Y-115391595D01*
X77415434Y-115397642D01*
X77367053Y-115397642D01*
X77354958Y-115391595D01*
X77348910Y-115379500D01*
X77348910Y-115355309D01*
X77354958Y-115343214D01*
X77367053Y-115337166D01*
X77379148Y-115337166D01*
X77391244Y-115397642D01*
X77427529Y-115288785D02*
X77433577Y-115276690D01*
X77433577Y-115252500D01*
X77427529Y-115240404D01*
X77415434Y-115234357D01*
X77409386Y-115234357D01*
X77397291Y-115240404D01*
X77391244Y-115252500D01*
X77391244Y-115270642D01*
X77385196Y-115282738D01*
X77373101Y-115288785D01*
X77367053Y-115288785D01*
X77354958Y-115282738D01*
X77348910Y-115270642D01*
X77348910Y-115252500D01*
X77354958Y-115240404D01*
X77433577Y-115179928D02*
X77348910Y-115179928D01*
X77306577Y-115179928D02*
X77312625Y-115185976D01*
X77318672Y-115179928D01*
X77312625Y-115173880D01*
X77306577Y-115179928D01*
X77318672Y-115179928D01*
X77348910Y-115065023D02*
X77451720Y-115065023D01*
X77463815Y-115071071D01*
X77469863Y-115077119D01*
X77475910Y-115089214D01*
X77475910Y-115107357D01*
X77469863Y-115119452D01*
X77427529Y-115065023D02*
X77433577Y-115077119D01*
X77433577Y-115101309D01*
X77427529Y-115113404D01*
X77421482Y-115119452D01*
X77409386Y-115125500D01*
X77373101Y-115125500D01*
X77361005Y-115119452D01*
X77354958Y-115113404D01*
X77348910Y-115101309D01*
X77348910Y-115077119D01*
X77354958Y-115065023D01*
X77348910Y-115004547D02*
X77433577Y-115004547D01*
X77361005Y-115004547D02*
X77354958Y-114998500D01*
X77348910Y-114986404D01*
X77348910Y-114968261D01*
X77354958Y-114956166D01*
X77367053Y-114950119D01*
X77433577Y-114950119D01*
X77427529Y-114895690D02*
X77433577Y-114883595D01*
X77433577Y-114859404D01*
X77427529Y-114847309D01*
X77415434Y-114841261D01*
X77409386Y-114841261D01*
X77397291Y-114847309D01*
X77391244Y-114859404D01*
X77391244Y-114877547D01*
X77385196Y-114889642D01*
X77373101Y-114895690D01*
X77367053Y-114895690D01*
X77354958Y-114889642D01*
X77348910Y-114877547D01*
X77348910Y-114859404D01*
X77354958Y-114847309D01*
X77421482Y-114786833D02*
X77427529Y-114780785D01*
X77433577Y-114786833D01*
X77427529Y-114792880D01*
X77421482Y-114786833D01*
X77433577Y-114786833D01*
X77397291Y-114635642D02*
X77397291Y-114575166D01*
X77433577Y-114647738D02*
X77306577Y-114605404D01*
X77433577Y-114563071D01*
X77433577Y-114502595D02*
X77427529Y-114514690D01*
X77415434Y-114520738D01*
X77306577Y-114520738D01*
X77433577Y-114436071D02*
X77427529Y-114448166D01*
X77415434Y-114454214D01*
X77306577Y-114454214D01*
X77433577Y-114290928D02*
X77348910Y-114290928D01*
X77373101Y-114290928D02*
X77361005Y-114284880D01*
X77354958Y-114278833D01*
X77348910Y-114266738D01*
X77348910Y-114254642D01*
X77433577Y-114212309D02*
X77348910Y-114212309D01*
X77306577Y-114212309D02*
X77312625Y-114218357D01*
X77318672Y-114212309D01*
X77312625Y-114206261D01*
X77306577Y-114212309D01*
X77318672Y-114212309D01*
X77348910Y-114097404D02*
X77451720Y-114097404D01*
X77463815Y-114103452D01*
X77469863Y-114109500D01*
X77475910Y-114121595D01*
X77475910Y-114139738D01*
X77469863Y-114151833D01*
X77427529Y-114097404D02*
X77433577Y-114109500D01*
X77433577Y-114133690D01*
X77427529Y-114145785D01*
X77421482Y-114151833D01*
X77409386Y-114157880D01*
X77373101Y-114157880D01*
X77361005Y-114151833D01*
X77354958Y-114145785D01*
X77348910Y-114133690D01*
X77348910Y-114109500D01*
X77354958Y-114097404D01*
X77433577Y-114036928D02*
X77306577Y-114036928D01*
X77433577Y-113982500D02*
X77367053Y-113982500D01*
X77354958Y-113988547D01*
X77348910Y-114000642D01*
X77348910Y-114018785D01*
X77354958Y-114030880D01*
X77361005Y-114036928D01*
X77348910Y-113940166D02*
X77348910Y-113891785D01*
X77306577Y-113922023D02*
X77415434Y-113922023D01*
X77427529Y-113915976D01*
X77433577Y-113903880D01*
X77433577Y-113891785D01*
X77427529Y-113855500D02*
X77433577Y-113843404D01*
X77433577Y-113819214D01*
X77427529Y-113807119D01*
X77415434Y-113801071D01*
X77409386Y-113801071D01*
X77397291Y-113807119D01*
X77391244Y-113819214D01*
X77391244Y-113837357D01*
X77385196Y-113849452D01*
X77373101Y-113855500D01*
X77367053Y-113855500D01*
X77354958Y-113849452D01*
X77348910Y-113837357D01*
X77348910Y-113819214D01*
X77354958Y-113807119D01*
X77433577Y-113649880D02*
X77348910Y-113649880D01*
X77373101Y-113649880D02*
X77361005Y-113643833D01*
X77354958Y-113637785D01*
X77348910Y-113625690D01*
X77348910Y-113613595D01*
X77427529Y-113522880D02*
X77433577Y-113534976D01*
X77433577Y-113559166D01*
X77427529Y-113571261D01*
X77415434Y-113577309D01*
X77367053Y-113577309D01*
X77354958Y-113571261D01*
X77348910Y-113559166D01*
X77348910Y-113534976D01*
X77354958Y-113522880D01*
X77367053Y-113516833D01*
X77379148Y-113516833D01*
X77391244Y-113577309D01*
X77427529Y-113468452D02*
X77433577Y-113456357D01*
X77433577Y-113432166D01*
X77427529Y-113420071D01*
X77415434Y-113414023D01*
X77409386Y-113414023D01*
X77397291Y-113420071D01*
X77391244Y-113432166D01*
X77391244Y-113450309D01*
X77385196Y-113462404D01*
X77373101Y-113468452D01*
X77367053Y-113468452D01*
X77354958Y-113462404D01*
X77348910Y-113450309D01*
X77348910Y-113432166D01*
X77354958Y-113420071D01*
X77427529Y-113311214D02*
X77433577Y-113323309D01*
X77433577Y-113347500D01*
X77427529Y-113359595D01*
X77415434Y-113365642D01*
X77367053Y-113365642D01*
X77354958Y-113359595D01*
X77348910Y-113347500D01*
X77348910Y-113323309D01*
X77354958Y-113311214D01*
X77367053Y-113305166D01*
X77379148Y-113305166D01*
X77391244Y-113365642D01*
X77433577Y-113250738D02*
X77348910Y-113250738D01*
X77373101Y-113250738D02*
X77361005Y-113244690D01*
X77354958Y-113238642D01*
X77348910Y-113226547D01*
X77348910Y-113214452D01*
X77348910Y-113184214D02*
X77433577Y-113153976D01*
X77348910Y-113123738D01*
X77427529Y-113026976D02*
X77433577Y-113039071D01*
X77433577Y-113063261D01*
X77427529Y-113075357D01*
X77415434Y-113081404D01*
X77367053Y-113081404D01*
X77354958Y-113075357D01*
X77348910Y-113063261D01*
X77348910Y-113039071D01*
X77354958Y-113026976D01*
X77367053Y-113020928D01*
X77379148Y-113020928D01*
X77391244Y-113081404D01*
X77433577Y-112912071D02*
X77306577Y-112912071D01*
X77427529Y-112912071D02*
X77433577Y-112924166D01*
X77433577Y-112948357D01*
X77427529Y-112960452D01*
X77421482Y-112966500D01*
X77409386Y-112972547D01*
X77373101Y-112972547D01*
X77361005Y-112966500D01*
X77354958Y-112960452D01*
X77348910Y-112948357D01*
X77348910Y-112924166D01*
X77354958Y-112912071D01*
X77421482Y-112851595D02*
X77427529Y-112845547D01*
X77433577Y-112851595D01*
X77427529Y-112857642D01*
X77421482Y-112851595D01*
X77433577Y-112851595D01*
D10*
X68019805Y-110784285D02*
X68019805Y-110689047D01*
X68067425Y-110593809D01*
X68115044Y-110546190D01*
X68210282Y-110498571D01*
X68400758Y-110450952D01*
X68638853Y-110450952D01*
X68829329Y-110498571D01*
X68924567Y-110546190D01*
X68972186Y-110593809D01*
X69019805Y-110689047D01*
X69019805Y-110784285D01*
X68972186Y-110879523D01*
X68924567Y-110927142D01*
X68829329Y-110974761D01*
X68638853Y-111022380D01*
X68400758Y-111022380D01*
X68210282Y-110974761D01*
X68115044Y-110927142D01*
X68067425Y-110879523D01*
X68019805Y-110784285D01*
X68924567Y-110022380D02*
X68972186Y-109974761D01*
X69019805Y-110022380D01*
X68972186Y-110070000D01*
X68924567Y-110022380D01*
X69019805Y-110022380D01*
X68019805Y-109641428D02*
X68019805Y-108974761D01*
X69019805Y-109403333D01*
X68448377Y-108450952D02*
X68400758Y-108546190D01*
X68353139Y-108593809D01*
X68257901Y-108641428D01*
X68210282Y-108641428D01*
X68115044Y-108593809D01*
X68067425Y-108546190D01*
X68019805Y-108450952D01*
X68019805Y-108260476D01*
X68067425Y-108165238D01*
X68115044Y-108117619D01*
X68210282Y-108070000D01*
X68257901Y-108070000D01*
X68353139Y-108117619D01*
X68400758Y-108165238D01*
X68448377Y-108260476D01*
X68448377Y-108450952D01*
X68495996Y-108546190D01*
X68543615Y-108593809D01*
X68638853Y-108641428D01*
X68829329Y-108641428D01*
X68924567Y-108593809D01*
X68972186Y-108546190D01*
X69019805Y-108450952D01*
X69019805Y-108260476D01*
X68972186Y-108165238D01*
X68924567Y-108117619D01*
X68829329Y-108070000D01*
X68638853Y-108070000D01*
X68543615Y-108117619D01*
X68495996Y-108165238D01*
X68448377Y-108260476D01*
X68019805Y-107736666D02*
X68019805Y-107070000D01*
X69019805Y-107498571D01*
X69019805Y-106689047D02*
X68353139Y-106689047D01*
X68019805Y-106689047D02*
X68067425Y-106736666D01*
X68115044Y-106689047D01*
X68067425Y-106641428D01*
X68019805Y-106689047D01*
X68115044Y-106689047D01*
X68353139Y-106212857D02*
X69019805Y-106212857D01*
X68448377Y-106212857D02*
X68400758Y-106165238D01*
X68353139Y-106070000D01*
X68353139Y-105927142D01*
X68400758Y-105831904D01*
X68495996Y-105784285D01*
X69019805Y-105784285D01*
X67972186Y-104593809D02*
X69257901Y-105450952D01*
X68115044Y-104308095D02*
X68067425Y-104260476D01*
X68019805Y-104165238D01*
X68019805Y-103927142D01*
X68067425Y-103831904D01*
X68115044Y-103784285D01*
X68210282Y-103736666D01*
X68305520Y-103736666D01*
X68448377Y-103784285D01*
X69019805Y-104355714D01*
X69019805Y-103736666D01*
X68019805Y-103117619D02*
X68019805Y-103022380D01*
X68067425Y-102927142D01*
X68115044Y-102879523D01*
X68210282Y-102831904D01*
X68400758Y-102784285D01*
X68638853Y-102784285D01*
X68829329Y-102831904D01*
X68924567Y-102879523D01*
X68972186Y-102927142D01*
X69019805Y-103022380D01*
X69019805Y-103117619D01*
X68972186Y-103212857D01*
X68924567Y-103260476D01*
X68829329Y-103308095D01*
X68638853Y-103355714D01*
X68400758Y-103355714D01*
X68210282Y-103308095D01*
X68115044Y-103260476D01*
X68067425Y-103212857D01*
X68019805Y-103117619D01*
X69019805Y-102355714D02*
X68353139Y-102355714D01*
X68448377Y-102355714D02*
X68400758Y-102308095D01*
X68353139Y-102212857D01*
X68353139Y-102070000D01*
X68400758Y-101974761D01*
X68495996Y-101927142D01*
X69019805Y-101927142D01*
X68495996Y-101927142D02*
X68400758Y-101879523D01*
X68353139Y-101784285D01*
X68353139Y-101641428D01*
X68400758Y-101546190D01*
X68495996Y-101498571D01*
X69019805Y-101498571D01*
X69019805Y-101022380D02*
X68353139Y-101022380D01*
X68448377Y-101022380D02*
X68400758Y-100974761D01*
X68353139Y-100879523D01*
X68353139Y-100736666D01*
X68400758Y-100641428D01*
X68495996Y-100593809D01*
X69019805Y-100593809D01*
X68495996Y-100593809D02*
X68400758Y-100546190D01*
X68353139Y-100450952D01*
X68353139Y-100308095D01*
X68400758Y-100212857D01*
X68495996Y-100165238D01*
X69019805Y-100165238D01*
X105637205Y-121974761D02*
X105637205Y-121879523D01*
X105684825Y-121784285D01*
X105732444Y-121736666D01*
X105827682Y-121689047D01*
X106018158Y-121641428D01*
X106256253Y-121641428D01*
X106446729Y-121689047D01*
X106541967Y-121736666D01*
X106589586Y-121784285D01*
X106637205Y-121879523D01*
X106637205Y-121974761D01*
X106589586Y-122070000D01*
X106541967Y-122117619D01*
X106446729Y-122165238D01*
X106256253Y-122212857D01*
X106018158Y-122212857D01*
X105827682Y-122165238D01*
X105732444Y-122117619D01*
X105684825Y-122070000D01*
X105637205Y-121974761D01*
X106541967Y-121212857D02*
X106589586Y-121165238D01*
X106637205Y-121212857D01*
X106589586Y-121260476D01*
X106541967Y-121212857D01*
X106637205Y-121212857D01*
X105637205Y-120546190D02*
X105637205Y-120450952D01*
X105684825Y-120355714D01*
X105732444Y-120308095D01*
X105827682Y-120260476D01*
X106018158Y-120212857D01*
X106256253Y-120212857D01*
X106446729Y-120260476D01*
X106541967Y-120308095D01*
X106589586Y-120355714D01*
X106637205Y-120450952D01*
X106637205Y-120546190D01*
X106589586Y-120641428D01*
X106541967Y-120689047D01*
X106446729Y-120736666D01*
X106256253Y-120784285D01*
X106018158Y-120784285D01*
X105827682Y-120736666D01*
X105732444Y-120689047D01*
X105684825Y-120641428D01*
X105637205Y-120546190D01*
X105637205Y-119355714D02*
X105637205Y-119546190D01*
X105684825Y-119641428D01*
X105732444Y-119689047D01*
X105875301Y-119784285D01*
X106065777Y-119831904D01*
X106446729Y-119831904D01*
X106541967Y-119784285D01*
X106589586Y-119736666D01*
X106637205Y-119641428D01*
X106637205Y-119450952D01*
X106589586Y-119355714D01*
X106541967Y-119308095D01*
X106446729Y-119260476D01*
X106208634Y-119260476D01*
X106113396Y-119308095D01*
X106065777Y-119355714D01*
X106018158Y-119450952D01*
X106018158Y-119641428D01*
X106065777Y-119736666D01*
X106113396Y-119784285D01*
X106208634Y-119831904D01*
X105637205Y-118355714D02*
X105637205Y-118831904D01*
X106113396Y-118879523D01*
X106065777Y-118831904D01*
X106018158Y-118736666D01*
X106018158Y-118498571D01*
X106065777Y-118403333D01*
X106113396Y-118355714D01*
X106208634Y-118308095D01*
X106446729Y-118308095D01*
X106541967Y-118355714D01*
X106589586Y-118403333D01*
X106637205Y-118498571D01*
X106637205Y-118736666D01*
X106589586Y-118831904D01*
X106541967Y-118879523D01*
X106637205Y-117879523D02*
X105970539Y-117879523D01*
X105637205Y-117879523D02*
X105684825Y-117927142D01*
X105732444Y-117879523D01*
X105684825Y-117831904D01*
X105637205Y-117879523D01*
X105732444Y-117879523D01*
X105970539Y-117403333D02*
X106637205Y-117403333D01*
X106065777Y-117403333D02*
X106018158Y-117355714D01*
X105970539Y-117260476D01*
X105970539Y-117117619D01*
X106018158Y-117022380D01*
X106113396Y-116974761D01*
X106637205Y-116974761D01*
X105589586Y-115784285D02*
X106875301Y-116641428D01*
X106637205Y-114927142D02*
X106637205Y-115498571D01*
X106637205Y-115212857D02*
X105637205Y-115212857D01*
X105780063Y-115308095D01*
X105875301Y-115403333D01*
X105922920Y-115498571D01*
X106541967Y-114498571D02*
X106589586Y-114450952D01*
X106637205Y-114498571D01*
X106589586Y-114546190D01*
X106541967Y-114498571D01*
X106637205Y-114498571D01*
X105637205Y-113593809D02*
X105637205Y-113784285D01*
X105684825Y-113879523D01*
X105732444Y-113927142D01*
X105875301Y-114022380D01*
X106065777Y-114070000D01*
X106446729Y-114070000D01*
X106541967Y-114022380D01*
X106589586Y-113974761D01*
X106637205Y-113879523D01*
X106637205Y-113689047D01*
X106589586Y-113593809D01*
X106541967Y-113546190D01*
X106446729Y-113498571D01*
X106208634Y-113498571D01*
X106113396Y-113546190D01*
X106065777Y-113593809D01*
X106018158Y-113689047D01*
X106018158Y-113879523D01*
X106065777Y-113974761D01*
X106113396Y-114022380D01*
X106208634Y-114070000D01*
X105637205Y-112593809D02*
X105637205Y-113070000D01*
X106113396Y-113117619D01*
X106065777Y-113070000D01*
X106018158Y-112974761D01*
X106018158Y-112736666D01*
X106065777Y-112641428D01*
X106113396Y-112593809D01*
X106208634Y-112546190D01*
X106446729Y-112546190D01*
X106541967Y-112593809D01*
X106589586Y-112641428D01*
X106637205Y-112736666D01*
X106637205Y-112974761D01*
X106589586Y-113070000D01*
X106541967Y-113117619D01*
X106637205Y-111593809D02*
X106637205Y-112165238D01*
X106637205Y-111879523D02*
X105637205Y-111879523D01*
X105780063Y-111974761D01*
X105875301Y-112070000D01*
X105922920Y-112165238D01*
X106637205Y-111165238D02*
X105970539Y-111165238D01*
X106065777Y-111165238D02*
X106018158Y-111117619D01*
X105970539Y-111022380D01*
X105970539Y-110879523D01*
X106018158Y-110784285D01*
X106113396Y-110736666D01*
X106637205Y-110736666D01*
X106113396Y-110736666D02*
X106018158Y-110689047D01*
X105970539Y-110593809D01*
X105970539Y-110450952D01*
X106018158Y-110355714D01*
X106113396Y-110308095D01*
X106637205Y-110308095D01*
X106637205Y-109831904D02*
X105970539Y-109831904D01*
X106065777Y-109831904D02*
X106018158Y-109784285D01*
X105970539Y-109689047D01*
X105970539Y-109546190D01*
X106018158Y-109450952D01*
X106113396Y-109403333D01*
X106637205Y-109403333D01*
X106113396Y-109403333D02*
X106018158Y-109355714D01*
X105970539Y-109260476D01*
X105970539Y-109117619D01*
X106018158Y-109022380D01*
X106113396Y-108974761D01*
X106637205Y-108974761D01*
X79328505Y-123356095D02*
X79328505Y-123260857D01*
X79376125Y-123165619D01*
X79423744Y-123118000D01*
X79518982Y-123070380D01*
X79709458Y-123022761D01*
X79947553Y-123022761D01*
X80138029Y-123070380D01*
X80233267Y-123118000D01*
X80280886Y-123165619D01*
X80328505Y-123260857D01*
X80328505Y-123356095D01*
X80280886Y-123451333D01*
X80233267Y-123498952D01*
X80138029Y-123546571D01*
X79947553Y-123594190D01*
X79709458Y-123594190D01*
X79518982Y-123546571D01*
X79423744Y-123498952D01*
X79376125Y-123451333D01*
X79328505Y-123356095D01*
X80233267Y-122594190D02*
X80280886Y-122546571D01*
X80328505Y-122594190D01*
X80280886Y-122641809D01*
X80233267Y-122594190D01*
X80328505Y-122594190D01*
X80328505Y-121594190D02*
X80328505Y-122165619D01*
X80328505Y-121879904D02*
X79328505Y-121879904D01*
X79471363Y-121975142D01*
X79566601Y-122070380D01*
X79614220Y-122165619D01*
X80328505Y-121118000D02*
X80328505Y-120927523D01*
X80280886Y-120832285D01*
X80233267Y-120784666D01*
X80090410Y-120689428D01*
X79899934Y-120641809D01*
X79518982Y-120641809D01*
X79423744Y-120689428D01*
X79376125Y-120737047D01*
X79328505Y-120832285D01*
X79328505Y-121022761D01*
X79376125Y-121118000D01*
X79423744Y-121165619D01*
X79518982Y-121213238D01*
X79757077Y-121213238D01*
X79852315Y-121165619D01*
X79899934Y-121118000D01*
X79947553Y-121022761D01*
X79947553Y-120832285D01*
X79899934Y-120737047D01*
X79852315Y-120689428D01*
X79757077Y-120641809D01*
X79328505Y-120308476D02*
X79328505Y-119641809D01*
X80328505Y-120070380D01*
X80328505Y-119260857D02*
X79661839Y-119260857D01*
X79328505Y-119260857D02*
X79376125Y-119308476D01*
X79423744Y-119260857D01*
X79376125Y-119213238D01*
X79328505Y-119260857D01*
X79423744Y-119260857D01*
X79661839Y-118784666D02*
X80328505Y-118784666D01*
X79757077Y-118784666D02*
X79709458Y-118737047D01*
X79661839Y-118641809D01*
X79661839Y-118498952D01*
X79709458Y-118403714D01*
X79804696Y-118356095D01*
X80328505Y-118356095D01*
X79280886Y-117165619D02*
X80566601Y-118022761D01*
X79328505Y-116356095D02*
X79328505Y-116832285D01*
X79804696Y-116879904D01*
X79757077Y-116832285D01*
X79709458Y-116737047D01*
X79709458Y-116498952D01*
X79757077Y-116403714D01*
X79804696Y-116356095D01*
X79899934Y-116308476D01*
X80138029Y-116308476D01*
X80233267Y-116356095D01*
X80280886Y-116403714D01*
X80328505Y-116498952D01*
X80328505Y-116737047D01*
X80280886Y-116832285D01*
X80233267Y-116879904D01*
X80328505Y-115879904D02*
X79661839Y-115879904D01*
X79757077Y-115879904D02*
X79709458Y-115832285D01*
X79661839Y-115737047D01*
X79661839Y-115594190D01*
X79709458Y-115498952D01*
X79804696Y-115451333D01*
X80328505Y-115451333D01*
X79804696Y-115451333D02*
X79709458Y-115403714D01*
X79661839Y-115308476D01*
X79661839Y-115165619D01*
X79709458Y-115070380D01*
X79804696Y-115022761D01*
X80328505Y-115022761D01*
X80328505Y-114546571D02*
X79661839Y-114546571D01*
X79757077Y-114546571D02*
X79709458Y-114498952D01*
X79661839Y-114403714D01*
X79661839Y-114260857D01*
X79709458Y-114165619D01*
X79804696Y-114118000D01*
X80328505Y-114118000D01*
X79804696Y-114118000D02*
X79709458Y-114070380D01*
X79661839Y-113975142D01*
X79661839Y-113832285D01*
X79709458Y-113737047D01*
X79804696Y-113689428D01*
X80328505Y-113689428D01*
%TO.C,TXFR1*%
X21334605Y-110776685D02*
X21334605Y-110681447D01*
X21382225Y-110586209D01*
X21429844Y-110538590D01*
X21525082Y-110490971D01*
X21715558Y-110443352D01*
X21953653Y-110443352D01*
X22144129Y-110490971D01*
X22239367Y-110538590D01*
X22286986Y-110586209D01*
X22334605Y-110681447D01*
X22334605Y-110776685D01*
X22286986Y-110871923D01*
X22239367Y-110919542D01*
X22144129Y-110967161D01*
X21953653Y-111014780D01*
X21715558Y-111014780D01*
X21525082Y-110967161D01*
X21429844Y-110919542D01*
X21382225Y-110871923D01*
X21334605Y-110776685D01*
X22239367Y-110014780D02*
X22286986Y-109967161D01*
X22334605Y-110014780D01*
X22286986Y-110062400D01*
X22239367Y-110014780D01*
X22334605Y-110014780D01*
X21334605Y-109633828D02*
X21334605Y-108967161D01*
X22334605Y-109395733D01*
X21763177Y-108443352D02*
X21715558Y-108538590D01*
X21667939Y-108586209D01*
X21572701Y-108633828D01*
X21525082Y-108633828D01*
X21429844Y-108586209D01*
X21382225Y-108538590D01*
X21334605Y-108443352D01*
X21334605Y-108252876D01*
X21382225Y-108157638D01*
X21429844Y-108110019D01*
X21525082Y-108062400D01*
X21572701Y-108062400D01*
X21667939Y-108110019D01*
X21715558Y-108157638D01*
X21763177Y-108252876D01*
X21763177Y-108443352D01*
X21810796Y-108538590D01*
X21858415Y-108586209D01*
X21953653Y-108633828D01*
X22144129Y-108633828D01*
X22239367Y-108586209D01*
X22286986Y-108538590D01*
X22334605Y-108443352D01*
X22334605Y-108252876D01*
X22286986Y-108157638D01*
X22239367Y-108110019D01*
X22144129Y-108062400D01*
X21953653Y-108062400D01*
X21858415Y-108110019D01*
X21810796Y-108157638D01*
X21763177Y-108252876D01*
X21334605Y-107729066D02*
X21334605Y-107062400D01*
X22334605Y-107490971D01*
X22334605Y-106681447D02*
X21667939Y-106681447D01*
X21334605Y-106681447D02*
X21382225Y-106729066D01*
X21429844Y-106681447D01*
X21382225Y-106633828D01*
X21334605Y-106681447D01*
X21429844Y-106681447D01*
X21667939Y-106205257D02*
X22334605Y-106205257D01*
X21763177Y-106205257D02*
X21715558Y-106157638D01*
X21667939Y-106062400D01*
X21667939Y-105919542D01*
X21715558Y-105824304D01*
X21810796Y-105776685D01*
X22334605Y-105776685D01*
X21286986Y-104586209D02*
X22572701Y-105443352D01*
X21429844Y-104300495D02*
X21382225Y-104252876D01*
X21334605Y-104157638D01*
X21334605Y-103919542D01*
X21382225Y-103824304D01*
X21429844Y-103776685D01*
X21525082Y-103729066D01*
X21620320Y-103729066D01*
X21763177Y-103776685D01*
X22334605Y-104348114D01*
X22334605Y-103729066D01*
X21334605Y-103110019D02*
X21334605Y-103014780D01*
X21382225Y-102919542D01*
X21429844Y-102871923D01*
X21525082Y-102824304D01*
X21715558Y-102776685D01*
X21953653Y-102776685D01*
X22144129Y-102824304D01*
X22239367Y-102871923D01*
X22286986Y-102919542D01*
X22334605Y-103014780D01*
X22334605Y-103110019D01*
X22286986Y-103205257D01*
X22239367Y-103252876D01*
X22144129Y-103300495D01*
X21953653Y-103348114D01*
X21715558Y-103348114D01*
X21525082Y-103300495D01*
X21429844Y-103252876D01*
X21382225Y-103205257D01*
X21334605Y-103110019D01*
X22334605Y-102348114D02*
X21667939Y-102348114D01*
X21763177Y-102348114D02*
X21715558Y-102300495D01*
X21667939Y-102205257D01*
X21667939Y-102062400D01*
X21715558Y-101967161D01*
X21810796Y-101919542D01*
X22334605Y-101919542D01*
X21810796Y-101919542D02*
X21715558Y-101871923D01*
X21667939Y-101776685D01*
X21667939Y-101633828D01*
X21715558Y-101538590D01*
X21810796Y-101490971D01*
X22334605Y-101490971D01*
X22334605Y-101014780D02*
X21667939Y-101014780D01*
X21763177Y-101014780D02*
X21715558Y-100967161D01*
X21667939Y-100871923D01*
X21667939Y-100729066D01*
X21715558Y-100633828D01*
X21810796Y-100586209D01*
X22334605Y-100586209D01*
X21810796Y-100586209D02*
X21715558Y-100538590D01*
X21667939Y-100443352D01*
X21667939Y-100300495D01*
X21715558Y-100205257D01*
X21810796Y-100157638D01*
X22334605Y-100157638D01*
X32643305Y-123348495D02*
X32643305Y-123253257D01*
X32690925Y-123158019D01*
X32738544Y-123110400D01*
X32833782Y-123062780D01*
X33024258Y-123015161D01*
X33262353Y-123015161D01*
X33452829Y-123062780D01*
X33548067Y-123110400D01*
X33595686Y-123158019D01*
X33643305Y-123253257D01*
X33643305Y-123348495D01*
X33595686Y-123443733D01*
X33548067Y-123491352D01*
X33452829Y-123538971D01*
X33262353Y-123586590D01*
X33024258Y-123586590D01*
X32833782Y-123538971D01*
X32738544Y-123491352D01*
X32690925Y-123443733D01*
X32643305Y-123348495D01*
X33548067Y-122586590D02*
X33595686Y-122538971D01*
X33643305Y-122586590D01*
X33595686Y-122634209D01*
X33548067Y-122586590D01*
X33643305Y-122586590D01*
X33643305Y-121586590D02*
X33643305Y-122158019D01*
X33643305Y-121872304D02*
X32643305Y-121872304D01*
X32786163Y-121967542D01*
X32881401Y-122062780D01*
X32929020Y-122158019D01*
X33643305Y-121110400D02*
X33643305Y-120919923D01*
X33595686Y-120824685D01*
X33548067Y-120777066D01*
X33405210Y-120681828D01*
X33214734Y-120634209D01*
X32833782Y-120634209D01*
X32738544Y-120681828D01*
X32690925Y-120729447D01*
X32643305Y-120824685D01*
X32643305Y-121015161D01*
X32690925Y-121110400D01*
X32738544Y-121158019D01*
X32833782Y-121205638D01*
X33071877Y-121205638D01*
X33167115Y-121158019D01*
X33214734Y-121110400D01*
X33262353Y-121015161D01*
X33262353Y-120824685D01*
X33214734Y-120729447D01*
X33167115Y-120681828D01*
X33071877Y-120634209D01*
X32643305Y-120300876D02*
X32643305Y-119634209D01*
X33643305Y-120062780D01*
X33643305Y-119253257D02*
X32976639Y-119253257D01*
X32643305Y-119253257D02*
X32690925Y-119300876D01*
X32738544Y-119253257D01*
X32690925Y-119205638D01*
X32643305Y-119253257D01*
X32738544Y-119253257D01*
X32976639Y-118777066D02*
X33643305Y-118777066D01*
X33071877Y-118777066D02*
X33024258Y-118729447D01*
X32976639Y-118634209D01*
X32976639Y-118491352D01*
X33024258Y-118396114D01*
X33119496Y-118348495D01*
X33643305Y-118348495D01*
X32595686Y-117158019D02*
X33881401Y-118015161D01*
X32643305Y-116348495D02*
X32643305Y-116824685D01*
X33119496Y-116872304D01*
X33071877Y-116824685D01*
X33024258Y-116729447D01*
X33024258Y-116491352D01*
X33071877Y-116396114D01*
X33119496Y-116348495D01*
X33214734Y-116300876D01*
X33452829Y-116300876D01*
X33548067Y-116348495D01*
X33595686Y-116396114D01*
X33643305Y-116491352D01*
X33643305Y-116729447D01*
X33595686Y-116824685D01*
X33548067Y-116872304D01*
X33643305Y-115872304D02*
X32976639Y-115872304D01*
X33071877Y-115872304D02*
X33024258Y-115824685D01*
X32976639Y-115729447D01*
X32976639Y-115586590D01*
X33024258Y-115491352D01*
X33119496Y-115443733D01*
X33643305Y-115443733D01*
X33119496Y-115443733D02*
X33024258Y-115396114D01*
X32976639Y-115300876D01*
X32976639Y-115158019D01*
X33024258Y-115062780D01*
X33119496Y-115015161D01*
X33643305Y-115015161D01*
X33643305Y-114538971D02*
X32976639Y-114538971D01*
X33071877Y-114538971D02*
X33024258Y-114491352D01*
X32976639Y-114396114D01*
X32976639Y-114253257D01*
X33024258Y-114158019D01*
X33119496Y-114110400D01*
X33643305Y-114110400D01*
X33119496Y-114110400D02*
X33024258Y-114062780D01*
X32976639Y-113967542D01*
X32976639Y-113824685D01*
X33024258Y-113729447D01*
X33119496Y-113681828D01*
X33643305Y-113681828D01*
D11*
X30736282Y-118208233D02*
X30742329Y-118214280D01*
X30748377Y-118232423D01*
X30748377Y-118244519D01*
X30742329Y-118262661D01*
X30730234Y-118274757D01*
X30718139Y-118280804D01*
X30693948Y-118286852D01*
X30675805Y-118286852D01*
X30651615Y-118280804D01*
X30639520Y-118274757D01*
X30627425Y-118262661D01*
X30621377Y-118244519D01*
X30621377Y-118232423D01*
X30627425Y-118214280D01*
X30633472Y-118208233D01*
X30748377Y-118135661D02*
X30742329Y-118147757D01*
X30736282Y-118153804D01*
X30724186Y-118159852D01*
X30687901Y-118159852D01*
X30675805Y-118153804D01*
X30669758Y-118147757D01*
X30663710Y-118135661D01*
X30663710Y-118117519D01*
X30669758Y-118105423D01*
X30675805Y-118099376D01*
X30687901Y-118093328D01*
X30724186Y-118093328D01*
X30736282Y-118099376D01*
X30742329Y-118105423D01*
X30748377Y-118117519D01*
X30748377Y-118135661D01*
X30663710Y-118038900D02*
X30790710Y-118038900D01*
X30669758Y-118038900D02*
X30663710Y-118026804D01*
X30663710Y-118002614D01*
X30669758Y-117990519D01*
X30675805Y-117984471D01*
X30687901Y-117978423D01*
X30724186Y-117978423D01*
X30736282Y-117984471D01*
X30742329Y-117990519D01*
X30748377Y-118002614D01*
X30748377Y-118026804D01*
X30742329Y-118038900D01*
X30663710Y-117936090D02*
X30748377Y-117905852D01*
X30663710Y-117875614D02*
X30748377Y-117905852D01*
X30778615Y-117917947D01*
X30784663Y-117923995D01*
X30790710Y-117936090D01*
X30748377Y-117827233D02*
X30663710Y-117827233D01*
X30687901Y-117827233D02*
X30675805Y-117821185D01*
X30669758Y-117815138D01*
X30663710Y-117803042D01*
X30663710Y-117790947D01*
X30748377Y-117748614D02*
X30663710Y-117748614D01*
X30621377Y-117748614D02*
X30627425Y-117754661D01*
X30633472Y-117748614D01*
X30627425Y-117742566D01*
X30621377Y-117748614D01*
X30633472Y-117748614D01*
X30663710Y-117633709D02*
X30766520Y-117633709D01*
X30778615Y-117639757D01*
X30784663Y-117645804D01*
X30790710Y-117657900D01*
X30790710Y-117676042D01*
X30784663Y-117688138D01*
X30742329Y-117633709D02*
X30748377Y-117645804D01*
X30748377Y-117669995D01*
X30742329Y-117682090D01*
X30736282Y-117688138D01*
X30724186Y-117694185D01*
X30687901Y-117694185D01*
X30675805Y-117688138D01*
X30669758Y-117682090D01*
X30663710Y-117669995D01*
X30663710Y-117645804D01*
X30669758Y-117633709D01*
X30748377Y-117573233D02*
X30621377Y-117573233D01*
X30748377Y-117518804D02*
X30681853Y-117518804D01*
X30669758Y-117524852D01*
X30663710Y-117536947D01*
X30663710Y-117555090D01*
X30669758Y-117567185D01*
X30675805Y-117573233D01*
X30663710Y-117476471D02*
X30663710Y-117428090D01*
X30621377Y-117458328D02*
X30730234Y-117458328D01*
X30742329Y-117452280D01*
X30748377Y-117440185D01*
X30748377Y-117428090D01*
X30633472Y-117295042D02*
X30627425Y-117288995D01*
X30621377Y-117276900D01*
X30621377Y-117246661D01*
X30627425Y-117234566D01*
X30633472Y-117228519D01*
X30645567Y-117222471D01*
X30657663Y-117222471D01*
X30675805Y-117228519D01*
X30748377Y-117301090D01*
X30748377Y-117222471D01*
X30621377Y-117143852D02*
X30621377Y-117131757D01*
X30627425Y-117119661D01*
X30633472Y-117113614D01*
X30645567Y-117107566D01*
X30669758Y-117101519D01*
X30699996Y-117101519D01*
X30724186Y-117107566D01*
X30736282Y-117113614D01*
X30742329Y-117119661D01*
X30748377Y-117131757D01*
X30748377Y-117143852D01*
X30742329Y-117155947D01*
X30736282Y-117161995D01*
X30724186Y-117168042D01*
X30699996Y-117174090D01*
X30669758Y-117174090D01*
X30645567Y-117168042D01*
X30633472Y-117161995D01*
X30627425Y-117155947D01*
X30621377Y-117143852D01*
X30633472Y-117053138D02*
X30627425Y-117047090D01*
X30621377Y-117034995D01*
X30621377Y-117004757D01*
X30627425Y-116992661D01*
X30633472Y-116986614D01*
X30645567Y-116980566D01*
X30657663Y-116980566D01*
X30675805Y-116986614D01*
X30748377Y-117059185D01*
X30748377Y-116980566D01*
X30748377Y-116859614D02*
X30748377Y-116932185D01*
X30748377Y-116895900D02*
X30621377Y-116895900D01*
X30639520Y-116907995D01*
X30651615Y-116920090D01*
X30657663Y-116932185D01*
X30712091Y-116714471D02*
X30712091Y-116653995D01*
X30748377Y-116726566D02*
X30621377Y-116684233D01*
X30748377Y-116641900D01*
X30742329Y-116545138D02*
X30748377Y-116557233D01*
X30748377Y-116581423D01*
X30742329Y-116593519D01*
X30736282Y-116599566D01*
X30724186Y-116605614D01*
X30687901Y-116605614D01*
X30675805Y-116599566D01*
X30669758Y-116593519D01*
X30663710Y-116581423D01*
X30663710Y-116557233D01*
X30669758Y-116545138D01*
X30742329Y-116436280D02*
X30748377Y-116448376D01*
X30748377Y-116472566D01*
X30742329Y-116484661D01*
X30736282Y-116490709D01*
X30724186Y-116496757D01*
X30687901Y-116496757D01*
X30675805Y-116490709D01*
X30669758Y-116484661D01*
X30663710Y-116472566D01*
X30663710Y-116448376D01*
X30669758Y-116436280D01*
X30742329Y-116333471D02*
X30748377Y-116345566D01*
X30748377Y-116369757D01*
X30742329Y-116381852D01*
X30730234Y-116387900D01*
X30681853Y-116387900D01*
X30669758Y-116381852D01*
X30663710Y-116369757D01*
X30663710Y-116345566D01*
X30669758Y-116333471D01*
X30681853Y-116327423D01*
X30693948Y-116327423D01*
X30706044Y-116387900D01*
X30748377Y-116254852D02*
X30742329Y-116266947D01*
X30730234Y-116272995D01*
X30621377Y-116272995D01*
X30742329Y-116158090D02*
X30748377Y-116170185D01*
X30748377Y-116194376D01*
X30742329Y-116206471D01*
X30730234Y-116212519D01*
X30681853Y-116212519D01*
X30669758Y-116206471D01*
X30663710Y-116194376D01*
X30663710Y-116170185D01*
X30669758Y-116158090D01*
X30681853Y-116152042D01*
X30693948Y-116152042D01*
X30706044Y-116212519D01*
X30748377Y-116097614D02*
X30663710Y-116097614D01*
X30687901Y-116097614D02*
X30675805Y-116091566D01*
X30669758Y-116085519D01*
X30663710Y-116073423D01*
X30663710Y-116061328D01*
X30748377Y-115964566D02*
X30681853Y-115964566D01*
X30669758Y-115970614D01*
X30663710Y-115982709D01*
X30663710Y-116006900D01*
X30669758Y-116018995D01*
X30742329Y-115964566D02*
X30748377Y-115976661D01*
X30748377Y-116006900D01*
X30742329Y-116018995D01*
X30730234Y-116025042D01*
X30718139Y-116025042D01*
X30706044Y-116018995D01*
X30699996Y-116006900D01*
X30699996Y-115976661D01*
X30693948Y-115964566D01*
X30663710Y-115922233D02*
X30663710Y-115873852D01*
X30621377Y-115904090D02*
X30730234Y-115904090D01*
X30742329Y-115898042D01*
X30748377Y-115885947D01*
X30748377Y-115873852D01*
X30742329Y-115783138D02*
X30748377Y-115795233D01*
X30748377Y-115819423D01*
X30742329Y-115831519D01*
X30730234Y-115837566D01*
X30681853Y-115837566D01*
X30669758Y-115831519D01*
X30663710Y-115819423D01*
X30663710Y-115795233D01*
X30669758Y-115783138D01*
X30681853Y-115777090D01*
X30693948Y-115777090D01*
X30706044Y-115837566D01*
X30748377Y-115668233D02*
X30621377Y-115668233D01*
X30742329Y-115668233D02*
X30748377Y-115680328D01*
X30748377Y-115704519D01*
X30742329Y-115716614D01*
X30736282Y-115722661D01*
X30724186Y-115728709D01*
X30687901Y-115728709D01*
X30675805Y-115722661D01*
X30669758Y-115716614D01*
X30663710Y-115704519D01*
X30663710Y-115680328D01*
X30669758Y-115668233D01*
X30748377Y-115510995D02*
X30621377Y-115510995D01*
X30621377Y-115480757D01*
X30627425Y-115462614D01*
X30639520Y-115450519D01*
X30651615Y-115444471D01*
X30675805Y-115438423D01*
X30693948Y-115438423D01*
X30718139Y-115444471D01*
X30730234Y-115450519D01*
X30742329Y-115462614D01*
X30748377Y-115480757D01*
X30748377Y-115510995D01*
X30742329Y-115335614D02*
X30748377Y-115347709D01*
X30748377Y-115371900D01*
X30742329Y-115383995D01*
X30730234Y-115390042D01*
X30681853Y-115390042D01*
X30669758Y-115383995D01*
X30663710Y-115371900D01*
X30663710Y-115347709D01*
X30669758Y-115335614D01*
X30681853Y-115329566D01*
X30693948Y-115329566D01*
X30706044Y-115390042D01*
X30742329Y-115281185D02*
X30748377Y-115269090D01*
X30748377Y-115244900D01*
X30742329Y-115232804D01*
X30730234Y-115226757D01*
X30724186Y-115226757D01*
X30712091Y-115232804D01*
X30706044Y-115244900D01*
X30706044Y-115263042D01*
X30699996Y-115275138D01*
X30687901Y-115281185D01*
X30681853Y-115281185D01*
X30669758Y-115275138D01*
X30663710Y-115263042D01*
X30663710Y-115244900D01*
X30669758Y-115232804D01*
X30748377Y-115172328D02*
X30663710Y-115172328D01*
X30621377Y-115172328D02*
X30627425Y-115178376D01*
X30633472Y-115172328D01*
X30627425Y-115166280D01*
X30621377Y-115172328D01*
X30633472Y-115172328D01*
X30663710Y-115057423D02*
X30766520Y-115057423D01*
X30778615Y-115063471D01*
X30784663Y-115069519D01*
X30790710Y-115081614D01*
X30790710Y-115099757D01*
X30784663Y-115111852D01*
X30742329Y-115057423D02*
X30748377Y-115069519D01*
X30748377Y-115093709D01*
X30742329Y-115105804D01*
X30736282Y-115111852D01*
X30724186Y-115117900D01*
X30687901Y-115117900D01*
X30675805Y-115111852D01*
X30669758Y-115105804D01*
X30663710Y-115093709D01*
X30663710Y-115069519D01*
X30669758Y-115057423D01*
X30663710Y-114996947D02*
X30748377Y-114996947D01*
X30675805Y-114996947D02*
X30669758Y-114990900D01*
X30663710Y-114978804D01*
X30663710Y-114960661D01*
X30669758Y-114948566D01*
X30681853Y-114942519D01*
X30748377Y-114942519D01*
X30742329Y-114888090D02*
X30748377Y-114875995D01*
X30748377Y-114851804D01*
X30742329Y-114839709D01*
X30730234Y-114833661D01*
X30724186Y-114833661D01*
X30712091Y-114839709D01*
X30706044Y-114851804D01*
X30706044Y-114869947D01*
X30699996Y-114882042D01*
X30687901Y-114888090D01*
X30681853Y-114888090D01*
X30669758Y-114882042D01*
X30663710Y-114869947D01*
X30663710Y-114851804D01*
X30669758Y-114839709D01*
X30736282Y-114779233D02*
X30742329Y-114773185D01*
X30748377Y-114779233D01*
X30742329Y-114785280D01*
X30736282Y-114779233D01*
X30748377Y-114779233D01*
X30712091Y-114628042D02*
X30712091Y-114567566D01*
X30748377Y-114640138D02*
X30621377Y-114597804D01*
X30748377Y-114555471D01*
X30748377Y-114494995D02*
X30742329Y-114507090D01*
X30730234Y-114513138D01*
X30621377Y-114513138D01*
X30748377Y-114428471D02*
X30742329Y-114440566D01*
X30730234Y-114446614D01*
X30621377Y-114446614D01*
X30748377Y-114283328D02*
X30663710Y-114283328D01*
X30687901Y-114283328D02*
X30675805Y-114277280D01*
X30669758Y-114271233D01*
X30663710Y-114259138D01*
X30663710Y-114247042D01*
X30748377Y-114204709D02*
X30663710Y-114204709D01*
X30621377Y-114204709D02*
X30627425Y-114210757D01*
X30633472Y-114204709D01*
X30627425Y-114198661D01*
X30621377Y-114204709D01*
X30633472Y-114204709D01*
X30663710Y-114089804D02*
X30766520Y-114089804D01*
X30778615Y-114095852D01*
X30784663Y-114101900D01*
X30790710Y-114113995D01*
X30790710Y-114132138D01*
X30784663Y-114144233D01*
X30742329Y-114089804D02*
X30748377Y-114101900D01*
X30748377Y-114126090D01*
X30742329Y-114138185D01*
X30736282Y-114144233D01*
X30724186Y-114150280D01*
X30687901Y-114150280D01*
X30675805Y-114144233D01*
X30669758Y-114138185D01*
X30663710Y-114126090D01*
X30663710Y-114101900D01*
X30669758Y-114089804D01*
X30748377Y-114029328D02*
X30621377Y-114029328D01*
X30748377Y-113974900D02*
X30681853Y-113974900D01*
X30669758Y-113980947D01*
X30663710Y-113993042D01*
X30663710Y-114011185D01*
X30669758Y-114023280D01*
X30675805Y-114029328D01*
X30663710Y-113932566D02*
X30663710Y-113884185D01*
X30621377Y-113914423D02*
X30730234Y-113914423D01*
X30742329Y-113908376D01*
X30748377Y-113896280D01*
X30748377Y-113884185D01*
X30742329Y-113847900D02*
X30748377Y-113835804D01*
X30748377Y-113811614D01*
X30742329Y-113799519D01*
X30730234Y-113793471D01*
X30724186Y-113793471D01*
X30712091Y-113799519D01*
X30706044Y-113811614D01*
X30706044Y-113829757D01*
X30699996Y-113841852D01*
X30687901Y-113847900D01*
X30681853Y-113847900D01*
X30669758Y-113841852D01*
X30663710Y-113829757D01*
X30663710Y-113811614D01*
X30669758Y-113799519D01*
X30748377Y-113642280D02*
X30663710Y-113642280D01*
X30687901Y-113642280D02*
X30675805Y-113636233D01*
X30669758Y-113630185D01*
X30663710Y-113618090D01*
X30663710Y-113605995D01*
X30742329Y-113515280D02*
X30748377Y-113527376D01*
X30748377Y-113551566D01*
X30742329Y-113563661D01*
X30730234Y-113569709D01*
X30681853Y-113569709D01*
X30669758Y-113563661D01*
X30663710Y-113551566D01*
X30663710Y-113527376D01*
X30669758Y-113515280D01*
X30681853Y-113509233D01*
X30693948Y-113509233D01*
X30706044Y-113569709D01*
X30742329Y-113460852D02*
X30748377Y-113448757D01*
X30748377Y-113424566D01*
X30742329Y-113412471D01*
X30730234Y-113406423D01*
X30724186Y-113406423D01*
X30712091Y-113412471D01*
X30706044Y-113424566D01*
X30706044Y-113442709D01*
X30699996Y-113454804D01*
X30687901Y-113460852D01*
X30681853Y-113460852D01*
X30669758Y-113454804D01*
X30663710Y-113442709D01*
X30663710Y-113424566D01*
X30669758Y-113412471D01*
X30742329Y-113303614D02*
X30748377Y-113315709D01*
X30748377Y-113339900D01*
X30742329Y-113351995D01*
X30730234Y-113358042D01*
X30681853Y-113358042D01*
X30669758Y-113351995D01*
X30663710Y-113339900D01*
X30663710Y-113315709D01*
X30669758Y-113303614D01*
X30681853Y-113297566D01*
X30693948Y-113297566D01*
X30706044Y-113358042D01*
X30748377Y-113243138D02*
X30663710Y-113243138D01*
X30687901Y-113243138D02*
X30675805Y-113237090D01*
X30669758Y-113231042D01*
X30663710Y-113218947D01*
X30663710Y-113206852D01*
X30663710Y-113176614D02*
X30748377Y-113146376D01*
X30663710Y-113116138D01*
X30742329Y-113019376D02*
X30748377Y-113031471D01*
X30748377Y-113055661D01*
X30742329Y-113067757D01*
X30730234Y-113073804D01*
X30681853Y-113073804D01*
X30669758Y-113067757D01*
X30663710Y-113055661D01*
X30663710Y-113031471D01*
X30669758Y-113019376D01*
X30681853Y-113013328D01*
X30693948Y-113013328D01*
X30706044Y-113073804D01*
X30748377Y-112904471D02*
X30621377Y-112904471D01*
X30742329Y-112904471D02*
X30748377Y-112916566D01*
X30748377Y-112940757D01*
X30742329Y-112952852D01*
X30736282Y-112958900D01*
X30724186Y-112964947D01*
X30687901Y-112964947D01*
X30675805Y-112958900D01*
X30669758Y-112952852D01*
X30663710Y-112940757D01*
X30663710Y-112916566D01*
X30669758Y-112904471D01*
X30736282Y-112843995D02*
X30742329Y-112837947D01*
X30748377Y-112843995D01*
X30742329Y-112850042D01*
X30736282Y-112843995D01*
X30748377Y-112843995D01*
D10*
X58952005Y-121967161D02*
X58952005Y-121871923D01*
X58999625Y-121776685D01*
X59047244Y-121729066D01*
X59142482Y-121681447D01*
X59332958Y-121633828D01*
X59571053Y-121633828D01*
X59761529Y-121681447D01*
X59856767Y-121729066D01*
X59904386Y-121776685D01*
X59952005Y-121871923D01*
X59952005Y-121967161D01*
X59904386Y-122062400D01*
X59856767Y-122110019D01*
X59761529Y-122157638D01*
X59571053Y-122205257D01*
X59332958Y-122205257D01*
X59142482Y-122157638D01*
X59047244Y-122110019D01*
X58999625Y-122062400D01*
X58952005Y-121967161D01*
X59856767Y-121205257D02*
X59904386Y-121157638D01*
X59952005Y-121205257D01*
X59904386Y-121252876D01*
X59856767Y-121205257D01*
X59952005Y-121205257D01*
X58952005Y-120538590D02*
X58952005Y-120443352D01*
X58999625Y-120348114D01*
X59047244Y-120300495D01*
X59142482Y-120252876D01*
X59332958Y-120205257D01*
X59571053Y-120205257D01*
X59761529Y-120252876D01*
X59856767Y-120300495D01*
X59904386Y-120348114D01*
X59952005Y-120443352D01*
X59952005Y-120538590D01*
X59904386Y-120633828D01*
X59856767Y-120681447D01*
X59761529Y-120729066D01*
X59571053Y-120776685D01*
X59332958Y-120776685D01*
X59142482Y-120729066D01*
X59047244Y-120681447D01*
X58999625Y-120633828D01*
X58952005Y-120538590D01*
X58952005Y-119348114D02*
X58952005Y-119538590D01*
X58999625Y-119633828D01*
X59047244Y-119681447D01*
X59190101Y-119776685D01*
X59380577Y-119824304D01*
X59761529Y-119824304D01*
X59856767Y-119776685D01*
X59904386Y-119729066D01*
X59952005Y-119633828D01*
X59952005Y-119443352D01*
X59904386Y-119348114D01*
X59856767Y-119300495D01*
X59761529Y-119252876D01*
X59523434Y-119252876D01*
X59428196Y-119300495D01*
X59380577Y-119348114D01*
X59332958Y-119443352D01*
X59332958Y-119633828D01*
X59380577Y-119729066D01*
X59428196Y-119776685D01*
X59523434Y-119824304D01*
X58952005Y-118348114D02*
X58952005Y-118824304D01*
X59428196Y-118871923D01*
X59380577Y-118824304D01*
X59332958Y-118729066D01*
X59332958Y-118490971D01*
X59380577Y-118395733D01*
X59428196Y-118348114D01*
X59523434Y-118300495D01*
X59761529Y-118300495D01*
X59856767Y-118348114D01*
X59904386Y-118395733D01*
X59952005Y-118490971D01*
X59952005Y-118729066D01*
X59904386Y-118824304D01*
X59856767Y-118871923D01*
X59952005Y-117871923D02*
X59285339Y-117871923D01*
X58952005Y-117871923D02*
X58999625Y-117919542D01*
X59047244Y-117871923D01*
X58999625Y-117824304D01*
X58952005Y-117871923D01*
X59047244Y-117871923D01*
X59285339Y-117395733D02*
X59952005Y-117395733D01*
X59380577Y-117395733D02*
X59332958Y-117348114D01*
X59285339Y-117252876D01*
X59285339Y-117110019D01*
X59332958Y-117014780D01*
X59428196Y-116967161D01*
X59952005Y-116967161D01*
X58904386Y-115776685D02*
X60190101Y-116633828D01*
X59952005Y-114919542D02*
X59952005Y-115490971D01*
X59952005Y-115205257D02*
X58952005Y-115205257D01*
X59094863Y-115300495D01*
X59190101Y-115395733D01*
X59237720Y-115490971D01*
X59856767Y-114490971D02*
X59904386Y-114443352D01*
X59952005Y-114490971D01*
X59904386Y-114538590D01*
X59856767Y-114490971D01*
X59952005Y-114490971D01*
X58952005Y-113586209D02*
X58952005Y-113776685D01*
X58999625Y-113871923D01*
X59047244Y-113919542D01*
X59190101Y-114014780D01*
X59380577Y-114062400D01*
X59761529Y-114062400D01*
X59856767Y-114014780D01*
X59904386Y-113967161D01*
X59952005Y-113871923D01*
X59952005Y-113681447D01*
X59904386Y-113586209D01*
X59856767Y-113538590D01*
X59761529Y-113490971D01*
X59523434Y-113490971D01*
X59428196Y-113538590D01*
X59380577Y-113586209D01*
X59332958Y-113681447D01*
X59332958Y-113871923D01*
X59380577Y-113967161D01*
X59428196Y-114014780D01*
X59523434Y-114062400D01*
X58952005Y-112586209D02*
X58952005Y-113062400D01*
X59428196Y-113110019D01*
X59380577Y-113062400D01*
X59332958Y-112967161D01*
X59332958Y-112729066D01*
X59380577Y-112633828D01*
X59428196Y-112586209D01*
X59523434Y-112538590D01*
X59761529Y-112538590D01*
X59856767Y-112586209D01*
X59904386Y-112633828D01*
X59952005Y-112729066D01*
X59952005Y-112967161D01*
X59904386Y-113062400D01*
X59856767Y-113110019D01*
X59952005Y-111586209D02*
X59952005Y-112157638D01*
X59952005Y-111871923D02*
X58952005Y-111871923D01*
X59094863Y-111967161D01*
X59190101Y-112062400D01*
X59237720Y-112157638D01*
X59952005Y-111157638D02*
X59285339Y-111157638D01*
X59380577Y-111157638D02*
X59332958Y-111110019D01*
X59285339Y-111014780D01*
X59285339Y-110871923D01*
X59332958Y-110776685D01*
X59428196Y-110729066D01*
X59952005Y-110729066D01*
X59428196Y-110729066D02*
X59332958Y-110681447D01*
X59285339Y-110586209D01*
X59285339Y-110443352D01*
X59332958Y-110348114D01*
X59428196Y-110300495D01*
X59952005Y-110300495D01*
X59952005Y-109824304D02*
X59285339Y-109824304D01*
X59380577Y-109824304D02*
X59332958Y-109776685D01*
X59285339Y-109681447D01*
X59285339Y-109538590D01*
X59332958Y-109443352D01*
X59428196Y-109395733D01*
X59952005Y-109395733D01*
X59428196Y-109395733D02*
X59332958Y-109348114D01*
X59285339Y-109252876D01*
X59285339Y-109110019D01*
X59332958Y-109014780D01*
X59428196Y-108967161D01*
X59952005Y-108967161D01*
X30778305Y-98284160D02*
X30778305Y-98188922D01*
X30825925Y-98093684D01*
X30873544Y-98046065D01*
X30968782Y-97998446D01*
X31159258Y-97950827D01*
X31397353Y-97950827D01*
X31587829Y-97998446D01*
X31683067Y-98046065D01*
X31730686Y-98093684D01*
X31778305Y-98188922D01*
X31778305Y-98284160D01*
X31730686Y-98379399D01*
X31683067Y-98427018D01*
X31587829Y-98474637D01*
X31397353Y-98522256D01*
X31159258Y-98522256D01*
X30968782Y-98474637D01*
X30873544Y-98427018D01*
X30825925Y-98379399D01*
X30778305Y-98284160D01*
X31683067Y-97522256D02*
X31730686Y-97474637D01*
X31778305Y-97522256D01*
X31730686Y-97569875D01*
X31683067Y-97522256D01*
X31778305Y-97522256D01*
X30778305Y-96855589D02*
X30778305Y-96760351D01*
X30825925Y-96665113D01*
X30873544Y-96617494D01*
X30968782Y-96569875D01*
X31159258Y-96522256D01*
X31397353Y-96522256D01*
X31587829Y-96569875D01*
X31683067Y-96617494D01*
X31730686Y-96665113D01*
X31778305Y-96760351D01*
X31778305Y-96855589D01*
X31730686Y-96950827D01*
X31683067Y-96998446D01*
X31587829Y-97046065D01*
X31397353Y-97093684D01*
X31159258Y-97093684D01*
X30968782Y-97046065D01*
X30873544Y-96998446D01*
X30825925Y-96950827D01*
X30778305Y-96855589D01*
X30778305Y-95665113D02*
X30778305Y-95855589D01*
X30825925Y-95950827D01*
X30873544Y-95998446D01*
X31016401Y-96093684D01*
X31206877Y-96141303D01*
X31587829Y-96141303D01*
X31683067Y-96093684D01*
X31730686Y-96046065D01*
X31778305Y-95950827D01*
X31778305Y-95760351D01*
X31730686Y-95665113D01*
X31683067Y-95617494D01*
X31587829Y-95569875D01*
X31349734Y-95569875D01*
X31254496Y-95617494D01*
X31206877Y-95665113D01*
X31159258Y-95760351D01*
X31159258Y-95950827D01*
X31206877Y-96046065D01*
X31254496Y-96093684D01*
X31349734Y-96141303D01*
X30778305Y-94665113D02*
X30778305Y-95141303D01*
X31254496Y-95188922D01*
X31206877Y-95141303D01*
X31159258Y-95046065D01*
X31159258Y-94807970D01*
X31206877Y-94712732D01*
X31254496Y-94665113D01*
X31349734Y-94617494D01*
X31587829Y-94617494D01*
X31683067Y-94665113D01*
X31730686Y-94712732D01*
X31778305Y-94807970D01*
X31778305Y-95046065D01*
X31730686Y-95141303D01*
X31683067Y-95188922D01*
X31778305Y-94188922D02*
X31111639Y-94188922D01*
X30778305Y-94188922D02*
X30825925Y-94236541D01*
X30873544Y-94188922D01*
X30825925Y-94141303D01*
X30778305Y-94188922D01*
X30873544Y-94188922D01*
X31111639Y-93712732D02*
X31778305Y-93712732D01*
X31206877Y-93712732D02*
X31159258Y-93665113D01*
X31111639Y-93569875D01*
X31111639Y-93427018D01*
X31159258Y-93331779D01*
X31254496Y-93284160D01*
X31778305Y-93284160D01*
X30730686Y-92093684D02*
X32016401Y-92950827D01*
X31778305Y-91236541D02*
X31778305Y-91807970D01*
X31778305Y-91522256D02*
X30778305Y-91522256D01*
X30921163Y-91617494D01*
X31016401Y-91712732D01*
X31064020Y-91807970D01*
X31683067Y-90807970D02*
X31730686Y-90760351D01*
X31778305Y-90807970D01*
X31730686Y-90855589D01*
X31683067Y-90807970D01*
X31778305Y-90807970D01*
X30778305Y-89903208D02*
X30778305Y-90093684D01*
X30825925Y-90188922D01*
X30873544Y-90236541D01*
X31016401Y-90331779D01*
X31206877Y-90379399D01*
X31587829Y-90379399D01*
X31683067Y-90331779D01*
X31730686Y-90284160D01*
X31778305Y-90188922D01*
X31778305Y-89998446D01*
X31730686Y-89903208D01*
X31683067Y-89855589D01*
X31587829Y-89807970D01*
X31349734Y-89807970D01*
X31254496Y-89855589D01*
X31206877Y-89903208D01*
X31159258Y-89998446D01*
X31159258Y-90188922D01*
X31206877Y-90284160D01*
X31254496Y-90331779D01*
X31349734Y-90379399D01*
X30778305Y-88903208D02*
X30778305Y-89379399D01*
X31254496Y-89427018D01*
X31206877Y-89379399D01*
X31159258Y-89284160D01*
X31159258Y-89046065D01*
X31206877Y-88950827D01*
X31254496Y-88903208D01*
X31349734Y-88855589D01*
X31587829Y-88855589D01*
X31683067Y-88903208D01*
X31730686Y-88950827D01*
X31778305Y-89046065D01*
X31778305Y-89284160D01*
X31730686Y-89379399D01*
X31683067Y-89427018D01*
X31778305Y-87903208D02*
X31778305Y-88474637D01*
X31778305Y-88188922D02*
X30778305Y-88188922D01*
X30921163Y-88284160D01*
X31016401Y-88379399D01*
X31064020Y-88474637D01*
X31778305Y-87474637D02*
X31111639Y-87474637D01*
X31206877Y-87474637D02*
X31159258Y-87427018D01*
X31111639Y-87331779D01*
X31111639Y-87188922D01*
X31159258Y-87093684D01*
X31254496Y-87046065D01*
X31778305Y-87046065D01*
X31254496Y-87046065D02*
X31159258Y-86998446D01*
X31111639Y-86903208D01*
X31111639Y-86760351D01*
X31159258Y-86665113D01*
X31254496Y-86617494D01*
X31778305Y-86617494D01*
X31778305Y-86141303D02*
X31111639Y-86141303D01*
X31206877Y-86141303D02*
X31159258Y-86093684D01*
X31111639Y-85998446D01*
X31111639Y-85855589D01*
X31159258Y-85760351D01*
X31254496Y-85712732D01*
X31778305Y-85712732D01*
X31254496Y-85712732D02*
X31159258Y-85665113D01*
X31111639Y-85569875D01*
X31111639Y-85427018D01*
X31159258Y-85331779D01*
X31254496Y-85284160D01*
X31778305Y-85284160D01*
%TO.C,REF\u002A\u002A*%
X159706000Y-31750000D02*
G75*
G03*
X159706000Y-31750000I-3750000J0D01*
G01*
X23054000Y-120243600D02*
G75*
G03*
X23054000Y-120243600I-3750000J0D01*
G01*
X159706000Y-120243600D02*
G75*
G03*
X159706000Y-120243600I-3750000J0D01*
G01*
X23054000Y-31750000D02*
G75*
G03*
X23054000Y-31750000I-3750000J0D01*
G01*
D12*
%TO.C,TXFR3*%
X117767225Y-93022399D02*
X150558625Y-93022399D01*
X117767225Y-93022399D02*
X118021225Y-92895399D01*
X121622925Y-119456200D02*
X121749925Y-119202200D01*
X121495925Y-119202200D02*
X121749925Y-119202200D01*
X121622925Y-91668600D02*
X121495925Y-91922600D01*
X121495925Y-91922600D02*
X121749925Y-91922600D01*
X144162926Y-91668600D02*
X121241925Y-91668600D01*
X150558625Y-93022399D02*
X150304625Y-93149399D01*
X124162925Y-118102400D02*
X124416925Y-117975400D01*
X129162925Y-115562400D02*
X129162925Y-118483400D01*
X150558625Y-105562400D02*
X150558625Y-92641399D01*
X129162925Y-118102400D02*
X128908925Y-118229400D01*
X117767225Y-105562400D02*
X117767225Y-92641399D01*
X121622925Y-119456200D02*
X121495925Y-119202200D01*
X146702926Y-115562400D02*
X146702926Y-95562399D01*
X144162926Y-119456200D02*
X121241925Y-119456200D01*
X150304625Y-93149399D02*
X150304625Y-92895399D01*
X124162925Y-118102400D02*
X124416925Y-118229400D01*
X124162925Y-115562400D02*
X124162925Y-118483400D01*
X146702926Y-95562399D02*
X146575926Y-95816399D01*
X129162925Y-118102400D02*
X128908925Y-117975400D01*
X146575926Y-95816399D02*
X146829926Y-95816399D01*
X150558625Y-93022399D02*
X150304625Y-92895399D01*
X124162925Y-118102400D02*
X129162925Y-118102400D01*
X128908925Y-118229400D02*
X128908925Y-117975400D01*
X144162926Y-95562399D02*
X147083926Y-95562399D01*
X124416925Y-118229400D02*
X124416925Y-117975400D01*
X146575926Y-115308400D02*
X146829926Y-115308400D01*
X121622925Y-119456200D02*
X121622925Y-91668600D01*
X146702926Y-115562400D02*
X146575926Y-115308400D01*
X144162926Y-115562400D02*
X147083926Y-115562400D01*
X146702926Y-115562400D02*
X146829926Y-115308400D01*
X117767225Y-93022399D02*
X118021225Y-93149399D01*
X118021225Y-93149399D02*
X118021225Y-92895399D01*
X121622925Y-91668600D02*
X121749925Y-91922600D01*
X146702926Y-95562399D02*
X146829926Y-95816399D01*
%TO.C,TXFR2*%
X99916126Y-95569999D02*
X99789126Y-95823999D01*
X74709125Y-91930200D02*
X74963125Y-91930200D01*
X74709125Y-119209800D02*
X74963125Y-119209800D01*
X99789126Y-115316000D02*
X100043126Y-115316000D01*
X70980425Y-93029999D02*
X103771825Y-93029999D01*
X70980425Y-93029999D02*
X71234425Y-93156999D01*
X71234425Y-93156999D02*
X71234425Y-92902999D01*
X97376126Y-91676200D02*
X74455125Y-91676200D01*
X99916126Y-95569999D02*
X100043126Y-95823999D01*
X99789126Y-95823999D02*
X100043126Y-95823999D01*
X70980425Y-93029999D02*
X71234425Y-92902999D01*
X74836125Y-91676200D02*
X74963125Y-91930200D01*
X74836125Y-91676200D02*
X74709125Y-91930200D01*
X77376125Y-118110000D02*
X82376125Y-118110000D01*
X103517825Y-93156999D02*
X103517825Y-92902999D01*
X82376125Y-118110000D02*
X82122125Y-117983000D01*
X77376125Y-118110000D02*
X77630125Y-117983000D01*
X77376125Y-118110000D02*
X77630125Y-118237000D01*
X82376125Y-118110000D02*
X82122125Y-118237000D01*
X99916126Y-115570000D02*
X99916126Y-95569999D01*
X77376125Y-115570000D02*
X77376125Y-118491000D01*
X103771825Y-105570000D02*
X103771825Y-92648999D01*
X97376126Y-95569999D02*
X100297126Y-95569999D01*
X74836125Y-119463800D02*
X74836125Y-91676200D01*
X97376126Y-119463800D02*
X74455125Y-119463800D01*
X99916126Y-115570000D02*
X99789126Y-115316000D01*
X103771825Y-93029999D02*
X103517825Y-92902999D01*
X77630125Y-118237000D02*
X77630125Y-117983000D01*
X74836125Y-119463800D02*
X74963125Y-119209800D01*
X70980425Y-105570000D02*
X70980425Y-92648999D01*
X82376125Y-115570000D02*
X82376125Y-118491000D01*
X99916126Y-115570000D02*
X100043126Y-115316000D01*
X97376126Y-115570000D02*
X100297126Y-115570000D01*
X74836125Y-119463800D02*
X74709125Y-119209800D01*
X103771825Y-93029999D02*
X103517825Y-93156999D01*
X82122125Y-118237000D02*
X82122125Y-117983000D01*
%TO.C,TXFR1*%
X30944925Y-118229400D02*
X30944925Y-117975400D01*
X24295225Y-105562400D02*
X24295225Y-92641399D01*
X24295225Y-93022399D02*
X57086625Y-93022399D01*
X28150925Y-119456200D02*
X28277925Y-119202200D01*
X56832625Y-93149399D02*
X56832625Y-92895399D01*
X24549225Y-93149399D02*
X24549225Y-92895399D01*
X35436925Y-118229400D02*
X35436925Y-117975400D01*
X30690925Y-118102400D02*
X35690925Y-118102400D01*
X53103926Y-95816399D02*
X53357926Y-95816399D01*
X28150925Y-119456200D02*
X28023925Y-119202200D01*
X57086625Y-105562400D02*
X57086625Y-92641399D01*
X53230926Y-95562399D02*
X53357926Y-95816399D01*
X24295225Y-93022399D02*
X24549225Y-93149399D01*
X30690925Y-118102400D02*
X30944925Y-118229400D01*
X35690925Y-118102400D02*
X35436925Y-118229400D01*
X28023925Y-119202200D02*
X28277925Y-119202200D01*
X53230926Y-115562400D02*
X53230926Y-95562399D01*
X28023925Y-91922600D02*
X28277925Y-91922600D01*
X53103926Y-115308400D02*
X53357926Y-115308400D01*
X28150925Y-91668600D02*
X28023925Y-91922600D01*
X30690925Y-118102400D02*
X30944925Y-117975400D01*
X35690925Y-118102400D02*
X35436925Y-117975400D01*
X50690926Y-119456200D02*
X27769925Y-119456200D01*
X50690926Y-95562399D02*
X53611926Y-95562399D01*
X53230926Y-115562400D02*
X53103926Y-115308400D01*
X35690925Y-115562400D02*
X35690925Y-118483400D01*
X30690925Y-115562400D02*
X30690925Y-118483400D01*
X53230926Y-115562400D02*
X53357926Y-115308400D01*
X50690926Y-91668600D02*
X27769925Y-91668600D01*
X53230926Y-95562399D02*
X53103926Y-95816399D01*
X50690926Y-115562400D02*
X53611926Y-115562400D01*
X57086625Y-93022399D02*
X56832625Y-92895399D01*
X28150925Y-91668600D02*
X28277925Y-91922600D01*
X28150925Y-119456200D02*
X28150925Y-91668600D01*
X24295225Y-93022399D02*
X24549225Y-92895399D01*
X57086625Y-93022399D02*
X56832625Y-93149399D01*
%TD*%
M02*
