%TF.GenerationSoftware,KiCad,Pcbnew,(6.0.7)*%
%TF.CreationDate,2022-08-20T21:34:52+02:00*%
%TF.ProjectId,3phaseDiverter-rounded,33706861-7365-4446-9976-65727465722d,1*%
%TF.SameCoordinates,Original*%
%TF.FileFunction,Soldermask,Bot*%
%TF.FilePolarity,Negative*%
%FSLAX46Y46*%
G04 Gerber Fmt 4.6, Leading zero omitted, Abs format (unit mm)*
G04 Created by KiCad (PCBNEW (6.0.7)) date 2022-08-20 21:34:52*
%MOMM*%
%LPD*%
G01*
G04 APERTURE LIST*
G04 Aperture macros list*
%AMRoundRect*
0 Rectangle with rounded corners*
0 $1 Rounding radius*
0 $2 $3 $4 $5 $6 $7 $8 $9 X,Y pos of 4 corners*
0 Add a 4 corners polygon primitive as box body*
4,1,4,$2,$3,$4,$5,$6,$7,$8,$9,$2,$3,0*
0 Add four circle primitives for the rounded corners*
1,1,$1+$1,$2,$3*
1,1,$1+$1,$4,$5*
1,1,$1+$1,$6,$7*
1,1,$1+$1,$8,$9*
0 Add four rect primitives between the rounded corners*
20,1,$1+$1,$2,$3,$4,$5,0*
20,1,$1+$1,$4,$5,$6,$7,0*
20,1,$1+$1,$6,$7,$8,$9,0*
20,1,$1+$1,$8,$9,$2,$3,0*%
%AMFreePoly0*
4,1,6,1.000000,0.000000,0.500000,-0.750000,-0.500000,-0.750000,-0.500000,0.750000,0.500000,0.750000,1.000000,0.000000,1.000000,0.000000,$1*%
%AMFreePoly1*
4,1,6,0.500000,-0.750000,-0.650000,-0.750000,-0.150000,0.000000,-0.650000,0.750000,0.500000,0.750000,0.500000,-0.750000,0.500000,-0.750000,$1*%
G04 Aperture macros list end*
%ADD10C,3.000000*%
%ADD11RoundRect,0.250000X0.725000X-0.600000X0.725000X0.600000X-0.725000X0.600000X-0.725000X-0.600000X0*%
%ADD12O,1.950000X1.700000*%
%ADD13C,1.600000*%
%ADD14R,4.000000X4.000000*%
%ADD15R,1.200000X1.200000*%
%ADD16C,1.200000*%
%ADD17O,1.600000X1.600000*%
%ADD18RoundRect,0.337500X-0.337500X1.012500X-0.337500X-1.012500X0.337500X-1.012500X0.337500X1.012500X0*%
%ADD19R,1.600000X1.600000*%
%ADD20R,2.200000X2.200000*%
%ADD21O,2.200000X2.200000*%
%ADD22C,4.300000*%
%ADD23R,2.000000X2.000000*%
%ADD24O,2.000000X2.000000*%
%ADD25R,1.500000X1.050000*%
%ADD26O,1.500000X1.050000*%
%ADD27C,1.500000*%
%ADD28RoundRect,0.250000X-0.600000X-0.750000X0.600000X-0.750000X0.600000X0.750000X-0.600000X0.750000X0*%
%ADD29O,1.700000X2.000000*%
%ADD30R,1.651000X1.651000*%
%ADD31C,1.651000*%
%ADD32R,1.905000X2.000000*%
%ADD33O,1.905000X2.000000*%
%ADD34RoundRect,0.249999X0.790001X1.550001X-0.790001X1.550001X-0.790001X-1.550001X0.790001X-1.550001X0*%
%ADD35O,2.080000X3.600000*%
%ADD36R,1.700000X1.700000*%
%ADD37O,1.700000X1.700000*%
%ADD38R,1.600000X2.400000*%
%ADD39O,1.600000X2.400000*%
%ADD40C,2.600000*%
%ADD41C,2.050000*%
%ADD42C,2.250000*%
%ADD43FreePoly0,0.000000*%
%ADD44FreePoly1,0.000000*%
%ADD45C,0.800000*%
G04 APERTURE END LIST*
D10*
%TO.C,FS3*%
X115700000Y-130087500D03*
X138300000Y-130087500D03*
%TD*%
D11*
%TO.C,J0*%
X110854000Y-34130000D03*
D12*
X110854000Y-31630000D03*
X110854000Y-29130000D03*
X110854000Y-26630000D03*
X110854000Y-24130000D03*
X110854000Y-21630000D03*
%TD*%
D13*
%TO.C,C13*%
X76835000Y-55920000D03*
X76835000Y-60920000D03*
%TD*%
D14*
%TO.C,TP3*%
X125272800Y-41198800D03*
%TD*%
D15*
%TO.C,C2*%
X137668000Y-41605200D03*
D16*
X139668000Y-41605200D03*
%TD*%
D13*
%TO.C,R20*%
X92075000Y-69342000D03*
D17*
X92075000Y-59182000D03*
%TD*%
D11*
%TO.C,J4*%
X90445098Y-26630000D03*
D12*
X90445098Y-24130000D03*
X90445098Y-21630000D03*
%TD*%
D18*
%TO.C,RF1*%
X23464520Y-65151000D03*
X27465020Y-42799000D03*
X29464000Y-42799000D03*
X31462980Y-42799000D03*
X27465020Y-65151000D03*
X23464520Y-42799000D03*
X33461960Y-42799000D03*
X29464000Y-65151000D03*
X25466040Y-42799000D03*
X33461960Y-65151000D03*
X31462980Y-65151000D03*
X35463480Y-42799000D03*
X35463480Y-65151000D03*
X25466040Y-65151000D03*
%TD*%
D19*
%TO.C,IC1*%
X97155000Y-45085000D03*
D17*
X94615000Y-45085000D03*
X92075000Y-45085000D03*
X89535000Y-45085000D03*
X86995000Y-45085000D03*
X84455000Y-45085000D03*
X81915000Y-45085000D03*
X79375000Y-45085000D03*
X76835000Y-45085000D03*
X74295000Y-45085000D03*
X71755000Y-45085000D03*
X69215000Y-45085000D03*
X66675000Y-45085000D03*
X64135000Y-45085000D03*
X64135000Y-52705000D03*
X66675000Y-52705000D03*
X69215000Y-52705000D03*
X71755000Y-52705000D03*
X74295000Y-52705000D03*
X76835000Y-52705000D03*
X79375000Y-52705000D03*
X81915000Y-52705000D03*
X84455000Y-52705000D03*
X86995000Y-52705000D03*
X89535000Y-52705000D03*
X92075000Y-52705000D03*
X94615000Y-52705000D03*
X97155000Y-52705000D03*
%TD*%
D10*
%TO.C,FS1*%
X19180000Y-130087500D03*
X41780000Y-130087500D03*
%TD*%
D20*
%TO.C,D6*%
X152400000Y-83185000D03*
D21*
X144780000Y-83185000D03*
%TD*%
D22*
%TO.C,REF\u002A\u002A*%
X155956000Y-31750000D03*
%TD*%
D13*
%TO.C,R1*%
X121793000Y-21590000D03*
D17*
X121793000Y-31750000D03*
%TD*%
D22*
%TO.C,REF\u002A\u002A*%
X19304000Y-120243600D03*
%TD*%
D10*
%TO.C,FS2*%
X67440000Y-130087500D03*
X90040000Y-130087500D03*
%TD*%
D13*
%TO.C,R6*%
X78968600Y-88239600D03*
D17*
X66268600Y-88239600D03*
%TD*%
D11*
%TO.C,J6*%
X76839166Y-26630000D03*
D12*
X76839166Y-24130000D03*
X76839166Y-21630000D03*
%TD*%
D14*
%TO.C,TP0*%
X154432000Y-48514000D03*
%TD*%
D13*
%TO.C,C12*%
X135168000Y-63500000D03*
X140168000Y-63500000D03*
%TD*%
D23*
%TO.C,BR1*%
X151090000Y-73239000D03*
D24*
X151090000Y-68239000D03*
X146090000Y-68239000D03*
X146090000Y-73239000D03*
%TD*%
D13*
%TO.C,R19*%
X86995000Y-69342000D03*
D17*
X86995000Y-59182000D03*
%TD*%
D25*
%TO.C,VR2*%
X129646000Y-24765000D03*
D26*
X129646000Y-23495000D03*
X129646000Y-22225000D03*
%TD*%
D13*
%TO.C,R7*%
X125603000Y-88265000D03*
D17*
X112903000Y-88265000D03*
%TD*%
D27*
%TO.C,X1*%
X78599200Y-38582600D03*
X73719200Y-38582600D03*
%TD*%
D13*
%TO.C,R10*%
X130302000Y-88265000D03*
D17*
X143002000Y-88265000D03*
%TD*%
D22*
%TO.C,REF\u002A\u002A*%
X155956000Y-120243600D03*
%TD*%
%TO.C,REF\u002A\u002A*%
X19304000Y-31750000D03*
%TD*%
D28*
%TO.C,CT2*%
X87604600Y-81491600D03*
D29*
X90104600Y-81491600D03*
%TD*%
D13*
%TO.C,R4*%
X127000000Y-83185000D03*
D17*
X116840000Y-83185000D03*
%TD*%
D30*
%TO.C,TXFR3*%
X124162925Y-115562400D03*
D31*
X144162926Y-115562400D03*
X144162926Y-95562399D03*
X139162926Y-95562399D03*
X129162925Y-95562399D03*
X124162925Y-95562399D03*
%TD*%
D11*
%TO.C,J11*%
X39403800Y-26630000D03*
D12*
X39403800Y-24130000D03*
X39403800Y-21630000D03*
%TD*%
D13*
%TO.C,R5*%
X32613600Y-88239600D03*
D17*
X19913600Y-88239600D03*
%TD*%
D32*
%TO.C,VR1*%
X142748000Y-22225000D03*
D33*
X140208000Y-22225000D03*
X137668000Y-22225000D03*
%TD*%
D13*
%TO.C,C6*%
X91770200Y-37338000D03*
X86770200Y-37338000D03*
%TD*%
D30*
%TO.C,TXFR2*%
X77376125Y-115570000D03*
D31*
X97376126Y-115570000D03*
X97376126Y-95569999D03*
X92376126Y-95569999D03*
X82376125Y-95569999D03*
X77376125Y-95569999D03*
%TD*%
D11*
%TO.C,J7*%
X70036200Y-26630000D03*
D12*
X70036200Y-24130000D03*
X70036200Y-21630000D03*
%TD*%
D20*
%TO.C,D2*%
X58013600Y-83159600D03*
D21*
X50393600Y-83159600D03*
%TD*%
D11*
%TO.C,J10*%
X46261800Y-26630000D03*
D12*
X46261800Y-24130000D03*
X46261800Y-21630000D03*
%TD*%
D14*
%TO.C,TP4*%
X41148000Y-65024000D03*
%TD*%
D34*
%TO.C,PWR1*%
X58420000Y-130087500D03*
D35*
X53340000Y-130087500D03*
X48260000Y-130087500D03*
%TD*%
D11*
%TO.C,J13*%
X25738600Y-26630000D03*
D12*
X25738600Y-24130000D03*
X25738600Y-21630000D03*
%TD*%
D13*
%TO.C,R17*%
X47625000Y-37846000D03*
D17*
X47625000Y-48006000D03*
%TD*%
D20*
%TO.C,D4*%
X105384600Y-83159600D03*
D21*
X97764600Y-83159600D03*
%TD*%
D13*
%TO.C,C7*%
X81407000Y-60920000D03*
X81407000Y-55920000D03*
%TD*%
%TO.C,R8*%
X37312600Y-88239600D03*
D17*
X50012600Y-88239600D03*
%TD*%
D11*
%TO.C,J9*%
X53119800Y-26630000D03*
D12*
X53119800Y-24130000D03*
X53119800Y-21630000D03*
%TD*%
D28*
%TO.C,J14*%
X126238000Y-67564000D03*
D29*
X128738000Y-67564000D03*
%TD*%
D15*
%TO.C,C11*%
X136695401Y-69342000D03*
D16*
X138695401Y-69342000D03*
%TD*%
D36*
%TO.C,J1*%
X110998000Y-42164000D03*
D37*
X110998000Y-39624000D03*
%TD*%
D13*
%TO.C,R18*%
X43815000Y-34925000D03*
D17*
X43815000Y-45085000D03*
%TD*%
D13*
%TO.C,R16*%
X51409600Y-40741600D03*
D17*
X51409600Y-50901600D03*
%TD*%
D32*
%TO.C,VR3*%
X138684000Y-55697000D03*
D33*
X136144000Y-55697000D03*
X133604000Y-55697000D03*
%TD*%
D34*
%TO.C,PWR2*%
X106680000Y-130087500D03*
D35*
X101600000Y-130087500D03*
X96520000Y-130087500D03*
%TD*%
D13*
%TO.C,C10*%
X71219200Y-33528000D03*
X73719200Y-33528000D03*
%TD*%
D14*
%TO.C,TP1*%
X125272800Y-52933600D03*
%TD*%
D34*
%TO.C,PWR3*%
X154940000Y-130087500D03*
D35*
X149860000Y-130087500D03*
X144780000Y-130087500D03*
%TD*%
D14*
%TO.C,TP2*%
X125272800Y-47066200D03*
%TD*%
D13*
%TO.C,R9*%
X83667600Y-88239600D03*
D17*
X96367600Y-88239600D03*
%TD*%
D11*
%TO.C,J2*%
X104051030Y-26630000D03*
D12*
X104051030Y-24130000D03*
X104051030Y-21630000D03*
%TD*%
D13*
%TO.C,R22*%
X117348000Y-21590000D03*
D17*
X117348000Y-31750000D03*
%TD*%
D20*
%TO.C,D5*%
X153670000Y-88265000D03*
D21*
X146050000Y-88265000D03*
%TD*%
D28*
%TO.C,J30*%
X137668000Y-33020000D03*
D29*
X140168000Y-33020000D03*
%TD*%
D20*
%TO.C,D1*%
X60680600Y-88239600D03*
D21*
X53060600Y-88239600D03*
%TD*%
D38*
%TO.C,IC2*%
X112989200Y-57775000D03*
D39*
X115529200Y-57775000D03*
X118069200Y-57775000D03*
X120609200Y-57775000D03*
X120609200Y-50155000D03*
X118069200Y-50155000D03*
X115529200Y-50155000D03*
X112989200Y-50155000D03*
%TD*%
D13*
%TO.C,C4*%
X137668000Y-49022000D03*
X142668000Y-49022000D03*
%TD*%
D28*
%TO.C,J20*%
X150109000Y-22606000D03*
D29*
X152609000Y-22606000D03*
%TD*%
D11*
%TO.C,J3*%
X97248064Y-26630000D03*
D12*
X97248064Y-24130000D03*
X97248064Y-21630000D03*
%TD*%
D28*
%TO.C,CT3*%
X134620000Y-81517000D03*
D29*
X137120000Y-81517000D03*
%TD*%
D13*
%TO.C,R14*%
X57785000Y-57734200D03*
D17*
X47625000Y-57734200D03*
%TD*%
D13*
%TO.C,R2*%
X32613600Y-83159600D03*
D17*
X22453600Y-83159600D03*
%TD*%
D19*
%TO.C,C1*%
X148650888Y-41148000D03*
D13*
X150650888Y-41148000D03*
%TD*%
D30*
%TO.C,TXFR1*%
X30690925Y-115562400D03*
D31*
X50690926Y-115562400D03*
X50690926Y-95562399D03*
X45690926Y-95562399D03*
X35690925Y-95562399D03*
X30690925Y-95562399D03*
%TD*%
D13*
%TO.C,R11*%
X103708200Y-60071000D03*
D17*
X103708200Y-49911000D03*
%TD*%
D11*
%TO.C,J5*%
X83642132Y-26630000D03*
D12*
X83642132Y-24130000D03*
X83642132Y-21630000D03*
%TD*%
D11*
%TO.C,J12*%
X32545800Y-26630000D03*
D12*
X32545800Y-24130000D03*
X32545800Y-21630000D03*
%TD*%
D13*
%TO.C,C5*%
X126786000Y-36830000D03*
X131786000Y-36830000D03*
%TD*%
D15*
%TO.C,C3*%
X128567401Y-30327600D03*
D16*
X130567401Y-30327600D03*
%TD*%
D40*
%TO.C,L1*%
X72794253Y-64897000D03*
X67794253Y-64897000D03*
%TD*%
D13*
%TO.C,R12*%
X107264200Y-52730400D03*
D17*
X107264200Y-62890400D03*
%TD*%
D11*
%TO.C,J8*%
X59977800Y-26630000D03*
D12*
X59977800Y-24130000D03*
X59977800Y-21630000D03*
%TD*%
D13*
%TO.C,R13*%
X61569600Y-61569600D03*
D17*
X51409600Y-61569600D03*
%TD*%
D13*
%TO.C,C9*%
X81099200Y-33604200D03*
X78599200Y-33604200D03*
%TD*%
D28*
%TO.C,CT1*%
X40253600Y-81491600D03*
D29*
X42753600Y-81491600D03*
%TD*%
D13*
%TO.C,C8*%
X121793000Y-36830000D03*
X116793000Y-36830000D03*
%TD*%
D23*
%TO.C,BR2*%
X151130000Y-59650000D03*
D24*
X151130000Y-54650000D03*
X146130000Y-54650000D03*
X146130000Y-59650000D03*
%TD*%
D41*
%TO.C,CN9*%
X23464520Y-72517000D03*
D42*
X20924520Y-69977000D03*
X26004520Y-69977000D03*
X26004520Y-75057000D03*
X20924520Y-75057000D03*
%TD*%
D13*
%TO.C,R3*%
X79984600Y-83159600D03*
D17*
X69824600Y-83159600D03*
%TD*%
D13*
%TO.C,R15*%
X53949600Y-53898800D03*
D17*
X43789600Y-53898800D03*
%TD*%
D20*
%TO.C,D3*%
X107035600Y-88239600D03*
D21*
X99415600Y-88239600D03*
%TD*%
D13*
%TO.C,R21*%
X97155000Y-69342000D03*
D17*
X97155000Y-59182000D03*
%TD*%
D43*
%TO.C,JP2*%
X109842925Y-112471200D03*
D44*
X111685525Y-112471200D03*
%TD*%
D43*
%TO.C,JP1*%
X63106925Y-112471200D03*
D44*
X64949525Y-112471200D03*
%TD*%
D45*
X155448000Y-98171000D03*
X97180400Y-62839600D03*
X83312000Y-31750000D03*
X72136000Y-42926000D03*
X73702332Y-31242000D03*
X63500000Y-35102800D03*
X83820000Y-34323866D03*
X82194400Y-41173400D03*
X71204666Y-31242000D03*
X68580000Y-36830000D03*
X79349600Y-42875200D03*
X76199998Y-31242000D03*
X81195330Y-31242000D03*
X80772000Y-42595800D03*
X68580000Y-34290000D03*
X78697664Y-31242000D03*
X89484200Y-31394400D03*
X83210400Y-28752800D03*
X70358000Y-41148000D03*
X83870800Y-39471600D03*
X83820000Y-36897732D03*
X69088000Y-31750000D03*
X68580000Y-39370000D03*
X73245500Y-42926000D03*
X58902600Y-35153600D03*
X77884500Y-42900600D03*
D16*
X113030000Y-73025000D03*
X113030000Y-77724000D03*
D45*
X48107600Y-32537400D03*
X68453000Y-48006000D03*
X79121000Y-68580000D03*
D16*
X108051600Y-75133200D03*
X60604400Y-75311000D03*
M02*
