M48
; DRILL file {KiCad (6.0.7)} date Sat Aug 20 21:34:53 2022
; FORMAT={-:-/ absolute / inch / decimal}
; #@! TF.CreationDate,2022-08-20T21:34:53+02:00
; #@! TF.GenerationSoftware,Kicad,Pcbnew,(6.0.7)
; #@! TF.FileFunction,Plated,1,2,PTH
FMAT,2
INCH
; #@! TA.AperFunction,Plated,PTH,ViaDrill
T1C0.0157
; #@! TA.AperFunction,Plated,PTH,ComponentDrill
T2C0.0236
; #@! TA.AperFunction,Plated,PTH,ComponentDrill
T3C0.0295
; #@! TA.AperFunction,Plated,PTH,ViaDrill
T4C0.0315
; #@! TA.AperFunction,Plated,PTH,ComponentDrill
T5C0.0315
; #@! TA.AperFunction,Plated,PTH,ComponentDrill
T6C0.0335
; #@! TA.AperFunction,Plated,PTH,ComponentDrill
T7C0.0374
; #@! TA.AperFunction,Plated,PTH,ComponentDrill
T8C0.0394
; #@! TA.AperFunction,Plated,PTH,ComponentDrill
T9C0.0433
; #@! TA.AperFunction,Plated,PTH,ComponentDrill
T10C0.0450
; #@! TA.AperFunction,Plated,PTH,ComponentDrill
T11C0.0512
; #@! TA.AperFunction,Plated,PTH,ComponentDrill
T12C0.0551
; #@! TA.AperFunction,Plated,PTH,ComponentDrill
T13C0.0591
; #@! TA.AperFunction,Plated,PTH,ComponentDrill
T14C0.0669
; #@! TA.AperFunction,Plated,PTH,ComponentDrill
T15C0.0787
%
G90
G05
T1
X1.894Y-1.281
X2.319Y-1.384
X2.5Y-1.382
X2.695Y-1.89
X2.7Y-1.35
X2.7Y-1.45
X2.7Y-1.55
X2.72Y-1.25
X2.77Y-1.62
X2.8033Y-1.23
X2.84Y-1.69
X2.8837Y-1.69
X2.9017Y-1.23
X3.0Y-1.23
X3.0663Y-1.689
X3.0983Y-1.23
X3.115Y-2.7
X3.124Y-1.688
X3.18Y-1.677
X3.1967Y-1.23
X3.236Y-1.621
X3.276Y-1.132
X3.28Y-1.25
X3.3Y-1.3513
X3.3Y-1.4527
X3.302Y-1.554
X3.523Y-1.236
X3.826Y-2.474
X6.12Y-3.865
T2
X0.9238Y-1.685
X0.9238Y-2.565
X1.0026Y-1.685
X1.0026Y-2.565
X1.0813Y-1.685
X1.0813Y-2.565
X1.16Y-1.685
X1.16Y-2.565
X1.2387Y-1.685
X1.2387Y-2.565
X1.3174Y-1.685
X1.3174Y-2.565
X1.3962Y-1.685
X1.3962Y-2.565
X5.0617Y-1.194
X5.1404Y-1.194
X5.3817Y-2.73
X5.42Y-1.638
X5.4604Y-2.73
X5.4987Y-1.638
T3
X5.1042Y-0.875
X5.1042Y-0.925
X5.1042Y-0.975
T4
X2.386Y-2.965
X4.254Y-2.958
X4.45Y-2.875
X4.45Y-3.06
T5
X0.784Y-3.474
X0.884Y-3.274
X1.284Y-3.274
X1.284Y-3.474
X1.469Y-3.474
X1.724Y-2.122
X1.725Y-1.375
X1.725Y-1.775
X1.875Y-1.49
X1.875Y-1.89
X1.875Y-2.273
X1.969Y-3.474
X2.024Y-1.604
X2.024Y-2.004
X2.024Y-2.424
X2.124Y-2.122
X2.275Y-2.273
X2.424Y-2.424
X2.525Y-1.775
X2.525Y-2.075
X2.609Y-3.474
X2.625Y-1.775
X2.625Y-2.075
X2.725Y-1.775
X2.725Y-2.075
X2.749Y-3.274
X2.8039Y-1.32
X2.825Y-1.775
X2.825Y-2.075
X2.9023Y-1.32
X2.9023Y-1.519
X2.925Y-1.775
X2.925Y-2.075
X3.025Y-1.775
X3.025Y-2.075
X3.025Y-2.2016
X3.025Y-2.3984
X3.0945Y-1.323
X3.0945Y-1.519
X3.109Y-3.474
X3.125Y-1.775
X3.125Y-2.075
X3.149Y-3.274
X3.1929Y-1.323
X3.205Y-2.2016
X3.205Y-2.3984
X3.225Y-1.775
X3.225Y-2.075
X3.294Y-3.474
X3.325Y-1.775
X3.325Y-2.075
X3.4161Y-1.47
X3.425Y-1.775
X3.425Y-2.075
X3.425Y-2.33
X3.425Y-2.73
X3.525Y-1.775
X3.525Y-2.075
X3.613Y-1.47
X3.625Y-1.775
X3.625Y-2.075
X3.625Y-2.33
X3.625Y-2.73
X3.725Y-1.775
X3.725Y-2.075
X3.794Y-3.474
X3.825Y-1.775
X3.825Y-2.075
X3.825Y-2.33
X3.825Y-2.73
X4.083Y-1.965
X4.083Y-2.365
X4.223Y-2.076
X4.223Y-2.476
X4.445Y-3.475
X4.4484Y-1.9746
X4.4484Y-2.2746
X4.5484Y-1.9746
X4.5484Y-2.2746
X4.5981Y-1.45
X4.6Y-3.275
X4.62Y-0.85
X4.62Y-1.25
X4.6484Y-1.9746
X4.6484Y-2.2746
X4.7484Y-1.9746
X4.7484Y-2.2746
X4.795Y-0.85
X4.795Y-1.25
X4.795Y-1.45
X4.945Y-3.475
X4.9916Y-1.45
X5.0Y-3.275
X5.13Y-3.475
X5.1884Y-1.45
X5.3216Y-2.5
X5.42Y-1.93
X5.5184Y-2.5
X5.6169Y-1.93
X5.63Y-3.475
X5.8524Y-1.62
X5.9311Y-1.62
T6
X4.37Y-1.56
X4.37Y-1.66
T7
X1.0133Y-0.8516
X1.0133Y-0.95
X1.0133Y-1.0484
X1.2813Y-0.8516
X1.2813Y-0.95
X1.2813Y-1.0484
X1.5513Y-0.8516
X1.5513Y-0.95
X1.5513Y-1.0484
X1.8213Y-0.8516
X1.8213Y-0.95
X1.8213Y-1.0484
X2.0913Y-0.8516
X2.0913Y-0.95
X2.0913Y-1.0484
X2.3613Y-0.8516
X2.3613Y-0.95
X2.3613Y-1.0484
X2.7573Y-0.8516
X2.7573Y-0.95
X2.7573Y-1.0484
X3.0252Y-0.8516
X3.0252Y-0.95
X3.0252Y-1.0484
X3.293Y-0.8516
X3.293Y-0.95
X3.293Y-1.0484
X3.5608Y-0.8516
X3.5608Y-0.95
X3.5608Y-1.0484
X3.8287Y-0.8516
X3.8287Y-0.95
X3.8287Y-1.0484
X4.0965Y-0.8516
X4.0965Y-0.95
X4.0965Y-1.0484
X4.3643Y-0.8516
X4.3643Y-0.95
X4.3643Y-1.0484
X4.3643Y-1.1469
X4.3643Y-1.2453
X4.3643Y-1.3437
T8
X1.5848Y-3.2083
X1.6832Y-3.2083
X3.449Y-3.2083
X3.5474Y-3.2083
X4.97Y-2.66
X5.0684Y-2.66
X5.3Y-3.2093
X5.3984Y-3.2093
X5.42Y-1.3
X5.5184Y-1.3
X5.7516Y-2.6866
X5.7516Y-2.8834
X5.7531Y-2.1516
X5.7531Y-2.3484
X5.9098Y-0.89
X5.9484Y-2.6866
X5.9484Y-2.8834
X5.95Y-2.1516
X5.95Y-2.3484
X6.0082Y-0.89
T9
X1.984Y-3.274
X2.089Y-3.474
X2.284Y-3.274
X2.389Y-3.474
X3.849Y-3.274
X3.914Y-3.474
X4.149Y-3.274
X4.214Y-3.474
X5.26Y-2.1928
X5.36Y-2.1928
X5.42Y-0.875
X5.46Y-2.1928
X5.52Y-0.875
X5.62Y-0.875
X5.7Y-3.275
X5.75Y-3.475
X6.0Y-3.275
X6.05Y-3.475
T10
X1.2083Y-3.7623
X1.2083Y-4.5497
X1.4052Y-3.7623
X1.7989Y-3.7623
X1.9957Y-3.7623
X1.9957Y-4.5497
X3.0463Y-3.7626
X3.0463Y-4.55
X3.2432Y-3.7626
X3.6369Y-3.7626
X3.8337Y-3.7626
X3.8337Y-4.55
X4.8883Y-3.7623
X4.8883Y-4.5497
X5.0852Y-3.7623
X5.4789Y-3.7623
X5.6757Y-3.7623
X5.6757Y-4.5497
T11
X2.6691Y-2.555
X2.8659Y-2.555
T12
X1.9Y-5.1216
X2.1Y-5.1216
X2.3Y-5.1216
X3.8Y-5.1216
X4.0Y-5.1216
X4.2Y-5.1216
X5.7Y-5.1216
X5.9Y-5.1216
X6.1Y-5.1216
T13
X0.7551Y-5.1216
X0.9238Y-2.855
X1.6449Y-5.1216
X2.6551Y-5.1216
X3.5449Y-5.1216
X4.5551Y-5.1216
X5.4449Y-5.1216
T14
X0.8238Y-2.755
X0.8238Y-2.955
X1.0238Y-2.755
X1.0238Y-2.955
T15
X1.62Y-2.56
X4.932Y-1.622
X4.932Y-1.853
X4.932Y-2.084
X6.08Y-1.91
T0
M30
